<svg width="52" height="52" viewBox="0 0 52 52" fill="none" xmlns="http://www.w3.org/2000/svg">
<g clip-path="url(#clip0_496_4059)">
<path d="M37.375 0H14.625C13.763 0 12.9364 0.34241 12.3269 0.951903C11.7174 1.5614 11.375 2.38805 11.375 3.25V48.75C11.375 49.612 11.7174 50.4386 12.3269 51.0481C12.9364 51.6576 13.763 52 14.625 52H37.375C38.237 52 39.0636 51.6576 39.6731 51.0481C40.2826 50.4386 40.625 49.612 40.625 48.75V3.25C40.625 2.38805 40.2826 1.5614 39.6731 0.951903C39.0636 0.34241 38.237 0 37.375 0V0ZM18.6875 2.4375H20.3125V3.25C20.3125 3.46549 20.3981 3.67215 20.5505 3.82452C20.7028 3.9769 20.9095 4.0625 21.125 4.0625H30.875C31.0905 4.0625 31.2972 3.9769 31.4495 3.82452C31.6019 3.67215 31.6875 3.46549 31.6875 3.25V2.4375H33.3125V3.25C33.3125 3.89647 33.0557 4.51645 32.5986 4.97357C32.1415 5.43069 31.5215 5.6875 30.875 5.6875H21.125C20.4785 5.6875 19.8585 5.43069 19.4014 4.97357C18.9443 4.51645 18.6875 3.89647 18.6875 3.25V2.4375ZM25.1875 10.5625C25.1875 10.7232 25.1398 10.8803 25.0506 11.0139C24.9613 11.1475 24.8344 11.2517 24.6859 11.3132C24.5375 11.3746 24.3741 11.3907 24.2165 11.3594C24.0589 11.328 23.9141 11.2507 23.8005 11.137C23.6868 11.0234 23.6095 10.8786 23.5781 10.721C23.5468 10.5634 23.5629 10.4 23.6243 10.2516C23.6858 10.1031 23.79 9.97621 23.9236 9.88693C24.0572 9.79765 24.2143 9.75 24.375 9.75C24.5905 9.75 24.7972 9.8356 24.9495 9.98798C25.1019 10.1403 25.1875 10.347 25.1875 10.5625ZM17.875 49.5625H16.25C15.6035 49.5625 14.9835 49.3057 14.5264 48.8486C14.0693 48.3915 13.8125 47.7715 13.8125 47.125V45.5H15.4375V47.125C15.4375 47.3405 15.5231 47.5472 15.6755 47.6995C15.8278 47.8519 16.0345 47.9375 16.25 47.9375H17.875V49.5625ZM17.875 36.5625C17.3929 36.5625 16.9216 36.4195 16.5208 36.1517C16.12 35.8839 15.8075 35.5032 15.623 35.0578C15.4386 34.6124 15.3903 34.1223 15.4843 33.6495C15.5784 33.1766 15.8105 32.7423 16.1514 32.4014C16.4923 32.0605 16.9266 31.8284 17.3995 31.7343C17.8723 31.6403 18.3624 31.6886 18.8078 31.873C19.2532 32.0575 19.6339 32.37 19.9017 32.7708C20.1695 33.1716 20.3125 33.6429 20.3125 34.125C20.3125 34.7715 20.0557 35.3915 19.5986 35.8486C19.1415 36.3057 18.5215 36.5625 17.875 36.5625ZM17.875 28.4375C17.3929 28.4375 16.9216 28.2945 16.5208 28.0267C16.12 27.7589 15.8075 27.3782 15.623 26.9328C15.4386 26.4874 15.3903 25.9973 15.4843 25.5245C15.5784 25.0516 15.8105 24.6173 16.1514 24.2764C16.4923 23.9355 16.9266 23.7034 17.3995 23.6093C17.8723 23.5153 18.3624 23.5636 18.8078 23.748C19.2532 23.9325 19.6339 24.245 19.9017 24.6458C20.1695 25.0466 20.3125 25.5179 20.3125 26C20.3125 26.6465 20.0557 27.2665 19.5986 27.7236C19.1415 28.1807 18.5215 28.4375 17.875 28.4375ZM17.875 20.3125C17.3929 20.3125 16.9216 20.1695 16.5208 19.9017C16.12 19.6339 15.8075 19.2532 15.623 18.8078C15.4386 18.3624 15.3903 17.8723 15.4843 17.3995C15.5784 16.9266 15.8105 16.4923 16.1514 16.1514C16.4923 15.8105 16.9266 15.5784 17.3995 15.4843C17.8723 15.3903 18.3624 15.4386 18.8078 15.623C19.2532 15.8075 19.6339 16.12 19.9017 16.5208C20.1695 16.9216 20.3125 17.3929 20.3125 17.875C20.3125 18.5215 20.0557 19.1415 19.5986 19.5986C19.1415 20.0557 18.5215 20.3125 17.875 20.3125ZM21.125 11.375C20.9643 11.375 20.8072 11.3273 20.6736 11.2381C20.54 11.1488 20.4358 11.0219 20.3743 10.8734C20.3129 10.725 20.2968 10.5616 20.3281 10.404C20.3595 10.2464 20.4368 10.1016 20.5505 9.98798C20.6641 9.87435 20.8089 9.79696 20.9665 9.76561C21.1241 9.73426 21.2875 9.75035 21.4359 9.81185C21.5844 9.87334 21.7113 9.97748 21.8006 10.1111C21.8898 10.2447 21.9375 10.4018 21.9375 10.5625C21.9375 10.778 21.8519 10.9847 21.6995 11.137C21.5472 11.2894 21.3405 11.375 21.125 11.375ZM26 44.6875C25.5179 44.6875 25.0466 44.5445 24.6458 44.2767C24.245 44.0089 23.9325 43.6282 23.748 43.1828C23.5636 42.7374 23.5153 42.2473 23.6093 41.7745C23.7034 41.3016 23.9355 40.8673 24.2764 40.5264C24.6173 40.1855 25.0516 39.9534 25.5245 39.8593C25.9973 39.7653 26.4874 39.8136 26.9328 39.998C27.3782 40.1825 27.7589 40.495 28.0267 40.8958C28.2945 41.2966 28.4375 41.7679 28.4375 42.25C28.4375 42.8965 28.1807 43.5165 27.7236 43.9736C27.2665 44.4307 26.6465 44.6875 26 44.6875ZM26 36.5625C25.5179 36.5625 25.0466 36.4195 24.6458 36.1517C24.245 35.8839 23.9325 35.5032 23.748 35.0578C23.5636 34.6124 23.5153 34.1223 23.6093 33.6495C23.7034 33.1766 23.9355 32.7423 24.2764 32.4014C24.6173 32.0605 25.0516 31.8284 25.5245 31.7343C25.9973 31.6403 26.4874 31.6886 26.9328 31.873C27.3782 32.0575 27.7589 32.37 28.0267 32.7708C28.2945 33.1716 28.4375 33.6429 28.4375 34.125C28.4375 34.7715 28.1807 35.3915 27.7236 35.8486C27.2665 36.3057 26.6465 36.5625 26 36.5625ZM26 28.4375C25.5179 28.4375 25.0466 28.2945 24.6458 28.0267C24.245 27.7589 23.9325 27.3782 23.748 26.9328C23.5636 26.4874 23.5153 25.9973 23.6093 25.5245C23.7034 25.0516 23.9355 24.6173 24.2764 24.2764C24.6173 23.9355 25.0516 23.7034 25.5245 23.6093C25.9973 23.5153 26.4874 23.5636 26.9328 23.748C27.3782 23.9325 27.7589 24.245 28.0267 24.6458C28.2945 25.0466 28.4375 25.5179 28.4375 26C28.4375 26.6465 28.1807 27.2665 27.7236 27.7236C27.2665 28.1807 26.6465 28.4375 26 28.4375ZM26 20.3125C25.5179 20.3125 25.0466 20.1695 24.6458 19.9017C24.245 19.6339 23.9325 19.2532 23.748 18.8078C23.5636 18.3624 23.5153 17.8723 23.6093 17.3995C23.7034 16.9266 23.9355 16.4923 24.2764 16.1514C24.6173 15.8105 25.0516 15.5784 25.5245 15.4843C25.9973 15.3903 26.4874 15.4386 26.9328 15.623C27.3782 15.8075 27.7589 16.12 28.0267 16.5208C28.2945 16.9216 28.4375 17.3929 28.4375 17.875C28.4375 18.5215 28.1807 19.1415 27.7236 19.5986C27.2665 20.0557 26.6465 20.3125 26 20.3125ZM27.625 11.375C27.4643 11.375 27.3072 11.3273 27.1736 11.2381C27.04 11.1488 26.9358 11.0219 26.8743 10.8734C26.8129 10.725 26.7968 10.5616 26.8281 10.404C26.8595 10.2464 26.9368 10.1016 27.0505 9.98798C27.1641 9.87435 27.3089 9.79696 27.4665 9.76561C27.6241 9.73426 27.7875 9.75035 27.9359 9.81185C28.0844 9.87334 28.2113 9.97748 28.3006 10.1111C28.3898 10.2447 28.4375 10.4018 28.4375 10.5625C28.4375 10.778 28.3519 10.9847 28.1995 11.137C28.0472 11.2894 27.8405 11.375 27.625 11.375ZM30.875 11.375C30.7143 11.375 30.5572 11.3273 30.4236 11.2381C30.29 11.1488 30.1858 11.0219 30.1243 10.8734C30.0629 10.725 30.0468 10.5616 30.0781 10.404C30.1095 10.2464 30.1868 10.1016 30.3005 9.98798C30.4141 9.87435 30.5589 9.79696 30.7165 9.76561C30.8741 9.73426 31.0375 9.75035 31.1859 9.81185C31.3344 9.87334 31.4613 9.97748 31.5506 10.1111C31.6398 10.2447 31.6875 10.4018 31.6875 10.5625C31.6875 10.778 31.6019 10.9847 31.4495 11.137C31.2972 11.2894 31.0905 11.375 30.875 11.375ZM34.125 36.5625C33.6429 36.5625 33.1716 36.4195 32.7708 36.1517C32.37 35.8839 32.0575 35.5032 31.873 35.0578C31.6886 34.6124 31.6403 34.1223 31.7343 33.6495C31.8284 33.1766 32.0605 32.7423 32.4014 32.4014C32.7423 32.0605 33.1766 31.8284 33.6495 31.7343C34.1223 31.6403 34.6124 31.6886 35.0578 31.873C35.5032 32.0575 35.8839 32.37 36.1517 32.7708C36.4195 33.1716 36.5625 33.6429 36.5625 34.125C36.5625 34.7715 36.3057 35.3915 35.8486 35.8486C35.3915 36.3057 34.7715 36.5625 34.125 36.5625ZM34.125 28.4375C33.6429 28.4375 33.1716 28.2945 32.7708 28.0267C32.37 27.7589 32.0575 27.3782 31.873 26.9328C31.6886 26.4874 31.6403 25.9973 31.7343 25.5245C31.8284 25.0516 32.0605 24.6173 32.4014 24.2764C32.7423 23.9355 33.1766 23.7034 33.6495 23.6093C34.1223 23.5153 34.6124 23.5636 35.0578 23.748C35.5032 23.9325 35.8839 24.245 36.1517 24.6458C36.4195 25.0466 36.5625 25.5179 36.5625 26C36.5625 26.6465 36.3057 27.2665 35.8486 27.7236C35.3915 28.1807 34.7715 28.4375 34.125 28.4375ZM34.125 20.3125C33.6429 20.3125 33.1716 20.1695 32.7708 19.9017C32.37 19.6339 32.0575 19.2532 31.873 18.8078C31.6886 18.3624 31.6403 17.8723 31.7343 17.3995C31.8284 16.9266 32.0605 16.4923 32.4014 16.1514C32.7423 15.8105 33.1766 15.5784 33.6495 15.4843C34.1223 15.3903 34.6124 15.4386 35.0578 15.623C35.5032 15.8075 35.8839 16.12 36.1517 16.5208C36.4195 16.9216 36.5625 17.3929 36.5625 17.875C36.5625 18.5215 36.3057 19.1415 35.8486 19.5986C35.3915 20.0557 34.7715 20.3125 34.125 20.3125Z" fill="white"/>
</g>
<defs>
<clipPath id="clip0_496_4059">
<rect width="52" height="52" fill="white"/>
</clipPath>
</defs>
</svg>
