<svg width="28" height="29" viewBox="0 0 28 29" fill="none" xmlns="http://www.w3.org/2000/svg">
<g clip-path="url(#clip0_286_3323)">
<path d="M27.2574 6.82112L21.2917 0.606895C20.9188 0.218471 20.413 0 19.8857 0H1.9886C0.890422 0 0 0.927523 0 2.07145V26.9286C0 28.0735 0.890422 29.0001 1.9886 29.0001H25.8515C26.9496 29.0001 27.8401 28.0736 27.8401 26.9286V8.28575C27.84 7.73647 27.6303 7.20954 27.2574 6.82112ZM13.92 8.28575C16.1135 8.28575 17.8972 10.1438 17.8972 12.4286C17.8972 14.7135 16.1134 16.5714 13.92 16.5714C11.7266 16.5714 9.94291 14.7134 9.94291 12.4286C9.94284 10.1437 11.7266 8.28575 13.92 8.28575ZM20.88 22.7857H6.96002V20.7143C6.96002 19.279 7.91546 18.0319 9.51662 17.3775C12.0897 16.3236 15.7494 16.3236 18.3244 17.3775C19.9246 18.0319 20.8801 19.279 20.8801 20.7143V22.7857H20.88ZM21.8743 8.28575C20.776 8.28575 19.8857 7.35822 19.8857 6.21429V2.07145L25.8514 8.28575H21.8743Z" fill="white"/>
</g>
<defs>
<clipPath id="clip0_286_3323">
<rect width="27.84" height="29" fill="white"/>
</clipPath>
</defs>
</svg>
