<svg width="29" height="29" viewBox="0 0 29 29" fill="none" xmlns="http://www.w3.org/2000/svg">
<g clip-path="url(#clip0_286_3966)">
<path d="M21.2968 10.2522C17.0804 10.2522 13.6504 13.6822 13.6504 17.8986C13.6504 22.115 17.0803 25.545 21.2968 25.545C25.5132 25.545 28.9998 22.115 28.9998 17.8986C28.9998 13.6822 25.5133 10.2522 21.2968 10.2522ZM22.1687 21.9931C22.1614 21.9958 22.1537 21.9946 22.1463 21.9971V22.9962C22.1463 23.4658 21.7663 23.8458 21.2967 23.8458C20.8271 23.8458 20.4471 23.4658 20.4471 22.9962V21.9913C19.8875 21.8023 19.3514 21.4435 18.893 20.8971C18.591 20.5378 18.6375 20.0018 18.9976 19.7007C19.3569 19.3987 19.8945 19.4451 20.194 19.8052C20.6437 20.3404 21.1523 20.5528 21.5871 20.3968C21.9215 20.2748 22.1463 19.9537 22.1463 19.5978C22.1463 19.1291 21.7655 18.7482 21.2967 18.7482C19.8912 18.7482 18.7479 17.6049 18.7479 16.1994C18.7479 15.1731 19.3586 14.2513 20.3036 13.8515C20.3504 13.8316 20.4 13.8328 20.4472 13.8159V12.8011C20.4472 12.3314 20.8272 11.9514 21.2968 11.9514C21.7664 11.9514 22.1464 12.3314 22.1464 12.8011V13.8174C22.5863 13.966 23.0153 14.2023 23.3984 14.5733C23.7352 14.8994 23.7435 15.437 23.4166 15.7747C23.0905 16.1115 22.552 16.119 22.2152 15.7929C21.802 15.3922 21.3448 15.2544 20.9665 15.4163C20.6512 15.5498 20.4471 15.8568 20.4471 16.1995C20.4471 16.6683 20.8279 17.0491 21.2967 17.0491C22.7022 17.0491 23.8455 18.1924 23.8455 19.5979C23.8456 20.6656 23.1718 21.628 22.1687 21.9931Z" fill="white"/>
<path d="M0.849609 18.7482C0.380002 18.7482 0 19.1282 0 19.5978V28.1505C0 28.6201 0.380002 29.0001 0.849609 29.0001H3.39838V18.7482H0.849609Z" fill="white"/>
<path d="M20.15 5.30292L14.2028 0.20532C13.8858 -0.0684807 13.4146 -0.0684807 13.0976 0.20532L7.15047 5.30292C6.88001 5.53356 6.78293 5.90858 6.90652 6.24213C7.02931 6.57569 7.34707 6.79721 7.70305 6.79721H10.2518C10.2518 14.1423 10.2518 21.6545 10.2518 29.0001C12.4405 29.0001 13.9537 29.0001 16.199 29.0001C16.6686 29.0001 17.0486 28.6201 17.0486 28.1504V26.2125C14.0273 24.6623 11.951 21.5216 11.951 17.8987C11.951 14.2758 14.0274 11.135 17.0486 9.58478V6.79727H19.5974C19.9533 6.79727 20.2712 6.57575 20.394 6.24219C20.5176 5.90858 20.4205 5.53356 20.15 5.30292Z" fill="white"/>
<path d="M6.00391 11.9514C5.5343 11.9514 5.1543 12.3314 5.1543 12.8011V18.7483V29C6.39529 29 7.34776 29 8.55268 29V11.9514H6.00391Z" fill="white"/>
</g>
<defs>
<clipPath id="clip0_286_3966">
<rect width="29" height="29" fill="white"/>
</clipPath>
</defs>
</svg>
