<svg width="28" height="28" viewBox="0 0 28 28" fill="none" xmlns="http://www.w3.org/2000/svg">
<path d="M14 17.3885C13.3104 17.3885 12.6734 17.0895 12.2121 16.594C10.7016 16.9211 9.89844 17.6549 9.89844 18.1017C9.89844 18.7706 11.4966 19.7423 14 19.7423C16.5034 19.7423 18.1016 18.7706 18.1016 18.1017C18.1016 17.655 17.2984 16.9212 15.7879 16.594C15.3265 17.0895 14.6896 17.3885 14 17.3885Z" fill="white"/>
<path d="M2.46094 9.84375C2.00791 9.84375 1.64062 10.2109 1.64062 10.6641V23.0781H26.3594V10.6641C26.3594 10.2109 25.9921 9.84375 25.5391 9.84375H21.5154C20.7539 11.5869 19.3983 13.0412 17.6337 13.9141L16.7984 15.1667C18.6042 15.7156 19.7422 16.8306 19.7422 18.1016C19.7422 19.9721 17.2733 21.3828 14 21.3828C10.7267 21.3828 8.25781 19.9721 8.25781 18.1016C8.25781 16.8306 9.39575 15.7156 11.2017 15.1666L10.3671 13.9149C8.60185 13.0414 7.24615 11.5872 6.48457 9.84375H2.46094Z" fill="white"/>
<path d="M27.1797 24.7188H0.820312C0.367281 24.7188 0 25.0859 0 25.5391V26.3594C0 27.2654 0.734508 28 1.64062 28H26.3594C27.2655 28 28 27.2654 28 26.3594V25.5391C28 25.0859 27.6327 24.7188 27.1797 24.7188Z" fill="white"/>
<path d="M14 9.02344C15.3591 9.02344 16.4609 7.92164 16.4609 6.5625C16.4609 5.20336 15.3591 4.10156 14 4.10156C12.6409 4.10156 11.5391 5.20336 11.5391 6.5625C11.5391 7.92164 12.6409 9.02344 14 9.02344Z" fill="white"/>
<path d="M20.5625 6.5625C20.5625 2.94399 17.6185 0 14 0C10.3815 0 7.4375 2.94399 7.4375 6.5625C7.4375 9.21249 9.02125 11.5885 11.4741 12.6171L13.3174 15.3824C13.4696 15.6108 13.726 15.7478 13.9999 15.7478C14.2739 15.7478 14.5303 15.6108 14.6824 15.3824L16.5257 12.6171L16.5266 12.6163C18.9779 11.5885 20.5625 9.21249 20.5625 6.5625ZM14 10.6641C11.7385 10.6641 9.89844 8.82399 9.89844 6.5625C9.89844 4.30101 11.7385 2.46094 14 2.46094C16.2615 2.46094 18.1016 4.30101 18.1016 6.5625C18.1016 8.82399 16.2615 10.6641 14 10.6641Z" fill="white"/>
</svg>
