<svg width="25" height="25" viewBox="0 0 25 25" fill="none" xmlns="http://www.w3.org/2000/svg">
<g clip-path="url(#clip0_496_4243)">
<path d="M0.546875 11.0157V23.4529L8.5422 17.2344L0.546875 11.0157Z" fill="#006AD5"/>
<path d="M21.4062 7.78015V11.604L23.7675 9.76751L21.4062 7.78015Z" fill="#006AD5"/>
<path d="M12.9526 0.665129C12.6909 0.444957 12.3087 0.444957 12.0471 0.665129L10.1826 2.23436H14.817L12.9526 0.665129Z" fill="#006AD5"/>
<path d="M3.59366 7.78015L1.23242 9.76751L3.59366 11.604V7.78015Z" fill="#006AD5"/>
<path d="M9.92871 17.9375L1.49121 24.5H23.5088L15.0713 17.9375H9.92871Z" fill="#006AD5"/>
<path d="M16.4575 17.2344L24.4529 23.453V11.0157L16.4575 17.2344Z" fill="#006AD5"/>
<path d="M12.3228 8.90771C11.7525 8.90771 11.1626 9.46225 11.1626 10.3902C11.1626 11.3336 11.738 11.9673 12.2755 11.9673C12.8415 11.9673 13.3056 11.3051 13.339 10.4725L13.3398 10.2958C13.3146 9.47434 12.9035 8.90771 12.3228 8.90771Z" fill="#006AD5"/>
<path d="M15.0713 16.5312L20 12.6978V4.34375C20 3.95544 19.6852 3.64062 19.2969 3.64062H5.70312C5.31481 3.64062 5 3.95544 5 4.34375V12.6978L9.92872 16.5312H15.0713ZM7.54334 11.7457C7.20758 10.469 7.37642 9.12317 8.01884 7.95603C8.66098 6.78931 9.70742 5.92625 10.9654 5.5258C12.2926 5.10322 13.7018 5.22772 14.9332 5.87633C16.1649 6.52498 17.0647 7.61605 17.4668 8.94856C17.469 8.95578 17.4711 8.96309 17.473 8.97041C17.7403 9.97166 17.6612 10.9168 17.2164 12.035C16.9158 12.7909 16.1788 13.5985 15.0118 13.5985C14.5885 13.5985 14.1825 13.4249 13.8687 13.1096C13.7945 13.0349 13.7276 12.9537 13.6677 12.8675C13.2736 13.1881 12.7957 13.3735 12.2755 13.3735C11.5959 13.3735 10.9351 13.0436 10.4627 12.4684C10.0071 11.9137 9.75631 11.1757 9.75631 10.3901C9.75631 9.60102 10.0232 8.87084 10.5079 8.33417C10.9858 7.80495 11.6474 7.50139 12.3228 7.50139C12.6943 7.50139 13.0473 7.58994 13.3645 7.75677C13.426 7.43084 13.7117 7.18461 14.0548 7.18461H14.0584C14.4467 7.18653 14.7599 7.50289 14.758 7.8912L14.7387 11.7975C14.738 11.9175 14.7855 12.0371 14.8655 12.1175C14.8932 12.1454 14.9491 12.1922 15.0118 12.1922C15.5792 12.1922 15.8288 11.7188 15.9097 11.5153C16.2381 10.6895 16.3004 10.0393 16.1172 9.34386C15.8232 8.37983 15.1703 7.5905 14.278 7.12053C13.3825 6.64888 12.3574 6.55845 11.392 6.86572C9.48889 7.47153 8.39577 9.45791 8.90338 11.3879C9.32488 12.9907 10.7736 14.142 12.4265 14.1877C12.8146 14.1985 13.1207 14.5219 13.1099 14.91C13.0993 15.2916 12.7867 15.5937 12.4074 15.5937C12.4008 15.5937 12.3943 15.5936 12.3876 15.5934C11.298 15.5633 10.2224 15.1762 9.35891 14.5035C8.46181 13.8047 7.83406 12.851 7.54334 11.7457Z" fill="#006AD5"/>
</g>
<defs>
<clipPath id="clip0_496_4243">
<rect width="24" height="24" fill="white" transform="translate(0.5 0.5)"/>
</clipPath>
</defs>
</svg>
