<svg width="25" height="24" viewBox="0 0 25 24" fill="none" xmlns="http://www.w3.org/2000/svg">
<path d="M12.5 16.9219C15.2139 16.9219 17.4219 14.7139 17.4219 12V4.92188C17.4219 2.20795 15.2139 0 12.5 0C9.78608 0 7.57812 2.20795 7.57812 4.92188V12C7.57812 14.7139 9.78608 16.9219 12.5 16.9219Z" fill="#006AD5"/>
<path d="M19.5312 9.89062C19.1429 9.89062 18.8281 10.2054 18.8281 10.5938V12C18.8281 15.4893 15.9893 18.3281 12.5 18.3281C9.01067 18.3281 6.17188 15.4893 6.17188 12V10.5938C6.17188 10.2054 5.85706 9.89062 5.46875 9.89062C5.08044 9.89062 4.76562 10.2054 4.76562 10.5938V12C4.76562 16.0277 7.86045 19.3456 11.7969 19.7021V22.5938H8.28125C7.89294 22.5938 7.57812 22.9086 7.57812 23.2969C7.57812 23.6852 7.89294 24 8.28125 24H16.7188C17.1071 24 17.4219 23.6852 17.4219 23.2969C17.4219 22.9086 17.1071 22.5938 16.7188 22.5938H13.2031V19.7021C17.1395 19.3456 20.2344 16.0277 20.2344 12V10.5938C20.2344 10.2054 19.9196 9.89062 19.5312 9.89062Z" fill="#006AD5"/>
<path d="M5.46875 7.07812C5.85706 7.07812 6.17188 6.76331 6.17188 6.375V2.85938C6.17188 2.47106 5.85706 2.15625 5.46875 2.15625C5.08044 2.15625 4.76562 2.47106 4.76562 2.85938V6.375C4.76562 6.76331 5.08044 7.07812 5.46875 7.07812Z" fill="#006AD5"/>
<path d="M2.65625 0C2.26794 0 1.95312 0.314812 1.95312 0.703125V8.48438C1.95312 8.87269 2.26794 9.1875 2.65625 9.1875C3.04456 9.1875 3.35938 8.87269 3.35938 8.48438V0.703125C3.35938 0.314812 3.04456 0 2.65625 0Z" fill="#006AD5"/>
<path d="M19.5312 2.15625C19.1429 2.15625 18.8281 2.47106 18.8281 2.85938V6.375C18.8281 6.76331 19.1429 7.07812 19.5312 7.07812C19.9196 7.07812 20.2344 6.76331 20.2344 6.375V2.85938C20.2344 2.47106 19.9196 2.15625 19.5312 2.15625Z" fill="#006AD5"/>
<path d="M22.3438 0C21.9554 0 21.6406 0.314812 21.6406 0.703125V8.48438C21.6406 8.87269 21.9554 9.1875 22.3438 9.1875C22.7321 9.1875 23.0469 8.87269 23.0469 8.48438V0.703125C23.0469 0.314812 22.7321 0 22.3438 0Z" fill="#006AD5"/>
</svg>
