<svg width="28" height="28" viewBox="0 0 28 28" fill="none" xmlns="http://www.w3.org/2000/svg">
<path d="M28 26.3594H23.0234V18.1016H4.97656V26.3594H0V28H28V26.3594ZM14.8203 23.0234H13.1797V21.3828H14.8203V23.0234Z" fill="white"/>
<path d="M10.7188 5.74219C11.7057 5.74219 14 5.50266 14 3.28125H15.6406C15.6406 4.63827 16.7445 5.74219 18.1016 5.74219H18.9219V4.10156C18.9219 1.79205 16.2671 0 13.9832 0C12.1254 0 10.9366 0.714547 9.88799 1.34504C8.8923 1.94425 8.03272 2.46094 6.61719 2.46094H5.79688C5.79688 2.46094 5.79687 3.30066 5.79698 3.3104C5.80557 4.68825 7.05436 5.74219 8.43237 5.74219H10.7188Z" fill="white"/>
<path d="M16.4609 13.8342V13.3172C17.9259 12.4646 18.9219 10.8404 18.9219 9.02327V7.38264H18.1016C16.7577 7.38264 15.5734 6.72404 14.8249 5.72217C13.9896 6.76998 12.5567 7.3827 10.7188 7.3827H9.07812V9.02332C9.07812 10.8405 10.0741 12.4646 11.5391 13.3173V13.8342L14 15.4747L16.4609 13.8342Z" fill="white"/>
<path d="M19.0075 14.1086L15.479 16.461H21.8438C21.3254 15.2892 20.284 14.3987 19.0075 14.1086Z" fill="white"/>
<path d="M8.99229 14.1086C7.71567 14.3987 6.67414 15.2891 6.15576 16.461H12.5207L8.99229 14.1086Z" fill="white"/>
</svg>
