<svg width="29" height="29" viewBox="0 0 29 29" fill="none" xmlns="http://www.w3.org/2000/svg">
<path d="M14.5 0C8.50244 0 3.625 4.87744 3.625 10.875C3.625 18.4132 13.4415 28.3167 13.8584 28.7354C14.036 28.9112 14.268 29 14.5 29C14.732 29 14.964 28.9112 15.1416 28.7354C15.5585 28.3167 25.375 18.4132 25.375 10.875C25.375 4.87744 20.4976 0 14.5 0ZM14.5 18.125C10.5016 18.125 7.25 14.8734 7.25 10.875C7.25 6.87663 10.5016 3.625 14.5 3.625C18.4984 3.625 21.75 6.87663 21.75 10.875C21.75 14.8734 18.4984 18.125 14.5 18.125Z" fill="white"/>
<path d="M17.2188 10.875H14.5V8.15625C14.5 7.656 14.094 7.25 13.5938 7.25C13.0935 7.25 12.6875 7.656 12.6875 8.15625V11.7812C12.6875 12.2815 13.0935 12.6875 13.5938 12.6875H17.2188C17.719 12.6875 18.125 12.2815 18.125 11.7812C18.125 11.281 17.719 10.875 17.2188 10.875Z" fill="white"/>
</svg>
