<svg width="24" height="25" viewBox="0 0 24 25" fill="none" xmlns="http://www.w3.org/2000/svg">
<path d="M6 3.50024V3.50098C3.10495 3.50098 0.751465 5.85376 0.751465 8.74881C0.751465 10.6203 1.71518 12.2744 3.26294 13.2239L3.57495 14.4653C3.63576 14.7085 3.73554 14.9517 3.91553 15.1524C4.09551 15.3531 4.37538 15.501 4.6875 15.501C5.5625 15.501 6.43672 15.5011 7.31177 15.501C7.62387 15.501 7.90448 15.3531 8.08447 15.1524C8.26447 14.9517 8.36645 14.7085 8.42725 14.4653L8.75171 13.1616V13.1588C8.93995 12.4012 8.34847 11.7496 7.68823 11.7496H6C4.3387 11.7496 2.99927 10.4102 2.99927 8.7489C2.99927 7.0876 4.3387 5.74816 6 5.74816C6.61688 5.74817 7.12353 5.2415 7.12353 4.62461C7.12353 4.00774 6.61688 3.50033 6 3.50033V3.50024ZM16.8779 4.62453C16.8779 5.2414 17.3846 5.74804 18.0015 5.74803C19.6628 5.74803 21.0022 7.08747 21.0022 8.74877C21.0022 10.4101 19.6628 11.7495 18.0015 11.7495H16.3132C15.653 11.7495 15.0615 12.4011 15.2498 13.1587V13.1615L15.5742 14.4652C15.635 14.7084 15.737 14.9515 15.917 15.1522C16.097 15.3529 16.3776 15.5008 16.6897 15.5009C17.5647 15.501 18.439 15.5009 19.314 15.5009C19.6261 15.5009 19.906 15.3529 20.0859 15.1522C20.2659 14.9515 20.3657 14.7084 20.4265 14.4652L20.7385 13.2238C22.2863 12.2743 23.25 10.6201 23.25 8.74859C23.25 5.85354 20.8965 3.50083 18.0015 3.50046C17.3846 3.50009 16.8779 4.00748 16.8779 4.62435V4.62453ZM16.3425 3.77711C14.2542 4.47565 12.75 6.43724 12.75 8.74877C12.75 10.2912 13.4229 11.6762 14.4858 12.6379C14.5929 11.8157 15.2399 11.1479 16.0437 11.0229C15.4056 10.4731 15.0007 9.66005 15.0007 8.74877C15.0007 7.5298 15.7234 6.48654 16.7637 6.01611C16.3778 5.67169 16.1287 5.17684 16.1287 4.62453C16.1287 4.31887 16.2103 4.03325 16.3425 3.77711ZM7.65967 3.77784C7.79169 4.03385 7.87353 4.31905 7.87353 4.62453C7.87353 5.17723 7.62391 5.67186 7.23779 6.01611C8.27806 6.48654 9.00073 7.52984 9.00073 8.74881C9.00073 9.66009 8.59586 10.4731 7.95776 11.0229C8.76147 11.1475 9.40844 11.8154 9.51635 12.6372C10.5788 11.6755 11.2515 10.2909 11.2515 8.74881C11.2515 6.43761 9.74753 4.47665 7.65967 3.77784ZM6 13.2495C6.2071 13.2495 6.375 13.4174 6.375 13.6245C6.375 13.8316 6.2071 13.9995 6 13.9995C5.79289 13.9995 5.625 13.8316 5.625 13.6245C5.625 13.4174 5.79289 13.2495 6 13.2495ZM18 13.2495C18.2071 13.2495 18.375 13.4174 18.375 13.6245C18.375 13.8316 18.2071 13.9995 18 13.9995C17.7929 13.9995 17.625 13.8316 17.625 13.6245C17.625 13.4174 17.7929 13.2495 18 13.2495ZM4.87573 16.2495C4.87648 16.6578 5.21794 16.998 5.62646 16.998V18.2534L5.42578 18.4541C5.13656 18.7433 5.13656 19.2261 5.42578 19.5154L6.48413 20.5737C6.77335 20.863 7.25619 20.863 7.54541 20.5737L7.68603 20.4331L8.62427 20.6675V20.7496C8.62427 21.1586 8.96526 21.4996 9.37427 21.4996H10.8743C11.2833 21.4996 11.625 21.1586 11.625 20.7496H12.375C12.375 21.1586 12.716 21.4996 13.125 21.4996H14.6257C15.0347 21.4996 15.3757 21.1586 15.3757 20.7496V20.6675L16.3118 20.4339L16.4539 20.5759C16.7431 20.8651 17.2252 20.8651 17.5144 20.5759L18.5757 19.5154C18.8649 19.2262 18.8649 18.7433 18.5757 18.4541L18.3735 18.252V16.9981C18.7816 16.9981 19.1219 16.6587 19.1235 16.251C18.3744 16.251 17.6256 16.2511 16.8765 16.251C16.878 16.6587 17.2184 16.9981 17.6265 16.9981V17.7173C17.3983 17.6837 17.1568 17.7512 16.9841 17.9239L15.9229 18.9844C15.7059 19.2013 15.6518 19.5269 15.7603 19.7981L15.3655 19.8963C15.3138 19.5349 14.9997 19.2489 14.6257 19.2489H13.125C12.716 19.2489 12.375 19.5899 12.375 19.9989H11.625C11.625 19.5899 11.2833 19.2489 10.8743 19.2489H9.37427C9.00033 19.2489 8.68618 19.5349 8.63452 19.8963L8.23755 19.7974L8.2383 19.7966C8.34675 19.5254 8.29261 19.1998 8.0757 18.9829L7.01662 17.9239C6.84434 17.7516 6.60422 17.6844 6.37648 17.7173V16.9981C6.785 16.9981 7.12274 16.6579 7.12355 16.2495L4.87573 16.2495ZM6.48633 18.4541L7.54541 19.5132L7.01513 20.0434L5.95605 18.9844L6.48633 18.4541ZM17.5144 18.4541L18.0447 18.9844L16.9841 20.0457L16.4539 19.5154L17.5144 18.4541ZM9.37427 19.9988H10.8743V20.7495H9.37427V19.9988ZM13.125 19.9988H14.6257V20.7495H13.125V19.9988Z" fill="#006AD5"/>
</svg>
