<svg width="24" height="24" viewBox="0 0 24 24" fill="none" xmlns="http://www.w3.org/2000/svg">
<path d="M16.1131 16.8555L15.9016 16.644C15.8918 16.6342 15.8869 16.6293 15.877 16.6194C14.7068 17.3127 13.3595 17.6864 11.9778 17.6864C10.2421 17.6864 8.59001 17.1111 7.24766 16.0491C6.8838 16.2998 6.51011 16.5801 6.14625 16.88C5.85614 17.1161 5.68896 17.475 5.68896 17.8487V19.6238H11.9975H18.3011V19.0386L16.4474 17.1849L16.1131 16.8555Z" fill="#006AD5"/>
<path d="M12.278 6.01343H11.9977H11.7174C10.4292 6.01343 9.38184 7.06075 9.38184 8.34901V10.9403C9.38184 11.3484 9.58835 11.7024 9.90304 11.9139V14.1265C10.5373 14.451 11.2454 14.6281 11.9829 14.6281C12.7303 14.6281 13.4482 14.451 14.0874 14.1167V11.9188C14.4021 11.7073 14.6086 11.3533 14.6086 10.9452V8.35393C14.6136 7.05584 13.5662 6.01343 12.278 6.01343Z" fill="#006AD5"/>
<path d="M23.6167 15.1296C22.2694 14.0233 20.8189 13.2906 20.5239 13.1431C20.4894 13.1284 20.4698 13.0939 20.4698 13.0546V10.96C20.7353 10.7829 20.9074 10.483 20.9074 10.1437V7.9704C20.9074 6.88866 20.0322 6.01343 18.9504 6.01343H18.7144H18.498C19.1864 7.12959 19.5847 8.40802 19.6339 9.74053C19.6929 11.2255 19.3192 12.6809 18.5718 13.9397C18.5816 13.9495 18.5866 13.9544 18.5964 13.9643L18.6947 14.0626L18.8078 14.1757L19.1422 14.51L22.0727 17.4406H24.0002V15.9507C24.0002 15.6311 23.8576 15.3312 23.6167 15.1296Z" fill="#006AD5"/>
<path d="M22.3186 19.0633L18.4489 15.1936L18.1145 14.8592L18.0014 14.7461L17.9031 14.6478L17.6425 14.9084L17.0819 14.3478C19.3044 11.7271 19.1815 7.79343 16.7033 5.31525C15.4003 4.01224 13.6892 3.35828 11.983 3.35828C10.2768 3.35828 8.56563 4.01224 7.26262 5.31525C4.6566 7.92128 4.6566 12.1499 7.26262 14.7559C8.56563 16.059 10.2768 16.7129 11.983 16.7129C13.5171 16.7129 15.0512 16.1868 16.2952 15.1346L16.8557 15.6951L16.5951 15.9557L16.8066 16.1671L17.1409 16.5015L21.0106 20.3712C21.1926 20.5531 21.4286 20.6416 21.6646 20.6416C21.9006 20.6416 22.1366 20.5531 22.3186 20.3712C22.6775 20.0122 22.6775 19.4271 22.3186 19.0633C22.3186 19.0682 22.3186 19.0633 22.3186 19.0633ZM15.9166 13.9741C14.8299 15.0608 13.404 15.6017 11.983 15.6017C10.557 15.6017 9.13601 15.0608 8.04935 13.9741C5.87602 11.8008 5.87602 8.28022 8.04935 6.10689C9.13601 5.02023 10.5619 4.47936 11.983 4.47936C13.4089 4.47936 14.8299 5.02023 15.9166 6.10689C18.0899 8.2753 18.0899 11.8008 15.9166 13.9741Z" fill="#006AD5"/>
<path d="M5.47757 6.01343H5.2858H5.04978C3.96804 6.01343 3.09281 6.88866 3.09281 7.9704V10.1437C3.09281 10.483 3.2649 10.7829 3.53042 10.96V13.0546C3.53042 13.0939 3.51076 13.1234 3.47634 13.1431C3.18132 13.2857 1.73079 14.0233 0.383528 15.1296C0.142594 15.3312 0 15.6311 0 15.9458V17.4357H4.77935C4.87769 16.9292 5.14321 16.4719 5.5464 16.1425C5.87093 15.877 6.20037 15.6262 6.52489 15.3951C4.01229 12.8383 3.66318 8.94397 5.47757 6.01343Z" fill="#006AD5"/>
</svg>
