<svg width="52" height="52" viewBox="0 0 52 52" fill="none" xmlns="http://www.w3.org/2000/svg">
<path d="M44.6537 48.9419L24.2015 38.1129C23.6685 37.8301 23.0185 37.8691 22.5147 38.2104L6.87573 49.0394C6.29073 49.4456 6.03724 50.1833 6.25174 50.8626C6.45974 51.5353 7.09024 52.0001 7.79874 52.0001H43.89C44.6342 52.0001 45.2875 51.4931 45.4662 50.7651C45.6482 50.0404 45.3102 49.2896 44.6537 48.9419Z" fill="white"/>
<path d="M51.4982 45.8542L46.6882 24.1994C46.5712 23.6697 46.1974 23.2374 45.6937 23.0392C45.1867 22.8409 44.6179 22.9092 44.1759 23.2147L28.5337 34.0437C28.0657 34.3687 27.8024 34.9114 27.8382 35.4737C27.8707 36.0424 28.1989 36.5494 28.6994 36.8127L49.1484 47.6417C49.3889 47.7684 49.6489 47.8334 49.9089 47.8334C50.2567 47.8334 50.6044 47.7229 50.8937 47.4987C51.3974 47.1152 51.6347 46.4749 51.4982 45.8542Z" fill="white"/>
<path d="M40.1818 20.6407C39.9673 19.9615 39.3401 19.5 38.6283 19.5H23.7953C21.0978 24.3847 17.1068 29.055 15.4656 30.8815C14.5426 31.9085 13.2198 32.5 11.8386 32.5C10.4573 32.5 9.13458 31.9085 8.21158 30.8815C7.57783 30.1762 6.59633 29.0485 5.47183 27.651L1.53933 45.3505C1.39633 46.0038 1.66608 46.6765 2.21858 47.0503C2.49158 47.2355 2.81008 47.3265 3.12533 47.3265C3.45033 47.3265 3.77208 47.2322 4.05158 47.0372L39.5513 22.4575C40.1396 22.0577 40.3898 21.32 40.1818 20.6407Z" fill="white"/>
<path d="M11.8389 0C5.56637 0 0.463867 5.1025 0.463867 11.375C0.463867 17.212 9.58987 27.5502 10.6299 28.7105C10.9386 29.0517 11.3774 29.25 11.8389 29.25C12.3004 29.25 12.7391 29.0517 13.0479 28.7105C14.0879 27.5502 23.2139 17.212 23.2139 11.375C23.2139 5.1025 18.1114 0 11.8389 0ZM11.8389 16.25C9.14787 16.25 6.96387 14.066 6.96387 11.375C6.96387 8.684 9.14787 6.5 11.8389 6.5C14.5299 6.5 16.7139 8.684 16.7139 11.375C16.7139 14.066 14.5299 16.25 11.8389 16.25Z" fill="white"/>
</svg>
