<svg width="25" height="25" viewBox="0 0 25 25" fill="none" xmlns="http://www.w3.org/2000/svg">
<g clip-path="url(#clip0_496_4260)">
<path d="M19.8564 14.4464L21.3966 15.9866C21.5345 16.1244 21.5345 16.3479 21.3966 16.4857L20.8975 16.9849C20.7597 17.1227 20.5362 17.1227 20.3983 16.9849L18.8582 15.4447C18.3002 15.8142 17.6311 16.0294 16.9118 16.0294C14.9625 16.0294 13.3824 14.4492 13.3824 12.5C13.3824 10.5508 14.9625 8.97059 16.9118 8.97059C18.861 8.97059 20.4412 10.5508 20.4412 12.5C20.4412 13.2194 20.226 13.8884 19.8564 14.4464ZM16.9118 14.6176C18.0813 14.6176 19.0294 13.6695 19.0294 12.5C19.0294 11.3305 18.0813 10.3824 16.9118 10.3824C15.7422 10.3824 14.7941 11.3305 14.7941 12.5C14.7941 13.6695 15.7422 14.6176 16.9118 14.6176ZM17.6176 7.96573C17.3875 7.9302 17.1518 7.91177 16.9118 7.91177C14.3778 7.91177 12.3235 9.96599 12.3235 12.5C12.3235 15.034 14.3778 17.0882 16.9118 17.0882C17.1518 17.0882 17.3875 17.0698 17.6176 17.0343V22.3811C17.6176 23.5509 16.6719 24.5 15.5035 24.5H5.61418C4.4463 24.5 3.5 23.5501 3.5 22.3811V2.61888C3.5 1.44907 4.44571 0.5 5.61418 0.5H5.97059V1.38235C5.97059 2.45479 6.84086 3.32353 7.91409 3.32353H13.2036C14.2763 3.32353 15.1471 2.4537 15.1471 1.38235V0.5H15.5035C16.6713 0.5 17.6176 1.44994 17.6176 2.61888V7.96573ZM7.38235 0.5H13.7353V1.38235C13.7353 1.67365 13.4969 1.91176 13.2036 1.91176H7.91409C7.62 1.91176 7.38235 1.67453 7.38235 1.38235V0.5Z" fill="#006AD5"/>
</g>
<defs>
<clipPath id="clip0_496_4260">
<rect width="24" height="24" fill="white" transform="translate(0.5 0.5)"/>
</clipPath>
</defs>
</svg>
