<svg width="28" height="28" viewBox="0 0 28 28" fill="none" xmlns="http://www.w3.org/2000/svg">
<g clip-path="url(#clip0_256_2551)">
<path d="M22.5825 16.2708L24.3794 18.0677C24.5402 18.2285 24.5402 18.4892 24.3794 18.65L23.7971 19.2323C23.6363 19.3931 23.3755 19.3931 23.2147 19.2323L21.4178 17.4354C20.7669 17.8666 19.9863 18.1176 19.1471 18.1176C16.8729 18.1176 15.0294 16.2741 15.0294 14C15.0294 11.7259 16.8729 9.88235 19.1471 9.88235C21.4212 9.88235 23.2647 11.7259 23.2647 14C23.2647 14.8392 23.0136 15.6198 22.5825 16.2708ZM19.1471 16.4706C20.5115 16.4706 21.6176 15.3645 21.6176 14C21.6176 12.6355 20.5115 11.5294 19.1471 11.5294C17.7826 11.5294 16.6765 12.6355 16.6765 14C16.6765 15.3645 17.7826 16.4706 19.1471 16.4706ZM19.9706 8.71002C19.7021 8.66856 19.4271 8.64706 19.1471 8.64706C16.1907 8.64706 13.7941 11.0437 13.7941 14C13.7941 16.9563 16.1907 19.3529 19.1471 19.3529C19.4271 19.3529 19.7021 19.3314 19.9706 19.29V25.528C19.9706 26.8928 18.8673 28 17.504 28H5.96654C4.60402 28 3.5 26.8917 3.5 25.528V2.47203C3.5 1.10724 4.60333 0 5.96654 0H6.38235V1.02941C6.38235 2.28059 7.39767 3.29412 8.64977 3.29412H14.8208C16.0723 3.29412 17.0882 2.27932 17.0882 1.02941V0H17.504C18.8666 0 19.9706 1.10827 19.9706 2.47203V8.71002ZM8.02941 0H15.4412V1.02941C15.4412 1.36926 15.1631 1.64706 14.8208 1.64706H8.64977C8.30666 1.64706 8.02941 1.37029 8.02941 1.02941V0Z" fill="white"/>
</g>
<defs>
<clipPath id="clip0_256_2551">
<rect width="28" height="28" fill="white"/>
</clipPath>
</defs>
</svg>
