<svg width="25" height="25" viewBox="0 0 25 25" fill="none" xmlns="http://www.w3.org/2000/svg">
<g clip-path="url(#clip0_496_4164)">
<path d="M5.38301 8.60498V5.48709H2.77181C2.3201 5.48465 1.88605 5.66302 1.56666 5.98242C1.24726 6.30182 1.06889 6.73566 1.07132 7.18737V22.7892C1.06848 23.242 1.24644 23.6772 1.56564 23.9984C1.88484 24.3195 2.31889 24.5001 2.77181 24.5001H3.14924V11.0421C3.14924 9.75129 4.13626 8.69183 5.38301 8.60498Z" fill="#006AD5"/>
<path d="M21.6948 0.5H6.11035V8.6039H21.6948V0.5ZM7.84574 1.85065H12.7276C12.9283 1.85065 13.0913 2.01339 13.0913 2.21429C13.0913 2.41518 12.9283 2.57792 12.7276 2.57792H7.84574C7.64505 2.57792 7.4821 2.41518 7.4821 2.21429C7.4821 2.01339 7.64505 1.85065 7.84574 1.85065ZM20.0004 7.25325H7.84574C7.64505 7.25325 7.4821 7.0905 7.4821 6.88961C7.4821 6.68872 7.64505 6.52597 7.84574 6.52597H20.0004C20.2011 6.52597 20.364 6.68872 20.364 6.88961C20.364 7.0905 20.2011 7.25325 20.0004 7.25325ZM20.0004 5.69481H7.84574C7.64505 5.69481 7.4821 5.53206 7.4821 5.33117C7.4821 5.13028 7.64505 4.96753 7.84574 4.96753H20.0004C20.2011 4.96753 20.364 5.13028 20.364 5.33117C20.364 5.53206 20.2011 5.69481 20.0004 5.69481ZM20.0004 4.13636H7.84574C7.64505 4.13636 7.4821 3.97362 7.4821 3.77273C7.4821 3.57183 7.64505 3.40909 7.84574 3.40909H20.0004C20.2011 3.40909 20.364 3.57183 20.364 3.77273C20.364 3.97362 20.2011 4.13636 20.0004 4.13636Z" fill="#006AD5"/>
<path d="M14.206 16.711L13.8136 15.9155L13.4209 16.711C13.3679 16.8183 13.2657 16.8926 13.1472 16.9098L12.2695 17.0375L12.9047 17.6564C12.9903 17.74 13.0295 17.8605 13.0092 17.9784L12.8592 18.8526L13.6443 18.4399C13.7503 18.3843 13.8767 18.3843 13.9826 18.4399L14.7677 18.8526L14.6177 17.9784C14.5975 17.8605 14.6366 17.74 14.7223 17.6564L15.3574 17.0375L14.4798 16.9098C14.3613 16.8926 14.259 16.8183 14.206 16.711Z" fill="#006AD5"/>
<path d="M13.8137 12.2507C12.8794 12.7886 11.7297 12.7125 10.6475 12.0425L9.26905 13.6066L9.37781 13.6935C10.6595 14.7095 10.2114 15.8584 9.77777 16.9694L9.74916 17.0425C9.24429 18.3325 8.72197 19.6663 10.209 21.2493C10.8121 21.8848 11.3731 21.8848 11.9671 21.8848C12.4941 21.8907 13.2007 22.0725 13.7571 22.5471C14.2806 22.1352 14.9231 21.9029 15.5891 21.8846C15.6512 21.8846 15.7264 21.8846 15.7857 21.884C15.824 21.8836 15.8707 21.8828 15.9097 21.8816C15.929 21.881 15.9519 21.8803 15.971 21.8795C16.4294 21.8601 16.9216 21.77 17.4172 21.2476C18.917 19.651 18.3356 18.1638 17.8685 16.969C17.7755 16.7308 17.7092 16.5522 17.6532 16.3903C17.4856 15.9057 17.4119 15.5453 17.4147 15.2223C17.4198 14.6259 17.685 14.1395 18.25 13.6916L18.3585 13.6048L16.9803 12.0429C15.8979 12.7127 14.7481 12.7888 13.8137 12.2507ZM16.393 17.0439L15.3673 18.0439L15.6093 19.4558C15.6329 19.5922 15.5767 19.7302 15.4647 19.8116C15.3527 19.8929 15.2043 19.9035 15.0818 19.8392L13.8139 19.1726L12.5458 19.8392C12.4233 19.9035 12.2749 19.8929 12.1629 19.8116C12.0509 19.7302 11.9947 19.5922 12.0182 19.4558L12.2603 18.0439L11.2346 17.0441C11.1355 16.9473 11.0998 16.8028 11.1426 16.6713C11.1852 16.5396 11.2991 16.4437 11.4361 16.4238L12.8537 16.2178L13.4874 14.9331C13.5487 14.8089 13.6751 14.7304 13.8135 14.7304C13.9521 14.7304 14.0785 14.8089 14.1398 14.9331L14.7735 16.2176L16.1911 16.4238C16.3281 16.4437 16.4419 16.5396 16.4846 16.6711C16.5274 16.8028 16.4917 16.9473 16.3926 17.0439H16.393Z" fill="#006AD5"/>
<path d="M22.2282 9.33105H5.57255C5.12024 9.33105 4.68659 9.51186 4.36821 9.83308C4.04962 10.1543 3.87267 10.5896 3.87653 11.0419V24.4999H22.2282C22.6809 24.4999 23.1152 24.3193 23.4344 23.9983C23.7536 23.677 23.9313 23.2418 23.9285 22.7891V11.0419C23.9313 10.589 23.7536 10.1539 23.4344 9.83268C23.1152 9.51145 22.6809 9.33105 22.2282 9.33105ZM19.2458 13.6813C19.2373 13.7803 19.1884 13.8716 19.1107 13.9337L18.703 14.26C18.2124 14.6492 18.1442 14.9678 18.1419 15.2282C18.1399 15.4646 18.2012 15.7495 18.3406 16.1523C18.3934 16.3049 18.4567 16.4751 18.546 16.7042C19.0299 17.9423 19.7617 19.8138 17.9459 21.7464C17.2655 22.464 16.5498 22.5825 16.0021 22.6058C15.9802 22.6068 15.9536 22.6074 15.9315 22.6082C15.8885 22.6095 15.837 22.6103 15.7943 22.6109C15.732 22.6115 15.6537 22.6117 15.5932 22.6117C15.1643 22.6164 14.4885 22.7994 14.0092 23.2992C13.9407 23.3708 13.8459 23.4112 13.7467 23.4112H13.7371C13.6361 23.4118 13.5393 23.3694 13.4715 23.2943C13.049 22.8049 12.3948 22.63 11.963 22.63H11.9532C11.3051 22.63 10.4954 22.6166 9.6801 21.7572C7.87714 19.8378 8.53968 18.1411 9.07194 16.7815L9.10035 16.7067C9.59832 15.4301 9.71216 14.8877 8.92523 14.2633L8.51675 13.9374C8.43882 13.8751 8.38992 13.7838 8.38119 13.6845C8.37247 13.5853 8.40473 13.4869 8.47068 13.412L10.312 11.3229C10.4358 11.1825 10.6458 11.159 10.7976 11.2686C12.2073 12.2858 13.2304 11.7848 13.6048 11.5222C13.73 11.4343 13.897 11.4343 14.0222 11.5222C14.3966 11.7848 15.4198 12.2856 16.8292 11.2686C16.981 11.159 17.1911 11.1825 17.3148 11.3227L19.1562 13.4092C19.2221 13.4839 19.2544 13.5821 19.2458 13.6813Z" fill="#006AD5"/>
</g>
<defs>
<clipPath id="clip0_496_4164">
<rect width="24" height="24" fill="white" transform="translate(0.5 0.5)"/>
</clipPath>
</defs>
</svg>
