<svg width="31" height="29" viewBox="0 0 31 29" fill="none" xmlns="http://www.w3.org/2000/svg">
<g clip-path="url(#clip0_286_3957)">
<path d="M15.3525 18.768C17.1223 18.768 18.557 17.413 18.557 15.7415C18.557 14.07 17.1223 12.715 15.3525 12.715C13.5827 12.715 12.1479 14.07 12.1479 15.7415C12.1479 17.413 13.5827 18.768 15.3525 18.768Z" fill="white"/>
<path d="M16.7119 18.9744H13.9928C11.7306 18.9744 9.89014 20.7132 9.89014 22.8494V25.9908L9.89854 26.0396L10.1273 26.1069C12.2861 26.7442 14.1621 26.957 15.7063 26.957C18.7214 26.957 20.4688 26.1446 20.5768 26.0934L20.7909 25.9903L20.813 25.9908V22.8491C20.8146 20.7132 18.9747 18.9744 16.7119 18.9744Z" fill="white"/>
<path d="M8.81112 11.808C11.6662 11.808 13.9806 9.62209 13.9806 6.92565C13.9806 4.22922 11.6662 2.04333 8.81112 2.04333C5.95607 2.04333 3.6416 4.22922 3.6416 6.92565C3.6416 9.62209 5.95607 11.808 8.81112 11.808Z" fill="white"/>
<path d="M21.8938 11.808C24.7489 11.808 27.0627 9.6212 27.0627 6.92507C27.0627 4.22981 24.7479 2.04333 21.8938 2.04333C19.0381 2.04333 16.7246 4.22923 16.7246 6.92507C16.7246 9.62091 19.0381 11.808 21.8938 11.808Z" fill="white"/>
<path d="M12.8399 18.4982C12.0193 17.8299 11.4974 16.8429 11.4974 15.7418C11.4974 14.3916 12.2813 13.2129 13.4402 12.5843C12.6856 12.3006 11.8652 12.1401 11.0047 12.1401H6.6182C2.96895 12.1398 0 14.945 0 18.391V23.4584L0.013382 23.5375L0.382789 23.646C3.8005 24.6547 6.77567 25.0018 9.23921 25.0145V22.8491C9.23921 20.7494 10.775 18.987 12.8399 18.4982Z" fill="white"/>
<path d="M24.0869 12.1398H19.701C18.8405 12.1398 18.0211 12.3003 17.2661 12.5839C18.426 13.2126 19.2099 14.3907 19.2099 15.7415C19.2099 16.842 18.6877 17.829 17.8677 18.4973C18.6943 18.6916 19.4552 19.0911 20.0735 19.6754C20.9723 20.5248 21.4675 21.6523 21.4671 22.8497V25.0144C23.9307 25.0018 26.9062 24.6544 30.3233 23.646L30.6927 23.5375L30.7064 23.4584V18.3909C30.7051 14.945 27.7362 12.1398 24.0869 12.1398Z" fill="white"/>
</g>
<defs>
<clipPath id="clip0_286_3957">
<rect width="30.7059" height="29" fill="white"/>
</clipPath>
</defs>
</svg>
