<svg width="38" height="38" viewBox="0 0 38 38" fill="none" xmlns="http://www.w3.org/2000/svg">
<path d="M12.6667 6.3335C10.5687 6.3335 8.8667 8.03438 8.8667 10.1335C8.8667 12.2315 10.5687 13.9335 12.6667 13.9335C14.7647 13.9335 16.4667 12.2315 16.4667 10.1335C16.4667 8.03438 14.7647 6.3335 12.6667 6.3335Z" fill="white"/>
<path d="M8.86634 16.467L3.7998 21.5336L5.59112 23.3245L8.86634 20.0493V31.6667H11.3998V26.6001H13.9333V31.6667H16.4663V16.467H8.86634Z" fill="white"/>
<path d="M34.2 21.5336L29.1335 16.467H21.5335L19 27.8667H21.5335V31.6667H24.0665V27.8667H26.6V31.6667H29.1335V27.8667H31.6665L30.156 21.0734L32.4087 23.3245L34.2 21.5336Z" fill="white"/>
<path d="M25.3337 6.3335C23.2357 6.3335 21.5337 8.03438 21.5337 10.1335C21.5337 12.2315 23.2357 13.9335 25.3337 13.9335C27.4317 13.9335 29.1337 12.2315 29.1337 10.1335C29.1337 8.03438 27.4317 6.3335 25.3337 6.3335Z" fill="white"/>
</svg>
