<svg width="25" height="25" viewBox="0 0 25 25" fill="none" xmlns="http://www.w3.org/2000/svg">
<g clip-path="url(#clip0_496_4262)">
<path d="M12.5 0.5C8.28289 0.5 4.76562 3.89703 4.76562 8.23438C4.76562 9.88447 5.26147 11.3559 6.21308 12.7347L11.9081 21.6212C12.1844 22.0532 12.8162 22.0524 13.0919 21.6212L18.8116 12.7044C19.7428 11.3881 20.2344 9.84252 20.2344 8.23438C20.2344 3.96964 16.7647 0.5 12.5 0.5ZM12.5 11.75C10.5616 11.75 8.98438 10.1728 8.98438 8.23438C8.98438 6.29595 10.5616 4.71875 12.5 4.71875C14.4384 4.71875 16.0156 6.29595 16.0156 8.23438C16.0156 10.1728 14.4384 11.75 12.5 11.75Z" fill="#006AD5"/>
<path d="M17.9967 16.6576L14.4562 22.1929C13.5398 23.6218 11.4551 23.6171 10.5431 22.1943L6.99678 16.659C3.87659 17.3805 1.95312 18.702 1.95312 20.2813C1.95312 23.0217 7.38725 24.5 12.5 24.5C17.6128 24.5 23.0469 23.0217 23.0469 20.2813C23.0469 18.7009 21.1207 17.3786 17.9967 16.6576Z" fill="#006AD5"/>
</g>
<defs>
<clipPath id="clip0_496_4262">
<rect width="24" height="24" fill="white" transform="translate(0.5 0.5)"/>
</clipPath>
</defs>
</svg>
