<svg width="24" height="25" viewBox="0 0 24 25" fill="none" xmlns="http://www.w3.org/2000/svg">
<g clip-path="url(#clip0_496_4170)">
<path d="M0.703125 24.5H13.4531C13.8415 24.5 14.1562 24.1852 14.1562 23.7969V23.0469C14.1562 22.2701 13.5267 21.6406 12.75 21.6406V20.8C12.75 19.6869 11.8444 18.7812 10.7313 18.7812H3.42499C2.31189 18.7812 1.40625 19.6869 1.40625 20.8V21.6406C0.629517 21.6406 0 22.2701 0 23.0469V23.7969C0 24.1851 0.314941 24.5 0.703125 24.5Z" fill="#006AD5"/>
<path d="M8.8 15.9849C9.26729 16.605 10.1491 16.729 10.7693 16.2615C11.3897 15.7942 11.5134 14.9124 11.0462 14.2921L6.81459 8.67676C6.34712 8.0564 5.46547 7.93262 4.84529 8.3999C4.22493 8.86737 4.10097 9.74902 4.56844 10.3694L8.8 15.9849Z" fill="#006AD5"/>
<path d="M18.9077 8.36806C19.3752 8.98824 20.2569 9.1122 20.8772 8.64473C21.4974 8.17745 21.6214 7.29579 21.1539 6.67543L16.9223 1.06014C16.455 0.439774 15.5732 0.315812 14.953 0.78328C14.3329 1.25075 14.2089 2.1324 14.6764 2.75276L18.9077 8.36806Z" fill="#006AD5"/>
<path d="M15.8235 12.4531C16.8628 11.67 17.643 10.6975 18.131 9.67358L13.2073 3.13965C12.0885 3.3266 10.9388 3.80835 9.89929 4.59167C8.85999 5.37482 8.07977 6.34729 7.5918 7.37103L12.5155 13.9053C13.6343 13.7184 14.784 13.2365 15.8235 12.4531Z" fill="#006AD5"/>
<path d="M17.722 12.6362C17.3947 12.9698 17.0499 13.2897 16.6697 13.5763C16.2894 13.8627 15.8868 14.106 15.4761 14.3289L16.3929 15.5456L18.639 13.8531L17.722 12.6362Z" fill="#006AD5"/>
<path d="M19.4854 14.9761L17.2393 16.6685L21.4708 22.284C21.9383 22.9044 22.8199 23.0281 23.4401 22.5609C24.0605 22.0934 24.1843 21.2117 23.717 20.5914L19.4854 14.9761Z" fill="#006AD5"/>
</g>
<defs>
<clipPath id="clip0_496_4170">
<rect width="24" height="24" fill="white" transform="translate(0 0.5)"/>
</clipPath>
</defs>
</svg>
