<svg width="25" height="25" viewBox="0 0 25 25" fill="none" xmlns="http://www.w3.org/2000/svg">
<g clip-path="url(#clip0_496_4253)">
<path d="M23.0085 18.0841C21.4756 17.0966 19.7683 16.4108 17.9782 16.0634C17.4792 15.9796 16.9737 16.1703 16.6542 16.5628L15.605 17.8433C15.2944 18.2411 14.8365 18.497 14.3348 18.553C13.8332 18.6091 13.3301 18.4606 12.9393 18.1412C12.2649 17.5855 11.3584 16.7787 10.2045 15.6244C9.05055 14.4701 8.24335 13.564 7.68769 12.8896C7.36825 12.4988 7.21978 11.9957 7.27583 11.4941C7.33188 10.9924 7.58775 10.5345 7.98559 10.2239L9.26526 9.17584C9.65842 8.85604 9.8492 8.3495 9.76463 7.84982C9.41726 6.05976 8.73143 4.3525 7.74394 2.81958C7.43282 2.31189 6.83133 2.06074 6.25158 2.1965C4.81302 2.56391 3.32811 3.6185 2.35583 4.41248C1.63071 5.01072 1.25121 5.93086 1.34383 6.86637C2.01203 13.9699 7.22718 18.6029 7.22718 18.6029C7.22718 18.6029 11.8611 23.816 18.9637 24.4863C19.8992 24.5789 20.8194 24.1994 21.4176 23.4743C22.2116 22.502 23.2662 21.0171 23.6336 19.5785C23.7699 18.9976 23.5178 18.3949 23.0085 18.0841ZM4.71169 5.19155C4.36416 5.42698 4.00585 5.69548 3.64672 5.98882C3.44711 6.15662 3.34459 6.41316 3.37366 6.67231C3.43486 7.3142 3.53909 7.95127 3.68562 8.57922C3.72385 8.72484 3.67999 8.87973 3.57106 8.98364C3.46212 9.08758 3.30537 9.12411 3.16169 9.07911C3.01801 9.03406 2.91018 8.91455 2.88008 8.76707C2.72436 8.10311 2.61376 7.4294 2.54907 6.7505C2.49365 6.21659 2.70867 5.69029 3.12208 5.34795C3.50066 5.03888 3.87881 4.75589 4.24702 4.5064C4.4361 4.38277 4.68942 4.43367 4.81607 4.62076C4.94271 4.80786 4.89585 5.06194 4.71082 5.19155H4.71169Z" fill="#006AD5"/>
<path d="M17.4666 9.60248C19.2947 9.60248 20.7766 8.12058 20.7766 6.29257C20.7766 4.46456 19.2947 2.98267 17.4666 2.98267C15.6386 2.98267 14.1567 4.46456 14.1567 6.29257C14.1567 8.12058 15.6386 9.60248 17.4666 9.60248Z" fill="#006AD5"/>
<path d="M17.4667 14.5673C17.4667 14.5673 23.259 11.1242 23.259 6.1941C23.2472 4.67211 22.6313 3.21719 21.5467 2.14936C20.4621 1.0815 18.9978 0.488291 17.4758 0.500175H17.4576C15.9356 0.488291 14.4712 1.0815 13.3866 2.14932C12.3021 3.21715 11.6861 4.67207 11.6743 6.19406C11.6744 11.1242 17.4667 14.5673 17.4667 14.5673ZM13.3293 6.29254C13.3293 4.00751 15.1817 2.15515 17.4667 2.15515C19.7517 2.15515 21.6041 4.00751 21.6041 6.29254C21.6041 8.57757 19.7517 10.4299 17.4667 10.4299C15.1827 10.4274 13.3318 8.5765 13.3293 6.29254Z" fill="#006AD5"/>
</g>
<defs>
<clipPath id="clip0_496_4253">
<rect width="24" height="24" fill="white" transform="translate(0.5 0.5)"/>
</clipPath>
</defs>
</svg>
