<svg width="24" height="25" viewBox="0 0 24 25" fill="none" xmlns="http://www.w3.org/2000/svg">
<path d="M1.1998 3.69995C1.09423 3.7016 0.993447 3.74427 0.918787 3.81893C0.844127 3.89359 0.801455 3.99438 0.799805 4.09995C0.799805 4.20604 0.841947 4.30778 0.916962 4.38279C0.991977 4.45781 1.09372 4.49995 1.1998 4.49995H6.071C6.18384 4.22443 6.31576 3.95711 6.46581 3.69995H1.1998Z" fill="#006AD5"/>
<path d="M22.8002 4.49995C22.9053 4.49703 23.0054 4.45395 23.0798 4.37956C23.1542 4.30517 23.1973 4.20511 23.2002 4.09995C23.2002 3.99386 23.158 3.89212 23.083 3.81711C23.008 3.74209 22.9063 3.69995 22.8002 3.69995H17.5342C17.6842 3.95711 17.8161 4.22443 17.929 4.49995H22.8002Z" fill="#006AD5"/>
<path d="M11.9999 1.30005C10.5152 1.30164 9.09172 1.89215 8.04186 2.94201C6.992 3.99186 6.40149 5.41532 6.3999 6.90005V8.31725C6.54886 8.23003 6.71096 8.16749 6.8799 8.13205L7.0067 7.62685C7.20045 6.84762 7.64956 6.15571 8.2824 5.66149C8.91523 5.16727 9.69535 4.8992 10.4983 4.90005H13.5015C14.3045 4.89911 15.0847 5.16714 15.7177 5.66137C16.3506 6.15559 16.7997 6.84755 16.9935 7.62685L17.1199 8.13205C17.2888 8.16749 17.4509 8.23003 17.5999 8.31725V6.90005C17.5983 5.41532 17.0078 3.99186 15.9579 2.94201C14.9081 1.89215 13.4846 1.30164 11.9999 1.30005Z" fill="#006AD5"/>
<path d="M22.7999 15.6999C22.9056 15.6987 23.0066 15.6561 23.0814 15.5814C23.1561 15.5066 23.1987 15.4056 23.1999 15.2999C23.1999 15.1938 23.1578 15.0921 23.0827 15.0171C23.0077 14.942 22.906 14.8999 22.7999 14.8999H14.9515C14.7787 15.0199 14.5947 15.1439 14.3999 15.2663V15.4099L15.2847 15.6999H22.7999Z" fill="#006AD5"/>
<path d="M8.0001 20.8999C7.89401 20.8999 7.79227 20.942 7.71725 21.0171C7.64224 21.0921 7.6001 21.1938 7.6001 21.2999V23.6999H16.4001V21.2999C16.4001 21.1938 16.358 21.0921 16.2829 21.0171C16.2079 20.942 16.1062 20.8999 16.0001 20.8999H8.0001Z" fill="#006AD5"/>
<path d="M1.1998 21.3H1.8666C1.91347 21.029 1.97937 20.7617 2.0638 20.5H1.1998C1.0942 20.5015 0.993357 20.5442 0.918676 20.6189C0.843994 20.6936 0.801354 20.7944 0.799805 20.9C0.799805 21.0061 0.841947 21.1078 0.916962 21.1828C0.991977 21.2579 1.09372 21.3 1.1998 21.3Z" fill="#006AD5"/>
<path d="M13.6446 18.4073C13.4668 18.6815 13.2231 18.9069 12.9359 19.063C12.6487 19.219 12.3271 19.3008 12.0002 19.3008C11.6734 19.3008 11.3517 19.219 11.0645 19.063C10.7773 18.9069 10.5337 18.6815 10.3558 18.4073C9.93406 17.7589 9.68334 17.0143 9.62702 16.2429L6.17501 17.3741C5.24611 17.6805 4.42132 18.2404 3.79376 18.9907C3.16619 19.7409 2.76083 20.6517 2.62341 21.6201L2.40421 23.2477C2.39632 23.3035 2.40068 23.3603 2.41698 23.4141C2.43329 23.468 2.46114 23.5177 2.49861 23.5597C2.53712 23.6043 2.58487 23.6399 2.63854 23.6642C2.69221 23.6884 2.75052 23.7007 2.80941 23.7001H6.80021V21.3001C6.80021 20.9819 6.92664 20.6766 7.15169 20.4516C7.37673 20.2265 7.68195 20.1001 8.00022 20.1001H16.0002C16.3185 20.1001 16.6237 20.2265 16.8487 20.4516C17.0738 20.6766 17.2002 20.9819 17.2002 21.3001V23.7001H21.191C21.2499 23.7007 21.3082 23.6884 21.3619 23.6642C21.4156 23.6399 21.4633 23.6043 21.5018 23.5597C21.5393 23.5177 21.5671 23.468 21.5834 23.4141C21.5998 23.3603 21.6041 23.3035 21.5962 23.2477L21.377 21.6201C21.2395 20.6517 20.834 19.741 20.2064 18.9908C19.5788 18.2406 18.7539 17.6808 17.825 17.3745L14.3734 16.2433C14.3172 17.0146 14.0664 17.7591 13.6446 18.4073Z" fill="#006AD5"/>
<path d="M16.4055 10.834C16.4211 10.7406 16.4693 10.6559 16.5415 10.5947C16.6137 10.5336 16.7053 10.5 16.7999 10.5C17.0121 10.5 17.2156 10.4157 17.3656 10.2656C17.5156 10.1156 17.5999 9.91213 17.5999 9.69995C17.5999 9.48778 17.5156 9.2843 17.3656 9.13427C17.2156 8.98424 17.0121 8.89995 16.7999 8.89995C16.7107 8.89993 16.624 8.87007 16.5537 8.81513C16.4834 8.76019 16.4335 8.68333 16.4119 8.59675L16.2179 7.82075C16.0671 7.2146 15.7177 6.6764 15.2254 6.292C14.733 5.90761 14.1261 5.69918 13.5015 5.69995H10.4983C9.87378 5.69914 9.26698 5.90745 8.77465 6.29169C8.28232 6.67592 7.93283 7.21395 7.7819 7.81995L7.5879 8.59595C7.56646 8.68268 7.51661 8.75972 7.44629 8.81482C7.37597 8.86991 7.28923 8.89988 7.1999 8.89995C6.98773 8.89995 6.78425 8.98424 6.63422 9.13427C6.48419 9.2843 6.3999 9.48778 6.3999 9.69995C6.3999 9.91213 6.48419 10.1156 6.63422 10.2656C6.78425 10.4157 6.98773 10.5 7.1999 10.5C7.29453 10.5 7.38608 10.5336 7.45829 10.5947C7.5305 10.6559 7.57869 10.7406 7.5943 10.834L7.8067 12.102C7.8646 12.45 7.99255 12.7827 8.1828 13.0799C8.37305 13.377 8.62163 13.6325 8.9135 13.8308C9.0299 13.9108 9.1535 13.9972 9.2859 14.09C10.0507 14.6288 11.0023 15.3 11.9999 15.3C12.9975 15.3 13.9491 14.6288 14.7139 14.09C14.8451 13.9972 14.9699 13.9096 15.0863 13.8308C15.3782 13.6325 15.6268 13.377 15.817 13.0799C16.0073 12.7827 16.1352 12.45 16.1931 12.102L16.4055 10.834Z" fill="#006AD5"/>
<path d="M1.1998 9.30005C1.09455 9.30268 0.994331 9.34567 0.91988 9.42012C0.845429 9.49457 0.80244 9.59479 0.799805 9.70005C0.799805 9.80614 0.841947 9.90788 0.916962 9.98289C0.991977 10.0579 1.09372 10.1 1.1998 10.1H5.6566C5.62056 9.96971 5.60147 9.83527 5.5998 9.70005V9.30005H1.1998Z" fill="#006AD5"/>
<path d="M9.5998 15.2663C9.405 15.1439 9.221 15.0203 9.04821 14.8999H1.1998C1.0951 14.9042 0.995858 14.9478 0.921761 15.0219C0.847663 15.096 0.804132 15.1952 0.799805 15.2999C0.799805 15.406 0.841947 15.5077 0.916962 15.5827C0.991977 15.6578 1.09372 15.6999 1.1998 15.6999H8.715L9.5998 15.4099V15.2663Z" fill="#006AD5"/>
<path d="M10.4002 15.7051C10.3767 16.5025 10.5926 17.2887 11.0202 17.9623C11.1248 18.1275 11.2695 18.2636 11.4409 18.3579C11.6122 18.4522 11.8046 18.5016 12.0002 18.5016C12.1957 18.5016 12.3881 18.4522 12.5595 18.3579C12.7308 18.2636 12.8755 18.1275 12.9802 17.9623C13.4078 17.2888 13.6238 16.5025 13.6002 15.7051C13.102 15.9518 12.5559 16.0865 12.0002 16.0999C11.4444 16.0865 10.8983 15.9518 10.4002 15.7051Z" fill="#006AD5"/>
<path d="M22.8 21.3C22.9055 21.2981 23.0061 21.2553 23.0807 21.1807C23.1553 21.1061 23.1981 21.0055 23.2 20.9C23.2 20.7939 23.1579 20.6922 23.0829 20.6172C23.0079 20.5421 22.9061 20.5 22.8 20.5H21.936C22.0205 20.7617 22.0864 21.029 22.1332 21.3H22.8Z" fill="#006AD5"/>
<path d="M18.3433 10.1H22.8001C22.9057 10.0987 23.0067 10.0561 23.0814 9.9814C23.1561 9.90668 23.1987 9.80572 23.2001 9.70005C23.2001 9.59396 23.1579 9.49222 23.0829 9.41721C23.0079 9.34219 22.9061 9.30005 22.8001 9.30005H18.4001V9.70005C18.3984 9.83527 18.3793 9.96971 18.3433 10.1Z" fill="#006AD5"/>
</svg>
