<svg width="29" height="29" viewBox="0 0 29 29" fill="none" xmlns="http://www.w3.org/2000/svg">
<g clip-path="url(#clip0_286_3331)">
<path d="M17.5057 20.1126L18.4507 21.0951L20.5623 18.9263L19.6057 17.9438C19.5428 17.8794 19.5041 17.7942 19.4965 17.7033C19.489 17.6124 19.513 17.5217 19.5644 17.4473C21.1293 15.1771 21.8068 12.386 21.4626 9.62706C21.1185 6.86808 19.7777 4.34255 17.7061 2.55089C15.6344 0.759227 12.983 -0.167824 10.2773 -0.0465752C7.57151 0.0746738 5.00882 1.23538 3.09698 3.20554C1.18515 5.17571 0.0636805 7.81157 -0.045213 10.5909C-0.154106 13.3701 0.757524 16.09 2.50904 18.2116C4.26056 20.3331 6.72416 21.7016 9.41168 22.0457C12.0992 22.3898 14.8145 21.6846 17.0197 20.0697C17.0923 20.0161 17.1813 19.9909 17.2704 19.9988C17.3595 20.0067 17.443 20.047 17.5057 20.1126ZM10.7741 20.1354C9.02735 20.1354 7.31985 19.6035 5.8675 18.6068C4.41516 17.6102 3.28319 16.1936 2.61475 14.5362C1.9463 12.8788 1.77141 11.0551 2.11218 9.29563C2.45295 7.53617 3.29407 5.92 4.52919 4.65149C5.76432 3.38299 7.33796 2.51913 9.05112 2.16915C10.7643 1.81917 12.54 1.99879 14.1538 2.6853C15.7675 3.37181 17.1469 4.53437 18.1173 6.02597C19.0877 7.51757 19.6057 9.27122 19.6057 11.0652C19.603 13.4699 18.6717 15.7754 17.016 17.4758C15.3603 19.1762 13.1155 20.1327 10.7741 20.1354Z" fill="white"/>
<path d="M10.7742 2.76782C9.17625 2.76785 7.61421 3.25452 6.2856 4.1663C4.95698 5.07808 3.92147 6.37401 3.31 7.89022C2.69853 9.40643 2.53857 11.0748 2.85035 12.6844C3.16213 14.294 3.93165 15.7724 5.06158 16.9328C6.19152 18.0933 7.63114 18.8835 9.19837 19.2036C10.7656 19.5237 12.3901 19.3593 13.8663 18.7312C15.3426 18.1032 16.6044 17.0396 17.4921 15.675C18.3798 14.3104 18.8536 12.7062 18.8535 11.065C18.851 8.86519 17.999 6.75618 16.4843 5.20069C14.9697 3.6452 12.9161 2.77026 10.7742 2.76782Z" fill="white"/>
<path d="M27.6274 25.3463L21.5016 19.0549L21.3605 19.1999L18.7665 21.8642V21.9009L18.6949 21.9378L18.5859 22.0497L24.6814 28.3753C25.0725 28.7765 25.6028 29.0018 26.1556 29.0015C26.7084 29.0012 27.2385 28.7754 27.6292 28.3737C28.0199 27.972 28.2392 27.4274 28.2389 26.8597C28.2386 26.2919 28.0188 25.7475 27.6276 25.3463H27.6274Z" fill="white"/>
</g>
<defs>
<clipPath id="clip0_286_3331">
<rect width="28.2368" height="29" fill="white"/>
</clipPath>
</defs>
</svg>
