<svg width="28" height="28" viewBox="0 0 28 28" fill="none" xmlns="http://www.w3.org/2000/svg">
<path d="M15.4292 5.69458C15.4292 8.83186 12.8858 11.375 9.74854 11.375C6.61126 11.375 4.06787 8.83186 4.06787 5.69458C4.06787 2.55706 6.61126 0.013916 9.74854 0.013916C12.8858 0.013916 15.4292 2.55706 15.4292 5.69458Z" fill="white"/>
<path d="M16.0103 17.3492C14.2812 15.8762 12.0846 15.0757 9.7598 15.0757H9.74079C7.10859 15.0822 4.65576 16.1068 2.84334 17.964C1.10146 19.7572 0.096062 22.1715 0 24.8165L16.702 24.7845C14.8336 22.7399 14.5511 19.7032 16.0103 17.3492Z" fill="white"/>
<path d="M27.7684 26.8208L25.2323 24.1761C26.7025 22.5581 27.033 20.2053 26.0648 18.245C25.097 16.2848 23.0281 15.1165 20.8497 15.3001C18.6713 15.4838 16.8271 16.982 16.201 19.0766C15.5751 21.1709 16.2945 23.4354 18.0149 24.7845H18.0532V24.8165C19.8596 26.2117 22.3554 26.2967 24.2524 25.0277L26.9486 27.8072C27.063 27.904 27.2086 27.9563 27.3584 27.9546C27.549 27.9556 27.7302 27.871 27.8515 27.7239C27.9606 27.5933 28.0128 27.4245 27.9973 27.2551C27.9816 27.0857 27.8993 26.9294 27.7684 26.8208ZM21.2937 24.5539C19.1123 24.5591 17.3402 22.7945 17.3359 20.6133C17.3319 18.4319 19.0976 16.6605 21.2787 16.6575C23.4601 16.6545 25.2305 18.4211 25.2323 20.6026C25.242 21.6512 24.8305 22.6599 24.0903 23.4026C23.3498 24.1456 22.3424 24.5601 21.2937 24.5539Z" fill="white"/>
</svg>
