<svg width="29" height="29" viewBox="0 0 29 29" fill="none" xmlns="http://www.w3.org/2000/svg">
<g clip-path="url(#clip0_286_3362)">
<path d="M24.1017 4.24697C21.435 1.50828 17.8896 0 14.1184 0C10.3473 0 6.80183 1.50828 4.13515 4.24697C1.46859 6.98566 0 10.6269 0 14.5C0 18.3731 1.46859 22.0143 4.13515 24.753C6.80183 27.4917 10.3473 29 14.1184 29C17.8896 29 21.435 27.4917 24.1017 24.753C26.7682 22.0143 28.2368 18.3731 28.2368 14.5C28.2368 10.6269 26.7682 6.98566 24.1017 4.24697ZM14.1184 27.3008C10.4306 27.3008 7.11232 25.6468 4.82828 23.0238C6.24426 19.1684 9.869 16.4258 14.1184 16.4258C11.3771 16.4258 9.15491 14.1435 9.15491 11.3281C9.15491 8.51275 11.3771 6.23047 14.1184 6.23047C16.8597 6.23047 19.0819 8.51275 19.0819 11.3281C19.0819 14.1435 16.8597 16.4258 14.1184 16.4258C18.3678 16.4258 21.9926 19.1684 23.4086 23.0238C21.1245 25.6468 17.8063 27.3008 14.1184 27.3008Z" fill="white"/>
</g>
<defs>
<clipPath id="clip0_286_3362">
<rect width="28.2368" height="29" fill="white"/>
</clipPath>
</defs>
</svg>
