<svg width="25" height="24" viewBox="0 0 25 24" fill="none" xmlns="http://www.w3.org/2000/svg">
<g clip-path="url(#clip0_496_4145)">
<path d="M5.18772 0.411865L0.912109 4.68747H5.18772V0.411865Z" fill="#006AD5"/>
<path d="M6.71191 13.6701L7.25749 12.8526C6.99757 12.7227 6.71337 12.6572 6.42902 12.6572C5.95535 12.6572 5.48159 12.8376 5.12098 13.1982C4.77157 13.5476 4.5791 14.0121 4.5791 14.5063C4.5791 15.0004 4.77148 15.4649 5.12093 15.8143L6.90569 17.599L7.85805 16.1697L6.71177 14.4505C6.55423 14.2142 6.55427 13.9064 6.71191 13.6701Z" fill="#006AD5"/>
<path d="M8.73156 13.1982C8.72031 13.2094 8.70836 13.2195 8.69659 13.2298L8.14211 14.0607L9.28816 15.7796C9.44556 16.0158 9.44561 16.3233 9.2883 16.5595L7.91992 18.6132L8.23436 18.9277L11.3477 15.8144C12.069 15.0931 12.069 13.9195 11.3477 13.1982C10.6264 12.4769 9.45288 12.4769 8.73156 13.1982Z" fill="#006AD5"/>
<path d="M16.6719 0H6.59375V5.39062C6.59375 5.77894 6.27894 6.09375 5.89062 6.09375H0.5V21.8906C0.5 23.0537 1.44627 24 2.60938 24H16.6719C17.835 24 18.7812 23.0537 18.7812 21.8906V2.10938C18.7812 0.946266 17.835 0 16.6719 0ZM8.70312 2.8125H15.2656C15.6539 2.8125 15.9688 3.12731 15.9688 3.51562C15.9688 3.90394 15.6539 4.21875 15.2656 4.21875H8.70312C8.31481 4.21875 8 3.90394 8 3.51562C8 3.12731 8.31481 2.8125 8.70312 2.8125ZM8.70312 5.625H15.2656C15.6539 5.625 15.9688 5.93981 15.9688 6.32812C15.9688 6.71644 15.6539 7.03125 15.2656 7.03125H8.70312C8.31481 7.03125 8 6.71644 8 6.32812C8 5.93981 8.31481 5.625 8.70312 5.625ZM4.01562 8.4375H15.2656C15.6539 8.4375 15.9688 8.75231 15.9688 9.14062C15.9688 9.52894 15.6539 9.84375 15.2656 9.84375H4.01562C3.62731 9.84375 3.3125 9.52894 3.3125 9.14062C3.3125 8.75231 3.62731 8.4375 4.01562 8.4375ZM8.23438 20.625C8.05442 20.625 7.87447 20.5564 7.73722 20.419L4.12672 16.8085C2.85716 15.539 2.85716 13.4732 4.12672 12.2037C5.24145 11.0889 6.96992 10.9529 8.23442 11.7958C9.49888 10.9529 11.2273 11.0889 12.3421 12.2037C12.9571 12.8187 13.2958 13.6363 13.2958 14.5061C13.2958 15.3758 12.9571 16.1935 12.3421 16.8085L8.73162 20.419C8.59428 20.5564 8.41433 20.625 8.23438 20.625ZM15.6106 20.3002L14.362 21.0033C14.1479 21.1238 13.8865 21.1239 13.6724 21.0035L12.7662 20.4941L11.8602 21.0035C11.7513 21.0648 11.6329 21.0938 11.5162 21.0938C11.2704 21.0938 11.0317 20.9648 10.9027 20.7352C10.7124 20.3967 10.8325 19.968 11.171 19.7777L12.4217 19.0746C12.6357 18.9543 12.8969 18.9543 13.1108 19.0746L14.0167 19.5839L14.9206 19.0748C15.259 18.8843 15.6877 19.0042 15.8783 19.3425C16.0688 19.6808 15.949 20.1096 15.6106 20.3002Z" fill="#006AD5"/>
<path d="M21.8071 20.25L22.4027 23.4264C22.4651 23.759 22.7555 24 23.0938 24C23.4321 24 23.7225 23.759 23.7849 23.4264L24.3805 20.25H21.8071Z" fill="#006AD5"/>
<path d="M24.5 6.65625V3.375C24.5 2.59833 23.8704 1.96875 23.0938 1.96875C22.3171 1.96875 21.6875 2.59833 21.6875 3.375V6.65625H24.5Z" fill="#006AD5"/>
<path d="M21.6875 8.0625H24.5V18.8438H21.6875V8.0625Z" fill="#006AD5"/>
</g>
<defs>
<clipPath id="clip0_496_4145">
<rect width="24" height="24" fill="white" transform="translate(0.5)"/>
</clipPath>
</defs>
</svg>
