<svg width="24" height="25" viewBox="0 0 24 25" fill="none" xmlns="http://www.w3.org/2000/svg">
<g clip-path="url(#clip0_496_4160)">
<path d="M2.85938 0.5V24.5H21.1406V0.5H2.85938ZM5.67188 3.35938H12.7031V10.3906H5.67188V3.35938ZM5.67188 11.7969H9.89062V13.2031H5.67188V11.7969ZM18.3281 21.6406H14.1094V20.2344H18.3281V21.6406ZM18.3281 18.8281H5.67188V17.4219H18.3281V18.8281ZM18.3281 16.0156H5.67188V14.6094H18.3281V16.0156ZM18.3281 6.17188H16.9219V10.3906H15.5156V6.17188H14.1094V4.76562H15.5156V3.35938H16.9219V4.76562H18.3281V6.17188Z" fill="#006AD5"/>
<path d="M7.07812 4.76562H11.2969V8.98438H7.07812V4.76562Z" fill="#006AD5"/>
</g>
<defs>
<clipPath id="clip0_496_4160">
<rect width="24" height="24" fill="white" transform="translate(0 0.5)"/>
</clipPath>
</defs>
</svg>
