<svg width="45" height="29" viewBox="0 0 45 29" fill="none" xmlns="http://www.w3.org/2000/svg">
<path d="M44.9824 26.6133C44.9727 26.6133 44.9649 26.6212 44.9647 26.6309C44.9551 27.4321 44.2907 28.125 43.4531 28.125H1.51172C0.667969 28.125 0 27.4219 0 26.6133V1.51172C0 0.703125 0.667969 0 1.51172 0H43.4883C44.2969 0 45 0.667969 45 1.51172V26.5957C45 26.6054 44.9921 26.6133 44.9824 26.6133Z" fill="#6E85A7"/>
<path d="M13.957 13.4297V12.9727L13.7461 13.4297H11.8828L11.6719 12.9375V13.3945H8.19141L7.80469 12.4102H7.13672L6.67969 13.3945H4.88672V10.4414L6.22266 7.45312H8.75391L9.10547 8.29687V7.48828H12.1992L12.8672 8.92969L13.5352 7.48828H23.3086C23.3086 7.48828 23.8008 7.48828 24.1523 7.69922V7.48828H26.6133V7.80469C26.6133 7.80469 27.0352 7.48828 27.7383 7.48828C28.3711 7.48828 32.0625 7.48828 32.0625 7.48828L32.4492 8.33203V7.48828H35.2617L35.7539 8.33203V7.48828H38.3906V13.4297H35.6484L35.0156 12.375V13.4297H31.5703L31.1133 12.3398H30.4453L29.9883 13.4297H27.9492C27.9492 13.4297 27.2109 13.4297 26.6133 13.0078C26.6133 13.2187 26.6133 13.4297 26.6133 13.4297H22.4648C22.4648 13.4297 22.4648 12.2344 22.4648 12.0234C22.4648 11.8125 22.3242 11.8477 22.3242 11.8477H22.1836V13.4297H13.957Z" fill="#6E85A7"/>
<path d="M11.918 14.6953H17.2969L18.0703 15.5742L18.8437 14.6953H22.957C22.957 14.6953 23.3438 14.6953 23.6953 14.9063V14.6953C23.6953 14.6953 26.9297 14.6953 27.3867 14.6953C27.8438 14.6953 28.2305 14.9414 28.2305 14.9414V14.6953H32.9766V14.9063C32.9766 14.9063 33.293 14.6953 33.75 14.6953C34.207 14.6953 36.8438 14.6953 36.8438 14.6953V14.9063C36.8438 14.9063 37.2305 14.6953 37.6172 14.6953C38.0039 14.6953 40.043 14.6953 40.043 14.6953V20.2852C40.043 20.2852 39.7266 20.6367 39.0586 20.6367H35.8594V20.4609C35.8594 20.4609 35.5781 20.6367 35.1211 20.6367C34.6641 20.6367 26.6133 20.6367 26.6133 20.6367C26.6133 20.6367 26.6133 19.3359 26.6133 19.1953C26.6133 19.0547 26.543 19.0195 26.4375 19.0195H26.332V20.6367H23.6953V19.0195C23.6953 19.0195 23.4141 19.1602 22.9219 19.1602C22.4297 19.1602 21.9375 19.1602 21.9375 19.1602V20.6016H18.668L17.9297 19.7227L17.2266 20.6367H11.918V14.6953Z" fill="#6E85A7"/>
<path d="M28.8984 15.6094H32.2734V16.4883H29.918V17.2969H32.2031V18.0703H29.918V18.9141H32.2734V19.793H28.8984V15.6094Z" fill="#EFF3FF"/>
<path d="M38.8125 17.2266C40.0781 17.2969 40.1836 17.9297 40.1836 18.5977C40.1836 19.3711 39.5508 19.8281 38.8477 19.8281H36.668V18.9492H38.3555C38.6367 18.9492 39.0586 18.9492 39.0586 18.5625C39.0586 18.3867 38.9883 18.2461 38.6719 18.2109C38.5312 18.1758 38.0391 18.1758 37.9687 18.1758C36.8086 18.1406 36.5625 17.5781 36.5625 16.875C36.5625 16.1016 37.0898 15.6445 37.793 15.6445H39.9727V16.5234H38.3906C38.0391 16.5234 37.6523 16.4883 37.6523 16.875C37.6523 17.1211 37.8281 17.1914 38.0742 17.1914C38.1445 17.1914 38.7422 17.2266 38.8125 17.2266Z" fill="#EFF3FF"/>
<path d="M34.875 17.2266C36.1406 17.2969 36.2461 17.9297 36.2461 18.5977C36.2461 19.3711 35.6133 19.8281 34.9102 19.8281H32.7305V18.9492H34.418C34.6992 18.9492 35.1211 18.9492 35.1211 18.5625C35.1211 18.3867 35.0508 18.2461 34.7344 18.2109C34.5938 18.1758 34.1016 18.1758 34.0312 18.1758C32.8711 18.1406 32.625 17.5781 32.625 16.875C32.625 16.1016 33.1523 15.6445 33.8555 15.6445H36.0352V16.5234H34.4531C34.1016 16.5234 33.7148 16.4883 33.7148 16.875C33.7148 17.1211 33.8906 17.1914 34.1367 17.1914C34.2422 17.1914 34.8047 17.2266 34.875 17.2266Z" fill="#EFF3FF"/>
<path d="M22.6758 15.6094H19.0195L17.8242 16.9102L16.6641 15.5742H12.6211V19.7578H16.5586L17.8242 18.3516L19.0547 19.7578H21.0234V18.3164H22.4297C22.957 18.3164 23.9414 18.2812 23.9414 16.8047C23.8711 15.8203 23.168 15.6094 22.6758 15.6094ZM16.0312 18.9141H13.6406V18.1055H15.9258V17.332H13.6406V16.5586H16.1367L17.1562 17.7188L16.0312 18.9141ZM19.9687 19.4062L18.4922 17.6484L19.9687 15.9961V19.4062ZM22.2891 17.5078H20.9883V16.4883H22.2891C22.7109 16.4883 22.8516 16.7695 22.8516 16.9453C22.8867 17.2617 22.7461 17.5078 22.2891 17.5078Z" fill="#EFF3FF"/>
<path d="M27.6328 17.8945C28.1953 17.6133 28.3359 17.2617 28.3359 16.6992C28.3359 15.8203 27.6328 15.5742 27.0703 15.5742H24.3984V19.7578H25.4531V18.2812H26.8242C27.1758 18.2812 27.3164 18.6328 27.3164 18.9844L27.3516 19.7578H28.3711L28.3359 18.9844C28.3359 18.2461 28.125 17.9297 27.6328 17.8945ZM26.7539 17.4727H25.4531V16.4883H26.7539C27.1758 16.4883 27.3164 16.7695 27.3164 16.9453C27.3164 17.2617 27.1758 17.4727 26.7539 17.4727Z" fill="#EFF3FF"/>
<path d="M25.9102 8.33203H24.8555V12.5508H25.9102V8.33203Z" fill="#EFF3FF"/>
<path d="M16.3828 8.33203H19.7578V9.21094H17.4375V10.0195H19.6875V10.8281H17.4375V11.6719H19.7578V12.5156H16.3828V8.33203Z" fill="#EFF3FF"/>
<path d="M23.5898 10.6172C24.1523 10.3359 24.293 9.98437 24.293 9.42187C24.293 8.54297 23.5898 8.29688 23.0273 8.29688H20.3555V12.4805H21.4102V11.0039H22.7813C23.1328 11.0039 23.2734 11.3555 23.2734 11.707L23.3086 12.4805H24.3281L24.2578 11.707C24.2578 10.9687 24.0469 10.6875 23.5898 10.6172ZM22.7109 10.1953H21.4102V9.21094H22.7109C23.1328 9.21094 23.2734 9.49219 23.2734 9.66797C23.2734 10.0195 23.1328 10.1953 22.7109 10.1953Z" fill="#EFF3FF"/>
<path d="M13.9922 8.33203L12.7266 11.1797L11.4609 8.33203H9.84375V12.375L8.05078 8.33203H6.67969L4.85156 12.5156H5.94141L6.32812 11.5664H8.4375L8.82422 12.5156H10.8984V9.38672L12.3047 12.5156H13.2539L14.6602 9.42187V12.5156H15.7148V8.33203H13.9922ZM6.71484 10.6875L7.3125 9.21094L7.94531 10.6875H6.71484Z" fill="#EFF3FF"/>
<path d="M36.5271 8.33203V11.25L34.7693 8.33203H33.2225V12.2695L31.4646 8.33203H30.0935L28.6873 11.6016C28.6873 11.6016 28.0896 11.6016 28.0545 11.6016C27.8084 11.5664 27.4217 11.3906 27.4217 10.6172V10.3008C27.4217 9.28125 27.949 9.21094 28.6521 9.21094H29.285V8.26172H27.9139C27.4568 8.26172 26.4021 8.61328 26.367 10.3359C26.3318 11.5312 26.824 12.4453 27.9842 12.4453H29.3553L29.742 11.4961H31.8162L32.2029 12.4453H34.242V9.35156L36.1053 12.4453H37.5115V8.33203H36.5271ZM30.199 10.6875L30.7967 9.21094L31.4295 10.6875H30.199Z" fill="#EFF3FF"/>
</svg>
