<svg width="23" height="23" viewBox="0 0 23 23" fill="none" xmlns="http://www.w3.org/2000/svg">
<path d="M11.4997 2.33301C6.44517 2.33301 2.33301 6.44517 2.33301 11.4997V15.2974C2.33301 16.2361 3.15526 16.9997 4.16634 16.9997H5.08301C5.32612 16.9997 5.55928 16.9031 5.73119 16.7312C5.9031 16.5593 5.99967 16.3261 5.99967 16.083V11.3686C5.99967 11.1255 5.9031 10.8923 5.73119 10.7204C5.55928 10.5485 5.32612 10.4519 5.08301 10.4519H4.25067C4.76034 6.90443 7.81284 4.16634 11.4997 4.16634C15.1865 4.16634 18.239 6.90443 18.7487 10.4519H17.9163C17.6732 10.4519 17.4401 10.5485 17.2682 10.7204C17.0963 10.8923 16.9997 11.1255 16.9997 11.3686V16.9997C16.9997 18.0108 16.1774 18.833 15.1663 18.833H13.333V17.9163H9.66634V20.6663H15.1663C17.1885 20.6663 18.833 19.0218 18.833 16.9997C19.8441 16.9997 20.6663 16.2361 20.6663 15.2974V11.4997C20.6663 6.44517 16.5542 2.33301 11.4997 2.33301Z" fill="#6E85A7"/>
</svg>
