<svg width="23" height="23" viewBox="0 0 23 23" fill="none" xmlns="http://www.w3.org/2000/svg">
<g clip-path="url(#clip0_772_1658)">
<path d="M17.4754 14.4713C16.3121 14.4713 15.17 14.2894 14.0876 13.9317C13.5573 13.7508 12.9053 13.9168 12.5816 14.2492L10.4452 15.8619C7.96766 14.5394 6.44153 13.0138 5.13706 10.5548L6.70233 8.4741C7.109 8.06798 7.25486 7.47472 7.0801 6.91808C6.72089 5.83003 6.53841 4.6884 6.53841 3.52465C6.53846 2.68395 5.85451 2 5.01386 2H1.5246C0.683949 2 0 2.68395 0 3.5246C0 13.1607 7.83936 21 17.4754 21C18.3161 21 19 20.316 19 19.4754V15.9959C19 15.1553 18.316 14.4713 17.4754 14.4713Z" fill="#6E85A7"/>
</g>
<defs>
<clipPath id="clip0_772_1658">
<rect width="22" height="23" fill="white" transform="translate(0.5)"/>
</clipPath>
</defs>
</svg>
