<svg width="86" height="27" viewBox="0 0 86 27" fill="none" xmlns="http://www.w3.org/2000/svg">
<g clip-path="url(#clip0_295_3314)">
<path d="M12.9426 0.436768C5.73295 0.436768 0 6.30816 0 13.4602C0 20.6905 5.73295 26.5633 12.9426 26.5633C20.1903 26.5633 25.8464 20.6916 25.8464 13.4624C25.8476 6.31044 20.1903 0.436768 12.9426 0.436768ZM12.9426 5.96481C18.8294 5.96481 23.1418 9.69366 24.9642 13.4624C23.1418 17.2888 18.8294 21.0353 12.9426 21.0353C7.0178 21.0353 2.73989 17.2875 0.918759 13.4624C2.73989 9.69488 7.01903 5.96709 12.9426 5.96709V5.96482V5.96481ZM12.9426 6.55751C9.10769 6.55751 5.98108 9.65343 5.98108 13.4602C5.98108 17.3244 9.10769 20.4038 12.9426 20.4038C16.7775 20.4038 19.863 17.3243 19.863 13.4624C19.863 9.65571 16.7775 6.55751 12.9426 6.55751Z" fill="#A9B6C9"/>
<path d="M38.2197 1.98682C31.4506 1.98682 26.7329 7.11212 26.7329 13.3461V13.4213C26.7329 19.7324 31.5467 24.7259 38.0483 24.7259C42.2857 24.7259 44.8175 23.2142 47.0805 20.7845L43.9928 17.6888C42.2661 19.2555 40.7112 20.2716 38.1991 20.2716C34.4219 20.2716 31.7952 17.1124 31.7952 13.3461V13.2891C31.7952 9.52155 34.4795 6.44117 38.1991 6.44117C40.4044 6.44117 42.1304 7.3786 43.8374 8.92822L46.925 5.36975C44.8732 3.36235 42.381 1.98682 38.2197 1.98682Z" fill="#A9B6C9"/>
<path d="M48.9067 2.36768V24.3408H59.3948C64.3599 24.3408 67.6385 22.3352 67.6385 18.3204V18.2429C67.6385 15.2978 66.068 13.8236 63.5155 12.8493C65.0887 11.9705 66.4112 10.5937 66.4112 8.10773V8.05073C66.4112 6.53784 65.912 5.31428 64.8959 4.30078C63.6319 3.05839 61.6566 2.36768 59.1434 2.36768H48.9067ZM53.6217 6.59407H58.4166C60.4684 6.59407 61.598 7.41632 61.598 8.85088V8.92838C61.598 10.5539 60.2373 11.2422 58.0898 11.2422L53.6217 11.2445V6.59406V6.59407ZM53.6217 15.2611H59.2416C61.7132 15.2611 62.8253 16.1799 62.8253 17.6524V17.7277C62.8253 19.3532 61.5227 20.0985 59.3948 20.0985L53.6217 20.1007V15.2611V15.2611Z" fill="#A9B6C9"/>
<path d="M77.1438 2.04395C72.6573 2.04395 69.4372 4.68237 69.4372 8.6776V8.73687C69.4372 13.0993 72.3115 14.324 76.7416 15.4526C80.4231 16.4073 81.1891 17.0188 81.1891 18.2428V18.3203C81.1891 19.6007 79.98 20.3857 78.0054 20.3857C75.4738 20.3857 73.4036 19.3509 71.4279 17.7254L68.5527 21.1493C71.1985 23.5019 74.5728 24.6508 77.9095 24.6508V24.6485C82.6648 24.6485 86 22.1992 86 17.8416V17.7846C86 13.9412 83.4701 12.3505 79.0019 11.1852C75.2062 10.2084 74.2458 9.73147 74.2458 8.29691V8.23992C74.2458 7.16889 75.224 6.30909 77.0844 6.30909C78.9448 6.30909 80.8625 7.12989 82.8186 8.48612L85.3304 4.83646C83.1055 3.05795 80.3652 2.04395 77.1438 2.04395Z" fill="#A9B6C9"/>
</g>
<defs>
<clipPath id="clip0_295_3314">
<rect width="86" height="26.1266" fill="white" transform="translate(0 0.436768)"/>
</clipPath>
</defs>
</svg>
