<svg width="33" height="30" viewBox="0 0 33 30" fill="none" xmlns="http://www.w3.org/2000/svg">
<g opacity="0.4">
<path d="M26.6531 15.4242C30.3328 15.4242 32.8125 17.9836 32.8125 21.7758C32.8125 25.1883 29.9625 28.0312 26.1023 28.0312C21.8742 28.0312 18.75 24.6187 18.75 19.4062C18.75 7.55859 27.3891 2.81953 32.8125 2.25V7.4625C29.1352 8.12578 25.0008 11.8219 24.8156 15.9C25.0008 15.8063 25.7344 15.4242 26.6531 15.4242ZM7.90547 15.4242C11.5805 15.4242 14.0625 17.9836 14.0625 21.7758C14.0625 25.1883 11.2125 28.0312 7.35234 28.0312C3.12422 28.0312 0 24.6187 0 19.4062C0 7.55859 8.63906 2.81953 14.0625 2.25V7.4625C10.3852 8.12578 6.25078 11.8219 6.06562 15.9C6.25078 15.8063 6.98438 15.4242 7.90547 15.4242Z" fill="#6E85A7"/>
</g>
</svg>
