<svg width="31" height="31" viewBox="0 0 31 31" fill="none" xmlns="http://www.w3.org/2000/svg">
<path d="M24.8622 26.3552C24.8622 26.6393 24.6297 26.8718 24.3455 26.8718H3.10016C2.816 26.8718 2.5835 26.6393 2.5835 26.3552C2.5835 26.071 2.816 25.8385 3.10016 25.8385H24.3455C24.6297 25.8385 24.8622 26.071 24.8622 26.3552Z" fill="white"/>
<path d="M23.8081 20.6615V22.32C23.8081 23.5084 22.8419 24.4745 21.6536 24.4745H5.79708C4.60874 24.4745 3.64258 23.5084 3.64258 22.32V11.5837C3.64258 10.3954 4.60874 9.4292 5.79708 9.4292H17.1276V17.918C17.1276 19.4319 18.3572 20.6615 19.8659 20.6615H23.8081Z" fill="white"/>
<path d="M26.712 4.12817H19.8661C18.9258 4.12817 18.1611 4.89284 18.1611 5.83834V17.9232C18.1611 18.8635 18.9258 19.6333 19.8661 19.6333H26.712C27.6523 19.6333 28.417 18.8635 28.417 17.9232V5.83834C28.417 4.88767 27.6523 4.12817 26.712 4.12817ZM24.9243 17.9283H21.659C21.3748 17.9283 21.1423 17.6958 21.1423 17.4117C21.1423 17.1275 21.3748 16.895 21.659 16.895H24.9243C25.2085 16.895 25.441 17.1275 25.441 17.4117C25.441 17.6958 25.2085 17.9283 24.9243 17.9283Z" fill="white"/>
</svg>
