<svg width="45" height="29" viewBox="0 0 45 29" fill="none" xmlns="http://www.w3.org/2000/svg">
<path d="M44.9824 26.6133C44.9727 26.6133 44.9649 26.6212 44.9647 26.6309C44.9551 27.4321 44.2907 28.125 43.4531 28.125H1.51172C0.667969 28.125 0 27.4219 0 26.6133V1.51172C0 0.703125 0.667969 0 1.51172 0H43.4883C44.2969 0 45 0.667969 45 1.51172V26.5957C45 26.6054 44.9921 26.6133 44.9824 26.6133Z" fill="#6E85A7"/>
<path d="M43.4883 27.625H17.0345C31.561 24.1786 40.9424 19.1027 44.5 16.9605V26.6133C44.5 27.1734 44.0283 27.625 43.4883 27.625Z" fill="#EFF3FF" stroke="#6E85A7"/>
<path d="M23.0625 11.8477C21.7969 11.8477 20.8125 12.832 20.8125 13.9922C20.8125 15.2578 21.7969 16.207 23.0625 16.207C24.3281 16.207 25.2773 15.2227 25.2773 14.0273C25.2773 12.7969 24.3281 11.8477 23.0625 11.8477Z" fill="#EFF3FF"/>
<path d="M10.3008 11.9531H9.07031V16.1367H10.2656C10.8984 16.1367 11.3906 15.9961 11.7773 15.6445C12.2344 15.2578 12.5156 14.625 12.5156 14.0273C12.5508 12.7969 11.6016 11.9531 10.3008 11.9531ZM11.25 15.1172C11.0039 15.3633 10.6523 15.4336 10.125 15.4336H9.91406V12.6211H10.125C10.6523 12.6211 10.9688 12.7266 11.25 12.9375C11.5313 13.1836 11.707 13.5703 11.707 13.9922C11.7422 14.4492 11.5313 14.8359 11.25 15.1172Z" fill="#EFF3FF"/>
<path d="M13.7461 11.9531H12.9375V16.1367H13.7461V11.9531Z" fill="#EFF3FF"/>
<path d="M15.7852 13.5703C15.2578 13.3945 15.1172 13.2891 15.1172 13.0078C15.1172 12.7617 15.3633 12.5508 15.7148 12.5508C15.9609 12.5508 16.1367 12.6562 16.3477 12.8672L16.7695 12.3047C16.418 11.9883 15.9961 11.8477 15.5039 11.8477C14.7656 11.8477 14.168 12.3398 14.168 13.0781C14.168 13.6406 14.4141 13.9219 15.2227 14.2383C15.5391 14.3437 15.7148 14.4141 15.7852 14.4844C15.9609 14.5898 16.0312 14.7305 16.0312 14.9063C16.0312 15.2578 15.75 15.5039 15.3984 15.5039C15.0117 15.5039 14.6953 15.3281 14.5195 14.9414L13.9922 15.4336C14.3789 15.9609 14.8008 16.207 15.4688 16.207C16.3125 16.207 16.9102 15.6445 16.9102 14.8008C16.9453 14.2031 16.6992 13.8867 15.7852 13.5703Z" fill="#EFF3FF"/>
<path d="M17.2617 14.0273C17.2617 15.293 18.2461 16.207 19.4766 16.207C19.8281 16.207 20.1094 16.1367 20.5313 15.9609V14.9766C20.2148 15.293 19.9336 15.4336 19.5117 15.4336C18.7031 15.4336 18.1055 14.8359 18.1055 13.9922C18.1055 13.1836 18.7031 12.5508 19.4766 12.5508C19.8633 12.5508 20.1445 12.6914 20.5313 13.0078V12.0234C20.1797 11.8477 19.8984 11.7773 19.5117 11.7773C18.2109 11.8477 17.2617 12.7969 17.2617 14.0273Z" fill="#EFF3FF"/>
<path d="M27.1406 14.7656L25.9805 11.9531H25.1016L26.8945 16.2422H27.3516L29.1445 11.9531H28.3008L27.1406 14.7656Z" fill="#EFF3FF"/>
<path d="M29.5312 16.1367H31.8867V15.4336H30.375V14.2734H31.8164V13.6055H30.375V12.6562H31.8867V11.9531H29.5312V16.1367Z" fill="#EFF3FF"/>
<path d="M35.1211 13.1836C35.1211 12.4102 34.5938 11.918 33.6094 11.918H32.3789V16.1016H33.1875V14.4141H33.293L34.4531 16.1016H35.4727L34.1367 14.3437C34.7695 14.2383 35.1211 13.8164 35.1211 13.1836ZM33.4687 13.8867H33.2227V12.5859H33.4687C33.9609 12.5859 34.2422 12.7969 34.2422 13.1836C34.2773 13.6406 33.9961 13.8867 33.4687 13.8867Z" fill="#EFF3FF"/>
<path d="M35.6836 12.2344C35.6836 12.1641 35.6484 12.1289 35.543 12.1289H35.4375V12.4805H35.5078V12.3398L35.6133 12.4805H35.7187L35.6133 12.3398C35.6836 12.3398 35.6836 12.3047 35.6836 12.2344ZM35.543 12.3047V12.1992C35.5781 12.1992 35.6133 12.1992 35.6133 12.2344C35.6133 12.2695 35.5781 12.3047 35.543 12.3047Z" fill="#EFF3FF"/>
<path d="M35.5781 11.9883C35.4023 11.9883 35.2617 12.1289 35.2617 12.3047C35.2617 12.4805 35.4023 12.6211 35.5781 12.6211C35.7539 12.6211 35.8945 12.4805 35.8945 12.3047C35.8945 12.1289 35.7539 11.9883 35.5781 11.9883ZM35.5781 12.5859C35.4375 12.5859 35.332 12.4805 35.332 12.3398C35.332 12.1992 35.4375 12.0938 35.5781 12.0938C35.7187 12.0938 35.8242 12.1992 35.8242 12.3398C35.8242 12.4453 35.7187 12.5859 35.5781 12.5859Z" fill="#EFF3FF"/>
</svg>
