<svg width="23" height="23" viewBox="0 0 23 23" fill="none" xmlns="http://www.w3.org/2000/svg">
<g clip-path="url(#clip0_772_1664)">
<path d="M17.4586 9.66699C14.6787 9.66699 12.417 11.9287 12.417 14.7086C12.417 17.4886 14.6787 19.7503 17.4586 19.7503C18.3449 19.7503 19.2163 19.5171 19.9799 19.0754C20.1988 18.9487 20.274 18.6685 20.1469 18.4492C20.0202 18.2299 19.7396 18.1542 19.5207 18.2823C18.8967 18.643 18.1837 18.8337 17.4586 18.8337C15.1839 18.8337 13.3336 16.9833 13.3336 14.7087C13.3336 12.4341 15.184 10.5837 17.4586 10.5837C19.7332 10.5837 21.5836 12.4341 21.5836 14.7087V15.167C21.5836 15.6723 21.1723 16.0837 20.6669 16.0837C20.1616 16.0837 19.7503 15.6723 19.7503 15.167V13.3337C19.7503 13.0803 19.5453 12.8753 19.2919 12.8753C19.1687 12.8753 19.0579 12.9252 18.9756 13.0042C18.5705 12.6433 18.0426 12.417 17.4586 12.417C16.1951 12.417 15.1669 13.4451 15.1669 14.7086C15.1669 15.9722 16.1951 17.0003 17.4586 17.0003C18.1417 17.0003 18.749 16.6939 19.1692 16.2182C19.5012 16.6899 20.0475 17.0003 20.667 17.0003C21.6781 17.0003 22.5003 16.1781 22.5003 15.167V14.7086C22.5003 11.9287 20.2386 9.66699 17.4586 9.66699ZM17.4586 16.0837C16.7004 16.0837 16.0836 15.4669 16.0836 14.7087C16.0836 13.9505 16.7004 13.3337 17.4586 13.3337C18.2169 13.3337 18.8336 13.9505 18.8336 14.7087C18.8336 15.4669 18.2169 16.0837 17.4586 16.0837Z" fill="#6E85A7"/>
<path d="M1.26086 4.31081L8.81128 10.4535C8.83633 10.4741 8.86366 10.492 8.89228 10.5063C8.993 10.5578 9.09952 10.5838 9.2096 10.5838C9.32596 10.5838 9.44236 10.5534 9.61244 10.4504L17.1571 4.31124C17.269 4.22036 17.3312 4.08252 17.3258 3.93883C17.3204 3.79514 17.2479 3.6622 17.1297 3.57987C16.8205 3.36413 16.4583 3.25 16.0837 3.25H2.33374C1.9591 3.25 1.59747 3.3637 1.28818 3.57944C1.17002 3.66134 1.09749 3.79429 1.09212 3.9384C1.08675 4.08209 1.14897 4.21993 1.26086 4.31081Z" fill="#6E85A7"/>
<path d="M11.5 14.7083C11.5 11.4229 14.173 8.74992 17.4583 8.74992C17.7117 8.74992 17.9167 8.54492 17.9167 8.29157V5.83836C17.9167 5.66154 17.8151 5.50041 17.6553 5.42436C17.4955 5.35006 17.3066 5.37198 17.1692 5.48301L10.1371 11.2054L10.0565 11.2587C9.52791 11.5832 8.87843 11.5998 8.28181 11.2059L1.24748 5.48249C1.11097 5.37103 0.922082 5.34865 0.761379 5.42384C0.601621 5.49998 0.5 5.66111 0.5 5.83789V14.2499C0.5 15.261 1.32221 16.0833 2.33335 16.0833H11.1147C11.2476 16.0833 11.3738 16.0255 11.4611 15.9253C11.548 15.825 11.5874 15.6916 11.5685 15.56C11.5219 15.2342 11.5 14.9634 11.5 14.7083Z" fill="#6E85A7"/>
</g>
<defs>
<clipPath id="clip0_772_1664">
<rect width="22" height="22" fill="white" transform="translate(0.5 0.5)"/>
</clipPath>
</defs>
</svg>
