<svg width="136" height="37" viewBox="0 0 136 37" fill="none" xmlns="http://www.w3.org/2000/svg">
<path d="M77.0439 12.6675C77.0439 8.82345 77.1119 5.2445 77.3159 1.93066L66.9119 3.85269V4.78057L67.9319 4.91312C68.6799 4.9794 69.1559 5.2445 69.4279 5.64217C69.6999 6.1061 69.9039 6.76887 70.0399 7.76302C70.1759 9.68505 70.3119 14.0593 70.2439 20.9521C70.2439 27.7786 70.1759 32.0866 70.0399 33.7435C73.7799 34.5389 76.7039 34.8702 78.8799 34.8702C82.9599 34.8702 86.1559 33.7435 88.4679 31.4238C90.7799 29.1704 92.0039 25.9892 92.0039 22.0788C92.0039 18.9638 91.1199 16.379 89.3519 14.3244C87.5839 12.2698 85.3399 11.2757 82.6879 11.2757C80.9199 11.2757 79.0839 11.7396 77.0439 12.6675ZM77.2479 33.0808C77.1119 30.9599 76.9759 24.5973 76.9759 14.1919C77.5879 13.993 78.4039 13.8605 79.4239 13.8605C81.0559 13.8605 82.3479 14.6558 83.2999 16.3127C84.2519 17.9697 84.7279 19.958 84.7279 22.4765C84.7279 25.5915 84.1839 28.11 83.0959 30.2309C82.0079 32.2854 80.6479 33.3459 78.9479 33.3459C78.4039 33.2133 77.8599 33.147 77.2479 33.0808ZM27.8799 2.59343H0.679932V3.91897L2.10793 4.05152C3.19593 4.25035 3.94393 4.64801 4.41993 5.2445C4.89593 5.90727 5.16793 6.9677 5.23593 8.42579C5.77993 15.5837 5.77993 22.2776 5.23593 28.4414C5.09993 29.8995 4.82793 30.9599 4.41993 31.6227C3.94393 32.2854 3.19593 32.6831 2.10793 32.8157L0.679932 33.0145V34.34H18.2239V33.0145L16.3879 32.8819C15.2999 32.7494 14.5519 32.2854 14.0759 31.689C13.5999 31.0262 13.3279 29.9658 13.2599 28.5077C13.0559 25.8566 12.9199 22.8079 12.9199 19.4277L16.5919 19.494C18.5639 19.5603 19.9239 21.0184 20.6039 23.9346H21.9639V13.1314H20.6039C19.9239 15.9813 18.6319 17.4394 16.5919 17.5057L12.9199 17.572C12.9199 11.6071 13.0559 7.36536 13.2599 4.78057H18.6319C22.4399 4.78057 25.0239 7.16653 26.5199 11.9385L28.1519 11.4745L27.8799 2.59343ZM24.6839 23.0067C24.6839 26.4531 25.7039 29.303 27.6759 31.5564C29.6479 33.8098 32.5719 34.8702 36.2439 34.8702C39.9159 34.8702 42.9079 33.7435 45.0839 31.4238C47.2599 29.1704 48.2799 26.3205 48.2799 22.8741C48.2799 19.4277 47.2599 16.5778 45.2879 14.3244C43.3159 12.071 40.3919 11.0106 36.7199 11.0106C33.0479 11.0106 30.0559 12.1373 27.8799 14.457C25.7039 16.7104 24.6839 19.5603 24.6839 23.0067ZM39.8479 15.4511C40.6639 17.3732 41.0039 19.8917 41.0039 22.9404C41.0039 29.9658 39.5079 33.4122 36.5839 33.4122C35.0879 33.4122 33.9319 32.418 33.1159 30.4297C32.2999 28.4414 31.9599 25.9229 31.9599 22.9404C31.9599 15.9813 33.4559 12.535 36.3799 12.535C37.8759 12.4687 39.0319 13.4628 39.8479 15.4511ZM97.3079 31.5564C99.5519 33.7435 102.408 34.8702 105.808 34.8702C107.916 34.8702 109.752 34.4726 111.384 33.611C113.016 32.8157 114.308 31.8215 115.192 30.6285L114.512 29.8332C113.016 30.9599 111.316 31.4901 109.344 31.4901C106.624 31.4901 104.516 30.6285 103.088 28.8391C101.592 27.0496 100.912 24.7962 101.048 21.88H115.6C115.6 18.6987 114.784 16.1139 113.084 14.0593C111.384 12.071 109.004 11.0769 105.944 11.0769C102.136 11.0769 99.2119 12.2698 97.1039 14.5895C94.9959 16.9092 93.9759 19.7591 93.9759 23.1392C93.9759 26.5856 95.0639 29.3693 97.3079 31.5564ZM102.34 14.9209C103.088 13.3303 104.04 12.535 105.332 12.535C107.372 12.535 108.392 15.0535 108.392 20.1568L101.184 20.2893C101.252 18.301 101.592 16.5116 102.34 14.9209ZM133.892 12.2698C132.056 11.4745 129.744 11.0106 126.956 11.0106C124.1 11.0106 121.856 11.7396 120.156 13.1314C118.456 14.5233 117.572 16.2465 117.572 18.301C117.572 20.0905 118.116 21.4823 119.136 22.4765C120.156 23.4706 121.788 24.3322 123.896 25.0613C125.8 25.724 127.16 26.3868 127.84 26.9833C128.52 27.6461 128.928 28.3751 128.928 29.3693C128.928 30.2971 128.588 31.1587 127.84 31.8215C127.16 32.5506 126.208 32.8819 124.984 32.8819C121.992 32.8819 119.748 30.7611 118.184 26.5194L117.028 26.8507L117.3 33.4784C119.748 34.4063 122.468 34.8702 125.46 34.8702C128.588 34.8702 130.968 34.2075 132.736 32.8157C134.504 31.4901 135.388 29.5681 135.388 27.1821C135.388 25.5915 134.98 24.266 134.096 23.2718C133.212 22.2776 131.784 21.416 129.744 20.6207C127.5 19.8254 125.936 19.0964 125.12 18.4336C124.304 17.7708 123.896 16.9755 123.896 15.9813C123.896 14.9872 124.168 14.1919 124.78 13.5291C125.392 12.8663 126.14 12.6012 127.092 12.6012C129.812 12.6012 131.784 14.5233 133.008 18.301L134.164 17.9697L133.892 12.2698ZM68.4759 11.6734C67.5239 11.2094 66.5039 11.0106 65.3479 11.0106C64.1919 11.0106 63.0359 11.4745 61.7439 12.4024C60.4519 13.3303 59.4999 14.5895 58.7519 16.3127L58.8199 11.0106L48.4839 12.9989V13.9268L49.5039 13.993C50.7959 14.1256 51.5439 15.1198 51.6799 16.9092C52.0879 21.0184 52.0879 25.3927 51.6799 30.032C51.5439 31.8215 50.7959 32.7494 49.5039 32.9482L48.4839 33.0808V34.34H62.8999V33.0808L61.0639 32.9482C59.7719 32.8157 59.0239 31.8215 58.8879 30.032C58.4799 26.188 58.4119 22.0788 58.7519 17.8371C59.1599 17.1743 60.0439 16.7767 61.4039 16.6441C62.7639 16.5116 64.3279 16.9092 65.9599 17.8371L68.4759 11.6734Z" fill="#A9B6C9"/>
</svg>
