<svg width="23" height="29" viewBox="0 0 23 29" fill="none" xmlns="http://www.w3.org/2000/svg">
<path d="M11.5 0C5.50244 0 0.625 4.87744 0.625 10.875C0.625 18.4132 10.4415 28.3167 10.8584 28.7354C11.036 28.9112 11.268 29 11.5 29C11.732 29 11.964 28.9112 12.1416 28.7354C12.5585 28.3167 22.375 18.4132 22.375 10.875C22.375 4.87744 17.4976 0 11.5 0ZM11.5 18.125C7.50163 18.125 4.25 14.8734 4.25 10.875C4.25 6.87663 7.50163 3.625 11.5 3.625C15.4984 3.625 18.75 6.87663 18.75 10.875C18.75 14.8734 15.4984 18.125 11.5 18.125Z" fill="white"/>
</svg>
