<svg width="65" height="65" viewBox="0 0 65 65" fill="none" xmlns="http://www.w3.org/2000/svg">
<path opacity="0.15" d="M29.4602 1.78644C31.3368 0.683642 33.6634 0.683641 35.54 1.78643L56.9869 14.3899C58.8208 15.4676 59.947 17.4357 59.947 19.5628V44.955C59.947 47.0821 58.8208 49.0502 56.9869 50.1279L35.54 62.7314C33.6634 63.8342 31.3368 63.8342 29.4602 62.7314L8.01328 50.1279C6.1794 49.0502 5.05318 47.0821 5.05318 44.955V19.5628C5.05318 17.4357 6.17939 15.4676 8.01327 14.3899L29.4602 1.78644Z" fill="#006AD5"/>
<path d="M29.4555 5.18868C31.3345 4.08216 33.6659 4.08216 35.5449 5.18868L54.051 16.0869C55.8822 17.1653 57.0064 19.1319 57.0064 21.257V43.2609C57.0064 45.386 55.8822 47.3526 54.051 48.431L35.5448 59.3292C33.6659 60.4357 31.3345 60.4357 29.4555 59.3292L10.9493 48.431C9.11815 47.3526 7.994 45.386 7.994 43.2609V21.257C7.994 19.1319 9.11814 17.1653 10.9493 16.0869L29.4555 5.18868Z" fill="url(#paint0_linear_285_3080)"/>
<path d="M29.4555 5.18868C31.3345 4.08216 33.6659 4.08216 35.5449 5.18868L54.051 16.0869C55.8822 17.1653 57.0064 19.1319 57.0064 21.257V43.2609C57.0064 45.386 55.8822 47.3526 54.051 48.431L35.5448 59.3292C33.6659 60.4357 31.3345 60.4357 29.4555 59.3292L10.9493 48.431C9.11815 47.3526 7.994 45.386 7.994 43.2609V21.257C7.994 19.1319 9.11814 17.1653 10.9493 16.0869L29.4555 5.18868Z" fill="url(#paint1_linear_285_3080)"/>
<defs>
<linearGradient id="paint0_linear_285_3080" x1="47.7807" y1="11.3189" x2="9.86234" y2="44.7098" gradientUnits="userSpaceOnUse">
<stop stop-color="#006AD5"/>
<stop offset="1" stop-color="#88C0F9"/>
</linearGradient>
<linearGradient id="paint1_linear_285_3080" x1="47.7807" y1="11.3189" x2="9.86234" y2="44.7098" gradientUnits="userSpaceOnUse">
<stop stop-color="#006AD5"/>
<stop offset="1" stop-color="#88C0F9"/>
</linearGradient>
</defs>
</svg>
