<svg width="21" height="21" viewBox="0 0 21 21" fill="none" xmlns="http://www.w3.org/2000/svg">
<path d="M0.518677 6.19357C0.518677 3.1363 2.9971 0.657853 6.05439 0.657853H14.9115C17.9688 0.657853 20.4472 3.1363 20.4472 6.19357V15.0507C20.4472 18.108 17.9688 20.5864 14.9115 20.5864H6.05439C2.9971 20.5864 0.518677 18.108 0.518677 15.0507V6.19357ZM6.05439 10.6221C6.05439 13.068 8.03713 15.0507 10.483 15.0507C12.9288 15.0507 14.9115 13.068 14.9115 10.6221C14.9115 8.17635 12.9288 6.19357 10.483 6.19357C8.03713 6.19357 6.05439 8.17635 6.05439 10.6221ZM8.26868 10.6221C8.26868 9.39919 9.26001 8.40785 10.483 8.40785C11.7059 8.40785 12.6972 9.39919 12.6972 10.6221C12.6972 11.8451 11.7059 12.8364 10.483 12.8364C9.26001 12.8364 8.26868 11.8451 8.26868 10.6221ZM4.39368 5.64C4.39368 6.25147 4.88937 6.74714 5.50082 6.74714C6.11227 6.74714 6.60796 6.25147 6.60796 5.64C6.60796 5.02852 6.11227 4.53285 5.50082 4.53285C4.88937 4.53285 4.39368 5.02852 4.39368 5.64Z" fill="#A9B6C9"/>
</svg>
