<svg width="21" height="20" viewBox="0 0 21 20" fill="none" xmlns="http://www.w3.org/2000/svg">
<path d="M2.20735 1.73253C2.59454 1.68489 2.97482 1.86782 3.19477 2.20752C4.74226 4.59756 6.60094 5.59182 8.66332 5.81802C8.76454 4.88673 9.00263 3.96655 9.45018 3.15641C10.1067 1.96776 11.1744 1.09265 12.6997 0.769287C14.8073 0.322456 16.4121 1.1281 17.3433 2.11477L19.2226 1.74393C19.6241 1.66473 20.0326 1.83866 20.2696 2.1897C20.5066 2.54075 20.529 3.00507 20.327 3.37973L18.5235 6.72551C18.6879 11.5541 17.4167 14.9238 14.7063 17.2454C13.2685 18.4768 11.2111 19.1753 8.95281 19.391C6.67683 19.6083 4.10412 19.3455 1.54663 18.5572C1.09795 18.4189 0.790103 17.984 0.79176 17.4906C0.793407 16.9972 1.10415 16.5645 1.55375 16.4296C2.83989 16.0435 3.81881 15.7097 4.70369 15.1268C3.44666 14.4224 2.52044 13.5015 1.8649 12.4516C0.95378 10.9923 0.615928 9.36553 0.548852 7.89828C0.481787 6.43117 0.682646 5.07235 0.894193 4.09163C1.01461 3.53336 1.15527 2.97249 1.34914 2.4367C1.48995 2.05054 1.82017 1.78018 2.20735 1.73253Z" fill="#A9B6C9"/>
</svg>
