<svg width="23" height="23" viewBox="0 0 23 23" fill="none" xmlns="http://www.w3.org/2000/svg">
<path d="M13.1689 22.578C18.4957 21.7767 22.5796 17.1804 22.5796 11.6303C22.5796 5.51568 17.6227 0.558838 11.5082 0.558838C5.39361 0.558838 0.436768 5.51568 0.436768 11.6303C0.436768 17.1804 4.52073 21.7767 9.84748 22.578L9.84748 14.9517H8.18677C7.26958 14.9517 6.52605 14.2081 6.52605 13.291C6.52605 12.3738 7.26958 11.6303 8.18677 11.6303H9.84748V9.41598C9.84748 7.27587 11.5824 5.54098 13.7225 5.54098H14.2761C15.1932 5.54098 15.9368 6.28451 15.9368 7.2017C15.9368 8.11889 15.1932 8.86241 14.2761 8.86241H13.7225C13.4168 8.86241 13.1689 9.11025 13.1689 9.41598V11.6303H14.8296C15.7468 11.6303 16.4903 12.3738 16.4903 13.291C16.4903 14.2081 15.7468 14.9517 14.8296 14.9517H13.1689L13.1689 22.578Z" fill="#A9B6C9"/>
</svg>
