<svg width="33" height="27" viewBox="0 0 33 27" fill="none" xmlns="http://www.w3.org/2000/svg">
<path d="M26.6531 13.4242C30.3328 13.4242 32.8125 15.9836 32.8125 19.7758C32.8125 23.1883 29.9625 26.0312 26.1023 26.0312C21.8742 26.0312 18.75 22.6187 18.75 17.4062C18.75 5.55859 27.3891 0.819531 32.8125 0.25V5.4625C29.1352 6.12578 25.0008 9.82188 24.8156 13.9C25.0008 13.8063 25.7344 13.4242 26.6531 13.4242ZM7.90547 13.4242C11.5805 13.4242 14.0625 15.9836 14.0625 19.7758C14.0625 23.1883 11.2125 26.0312 7.35234 26.0312C3.12422 26.0312 0 22.6187 0 17.4062C0 5.55859 8.63906 0.819531 14.0625 0.25V5.4625C10.3852 6.12578 6.25078 9.82188 6.06562 13.9C6.25078 13.8063 6.98438 13.4242 7.90547 13.4242Z" fill="#6E85A7"/>
</svg>
