<svg width="18" height="12" viewBox="0 0 18 12" fill="none" xmlns="http://www.w3.org/2000/svg">
<path d="M11.5 9.70827C11.5 6.42292 14.173 3.74992 17.4583 3.74992C17.7117 3.74992 17.9167 3.54492 17.9167 3.29157V0.83836C17.9167 0.661543 17.8151 0.500411 17.6553 0.424356C17.4955 0.350063 17.3066 0.371977 17.1692 0.483008L10.1371 6.20541L10.0565 6.2587C9.52791 6.5832 8.87843 6.59978 8.28181 6.20589L1.24748 0.482493C1.11097 0.371032 0.922082 0.348645 0.761379 0.42384C0.601621 0.499981 0.5 0.661114 0.5 0.837887V9.24992C0.5 10.261 1.32221 11.0833 2.33335 11.0833H11.1147C11.2476 11.0833 11.3738 11.0255 11.4611 10.9253C11.548 10.825 11.5874 10.6916 11.5685 10.56C11.5219 10.2342 11.5 9.96338 11.5 9.70827Z" fill="#6E85A7"/>
</svg>
