<svg width="19" height="19" viewBox="0 0 19 19" fill="none" xmlns="http://www.w3.org/2000/svg">
<path d="M9.49967 0.333008C4.44517 0.333008 0.333008 4.44517 0.333008 9.49967V13.2974C0.333008 14.2361 1.15526 14.9997 2.16634 14.9997H3.08301C3.32612 14.9997 3.55928 14.9031 3.73119 14.7312C3.9031 14.5593 3.99967 14.3261 3.99967 14.083V9.36859C3.99967 9.12548 3.9031 8.89232 3.73119 8.72041C3.55928 8.5485 3.32612 8.45193 3.08301 8.45193H2.25067C2.76034 4.90443 5.81284 2.16634 9.49967 2.16634C13.1865 2.16634 16.239 4.90443 16.7487 8.45193H15.9163C15.6732 8.45193 15.4401 8.5485 15.2682 8.72041C15.0963 8.89232 14.9997 9.12548 14.9997 9.36859V14.9997C14.9997 16.0108 14.1774 16.833 13.1663 16.833H11.333V15.9163H7.66634V18.6663H13.1663C15.1885 18.6663 16.833 17.0218 16.833 14.9997C17.8441 14.9997 18.6663 14.2361 18.6663 13.2974V9.49967C18.6663 4.44517 14.5542 0.333008 9.49967 0.333008Z" fill="#6E85A7"/>
</svg>
