<svg width="68" height="69" viewBox="0 0 68 69" fill="none" xmlns="http://www.w3.org/2000/svg">
<g filter="url(#filter0_d_647_2873)">
<rect x="20" y="16.75" width="28" height="28" rx="8" fill="white"/>
</g>
<path d="M24.9844 26.8604C24.9844 24.099 27.223 21.8604 29.9844 21.8604H37.9844C40.7458 21.8604 42.9844 24.099 42.9844 26.8604V34.8604C42.9844 37.6218 40.7458 39.8604 37.9844 39.8604H29.9844C27.223 39.8604 24.9844 37.6218 24.9844 34.8604V26.8604ZM29.9844 30.8604C29.9844 33.0695 31.7752 34.8604 33.9844 34.8604C36.1935 34.8604 37.9844 33.0695 37.9844 30.8604C37.9844 28.6513 36.1935 26.8604 33.9844 26.8604C31.7752 26.8604 29.9844 28.6513 29.9844 30.8604ZM31.9844 30.8604C31.9844 29.7558 32.8798 28.8604 33.9844 28.8604C35.089 28.8604 35.9844 29.7558 35.9844 30.8604C35.9844 31.965 35.089 32.8604 33.9844 32.8604C32.8798 32.8604 31.9844 31.965 31.9844 30.8604ZM28.4844 26.3604C28.4844 26.9127 28.9321 27.3604 29.4844 27.3604C30.0367 27.3604 30.4844 26.9127 30.4844 26.3604C30.4844 25.8081 30.0367 25.3604 29.4844 25.3604C28.9321 25.3604 28.4844 25.8081 28.4844 26.3604Z" fill="#A9B6C9"/>
<defs>
<filter id="filter0_d_647_2873" x="0" y="0.75" width="68" height="68" filterUnits="userSpaceOnUse" color-interpolation-filters="sRGB">
<feFlood flood-opacity="0" result="BackgroundImageFix"/>
<feColorMatrix in="SourceAlpha" type="matrix" values="0 0 0 0 0 0 0 0 0 0 0 0 0 0 0 0 0 0 127 0" result="hardAlpha"/>
<feOffset dy="4"/>
<feGaussianBlur stdDeviation="10"/>
<feComposite in2="hardAlpha" operator="out"/>
<feColorMatrix type="matrix" values="0 0 0 0 0.820556 0 0 0 0 0.852133 0 0 0 0 0.933333 0 0 0 1 0"/>
<feBlend mode="normal" in2="BackgroundImageFix" result="effect1_dropShadow_647_2873"/>
<feBlend mode="normal" in="SourceGraphic" in2="effect1_dropShadow_647_2873" result="shape"/>
</filter>
</defs>
</svg>
