<svg width="113" height="84" viewBox="0 0 113 84" fill="none" xmlns="http://www.w3.org/2000/svg">
<g clip-path="url(#clip0_250_12200)">
<g clip-path="url(#clip1_250_12200)">
<path d="M59.4885 41.4236C59.4885 41.778 59.1676 42.0652 58.7718 42.0652C58.376 42.0652 58.0552 41.778 58.0552 41.4236C58.0552 41.0692 58.376 40.782 58.7718 40.782C59.1676 40.782 59.4885 41.0692 59.4885 41.4236Z" fill="#2C394B"/>
<path d="M62.3552 41.4236C62.3552 41.778 62.0343 42.0652 61.6385 42.0652C61.2427 42.0652 60.9219 41.778 60.9219 41.4236C60.9219 41.0692 61.2427 40.782 61.6385 40.782C62.0343 40.782 62.3552 41.0692 62.3552 41.4236Z" fill="#2C394B"/>
<path d="M65.2214 41.4236C65.2214 41.778 64.9005 42.0652 64.5047 42.0652C64.1089 42.0652 63.7881 41.778 63.7881 41.4236C63.7881 41.0692 64.1089 40.782 64.5047 40.782C64.9005 40.782 65.2214 41.0692 65.2214 41.4236Z" fill="#2C394B"/>
<path d="M68.0881 41.4236C68.0881 41.778 67.7672 42.0652 67.3714 42.0652C66.9756 42.0652 66.6548 41.778 66.6548 41.4236C66.6548 41.0692 66.9756 40.782 67.3714 40.782C67.7672 40.782 68.0881 41.0692 68.0881 41.4236Z" fill="#2C394B"/>
<path d="M70.9548 41.4236C70.9548 41.778 70.6339 42.0652 70.2381 42.0652C69.8423 42.0652 69.5215 41.778 69.5215 41.4236C69.5215 41.0692 69.8423 40.782 70.2381 40.782C70.6339 40.782 70.9548 41.0692 70.9548 41.4236Z" fill="#2C394B"/>
<path d="M73.8215 41.4236C73.8215 41.778 73.5006 42.0652 73.1048 42.0652C72.709 42.0652 72.3882 41.778 72.3882 41.4236C72.3882 41.0692 72.709 40.782 73.1048 40.782C73.5006 40.782 73.8215 41.0692 73.8215 41.4236Z" fill="#2C394B"/>
<path d="M76.6877 41.4236C76.6877 41.778 76.3668 42.0652 75.971 42.0652C75.5752 42.0652 75.2544 41.778 75.2544 41.4236C75.2544 41.0692 75.5752 40.782 75.971 40.782C76.3668 40.782 76.6877 41.0692 76.6877 41.4236Z" fill="#2C394B"/>
<path d="M79.5544 41.4236C79.5544 41.778 79.2335 42.0652 78.8377 42.0652C78.4419 42.0652 78.1211 41.778 78.1211 41.4236C78.1211 41.0692 78.4419 40.782 78.8377 40.782C79.2335 40.782 79.5544 41.0692 79.5544 41.4236Z" fill="#2C394B"/>
<path d="M82.4211 41.4236C82.4211 41.778 82.1002 42.0652 81.7044 42.0652C81.3086 42.0652 80.9878 41.778 80.9878 41.4236C80.9878 41.0692 81.3086 40.782 81.7044 40.782C82.1002 40.782 82.4211 41.0692 82.4211 41.4236Z" fill="#2C394B"/>
<path d="M85.2878 41.4236C85.2878 41.778 84.9669 42.0652 84.5711 42.0652C84.1753 42.0652 83.8545 41.778 83.8545 41.4236C83.8545 41.0692 84.1753 40.782 84.5711 40.782C84.9669 40.782 85.2878 41.0692 85.2878 41.4236Z" fill="#2C394B"/>
<path d="M88.154 41.4236C88.154 41.778 87.8331 42.0652 87.4373 42.0652C87.0416 42.0652 86.7207 41.778 86.7207 41.4236C86.7207 41.0692 87.0416 40.782 87.4373 40.782C87.8331 40.782 88.154 41.0692 88.154 41.4236Z" fill="#2C394B"/>
<path d="M59.4885 43.9901C59.4885 44.3444 59.1676 44.6317 58.7718 44.6317C58.376 44.6317 58.0552 44.3444 58.0552 43.9901C58.0552 43.6357 58.376 43.3484 58.7718 43.3484C59.1676 43.3484 59.4885 43.6357 59.4885 43.9901Z" fill="#2C394B"/>
<path d="M62.3552 43.9901C62.3552 44.3444 62.0343 44.6317 61.6385 44.6317C61.2427 44.6317 60.9219 44.3444 60.9219 43.9901C60.9219 43.6357 61.2427 43.3484 61.6385 43.3484C62.0343 43.3484 62.3552 43.6357 62.3552 43.9901Z" fill="#2C394B"/>
<path d="M65.2214 43.9901C65.2214 44.3444 64.9005 44.6317 64.5047 44.6317C64.1089 44.6317 63.7881 44.3444 63.7881 43.9901C63.7881 43.6357 64.1089 43.3484 64.5047 43.3484C64.9005 43.3484 65.2214 43.6357 65.2214 43.9901Z" fill="#2C394B"/>
<path d="M68.0881 43.9901C68.0881 44.3444 67.7672 44.6317 67.3714 44.6317C66.9756 44.6317 66.6548 44.3444 66.6548 43.9901C66.6548 43.6357 66.9756 43.3484 67.3714 43.3484C67.7672 43.3484 68.0881 43.6357 68.0881 43.9901Z" fill="#2C394B"/>
<path d="M70.9548 43.9901C70.9548 44.3444 70.6339 44.6317 70.2381 44.6317C69.8423 44.6317 69.5215 44.3444 69.5215 43.9901C69.5215 43.6357 69.8423 43.3484 70.2381 43.3484C70.6339 43.3484 70.9548 43.6357 70.9548 43.9901Z" fill="#2C394B"/>
<path d="M73.8215 43.9901C73.8215 44.3444 73.5006 44.6317 73.1048 44.6317C72.709 44.6317 72.3882 44.3444 72.3882 43.9901C72.3882 43.6357 72.709 43.3484 73.1048 43.3484C73.5006 43.3484 73.8215 43.6357 73.8215 43.9901Z" fill="#2C394B"/>
<path d="M76.6877 43.9901C76.6877 44.3444 76.3668 44.6317 75.971 44.6317C75.5752 44.6317 75.2544 44.3444 75.2544 43.9901C75.2544 43.6357 75.5752 43.3484 75.971 43.3484C76.3668 43.3484 76.6877 43.6357 76.6877 43.9901Z" fill="#2C394B"/>
<path d="M79.5544 43.9901C79.5544 44.3444 79.2335 44.6317 78.8377 44.6317C78.4419 44.6317 78.1211 44.3444 78.1211 43.9901C78.1211 43.6357 78.4419 43.3484 78.8377 43.3484C79.2335 43.3484 79.5544 43.6357 79.5544 43.9901Z" fill="#2C394B"/>
<path d="M82.4211 43.9901C82.4211 44.3444 82.1002 44.6317 81.7044 44.6317C81.3086 44.6317 80.9878 44.3444 80.9878 43.9901C80.9878 43.6357 81.3086 43.3484 81.7044 43.3484C82.1002 43.3484 82.4211 43.6357 82.4211 43.9901Z" fill="#2C394B"/>
<path d="M85.2878 43.9901C85.2878 44.3444 84.9669 44.6317 84.5711 44.6317C84.1753 44.6317 83.8545 44.3444 83.8545 43.9901C83.8545 43.6357 84.1753 43.3484 84.5711 43.3484C84.9669 43.3484 85.2878 43.6357 85.2878 43.9901Z" fill="#2C394B"/>
<path d="M88.154 43.9901C88.154 44.3444 87.8331 44.6317 87.4373 44.6317C87.0416 44.6317 86.7207 44.3444 86.7207 43.9901C86.7207 43.6357 87.0416 43.3484 87.4373 43.3484C87.8331 43.3484 88.154 43.6357 88.154 43.9901Z" fill="#2C394B"/>
<path d="M91.0207 43.9901C91.0207 44.3444 90.6998 44.6317 90.304 44.6317C89.9083 44.6317 89.5874 44.3444 89.5874 43.9901C89.5874 43.6357 89.9083 43.3484 90.304 43.3484C90.6998 43.3484 91.0207 43.6357 91.0207 43.9901Z" fill="#2C394B"/>
<path d="M59.4885 46.5565C59.4885 46.9109 59.1676 47.1982 58.7718 47.1982C58.376 47.1982 58.0552 46.9109 58.0552 46.5565C58.0552 46.2022 58.376 45.9149 58.7718 45.9149C59.1676 45.9149 59.4885 46.2022 59.4885 46.5565Z" fill="#2C394B"/>
<path d="M62.3552 46.5565C62.3552 46.9109 62.0343 47.1982 61.6385 47.1982C61.2427 47.1982 60.9219 46.9109 60.9219 46.5565C60.9219 46.2022 61.2427 45.9149 61.6385 45.9149C62.0343 45.9149 62.3552 46.2022 62.3552 46.5565Z" fill="#2C394B"/>
<path d="M65.2214 46.5565C65.2214 46.9109 64.9005 47.1982 64.5047 47.1982C64.1089 47.1982 63.7881 46.9109 63.7881 46.5565C63.7881 46.2022 64.1089 45.9149 64.5047 45.9149C64.9005 45.9149 65.2214 46.2022 65.2214 46.5565Z" fill="#2C394B"/>
<path d="M68.0881 46.5565C68.0881 46.9109 67.7672 47.1982 67.3714 47.1982C66.9756 47.1982 66.6548 46.9109 66.6548 46.5565C66.6548 46.2022 66.9756 45.9149 67.3714 45.9149C67.7672 45.9149 68.0881 46.2022 68.0881 46.5565Z" fill="#2C394B"/>
<path d="M70.9548 46.5565C70.9548 46.9109 70.6339 47.1982 70.2381 47.1982C69.8423 47.1982 69.5215 46.9109 69.5215 46.5565C69.5215 46.2022 69.8423 45.9149 70.2381 45.9149C70.6339 45.9149 70.9548 46.2022 70.9548 46.5565Z" fill="#2C394B"/>
<path d="M73.8215 46.5565C73.8215 46.9109 73.5006 47.1982 73.1048 47.1982C72.709 47.1982 72.3882 46.9109 72.3882 46.5565C72.3882 46.2022 72.709 45.9149 73.1048 45.9149C73.5006 45.9149 73.8215 46.2022 73.8215 46.5565Z" fill="#2C394B"/>
<path d="M76.6877 46.5565C76.6877 46.9109 76.3668 47.1982 75.971 47.1982C75.5752 47.1982 75.2544 46.9109 75.2544 46.5565C75.2544 46.2022 75.5752 45.9149 75.971 45.9149C76.3668 45.9149 76.6877 46.2022 76.6877 46.5565Z" fill="#2C394B"/>
<path d="M79.5544 46.5565C79.5544 46.9109 79.2335 47.1982 78.8377 47.1982C78.4419 47.1982 78.1211 46.9109 78.1211 46.5565C78.1211 46.2022 78.4419 45.9149 78.8377 45.9149C79.2335 45.9149 79.5544 46.2022 79.5544 46.5565Z" fill="#2C394B"/>
<path d="M82.4211 46.5565C82.4211 46.9109 82.1002 47.1982 81.7044 47.1982C81.3086 47.1982 80.9878 46.9109 80.9878 46.5565C80.9878 46.2022 81.3086 45.9149 81.7044 45.9149C82.1002 45.9149 82.4211 46.2022 82.4211 46.5565Z" fill="#2C394B"/>
<path d="M85.2878 46.5565C85.2878 46.9109 84.9669 47.1982 84.5711 47.1982C84.1753 47.1982 83.8545 46.9109 83.8545 46.5565C83.8545 46.2022 84.1753 45.9149 84.5711 45.9149C84.9669 45.9149 85.2878 46.2022 85.2878 46.5565Z" fill="#2C394B"/>
<path d="M88.154 46.5565C88.154 46.9109 87.8331 47.1982 87.4373 47.1982C87.0416 47.1982 86.7207 46.9109 86.7207 46.5565C86.7207 46.2022 87.0416 45.9149 87.4373 45.9149C87.8331 45.9149 88.154 46.2022 88.154 46.5565Z" fill="#2C394B"/>
<path d="M91.0207 46.5565C91.0207 46.9109 90.6998 47.1982 90.304 47.1982C89.9083 47.1982 89.5874 46.9109 89.5874 46.5565C89.5874 46.2022 89.9083 45.9149 90.304 45.9149C90.6998 45.9149 91.0207 46.2022 91.0207 46.5565Z" fill="#2C394B"/>
<path d="M93.8874 46.5565C93.8874 46.9109 93.5665 47.1982 93.1707 47.1982C92.775 47.1982 92.4541 46.9109 92.4541 46.5565C92.4541 46.2022 92.775 45.9149 93.1707 45.9149C93.5665 45.9149 93.8874 46.2022 93.8874 46.5565Z" fill="#2C394B"/>
<path d="M59.4885 49.1231C59.4885 49.4774 59.1676 49.7647 58.7718 49.7647C58.376 49.7647 58.0552 49.4774 58.0552 49.1231C58.0552 48.7687 58.376 48.4814 58.7718 48.4814C59.1676 48.4814 59.4885 48.7687 59.4885 49.1231Z" fill="#2C394B"/>
<path d="M62.3552 49.1231C62.3552 49.4774 62.0343 49.7647 61.6385 49.7647C61.2427 49.7647 60.9219 49.4774 60.9219 49.1231C60.9219 48.7687 61.2427 48.4814 61.6385 48.4814C62.0343 48.4814 62.3552 48.7687 62.3552 49.1231Z" fill="#2C394B"/>
<path d="M65.2214 49.1231C65.2214 49.4774 64.9005 49.7647 64.5047 49.7647C64.1089 49.7647 63.7881 49.4774 63.7881 49.1231C63.7881 48.7687 64.1089 48.4814 64.5047 48.4814C64.9005 48.4814 65.2214 48.7687 65.2214 49.1231Z" fill="#2C394B"/>
<path d="M68.0881 49.1231C68.0881 49.4774 67.7672 49.7647 67.3714 49.7647C66.9756 49.7647 66.6548 49.4774 66.6548 49.1231C66.6548 48.7687 66.9756 48.4814 67.3714 48.4814C67.7672 48.4814 68.0881 48.7687 68.0881 49.1231Z" fill="#2C394B"/>
<path d="M70.9548 49.1231C70.9548 49.4774 70.6339 49.7647 70.2381 49.7647C69.8423 49.7647 69.5215 49.4774 69.5215 49.1231C69.5215 48.7687 69.8423 48.4814 70.2381 48.4814C70.6339 48.4814 70.9548 48.7687 70.9548 49.1231Z" fill="#2C394B"/>
<path d="M73.8215 49.1231C73.8215 49.4774 73.5006 49.7647 73.1048 49.7647C72.709 49.7647 72.3882 49.4774 72.3882 49.1231C72.3882 48.7687 72.709 48.4814 73.1048 48.4814C73.5006 48.4814 73.8215 48.7687 73.8215 49.1231Z" fill="#2C394B"/>
<path d="M76.6877 49.1231C76.6877 49.4774 76.3668 49.7647 75.971 49.7647C75.5752 49.7647 75.2544 49.4774 75.2544 49.1231C75.2544 48.7687 75.5752 48.4814 75.971 48.4814C76.3668 48.4814 76.6877 48.7687 76.6877 49.1231Z" fill="#2C394B"/>
<path d="M79.5544 49.1231C79.5544 49.4774 79.2335 49.7647 78.8377 49.7647C78.4419 49.7647 78.1211 49.4774 78.1211 49.1231C78.1211 48.7687 78.4419 48.4814 78.8377 48.4814C79.2335 48.4814 79.5544 48.7687 79.5544 49.1231Z" fill="#2C394B"/>
<path d="M82.4211 49.1231C82.4211 49.4774 82.1002 49.7647 81.7044 49.7647C81.3086 49.7647 80.9878 49.4774 80.9878 49.1231C80.9878 48.7687 81.3086 48.4814 81.7044 48.4814C82.1002 48.4814 82.4211 48.7687 82.4211 49.1231Z" fill="#2C394B"/>
<path d="M85.2878 49.1231C85.2878 49.4774 84.9669 49.7647 84.5711 49.7647C84.1753 49.7647 83.8545 49.4774 83.8545 49.1231C83.8545 48.7687 84.1753 48.4814 84.5711 48.4814C84.9669 48.4814 85.2878 48.7687 85.2878 49.1231Z" fill="#2C394B"/>
<path d="M88.154 49.1231C88.154 49.4774 87.8331 49.7647 87.4373 49.7647C87.0416 49.7647 86.7207 49.4774 86.7207 49.1231C86.7207 48.7687 87.0416 48.4814 87.4373 48.4814C87.8331 48.4814 88.154 48.7687 88.154 49.1231Z" fill="#2C394B"/>
<path d="M91.0207 49.1231C91.0207 49.4774 90.6998 49.7647 90.304 49.7647C89.9083 49.7647 89.5874 49.4774 89.5874 49.1231C89.5874 48.7687 89.9083 48.4814 90.304 48.4814C90.6998 48.4814 91.0207 48.7687 91.0207 49.1231Z" fill="#2C394B"/>
<path d="M93.8874 49.1231C93.8874 49.4774 93.5665 49.7647 93.1707 49.7647C92.775 49.7647 92.4541 49.4774 92.4541 49.1231C92.4541 48.7687 92.775 48.4814 93.1707 48.4814C93.5665 48.4814 93.8874 48.7687 93.8874 49.1231Z" fill="#2C394B"/>
<path d="M96.7541 49.1231C96.7541 49.4774 96.4332 49.7647 96.0374 49.7647C95.6417 49.7647 95.3208 49.4774 95.3208 49.1231C95.3208 48.7687 95.6417 48.4814 96.0374 48.4814C96.4332 48.4814 96.7541 48.7687 96.7541 49.1231Z" fill="#2C394B"/>
<path d="M59.4885 51.6895C59.4885 52.0439 59.1676 52.3312 58.7718 52.3312C58.376 52.3312 58.0552 52.0439 58.0552 51.6895C58.0552 51.3352 58.376 51.0479 58.7718 51.0479C59.1676 51.0479 59.4885 51.3352 59.4885 51.6895Z" fill="#2C394B"/>
<path d="M62.3552 51.6895C62.3552 52.0439 62.0343 52.3312 61.6385 52.3312C61.2427 52.3312 60.9219 52.0439 60.9219 51.6895C60.9219 51.3352 61.2427 51.0479 61.6385 51.0479C62.0343 51.0479 62.3552 51.3352 62.3552 51.6895Z" fill="#2C394B"/>
<path d="M65.2214 51.6895C65.2214 52.0439 64.9005 52.3312 64.5047 52.3312C64.1089 52.3312 63.7881 52.0439 63.7881 51.6895C63.7881 51.3352 64.1089 51.0479 64.5047 51.0479C64.9005 51.0479 65.2214 51.3352 65.2214 51.6895Z" fill="#2C394B"/>
<path d="M68.0881 51.6895C68.0881 52.0439 67.7672 52.3312 67.3714 52.3312C66.9756 52.3312 66.6548 52.0439 66.6548 51.6895C66.6548 51.3352 66.9756 51.0479 67.3714 51.0479C67.7672 51.0479 68.0881 51.3352 68.0881 51.6895Z" fill="#2C394B"/>
<path d="M70.9548 51.6895C70.9548 52.0439 70.6339 52.3312 70.2381 52.3312C69.8423 52.3312 69.5215 52.0439 69.5215 51.6895C69.5215 51.3352 69.8423 51.0479 70.2381 51.0479C70.6339 51.0479 70.9548 51.3352 70.9548 51.6895Z" fill="#2C394B"/>
<path d="M73.8215 51.6895C73.8215 52.0439 73.5006 52.3312 73.1048 52.3312C72.709 52.3312 72.3882 52.0439 72.3882 51.6895C72.3882 51.3352 72.709 51.0479 73.1048 51.0479C73.5006 51.0479 73.8215 51.3352 73.8215 51.6895Z" fill="#2C394B"/>
<path d="M76.6877 51.6895C76.6877 52.0439 76.3668 52.3312 75.971 52.3312C75.5752 52.3312 75.2544 52.0439 75.2544 51.6895C75.2544 51.3352 75.5752 51.0479 75.971 51.0479C76.3668 51.0479 76.6877 51.3352 76.6877 51.6895Z" fill="#2C394B"/>
<path d="M79.5544 51.6895C79.5544 52.0439 79.2335 52.3312 78.8377 52.3312C78.4419 52.3312 78.1211 52.0439 78.1211 51.6895C78.1211 51.3352 78.4419 51.0479 78.8377 51.0479C79.2335 51.0479 79.5544 51.3352 79.5544 51.6895Z" fill="#2C394B"/>
<path d="M82.4211 51.6895C82.4211 52.0439 82.1002 52.3312 81.7044 52.3312C81.3086 52.3312 80.9878 52.0439 80.9878 51.6895C80.9878 51.3352 81.3086 51.0479 81.7044 51.0479C82.1002 51.0479 82.4211 51.3352 82.4211 51.6895Z" fill="#2C394B"/>
<path d="M85.2878 51.6895C85.2878 52.0439 84.9669 52.3312 84.5711 52.3312C84.1753 52.3312 83.8545 52.0439 83.8545 51.6895C83.8545 51.3352 84.1753 51.0479 84.5711 51.0479C84.9669 51.0479 85.2878 51.3352 85.2878 51.6895Z" fill="#2C394B"/>
<path d="M88.154 51.6895C88.154 52.0439 87.8331 52.3312 87.4373 52.3312C87.0416 52.3312 86.7207 52.0439 86.7207 51.6895C86.7207 51.3352 87.0416 51.0479 87.4373 51.0479C87.8331 51.0479 88.154 51.3352 88.154 51.6895Z" fill="#2C394B"/>
<path d="M91.0207 51.6895C91.0207 52.0439 90.6998 52.3312 90.304 52.3312C89.9083 52.3312 89.5874 52.0439 89.5874 51.6895C89.5874 51.3352 89.9083 51.0479 90.304 51.0479C90.6998 51.0479 91.0207 51.3352 91.0207 51.6895Z" fill="#2C394B"/>
<path d="M93.8874 51.6895C93.8874 52.0439 93.5665 52.3312 93.1707 52.3312C92.775 52.3312 92.4541 52.0439 92.4541 51.6895C92.4541 51.3352 92.775 51.0479 93.1707 51.0479C93.5665 51.0479 93.8874 51.3352 93.8874 51.6895Z" fill="#2C394B"/>
<path d="M96.7541 51.6895C96.7541 52.0439 96.4332 52.3312 96.0374 52.3312C95.6417 52.3312 95.3208 52.0439 95.3208 51.6895C95.3208 51.3352 95.6417 51.0479 96.0374 51.0479C96.4332 51.0479 96.7541 51.3352 96.7541 51.6895Z" fill="#2C394B"/>
<path d="M99.6203 51.6895C99.6203 52.0439 99.2994 52.3312 98.9037 52.3312C98.5079 52.3312 98.187 52.0439 98.187 51.6895C98.187 51.3352 98.5079 51.0479 98.9037 51.0479C99.2994 51.0479 99.6203 51.3352 99.6203 51.6895Z" fill="#2C394B"/>
<path d="M59.4885 54.2561C59.4885 54.6104 59.1676 54.8977 58.7718 54.8977C58.376 54.8977 58.0552 54.6104 58.0552 54.2561C58.0552 53.9017 58.376 53.6144 58.7718 53.6144C59.1676 53.6144 59.4885 53.9017 59.4885 54.2561Z" fill="#2C394B"/>
<path d="M62.3552 54.2561C62.3552 54.6104 62.0343 54.8977 61.6385 54.8977C61.2427 54.8977 60.9219 54.6104 60.9219 54.2561C60.9219 53.9017 61.2427 53.6144 61.6385 53.6144C62.0343 53.6144 62.3552 53.9017 62.3552 54.2561Z" fill="#2C394B"/>
<path d="M65.2214 54.2561C65.2214 54.6104 64.9005 54.8977 64.5047 54.8977C64.1089 54.8977 63.7881 54.6104 63.7881 54.2561C63.7881 53.9017 64.1089 53.6144 64.5047 53.6144C64.9005 53.6144 65.2214 53.9017 65.2214 54.2561Z" fill="#2C394B"/>
<path d="M68.0881 54.2561C68.0881 54.6104 67.7672 54.8977 67.3714 54.8977C66.9756 54.8977 66.6548 54.6104 66.6548 54.2561C66.6548 53.9017 66.9756 53.6144 67.3714 53.6144C67.7672 53.6144 68.0881 53.9017 68.0881 54.2561Z" fill="#2C394B"/>
<path d="M70.9548 54.2561C70.9548 54.6104 70.6339 54.8977 70.2381 54.8977C69.8423 54.8977 69.5215 54.6104 69.5215 54.2561C69.5215 53.9017 69.8423 53.6144 70.2381 53.6144C70.6339 53.6144 70.9548 53.9017 70.9548 54.2561Z" fill="#2C394B"/>
<path d="M73.8215 54.2561C73.8215 54.6104 73.5006 54.8977 73.1048 54.8977C72.709 54.8977 72.3882 54.6104 72.3882 54.2561C72.3882 53.9017 72.709 53.6144 73.1048 53.6144C73.5006 53.6144 73.8215 53.9017 73.8215 54.2561Z" fill="#2C394B"/>
<path d="M76.6877 54.2561C76.6877 54.6104 76.3668 54.8977 75.971 54.8977C75.5752 54.8977 75.2544 54.6104 75.2544 54.2561C75.2544 53.9017 75.5752 53.6144 75.971 53.6144C76.3668 53.6144 76.6877 53.9017 76.6877 54.2561Z" fill="#2C394B"/>
<path d="M79.5544 54.2561C79.5544 54.6104 79.2335 54.8977 78.8377 54.8977C78.4419 54.8977 78.1211 54.6104 78.1211 54.2561C78.1211 53.9017 78.4419 53.6144 78.8377 53.6144C79.2335 53.6144 79.5544 53.9017 79.5544 54.2561Z" fill="#2C394B"/>
<path d="M82.4211 54.2561C82.4211 54.6104 82.1002 54.8977 81.7044 54.8977C81.3086 54.8977 80.9878 54.6104 80.9878 54.2561C80.9878 53.9017 81.3086 53.6144 81.7044 53.6144C82.1002 53.6144 82.4211 53.9017 82.4211 54.2561Z" fill="#2C394B"/>
<path d="M85.2878 54.2561C85.2878 54.6104 84.9669 54.8977 84.5711 54.8977C84.1753 54.8977 83.8545 54.6104 83.8545 54.2561C83.8545 53.9017 84.1753 53.6144 84.5711 53.6144C84.9669 53.6144 85.2878 53.9017 85.2878 54.2561Z" fill="#2C394B"/>
<path d="M88.154 54.2561C88.154 54.6104 87.8331 54.8977 87.4373 54.8977C87.0416 54.8977 86.7207 54.6104 86.7207 54.2561C86.7207 53.9017 87.0416 53.6144 87.4373 53.6144C87.8331 53.6144 88.154 53.9017 88.154 54.2561Z" fill="#2C394B"/>
<path d="M91.0207 54.2561C91.0207 54.6104 90.6998 54.8977 90.304 54.8977C89.9083 54.8977 89.5874 54.6104 89.5874 54.2561C89.5874 53.9017 89.9083 53.6144 90.304 53.6144C90.6998 53.6144 91.0207 53.9017 91.0207 54.2561Z" fill="#2C394B"/>
<path d="M93.8874 54.2561C93.8874 54.6104 93.5665 54.8977 93.1707 54.8977C92.775 54.8977 92.4541 54.6104 92.4541 54.2561C92.4541 53.9017 92.775 53.6144 93.1707 53.6144C93.5665 53.6144 93.8874 53.9017 93.8874 54.2561Z" fill="#2C394B"/>
<path d="M96.7541 54.2561C96.7541 54.6104 96.4332 54.8977 96.0374 54.8977C95.6417 54.8977 95.3208 54.6104 95.3208 54.2561C95.3208 53.9017 95.6417 53.6144 96.0374 53.6144C96.4332 53.6144 96.7541 53.9017 96.7541 54.2561Z" fill="#2C394B"/>
<path d="M99.6203 54.2561C99.6203 54.6104 99.2994 54.8977 98.9037 54.8977C98.5079 54.8977 98.187 54.6104 98.187 54.2561C98.187 53.9017 98.5079 53.6144 98.9037 53.6144C99.2994 53.6144 99.6203 53.9017 99.6203 54.2561Z" fill="#2C394B"/>
<path d="M59.4885 56.8226C59.4885 57.1769 59.1676 57.4642 58.7718 57.4642C58.376 57.4642 58.0552 57.1769 58.0552 56.8226C58.0552 56.4682 58.376 56.181 58.7718 56.181C59.1676 56.181 59.4885 56.4682 59.4885 56.8226Z" fill="#2C394B"/>
<path d="M62.3552 56.8226C62.3552 57.1769 62.0343 57.4642 61.6385 57.4642C61.2427 57.4642 60.9219 57.1769 60.9219 56.8226C60.9219 56.4682 61.2427 56.181 61.6385 56.181C62.0343 56.181 62.3552 56.4682 62.3552 56.8226Z" fill="#2C394B"/>
<path d="M65.2214 56.8226C65.2214 57.1769 64.9005 57.4642 64.5047 57.4642C64.1089 57.4642 63.7881 57.1769 63.7881 56.8226C63.7881 56.4682 64.1089 56.181 64.5047 56.181C64.9005 56.181 65.2214 56.4682 65.2214 56.8226Z" fill="#2C394B"/>
<path d="M68.0881 56.8226C68.0881 57.1769 67.7672 57.4642 67.3714 57.4642C66.9756 57.4642 66.6548 57.1769 66.6548 56.8226C66.6548 56.4682 66.9756 56.181 67.3714 56.181C67.7672 56.181 68.0881 56.4682 68.0881 56.8226Z" fill="#2C394B"/>
<path d="M70.9548 56.8226C70.9548 57.1769 70.6339 57.4642 70.2381 57.4642C69.8423 57.4642 69.5215 57.1769 69.5215 56.8226C69.5215 56.4682 69.8423 56.181 70.2381 56.181C70.6339 56.181 70.9548 56.4682 70.9548 56.8226Z" fill="#2C394B"/>
<path d="M73.8215 56.8226C73.8215 57.1769 73.5006 57.4642 73.1048 57.4642C72.709 57.4642 72.3882 57.1769 72.3882 56.8226C72.3882 56.4682 72.709 56.181 73.1048 56.181C73.5006 56.181 73.8215 56.4682 73.8215 56.8226Z" fill="#2C394B"/>
<path d="M76.6877 56.8226C76.6877 57.1769 76.3668 57.4642 75.971 57.4642C75.5752 57.4642 75.2544 57.1769 75.2544 56.8226C75.2544 56.4682 75.5752 56.181 75.971 56.181C76.3668 56.181 76.6877 56.4682 76.6877 56.8226Z" fill="#2C394B"/>
<path d="M79.5544 56.8226C79.5544 57.1769 79.2335 57.4642 78.8377 57.4642C78.4419 57.4642 78.1211 57.1769 78.1211 56.8226C78.1211 56.4682 78.4419 56.181 78.8377 56.181C79.2335 56.181 79.5544 56.4682 79.5544 56.8226Z" fill="#2C394B"/>
<path d="M82.4211 56.8226C82.4211 57.1769 82.1002 57.4642 81.7044 57.4642C81.3086 57.4642 80.9878 57.1769 80.9878 56.8226C80.9878 56.4682 81.3086 56.181 81.7044 56.181C82.1002 56.181 82.4211 56.4682 82.4211 56.8226Z" fill="#2C394B"/>
<path d="M85.2878 56.8226C85.2878 57.1769 84.9669 57.4642 84.5711 57.4642C84.1753 57.4642 83.8545 57.1769 83.8545 56.8226C83.8545 56.4682 84.1753 56.181 84.5711 56.181C84.9669 56.181 85.2878 56.4682 85.2878 56.8226Z" fill="#2C394B"/>
<path d="M88.154 56.8226C88.154 57.1769 87.8331 57.4642 87.4373 57.4642C87.0416 57.4642 86.7207 57.1769 86.7207 56.8226C86.7207 56.4682 87.0416 56.181 87.4373 56.181C87.8331 56.181 88.154 56.4682 88.154 56.8226Z" fill="#2C394B"/>
<path d="M91.0207 56.8226C91.0207 57.1769 90.6998 57.4642 90.304 57.4642C89.9083 57.4642 89.5874 57.1769 89.5874 56.8226C89.5874 56.4682 89.9083 56.181 90.304 56.181C90.6998 56.181 91.0207 56.4682 91.0207 56.8226Z" fill="#2C394B"/>
<path d="M93.8874 56.8226C93.8874 57.1769 93.5665 57.4642 93.1707 57.4642C92.775 57.4642 92.4541 57.1769 92.4541 56.8226C92.4541 56.4682 92.775 56.181 93.1707 56.181C93.5665 56.181 93.8874 56.4682 93.8874 56.8226Z" fill="#2C394B"/>
<path d="M96.7541 56.8226C96.7541 57.1769 96.4332 57.4642 96.0374 57.4642C95.6417 57.4642 95.3208 57.1769 95.3208 56.8226C95.3208 56.4682 95.6417 56.181 96.0374 56.181C96.4332 56.181 96.7541 56.4682 96.7541 56.8226Z" fill="#2C394B"/>
<path d="M99.6203 56.8226C99.6203 57.1769 99.2994 57.4642 98.9037 57.4642C98.5079 57.4642 98.187 57.1769 98.187 56.8226C98.187 56.4682 98.5079 56.181 98.9037 56.181C99.2994 56.181 99.6203 56.4682 99.6203 56.8226Z" fill="#2C394B"/>
<path d="M102.487 56.8226C102.487 57.1769 102.166 57.4642 101.77 57.4642C101.375 57.4642 101.054 57.1769 101.054 56.8226C101.054 56.4682 101.375 56.181 101.77 56.181C102.166 56.181 102.487 56.4682 102.487 56.8226Z" fill="#2C394B"/>
<path d="M59.4885 59.389C59.4885 59.7433 59.1676 60.0306 58.7718 60.0306C58.376 60.0306 58.0552 59.7433 58.0552 59.389C58.0552 59.0346 58.376 58.7474 58.7718 58.7474C59.1676 58.7474 59.4885 59.0346 59.4885 59.389Z" fill="#2C394B"/>
<path d="M62.3552 59.389C62.3552 59.7433 62.0343 60.0306 61.6385 60.0306C61.2427 60.0306 60.9219 59.7433 60.9219 59.389C60.9219 59.0346 61.2427 58.7474 61.6385 58.7474C62.0343 58.7474 62.3552 59.0346 62.3552 59.389Z" fill="#2C394B"/>
<path d="M65.2214 59.389C65.2214 59.7433 64.9005 60.0306 64.5047 60.0306C64.1089 60.0306 63.7881 59.7433 63.7881 59.389C63.7881 59.0346 64.1089 58.7474 64.5047 58.7474C64.9005 58.7474 65.2214 59.0346 65.2214 59.389Z" fill="#2C394B"/>
<path d="M68.0881 59.389C68.0881 59.7433 67.7672 60.0306 67.3714 60.0306C66.9756 60.0306 66.6548 59.7433 66.6548 59.389C66.6548 59.0346 66.9756 58.7474 67.3714 58.7474C67.7672 58.7474 68.0881 59.0346 68.0881 59.389Z" fill="#2C394B"/>
<path d="M70.9548 59.389C70.9548 59.7433 70.6339 60.0306 70.2381 60.0306C69.8423 60.0306 69.5215 59.7433 69.5215 59.389C69.5215 59.0346 69.8423 58.7474 70.2381 58.7474C70.6339 58.7474 70.9548 59.0346 70.9548 59.389Z" fill="#2C394B"/>
<path d="M73.8215 59.389C73.8215 59.7433 73.5006 60.0306 73.1048 60.0306C72.709 60.0306 72.3882 59.7433 72.3882 59.389C72.3882 59.0346 72.709 58.7474 73.1048 58.7474C73.5006 58.7474 73.8215 59.0346 73.8215 59.389Z" fill="#2C394B"/>
<path d="M76.6877 59.389C76.6877 59.7433 76.3668 60.0306 75.971 60.0306C75.5752 60.0306 75.2544 59.7433 75.2544 59.389C75.2544 59.0346 75.5752 58.7474 75.971 58.7474C76.3668 58.7474 76.6877 59.0346 76.6877 59.389Z" fill="#2C394B"/>
<path d="M79.5544 59.389C79.5544 59.7433 79.2335 60.0306 78.8377 60.0306C78.4419 60.0306 78.1211 59.7433 78.1211 59.389C78.1211 59.0346 78.4419 58.7474 78.8377 58.7474C79.2335 58.7474 79.5544 59.0346 79.5544 59.389Z" fill="#2C394B"/>
<path d="M82.4211 59.389C82.4211 59.7433 82.1002 60.0306 81.7044 60.0306C81.3086 60.0306 80.9878 59.7433 80.9878 59.389C80.9878 59.0346 81.3086 58.7474 81.7044 58.7474C82.1002 58.7474 82.4211 59.0346 82.4211 59.389Z" fill="#2C394B"/>
<path d="M85.2878 59.389C85.2878 59.7433 84.9669 60.0306 84.5711 60.0306C84.1753 60.0306 83.8545 59.7433 83.8545 59.389C83.8545 59.0346 84.1753 58.7474 84.5711 58.7474C84.9669 58.7474 85.2878 59.0346 85.2878 59.389Z" fill="#2C394B"/>
<path d="M88.154 59.389C88.154 59.7433 87.8331 60.0306 87.4373 60.0306C87.0416 60.0306 86.7207 59.7433 86.7207 59.389C86.7207 59.0346 87.0416 58.7474 87.4373 58.7474C87.8331 58.7474 88.154 59.0346 88.154 59.389Z" fill="#2C394B"/>
<path d="M91.0207 59.389C91.0207 59.7433 90.6998 60.0306 90.304 60.0306C89.9083 60.0306 89.5874 59.7433 89.5874 59.389C89.5874 59.0346 89.9083 58.7474 90.304 58.7474C90.6998 58.7474 91.0207 59.0346 91.0207 59.389Z" fill="#2C394B"/>
<path d="M93.8874 59.389C93.8874 59.7433 93.5665 60.0306 93.1707 60.0306C92.775 60.0306 92.4541 59.7433 92.4541 59.389C92.4541 59.0346 92.775 58.7474 93.1707 58.7474C93.5665 58.7474 93.8874 59.0346 93.8874 59.389Z" fill="#2C394B"/>
<path d="M96.7541 59.389C96.7541 59.7433 96.4332 60.0306 96.0374 60.0306C95.6417 60.0306 95.3208 59.7433 95.3208 59.389C95.3208 59.0346 95.6417 58.7474 96.0374 58.7474C96.4332 58.7474 96.7541 59.0346 96.7541 59.389Z" fill="#2C394B"/>
<path d="M99.6203 59.389C99.6203 59.7433 99.2994 60.0306 98.9037 60.0306C98.5079 60.0306 98.187 59.7433 98.187 59.389C98.187 59.0346 98.5079 58.7474 98.9037 58.7474C99.2994 58.7474 99.6203 59.0346 99.6203 59.389Z" fill="#2C394B"/>
<path d="M102.487 59.389C102.487 59.7433 102.166 60.0306 101.77 60.0306C101.375 60.0306 101.054 59.7433 101.054 59.389C101.054 59.0346 101.375 58.7474 101.77 58.7474C102.166 58.7474 102.487 59.0346 102.487 59.389Z" fill="#2C394B"/>
<path d="M105.354 59.389C105.354 59.7433 105.033 60.0306 104.637 60.0306C104.241 60.0306 103.92 59.7433 103.92 59.389C103.92 59.0346 104.241 58.7474 104.637 58.7474C105.033 58.7474 105.354 59.0346 105.354 59.389Z" fill="#2C394B"/>
<path d="M59.4885 61.9555C59.4885 62.3098 59.1676 62.5971 58.7718 62.5971C58.376 62.5971 58.0552 62.3098 58.0552 61.9555C58.0552 61.6011 58.376 61.3138 58.7718 61.3138C59.1676 61.3138 59.4885 61.6011 59.4885 61.9555Z" fill="#2C394B"/>
<path d="M62.3552 61.9555C62.3552 62.3098 62.0343 62.5971 61.6385 62.5971C61.2427 62.5971 60.9219 62.3098 60.9219 61.9555C60.9219 61.6011 61.2427 61.3138 61.6385 61.3138C62.0343 61.3138 62.3552 61.6011 62.3552 61.9555Z" fill="#2C394B"/>
<path d="M65.2214 61.9555C65.2214 62.3098 64.9005 62.5971 64.5047 62.5971C64.1089 62.5971 63.7881 62.3098 63.7881 61.9555C63.7881 61.6011 64.1089 61.3138 64.5047 61.3138C64.9005 61.3138 65.2214 61.6011 65.2214 61.9555Z" fill="#2C394B"/>
<path d="M68.0881 61.9555C68.0881 62.3098 67.7672 62.5971 67.3714 62.5971C66.9756 62.5971 66.6548 62.3098 66.6548 61.9555C66.6548 61.6011 66.9756 61.3138 67.3714 61.3138C67.7672 61.3138 68.0881 61.6011 68.0881 61.9555Z" fill="#2C394B"/>
<path d="M70.9548 61.9555C70.9548 62.3098 70.6339 62.5971 70.2381 62.5971C69.8423 62.5971 69.5215 62.3098 69.5215 61.9555C69.5215 61.6011 69.8423 61.3138 70.2381 61.3138C70.6339 61.3138 70.9548 61.6011 70.9548 61.9555Z" fill="#2C394B"/>
<path d="M73.8215 61.9555C73.8215 62.3098 73.5006 62.5971 73.1048 62.5971C72.709 62.5971 72.3882 62.3098 72.3882 61.9555C72.3882 61.6011 72.709 61.3138 73.1048 61.3138C73.5006 61.3138 73.8215 61.6011 73.8215 61.9555Z" fill="#2C394B"/>
<path d="M76.6877 61.9555C76.6877 62.3098 76.3668 62.5971 75.971 62.5971C75.5752 62.5971 75.2544 62.3098 75.2544 61.9555C75.2544 61.6011 75.5752 61.3138 75.971 61.3138C76.3668 61.3138 76.6877 61.6011 76.6877 61.9555Z" fill="#2C394B"/>
<path d="M79.5544 61.9555C79.5544 62.3098 79.2335 62.5971 78.8377 62.5971C78.4419 62.5971 78.1211 62.3098 78.1211 61.9555C78.1211 61.6011 78.4419 61.3138 78.8377 61.3138C79.2335 61.3138 79.5544 61.6011 79.5544 61.9555Z" fill="#2C394B"/>
<path d="M82.4211 61.9555C82.4211 62.3098 82.1002 62.5971 81.7044 62.5971C81.3086 62.5971 80.9878 62.3098 80.9878 61.9555C80.9878 61.6011 81.3086 61.3138 81.7044 61.3138C82.1002 61.3138 82.4211 61.6011 82.4211 61.9555Z" fill="#2C394B"/>
<path d="M85.2878 61.9555C85.2878 62.3098 84.9669 62.5971 84.5711 62.5971C84.1753 62.5971 83.8545 62.3098 83.8545 61.9555C83.8545 61.6011 84.1753 61.3138 84.5711 61.3138C84.9669 61.3138 85.2878 61.6011 85.2878 61.9555Z" fill="#2C394B"/>
<path d="M88.154 61.9555C88.154 62.3098 87.8331 62.5971 87.4373 62.5971C87.0416 62.5971 86.7207 62.3098 86.7207 61.9555C86.7207 61.6011 87.0416 61.3138 87.4373 61.3138C87.8331 61.3138 88.154 61.6011 88.154 61.9555Z" fill="#2C394B"/>
<path d="M91.0207 61.9555C91.0207 62.3098 90.6998 62.5971 90.304 62.5971C89.9083 62.5971 89.5874 62.3098 89.5874 61.9555C89.5874 61.6011 89.9083 61.3138 90.304 61.3138C90.6998 61.3138 91.0207 61.6011 91.0207 61.9555Z" fill="#2C394B"/>
<path d="M93.8874 61.9555C93.8874 62.3098 93.5665 62.5971 93.1707 62.5971C92.775 62.5971 92.4541 62.3098 92.4541 61.9555C92.4541 61.6011 92.775 61.3138 93.1707 61.3138C93.5665 61.3138 93.8874 61.6011 93.8874 61.9555Z" fill="#2C394B"/>
<path d="M96.7541 61.9555C96.7541 62.3098 96.4332 62.5971 96.0374 62.5971C95.6417 62.5971 95.3208 62.3098 95.3208 61.9555C95.3208 61.6011 95.6417 61.3138 96.0374 61.3138C96.4332 61.3138 96.7541 61.6011 96.7541 61.9555Z" fill="#2C394B"/>
<path d="M99.6203 61.9555C99.6203 62.3098 99.2994 62.5971 98.9037 62.5971C98.5079 62.5971 98.187 62.3098 98.187 61.9555C98.187 61.6011 98.5079 61.3138 98.9037 61.3138C99.2994 61.3138 99.6203 61.6011 99.6203 61.9555Z" fill="#2C394B"/>
<path d="M102.487 61.9555C102.487 62.3098 102.166 62.5971 101.77 62.5971C101.375 62.5971 101.054 62.3098 101.054 61.9555C101.054 61.6011 101.375 61.3138 101.77 61.3138C102.166 61.3138 102.487 61.6011 102.487 61.9555Z" fill="#2C394B"/>
<path d="M105.354 61.9555C105.354 62.3098 105.033 62.5971 104.637 62.5971C104.241 62.5971 103.92 62.3098 103.92 61.9555C103.92 61.6011 104.241 61.3138 104.637 61.3138C105.033 61.3138 105.354 61.6011 105.354 61.9555Z" fill="#2C394B"/>
<path d="M59.4885 64.5219C59.4885 64.8763 59.1676 65.1636 58.7718 65.1636C58.376 65.1636 58.0552 64.8763 58.0552 64.5219C58.0552 64.1676 58.376 63.8803 58.7718 63.8803C59.1676 63.8803 59.4885 64.1676 59.4885 64.5219Z" fill="#2C394B"/>
<path d="M62.3552 64.5219C62.3552 64.8763 62.0343 65.1636 61.6385 65.1636C61.2427 65.1636 60.9219 64.8763 60.9219 64.5219C60.9219 64.1676 61.2427 63.8803 61.6385 63.8803C62.0343 63.8803 62.3552 64.1676 62.3552 64.5219Z" fill="#2C394B"/>
<path d="M65.2214 64.5219C65.2214 64.8763 64.9005 65.1636 64.5047 65.1636C64.1089 65.1636 63.7881 64.8763 63.7881 64.5219C63.7881 64.1676 64.1089 63.8803 64.5047 63.8803C64.9005 63.8803 65.2214 64.1676 65.2214 64.5219Z" fill="#2C394B"/>
<path d="M68.0881 64.5219C68.0881 64.8763 67.7672 65.1636 67.3714 65.1636C66.9756 65.1636 66.6548 64.8763 66.6548 64.5219C66.6548 64.1676 66.9756 63.8803 67.3714 63.8803C67.7672 63.8803 68.0881 64.1676 68.0881 64.5219Z" fill="#2C394B"/>
<path d="M70.9548 64.5219C70.9548 64.8763 70.6339 65.1636 70.2381 65.1636C69.8423 65.1636 69.5215 64.8763 69.5215 64.5219C69.5215 64.1676 69.8423 63.8803 70.2381 63.8803C70.6339 63.8803 70.9548 64.1676 70.9548 64.5219Z" fill="#2C394B"/>
<path d="M73.8215 64.5219C73.8215 64.8763 73.5006 65.1636 73.1048 65.1636C72.709 65.1636 72.3882 64.8763 72.3882 64.5219C72.3882 64.1676 72.709 63.8803 73.1048 63.8803C73.5006 63.8803 73.8215 64.1676 73.8215 64.5219Z" fill="#2C394B"/>
<path d="M76.6877 64.5219C76.6877 64.8763 76.3668 65.1636 75.971 65.1636C75.5752 65.1636 75.2544 64.8763 75.2544 64.5219C75.2544 64.1676 75.5752 63.8803 75.971 63.8803C76.3668 63.8803 76.6877 64.1676 76.6877 64.5219Z" fill="#2C394B"/>
<path d="M79.5544 64.5219C79.5544 64.8763 79.2335 65.1636 78.8377 65.1636C78.4419 65.1636 78.1211 64.8763 78.1211 64.5219C78.1211 64.1676 78.4419 63.8803 78.8377 63.8803C79.2335 63.8803 79.5544 64.1676 79.5544 64.5219Z" fill="#2C394B"/>
<path d="M82.4211 64.5219C82.4211 64.8763 82.1002 65.1636 81.7044 65.1636C81.3086 65.1636 80.9878 64.8763 80.9878 64.5219C80.9878 64.1676 81.3086 63.8803 81.7044 63.8803C82.1002 63.8803 82.4211 64.1676 82.4211 64.5219Z" fill="#2C394B"/>
<path d="M85.2878 64.5219C85.2878 64.8763 84.9669 65.1636 84.5711 65.1636C84.1753 65.1636 83.8545 64.8763 83.8545 64.5219C83.8545 64.1676 84.1753 63.8803 84.5711 63.8803C84.9669 63.8803 85.2878 64.1676 85.2878 64.5219Z" fill="#2C394B"/>
<path d="M88.154 64.5219C88.154 64.8763 87.8331 65.1636 87.4373 65.1636C87.0416 65.1636 86.7207 64.8763 86.7207 64.5219C86.7207 64.1676 87.0416 63.8803 87.4373 63.8803C87.8331 63.8803 88.154 64.1676 88.154 64.5219Z" fill="#2C394B"/>
<path d="M91.0207 64.5219C91.0207 64.8763 90.6998 65.1636 90.304 65.1636C89.9083 65.1636 89.5874 64.8763 89.5874 64.5219C89.5874 64.1676 89.9083 63.8803 90.304 63.8803C90.6998 63.8803 91.0207 64.1676 91.0207 64.5219Z" fill="#2C394B"/>
<path d="M93.8874 64.5219C93.8874 64.8763 93.5665 65.1636 93.1707 65.1636C92.775 65.1636 92.4541 64.8763 92.4541 64.5219C92.4541 64.1676 92.775 63.8803 93.1707 63.8803C93.5665 63.8803 93.8874 64.1676 93.8874 64.5219Z" fill="#2C394B"/>
<path d="M96.7541 64.5219C96.7541 64.8763 96.4332 65.1636 96.0374 65.1636C95.6417 65.1636 95.3208 64.8763 95.3208 64.5219C95.3208 64.1676 95.6417 63.8803 96.0374 63.8803C96.4332 63.8803 96.7541 64.1676 96.7541 64.5219Z" fill="#2C394B"/>
<path d="M99.6203 64.5219C99.6203 64.8763 99.2994 65.1636 98.9037 65.1636C98.5079 65.1636 98.187 64.8763 98.187 64.5219C98.187 64.1676 98.5079 63.8803 98.9037 63.8803C99.2994 63.8803 99.6203 64.1676 99.6203 64.5219Z" fill="#2C394B"/>
<path d="M102.487 64.5219C102.487 64.8763 102.166 65.1636 101.77 65.1636C101.375 65.1636 101.054 64.8763 101.054 64.5219C101.054 64.1676 101.375 63.8803 101.77 63.8803C102.166 63.8803 102.487 64.1676 102.487 64.5219Z" fill="#2C394B"/>
<path d="M105.354 64.5219C105.354 64.8763 105.033 65.1636 104.637 65.1636C104.241 65.1636 103.92 64.8763 103.92 64.5219C103.92 64.1676 104.241 63.8803 104.637 63.8803C105.033 63.8803 105.354 64.1676 105.354 64.5219Z" fill="#2C394B"/>
<path d="M59.4885 67.0884C59.4885 67.4428 59.1676 67.73 58.7718 67.73C58.376 67.73 58.0552 67.4428 58.0552 67.0884C58.0552 66.734 58.376 66.4468 58.7718 66.4468C59.1676 66.4468 59.4885 66.734 59.4885 67.0884Z" fill="#2C394B"/>
<path d="M62.3552 67.0884C62.3552 67.4428 62.0343 67.73 61.6385 67.73C61.2427 67.73 60.9219 67.4428 60.9219 67.0884C60.9219 66.734 61.2427 66.4468 61.6385 66.4468C62.0343 66.4468 62.3552 66.734 62.3552 67.0884Z" fill="#2C394B"/>
<path d="M65.2214 67.0884C65.2214 67.4428 64.9005 67.73 64.5047 67.73C64.1089 67.73 63.7881 67.4428 63.7881 67.0884C63.7881 66.734 64.1089 66.4468 64.5047 66.4468C64.9005 66.4468 65.2214 66.734 65.2214 67.0884Z" fill="#2C394B"/>
<path d="M68.0881 67.0884C68.0881 67.4428 67.7672 67.73 67.3714 67.73C66.9756 67.73 66.6548 67.4428 66.6548 67.0884C66.6548 66.734 66.9756 66.4468 67.3714 66.4468C67.7672 66.4468 68.0881 66.734 68.0881 67.0884Z" fill="#2C394B"/>
<path d="M70.9548 67.0884C70.9548 67.4428 70.6339 67.73 70.2381 67.73C69.8423 67.73 69.5215 67.4428 69.5215 67.0884C69.5215 66.734 69.8423 66.4468 70.2381 66.4468C70.6339 66.4468 70.9548 66.734 70.9548 67.0884Z" fill="#2C394B"/>
<path d="M73.8215 67.0884C73.8215 67.4428 73.5006 67.73 73.1048 67.73C72.709 67.73 72.3882 67.4428 72.3882 67.0884C72.3882 66.734 72.709 66.4468 73.1048 66.4468C73.5006 66.4468 73.8215 66.734 73.8215 67.0884Z" fill="#2C394B"/>
<path d="M76.6877 67.0884C76.6877 67.4428 76.3668 67.73 75.971 67.73C75.5752 67.73 75.2544 67.4428 75.2544 67.0884C75.2544 66.734 75.5752 66.4468 75.971 66.4468C76.3668 66.4468 76.6877 66.734 76.6877 67.0884Z" fill="#2C394B"/>
<path d="M79.5544 67.0884C79.5544 67.4428 79.2335 67.73 78.8377 67.73C78.4419 67.73 78.1211 67.4428 78.1211 67.0884C78.1211 66.734 78.4419 66.4468 78.8377 66.4468C79.2335 66.4468 79.5544 66.734 79.5544 67.0884Z" fill="#2C394B"/>
<path d="M82.4211 67.0884C82.4211 67.4428 82.1002 67.73 81.7044 67.73C81.3086 67.73 80.9878 67.4428 80.9878 67.0884C80.9878 66.734 81.3086 66.4468 81.7044 66.4468C82.1002 66.4468 82.4211 66.734 82.4211 67.0884Z" fill="#2C394B"/>
<path d="M85.2878 67.0884C85.2878 67.4428 84.9669 67.73 84.5711 67.73C84.1753 67.73 83.8545 67.4428 83.8545 67.0884C83.8545 66.734 84.1753 66.4468 84.5711 66.4468C84.9669 66.4468 85.2878 66.734 85.2878 67.0884Z" fill="#2C394B"/>
<path d="M88.154 67.0884C88.154 67.4428 87.8331 67.73 87.4373 67.73C87.0416 67.73 86.7207 67.4428 86.7207 67.0884C86.7207 66.734 87.0416 66.4468 87.4373 66.4468C87.8331 66.4468 88.154 66.734 88.154 67.0884Z" fill="#2C394B"/>
<path d="M91.0207 67.0884C91.0207 67.4428 90.6998 67.73 90.304 67.73C89.9083 67.73 89.5874 67.4428 89.5874 67.0884C89.5874 66.734 89.9083 66.4468 90.304 66.4468C90.6998 66.4468 91.0207 66.734 91.0207 67.0884Z" fill="#2C394B"/>
<path d="M93.8874 67.0884C93.8874 67.4428 93.5665 67.73 93.1707 67.73C92.775 67.73 92.4541 67.4428 92.4541 67.0884C92.4541 66.734 92.775 66.4468 93.1707 66.4468C93.5665 66.4468 93.8874 66.734 93.8874 67.0884Z" fill="#2C394B"/>
<path d="M96.7541 67.0884C96.7541 67.4428 96.4332 67.73 96.0374 67.73C95.6417 67.73 95.3208 67.4428 95.3208 67.0884C95.3208 66.734 95.6417 66.4468 96.0374 66.4468C96.4332 66.4468 96.7541 66.734 96.7541 67.0884Z" fill="#2C394B"/>
<path d="M99.6203 67.0884C99.6203 67.4428 99.2994 67.73 98.9037 67.73C98.5079 67.73 98.187 67.4428 98.187 67.0884C98.187 66.734 98.5079 66.4468 98.9037 66.4468C99.2994 66.4468 99.6203 66.734 99.6203 67.0884Z" fill="#2C394B"/>
<path d="M102.487 67.0884C102.487 67.4428 102.166 67.73 101.77 67.73C101.375 67.73 101.054 67.4428 101.054 67.0884C101.054 66.734 101.375 66.4468 101.77 66.4468C102.166 66.4468 102.487 66.734 102.487 67.0884Z" fill="#2C394B"/>
<path d="M105.354 67.0884C105.354 67.4428 105.033 67.73 104.637 67.73C104.241 67.73 103.92 67.4428 103.92 67.0884C103.92 66.734 104.241 66.4468 104.637 66.4468C105.033 66.4468 105.354 66.734 105.354 67.0884Z" fill="#2C394B"/>
<path d="M59.4885 69.6549C59.4885 70.0093 59.1676 70.2965 58.7718 70.2965C58.376 70.2965 58.0552 70.0093 58.0552 69.6549C58.0552 69.3006 58.376 69.0133 58.7718 69.0133C59.1676 69.0133 59.4885 69.3006 59.4885 69.6549Z" fill="#2C394B"/>
<path d="M62.3552 69.6549C62.3552 70.0093 62.0343 70.2965 61.6385 70.2965C61.2427 70.2965 60.9219 70.0093 60.9219 69.6549C60.9219 69.3006 61.2427 69.0133 61.6385 69.0133C62.0343 69.0133 62.3552 69.3006 62.3552 69.6549Z" fill="#2C394B"/>
<path d="M65.2214 69.6549C65.2214 70.0093 64.9005 70.2965 64.5047 70.2965C64.1089 70.2965 63.7881 70.0093 63.7881 69.6549C63.7881 69.3006 64.1089 69.0133 64.5047 69.0133C64.9005 69.0133 65.2214 69.3006 65.2214 69.6549Z" fill="#2C394B"/>
<path d="M68.0881 69.6549C68.0881 70.0093 67.7672 70.2965 67.3714 70.2965C66.9756 70.2965 66.6548 70.0093 66.6548 69.6549C66.6548 69.3006 66.9756 69.0133 67.3714 69.0133C67.7672 69.0133 68.0881 69.3006 68.0881 69.6549Z" fill="#2C394B"/>
<path d="M70.9548 69.6549C70.9548 70.0093 70.6339 70.2965 70.2381 70.2965C69.8423 70.2965 69.5215 70.0093 69.5215 69.6549C69.5215 69.3006 69.8423 69.0133 70.2381 69.0133C70.6339 69.0133 70.9548 69.3006 70.9548 69.6549Z" fill="#2C394B"/>
<path d="M73.8215 69.6549C73.8215 70.0093 73.5006 70.2965 73.1048 70.2965C72.709 70.2965 72.3882 70.0093 72.3882 69.6549C72.3882 69.3006 72.709 69.0133 73.1048 69.0133C73.5006 69.0133 73.8215 69.3006 73.8215 69.6549Z" fill="#2C394B"/>
<path d="M76.6877 69.6549C76.6877 70.0093 76.3668 70.2965 75.971 70.2965C75.5752 70.2965 75.2544 70.0093 75.2544 69.6549C75.2544 69.3006 75.5752 69.0133 75.971 69.0133C76.3668 69.0133 76.6877 69.3006 76.6877 69.6549Z" fill="#2C394B"/>
<path d="M79.5544 69.6549C79.5544 70.0093 79.2335 70.2965 78.8377 70.2965C78.4419 70.2965 78.1211 70.0093 78.1211 69.6549C78.1211 69.3006 78.4419 69.0133 78.8377 69.0133C79.2335 69.0133 79.5544 69.3006 79.5544 69.6549Z" fill="#2C394B"/>
<path d="M82.4211 69.6549C82.4211 70.0093 82.1002 70.2965 81.7044 70.2965C81.3086 70.2965 80.9878 70.0093 80.9878 69.6549C80.9878 69.3006 81.3086 69.0133 81.7044 69.0133C82.1002 69.0133 82.4211 69.3006 82.4211 69.6549Z" fill="#2C394B"/>
<path d="M85.2878 69.6549C85.2878 70.0093 84.9669 70.2965 84.5711 70.2965C84.1753 70.2965 83.8545 70.0093 83.8545 69.6549C83.8545 69.3006 84.1753 69.0133 84.5711 69.0133C84.9669 69.0133 85.2878 69.3006 85.2878 69.6549Z" fill="#2C394B"/>
<path d="M88.154 69.6549C88.154 70.0093 87.8331 70.2965 87.4373 70.2965C87.0416 70.2965 86.7207 70.0093 86.7207 69.6549C86.7207 69.3006 87.0416 69.0133 87.4373 69.0133C87.8331 69.0133 88.154 69.3006 88.154 69.6549Z" fill="#2C394B"/>
<path d="M91.0207 69.6549C91.0207 70.0093 90.6998 70.2965 90.304 70.2965C89.9083 70.2965 89.5874 70.0093 89.5874 69.6549C89.5874 69.3006 89.9083 69.0133 90.304 69.0133C90.6998 69.0133 91.0207 69.3006 91.0207 69.6549Z" fill="#2C394B"/>
<path d="M93.8874 69.6549C93.8874 70.0093 93.5665 70.2965 93.1707 70.2965C92.775 70.2965 92.4541 70.0093 92.4541 69.6549C92.4541 69.3006 92.775 69.0133 93.1707 69.0133C93.5665 69.0133 93.8874 69.3006 93.8874 69.6549Z" fill="#2C394B"/>
<path d="M96.7541 69.6549C96.7541 70.0093 96.4332 70.2965 96.0374 70.2965C95.6417 70.2965 95.3208 70.0093 95.3208 69.6549C95.3208 69.3006 95.6417 69.0133 96.0374 69.0133C96.4332 69.0133 96.7541 69.3006 96.7541 69.6549Z" fill="#2C394B"/>
<path d="M99.6203 69.6549C99.6203 70.0093 99.2994 70.2965 98.9037 70.2965C98.5079 70.2965 98.187 70.0093 98.187 69.6549C98.187 69.3006 98.5079 69.0133 98.9037 69.0133C99.2994 69.0133 99.6203 69.3006 99.6203 69.6549Z" fill="#2C394B"/>
<path d="M102.487 69.6549C102.487 70.0093 102.166 70.2965 101.77 70.2965C101.375 70.2965 101.054 70.0093 101.054 69.6549C101.054 69.3006 101.375 69.0133 101.77 69.0133C102.166 69.0133 102.487 69.3006 102.487 69.6549Z" fill="#2C394B"/>
<path d="M105.354 69.6549C105.354 70.0093 105.033 70.2965 104.637 70.2965C104.241 70.2965 103.92 70.0093 103.92 69.6549C103.92 69.3006 104.241 69.0133 104.637 69.0133C105.033 69.0133 105.354 69.3006 105.354 69.6549Z" fill="#2C394B"/>
<path d="M59.4885 72.2215C59.4885 72.5758 59.1676 72.8631 58.7718 72.8631C58.376 72.8631 58.0552 72.5758 58.0552 72.2215C58.0552 71.8671 58.376 71.5798 58.7718 71.5798C59.1676 71.5798 59.4885 71.8671 59.4885 72.2215Z" fill="#2C394B"/>
<path d="M62.3552 72.2215C62.3552 72.5758 62.0343 72.8631 61.6385 72.8631C61.2427 72.8631 60.9219 72.5758 60.9219 72.2215C60.9219 71.8671 61.2427 71.5798 61.6385 71.5798C62.0343 71.5798 62.3552 71.8671 62.3552 72.2215Z" fill="#2C394B"/>
<path d="M65.2214 72.2215C65.2214 72.5758 64.9005 72.8631 64.5047 72.8631C64.1089 72.8631 63.7881 72.5758 63.7881 72.2215C63.7881 71.8671 64.1089 71.5798 64.5047 71.5798C64.9005 71.5798 65.2214 71.8671 65.2214 72.2215Z" fill="#2C394B"/>
<path d="M68.0881 72.2215C68.0881 72.5758 67.7672 72.8631 67.3714 72.8631C66.9756 72.8631 66.6548 72.5758 66.6548 72.2215C66.6548 71.8671 66.9756 71.5798 67.3714 71.5798C67.7672 71.5798 68.0881 71.8671 68.0881 72.2215Z" fill="#2C394B"/>
<path d="M70.9548 72.2215C70.9548 72.5758 70.6339 72.8631 70.2381 72.8631C69.8423 72.8631 69.5215 72.5758 69.5215 72.2215C69.5215 71.8671 69.8423 71.5798 70.2381 71.5798C70.6339 71.5798 70.9548 71.8671 70.9548 72.2215Z" fill="#2C394B"/>
<path d="M73.8215 72.2215C73.8215 72.5758 73.5006 72.8631 73.1048 72.8631C72.709 72.8631 72.3882 72.5758 72.3882 72.2215C72.3882 71.8671 72.709 71.5798 73.1048 71.5798C73.5006 71.5798 73.8215 71.8671 73.8215 72.2215Z" fill="#2C394B"/>
<path d="M76.6877 72.2215C76.6877 72.5758 76.3668 72.8631 75.971 72.8631C75.5752 72.8631 75.2544 72.5758 75.2544 72.2215C75.2544 71.8671 75.5752 71.5798 75.971 71.5798C76.3668 71.5798 76.6877 71.8671 76.6877 72.2215Z" fill="#2C394B"/>
<path d="M79.5544 72.2215C79.5544 72.5758 79.2335 72.8631 78.8377 72.8631C78.4419 72.8631 78.1211 72.5758 78.1211 72.2215C78.1211 71.8671 78.4419 71.5798 78.8377 71.5798C79.2335 71.5798 79.5544 71.8671 79.5544 72.2215Z" fill="#2C394B"/>
<path d="M82.4211 72.2215C82.4211 72.5758 82.1002 72.8631 81.7044 72.8631C81.3086 72.8631 80.9878 72.5758 80.9878 72.2215C80.9878 71.8671 81.3086 71.5798 81.7044 71.5798C82.1002 71.5798 82.4211 71.8671 82.4211 72.2215Z" fill="#2C394B"/>
<path d="M85.2878 72.2215C85.2878 72.5758 84.9669 72.8631 84.5711 72.8631C84.1753 72.8631 83.8545 72.5758 83.8545 72.2215C83.8545 71.8671 84.1753 71.5798 84.5711 71.5798C84.9669 71.5798 85.2878 71.8671 85.2878 72.2215Z" fill="#2C394B"/>
<path d="M88.154 72.2215C88.154 72.5758 87.8331 72.8631 87.4373 72.8631C87.0416 72.8631 86.7207 72.5758 86.7207 72.2215C86.7207 71.8671 87.0416 71.5798 87.4373 71.5798C87.8331 71.5798 88.154 71.8671 88.154 72.2215Z" fill="#2C394B"/>
<path d="M91.0207 72.2215C91.0207 72.5758 90.6998 72.8631 90.304 72.8631C89.9083 72.8631 89.5874 72.5758 89.5874 72.2215C89.5874 71.8671 89.9083 71.5798 90.304 71.5798C90.6998 71.5798 91.0207 71.8671 91.0207 72.2215Z" fill="#2C394B"/>
<path d="M93.8874 72.2215C93.8874 72.5758 93.5665 72.8631 93.1707 72.8631C92.775 72.8631 92.4541 72.5758 92.4541 72.2215C92.4541 71.8671 92.775 71.5798 93.1707 71.5798C93.5665 71.5798 93.8874 71.8671 93.8874 72.2215Z" fill="#2C394B"/>
<path d="M96.7541 72.2215C96.7541 72.5758 96.4332 72.8631 96.0374 72.8631C95.6417 72.8631 95.3208 72.5758 95.3208 72.2215C95.3208 71.8671 95.6417 71.5798 96.0374 71.5798C96.4332 71.5798 96.7541 71.8671 96.7541 72.2215Z" fill="#2C394B"/>
<path d="M99.6203 72.2215C99.6203 72.5758 99.2994 72.8631 98.9037 72.8631C98.5079 72.8631 98.187 72.5758 98.187 72.2215C98.187 71.8671 98.5079 71.5798 98.9037 71.5798C99.2994 71.5798 99.6203 71.8671 99.6203 72.2215Z" fill="#2C394B"/>
<path d="M102.487 72.2215C102.487 72.5758 102.166 72.8631 101.77 72.8631C101.375 72.8631 101.054 72.5758 101.054 72.2215C101.054 71.8671 101.375 71.5798 101.77 71.5798C102.166 71.5798 102.487 71.8671 102.487 72.2215Z" fill="#2C394B"/>
<path d="M105.354 72.2215C105.354 72.5758 105.033 72.8631 104.637 72.8631C104.241 72.8631 103.92 72.5758 103.92 72.2215C103.92 71.8671 104.241 71.5798 104.637 71.5798C105.033 71.5798 105.354 71.8671 105.354 72.2215Z" fill="#2C394B"/>
<path d="M59.4885 74.7879C59.4885 75.1423 59.1676 75.4296 58.7718 75.4296C58.376 75.4296 58.0552 75.1423 58.0552 74.7879C58.0552 74.4336 58.376 74.1463 58.7718 74.1463C59.1676 74.1463 59.4885 74.4336 59.4885 74.7879Z" fill="#2C394B"/>
<path d="M62.3552 74.7879C62.3552 75.1423 62.0343 75.4296 61.6385 75.4296C61.2427 75.4296 60.9219 75.1423 60.9219 74.7879C60.9219 74.4336 61.2427 74.1463 61.6385 74.1463C62.0343 74.1463 62.3552 74.4336 62.3552 74.7879Z" fill="#2C394B"/>
<path d="M65.2214 74.7879C65.2214 75.1423 64.9005 75.4296 64.5047 75.4296C64.1089 75.4296 63.7881 75.1423 63.7881 74.7879C63.7881 74.4336 64.1089 74.1463 64.5047 74.1463C64.9005 74.1463 65.2214 74.4336 65.2214 74.7879Z" fill="#2C394B"/>
<path d="M68.0881 74.7879C68.0881 75.1423 67.7672 75.4296 67.3714 75.4296C66.9756 75.4296 66.6548 75.1423 66.6548 74.7879C66.6548 74.4336 66.9756 74.1463 67.3714 74.1463C67.7672 74.1463 68.0881 74.4336 68.0881 74.7879Z" fill="#2C394B"/>
<path d="M70.9548 74.7879C70.9548 75.1423 70.6339 75.4296 70.2381 75.4296C69.8423 75.4296 69.5215 75.1423 69.5215 74.7879C69.5215 74.4336 69.8423 74.1463 70.2381 74.1463C70.6339 74.1463 70.9548 74.4336 70.9548 74.7879Z" fill="#2C394B"/>
<path d="M73.8215 74.7879C73.8215 75.1423 73.5006 75.4296 73.1048 75.4296C72.709 75.4296 72.3882 75.1423 72.3882 74.7879C72.3882 74.4336 72.709 74.1463 73.1048 74.1463C73.5006 74.1463 73.8215 74.4336 73.8215 74.7879Z" fill="#2C394B"/>
<path d="M76.6877 74.7879C76.6877 75.1423 76.3668 75.4296 75.971 75.4296C75.5752 75.4296 75.2544 75.1423 75.2544 74.7879C75.2544 74.4336 75.5752 74.1463 75.971 74.1463C76.3668 74.1463 76.6877 74.4336 76.6877 74.7879Z" fill="#2C394B"/>
<path d="M79.5544 74.7879C79.5544 75.1423 79.2335 75.4296 78.8377 75.4296C78.4419 75.4296 78.1211 75.1423 78.1211 74.7879C78.1211 74.4336 78.4419 74.1463 78.8377 74.1463C79.2335 74.1463 79.5544 74.4336 79.5544 74.7879Z" fill="#2C394B"/>
<path d="M82.4211 74.7879C82.4211 75.1423 82.1002 75.4296 81.7044 75.4296C81.3086 75.4296 80.9878 75.1423 80.9878 74.7879C80.9878 74.4336 81.3086 74.1463 81.7044 74.1463C82.1002 74.1463 82.4211 74.4336 82.4211 74.7879Z" fill="#2C394B"/>
<path d="M85.2878 74.7879C85.2878 75.1423 84.9669 75.4296 84.5711 75.4296C84.1753 75.4296 83.8545 75.1423 83.8545 74.7879C83.8545 74.4336 84.1753 74.1463 84.5711 74.1463C84.9669 74.1463 85.2878 74.4336 85.2878 74.7879Z" fill="#2C394B"/>
<path d="M88.154 74.7879C88.154 75.1423 87.8331 75.4296 87.4373 75.4296C87.0416 75.4296 86.7207 75.1423 86.7207 74.7879C86.7207 74.4336 87.0416 74.1463 87.4373 74.1463C87.8331 74.1463 88.154 74.4336 88.154 74.7879Z" fill="#2C394B"/>
<path d="M91.0207 74.7879C91.0207 75.1423 90.6998 75.4296 90.304 75.4296C89.9083 75.4296 89.5874 75.1423 89.5874 74.7879C89.5874 74.4336 89.9083 74.1463 90.304 74.1463C90.6998 74.1463 91.0207 74.4336 91.0207 74.7879Z" fill="#2C394B"/>
<path d="M93.8874 74.7879C93.8874 75.1423 93.5665 75.4296 93.1707 75.4296C92.775 75.4296 92.4541 75.1423 92.4541 74.7879C92.4541 74.4336 92.775 74.1463 93.1707 74.1463C93.5665 74.1463 93.8874 74.4336 93.8874 74.7879Z" fill="#2C394B"/>
<path d="M96.7541 74.7879C96.7541 75.1423 96.4332 75.4296 96.0374 75.4296C95.6417 75.4296 95.3208 75.1423 95.3208 74.7879C95.3208 74.4336 95.6417 74.1463 96.0374 74.1463C96.4332 74.1463 96.7541 74.4336 96.7541 74.7879Z" fill="#2C394B"/>
<path d="M99.6203 74.7879C99.6203 75.1423 99.2994 75.4296 98.9037 75.4296C98.5079 75.4296 98.187 75.1423 98.187 74.7879C98.187 74.4336 98.5079 74.1463 98.9037 74.1463C99.2994 74.1463 99.6203 74.4336 99.6203 74.7879Z" fill="#2C394B"/>
<path d="M102.487 74.7879C102.487 75.1423 102.166 75.4296 101.77 75.4296C101.375 75.4296 101.054 75.1423 101.054 74.7879C101.054 74.4336 101.375 74.1463 101.77 74.1463C102.166 74.1463 102.487 74.4336 102.487 74.7879Z" fill="#2C394B"/>
<path d="M105.354 74.7879C105.354 75.1423 105.033 75.4296 104.637 75.4296C104.241 75.4296 103.92 75.1423 103.92 74.7879C103.92 74.4336 104.241 74.1463 104.637 74.1463C105.033 74.1463 105.354 74.4336 105.354 74.7879Z" fill="#2C394B"/>
<path d="M59.4885 77.3544C59.4885 77.7087 59.1676 77.996 58.7718 77.996C58.376 77.996 58.0552 77.7087 58.0552 77.3544C58.0552 77 58.376 76.7128 58.7718 76.7128C59.1676 76.7128 59.4885 77 59.4885 77.3544Z" fill="#2C394B"/>
<path d="M62.3552 77.3544C62.3552 77.7087 62.0343 77.996 61.6385 77.996C61.2427 77.996 60.9219 77.7087 60.9219 77.3544C60.9219 77 61.2427 76.7128 61.6385 76.7128C62.0343 76.7128 62.3552 77 62.3552 77.3544Z" fill="#2C394B"/>
<path d="M65.2214 77.3544C65.2214 77.7087 64.9005 77.996 64.5047 77.996C64.1089 77.996 63.7881 77.7087 63.7881 77.3544C63.7881 77 64.1089 76.7128 64.5047 76.7128C64.9005 76.7128 65.2214 77 65.2214 77.3544Z" fill="#2C394B"/>
<path d="M68.0881 77.3544C68.0881 77.7087 67.7672 77.996 67.3714 77.996C66.9756 77.996 66.6548 77.7087 66.6548 77.3544C66.6548 77 66.9756 76.7128 67.3714 76.7128C67.7672 76.7128 68.0881 77 68.0881 77.3544Z" fill="#2C394B"/>
<path d="M70.9548 77.3544C70.9548 77.7087 70.6339 77.996 70.2381 77.996C69.8423 77.996 69.5215 77.7087 69.5215 77.3544C69.5215 77 69.8423 76.7128 70.2381 76.7128C70.6339 76.7128 70.9548 77 70.9548 77.3544Z" fill="#2C394B"/>
<path d="M73.8215 77.3544C73.8215 77.7087 73.5006 77.996 73.1048 77.996C72.709 77.996 72.3882 77.7087 72.3882 77.3544C72.3882 77 72.709 76.7128 73.1048 76.7128C73.5006 76.7128 73.8215 77 73.8215 77.3544Z" fill="#2C394B"/>
<path d="M76.6877 77.3544C76.6877 77.7087 76.3668 77.996 75.971 77.996C75.5752 77.996 75.2544 77.7087 75.2544 77.3544C75.2544 77 75.5752 76.7128 75.971 76.7128C76.3668 76.7128 76.6877 77 76.6877 77.3544Z" fill="#2C394B"/>
<path d="M79.5544 77.3544C79.5544 77.7087 79.2335 77.996 78.8377 77.996C78.4419 77.996 78.1211 77.7087 78.1211 77.3544C78.1211 77 78.4419 76.7128 78.8377 76.7128C79.2335 76.7128 79.5544 77 79.5544 77.3544Z" fill="#2C394B"/>
<path d="M82.4211 77.3544C82.4211 77.7087 82.1002 77.996 81.7044 77.996C81.3086 77.996 80.9878 77.7087 80.9878 77.3544C80.9878 77 81.3086 76.7128 81.7044 76.7128C82.1002 76.7128 82.4211 77 82.4211 77.3544Z" fill="#2C394B"/>
<path d="M85.2878 77.3544C85.2878 77.7087 84.9669 77.996 84.5711 77.996C84.1753 77.996 83.8545 77.7087 83.8545 77.3544C83.8545 77 84.1753 76.7128 84.5711 76.7128C84.9669 76.7128 85.2878 77 85.2878 77.3544Z" fill="#2C394B"/>
<path d="M88.154 77.3544C88.154 77.7087 87.8331 77.996 87.4373 77.996C87.0416 77.996 86.7207 77.7087 86.7207 77.3544C86.7207 77 87.0416 76.7128 87.4373 76.7128C87.8331 76.7128 88.154 77 88.154 77.3544Z" fill="#2C394B"/>
<path d="M91.0207 77.3544C91.0207 77.7087 90.6998 77.996 90.304 77.996C89.9083 77.996 89.5874 77.7087 89.5874 77.3544C89.5874 77 89.9083 76.7128 90.304 76.7128C90.6998 76.7128 91.0207 77 91.0207 77.3544Z" fill="#2C394B"/>
<path d="M93.8874 77.3544C93.8874 77.7087 93.5665 77.996 93.1707 77.996C92.775 77.996 92.4541 77.7087 92.4541 77.3544C92.4541 77 92.775 76.7128 93.1707 76.7128C93.5665 76.7128 93.8874 77 93.8874 77.3544Z" fill="#2C394B"/>
<path d="M96.7541 77.3544C96.7541 77.7087 96.4332 77.996 96.0374 77.996C95.6417 77.996 95.3208 77.7087 95.3208 77.3544C95.3208 77 95.6417 76.7128 96.0374 76.7128C96.4332 76.7128 96.7541 77 96.7541 77.3544Z" fill="#2C394B"/>
<path d="M99.6203 77.3544C99.6203 77.7087 99.2994 77.996 98.9037 77.996C98.5079 77.996 98.187 77.7087 98.187 77.3544C98.187 77 98.5079 76.7128 98.9037 76.7128C99.2994 76.7128 99.6203 77 99.6203 77.3544Z" fill="#2C394B"/>
<path d="M102.487 77.3544C102.487 77.7087 102.166 77.996 101.77 77.996C101.375 77.996 101.054 77.7087 101.054 77.3544C101.054 77 101.375 76.7128 101.77 76.7128C102.166 76.7128 102.487 77 102.487 77.3544Z" fill="#2C394B"/>
</g>
<g clip-path="url(#clip2_250_12200)">
<path d="M21.7786 15.1417C21.2426 16.102 20.0296 16.446 19.0693 15.91C18.109 15.374 17.765 14.161 18.301 13.2007C18.837 12.2403 20.05 11.8964 21.0103 12.4324C21.9706 12.9683 22.3146 14.1813 21.7786 15.1417Z" fill="#2C394B"/>
<path d="M15.0535 15.8906C15.5514 15.7494 15.8641 15.2734 15.8202 14.7666C15.6588 12.9046 16.6493 11.1136 18.3316 10.2671C18.79 10.0364 19.0257 9.51824 18.8857 9.02452C18.7055 8.38903 17.9908 8.06478 17.3964 8.36135C14.9276 9.59281 13.4594 12.2234 13.7072 14.9711C13.7667 15.6309 14.4161 16.0713 15.0535 15.8906Z" fill="#2C394B"/>
<path d="M10.9283 17.0604C11.4543 16.9112 11.775 16.3902 11.6841 15.8585C10.9849 11.7703 13.2312 7.72928 17.0896 6.17355C17.5933 5.97047 17.8641 5.42181 17.7159 4.89931C17.5446 4.29543 16.8869 3.96725 16.3014 4.20292C11.5549 6.11344 8.71418 11.1019 9.59303 16.2221C9.6995 16.8424 10.3227 17.2321 10.9283 17.0604Z" fill="#2C394B"/>
<path d="M6.82757 18.2232C7.36688 18.0702 7.68761 17.528 7.57694 16.9861C6.28258 10.6487 9.81976 4.31115 15.8933 2.08601C16.4162 1.89447 16.7048 1.3345 16.5529 0.798794C16.3849 0.206307 15.7478 -0.121531 15.1663 0.0913705C8.10368 2.67712 3.99109 10.0464 5.49757 17.4143C5.62126 18.0194 6.23344 18.3917 6.82757 18.2232Z" fill="#2C394B"/>
</g>
<path d="M88.4774 45.8215C88.4774 64.6231 73.2358 79.8647 54.4343 79.8647C35.6328 79.8647 20.3911 64.6231 20.3911 45.8215C20.3911 27.02 35.6328 11.7784 54.4343 11.7784C73.2358 11.7784 88.4774 27.02 88.4774 45.8215Z" fill="#E2EEFF"/>
<path d="M82.2435 44.774C84.3441 44.6258 87.4809 41.6316 87.4809 41.6316C87.4809 41.6316 87.9535 39.0129 85.3348 32.2043C82.7161 25.3956 78.5773 22.2532 78.5773 22.2532C78.5773 22.2532 74.253 26.8985 73.8636 30.633C73.5599 33.5457 74.6545 35.8671 75.9586 38.4891C77.6331 41.856 78.4925 45.0388 82.2435 44.774Z" fill="#74B9FF" stroke="#2C394B"/>
<path d="M62.8141 65.1999C64.9513 63.4189 65.567 61.8208 67.0041 59.4388C69.0853 55.9891 73.5357 53.2898 71.194 50.0114C68.5753 46.3452 52.8631 36.3942 49.1969 36.3942C46.4149 36.3942 45.4397 38.6545 43.4357 40.5841C41.5489 42.4008 40.4603 43.2949 39.7695 45.8215C38.5115 50.4231 43.9028 51.8122 45.5307 56.2963C47.9776 63.0362 40.3271 71.1146 46.5782 74.6272C48.1494 75.5101 56.5293 70.4373 62.8141 65.1999Z" fill="#74B9FF" stroke="#2C394B"/>
<path d="M30.3421 34.2992C26.7667 32.3117 28.2471 24.8719 28.2471 24.8719C28.2471 24.8719 32.8594 18.5556 37.6745 16.492C45.0069 13.3496 47.6256 13.3496 51.2918 12.8258C51.8102 12.7518 51.2918 14.397 51.2918 16.492C51.2918 19.726 56.3546 19.1107 55.4817 20.6819C52.863 25.3956 51.7275 29.1897 47.6256 30.633C43.9597 31.9228 41.4292 29.631 37.6745 30.633C33.7769 31.6731 33.868 36.2592 30.3421 34.2992Z" fill="#74B9FF" stroke="#2C394B"/>
<path fill-rule="evenodd" clip-rule="evenodd" d="M54.4343 78.8172C72.6573 78.8172 87.4299 64.0445 87.4299 45.8215C87.4299 27.5985 72.6573 12.8259 54.4343 12.8259C36.2113 12.8259 21.4386 27.5985 21.4386 45.8215C21.4386 64.0445 36.2113 78.8172 54.4343 78.8172ZM54.4343 79.8647C73.2358 79.8647 88.4774 64.623 88.4774 45.8215C88.4774 27.02 73.2358 11.7784 54.4343 11.7784C35.6328 11.7784 20.3911 27.02 20.3911 45.8215C20.3911 64.623 35.6328 79.8647 54.4343 79.8647Z" fill="#2C394B"/>
<path fill-rule="evenodd" clip-rule="evenodd" d="M33.8686 30.0395C37.2206 30.0395 42.2485 19.3037 42.2485 14.5517C42.2485 9.79967 38.4967 5.94739 33.8686 5.94739C29.2406 5.94739 25.4888 9.79967 25.4888 14.5517C25.4888 19.3037 29.958 30.0395 33.8686 30.0395ZM33.8686 17.4198C35.4113 17.4198 36.6619 16.1357 36.6619 14.5517C36.6619 12.9677 35.4113 11.6836 33.8686 11.6836C32.3259 11.6836 31.0753 12.9677 31.0753 14.5517C31.0753 16.1357 32.3259 17.4198 33.8686 17.4198Z" fill="#F6E049"/>
<path fill-rule="evenodd" clip-rule="evenodd" d="M40.4561 18.678C40.9671 17.0439 41.2485 15.593 41.2485 14.5517C41.2485 10.3269 37.9197 6.94739 33.8686 6.94739C29.8176 6.94739 26.4888 10.3269 26.4888 14.5517C26.4888 16.7127 27.5368 20.4265 29.1102 23.6376C29.8905 25.2301 30.7685 26.6325 31.6541 27.6202C32.5753 28.6478 33.3345 29.0395 33.8686 29.0395C34.0225 29.0395 34.2759 28.975 34.6397 28.7346C34.9984 28.4976 35.4032 28.1295 35.8385 27.6304C36.7088 26.6327 37.6086 25.2193 38.4252 23.6224C39.2385 22.0317 39.9499 20.2965 40.4561 18.678ZM37.6619 14.5517C37.6619 16.6629 35.9883 18.4198 33.8686 18.4198C31.7489 18.4198 30.0753 16.6629 30.0753 14.5517C30.0753 12.4405 31.7489 10.6836 33.8686 10.6836C35.9883 10.6836 37.6619 12.4405 37.6619 14.5517ZM42.2485 14.5517C42.2485 19.3037 37.2206 30.0395 33.8686 30.0395C29.958 30.0395 25.4888 19.3037 25.4888 14.5517C25.4888 9.79967 29.2406 5.94739 33.8686 5.94739C38.4967 5.94739 42.2485 9.79967 42.2485 14.5517ZM36.6619 14.5517C36.6619 16.1357 35.4113 17.4198 33.8686 17.4198C32.3259 17.4198 31.0753 16.1357 31.0753 14.5517C31.0753 12.9677 32.3259 11.6836 33.8686 11.6836C35.4113 11.6836 36.6619 12.9677 36.6619 14.5517Z" fill="#2C394B"/>
<path fill-rule="evenodd" clip-rule="evenodd" d="M82.1924 36.9179C85.5443 36.9179 90.5722 26.1822 90.5722 21.4302C90.5722 16.6781 86.8204 12.8259 82.1924 12.8259C77.5643 12.8259 73.8125 16.6781 73.8125 21.4302C73.8125 26.1822 78.2818 36.9179 82.1924 36.9179ZM82.1924 24.2983C83.735 24.2983 84.9856 23.0142 84.9856 21.4302C84.9856 19.8462 83.735 18.5621 82.1924 18.5621C80.6497 18.5621 79.3991 19.8462 79.3991 21.4302C79.3991 23.0142 80.6497 24.2983 82.1924 24.2983Z" fill="#F6E049"/>
<path fill-rule="evenodd" clip-rule="evenodd" d="M88.7798 25.5564C89.2908 23.9224 89.5722 22.4715 89.5722 21.4302C89.5722 17.2054 86.2434 13.8259 82.1924 13.8259C78.1413 13.8259 74.8125 17.2054 74.8125 21.4302C74.8125 23.5912 75.8606 27.305 77.4339 30.5161C78.2142 32.1086 79.0922 33.511 79.9778 34.4987C80.899 35.5263 81.6583 35.9179 82.1924 35.9179C82.3463 35.9179 82.5997 35.8535 82.9635 35.6131C83.3221 35.3761 83.7269 35.0079 84.1622 34.5089C85.0326 33.5112 85.9324 32.0978 86.7489 30.5008C87.5622 28.9102 88.2736 27.175 88.7798 25.5564ZM85.9856 21.4302C85.9856 23.5414 84.3121 25.2983 82.1924 25.2983C80.0726 25.2983 78.3991 23.5414 78.3991 21.4302C78.3991 19.319 80.0726 17.5621 82.1924 17.5621C84.3121 17.5621 85.9856 19.319 85.9856 21.4302ZM90.5722 21.4302C90.5722 26.1822 85.5443 36.9179 82.1924 36.9179C78.2818 36.9179 73.8125 26.1822 73.8125 21.4302C73.8125 16.6781 77.5643 12.8259 82.1924 12.8259C86.8204 12.8259 90.5722 16.6781 90.5722 21.4302ZM84.9856 21.4302C84.9856 23.0142 83.735 24.2983 82.1924 24.2983C80.6497 24.2983 79.3991 23.0142 79.3991 21.4302C79.3991 19.8462 80.6497 18.5621 82.1924 18.5621C83.735 18.5621 84.9856 19.8462 84.9856 21.4302Z" fill="#2C394B"/>
<path fill-rule="evenodd" clip-rule="evenodd" d="M59.6717 50.5352C63.2331 50.5352 68.5753 39.7995 68.5753 35.0474C68.5753 30.2954 64.589 26.4431 59.6717 26.4431C54.7543 26.4431 50.7681 30.2954 50.7681 35.0474C50.7681 39.7995 55.5167 50.5352 59.6717 50.5352ZM59.6717 37.9155C61.3108 37.9155 62.6395 36.6314 62.6395 35.0474C62.6395 33.4634 61.3108 32.1793 59.6717 32.1793C58.0326 32.1793 56.7038 33.4634 56.7038 35.0474C56.7038 36.6314 58.0326 37.9155 59.6717 37.9155Z" fill="#F6E049"/>
<path fill-rule="evenodd" clip-rule="evenodd" d="M66.7359 39.1568C67.2784 37.5241 67.5753 36.0796 67.5753 35.0474C67.5753 30.8796 64.0692 27.4431 59.6717 27.4431C55.2741 27.4431 51.7681 30.8796 51.7681 35.0474C51.7681 37.195 52.8772 40.9008 54.5487 44.1115C55.3768 45.7021 56.3094 47.1046 57.2516 48.0938C58.2243 49.1148 59.052 49.5352 59.6717 49.5352C59.8676 49.5352 60.157 49.459 60.5486 49.2155C60.9361 48.9745 61.3691 48.6031 61.8319 48.1037C62.7577 47.1048 63.7136 45.6915 64.5803 44.096C65.4439 42.5063 66.1989 40.7729 66.7359 39.1568ZM63.6395 35.0474C63.6395 37.2157 61.8306 38.9155 59.6717 38.9155C57.5128 38.9155 55.7038 37.2157 55.7038 35.0474C55.7038 32.8792 57.5128 31.1793 59.6717 31.1793C61.8306 31.1793 63.6395 32.8792 63.6395 35.0474ZM68.5753 35.0474C68.5753 39.7995 63.2331 50.5352 59.6717 50.5352C55.5167 50.5352 50.7681 39.7995 50.7681 35.0474C50.7681 30.2954 54.7543 26.4431 59.6717 26.4431C64.589 26.4431 68.5753 30.2954 68.5753 35.0474ZM62.6395 35.0474C62.6395 36.6314 61.3108 37.9155 59.6717 37.9155C58.0326 37.9155 56.7038 36.6314 56.7038 35.0474C56.7038 33.4634 58.0326 32.1793 59.6717 32.1793C61.3108 32.1793 62.6395 33.4634 62.6395 35.0474Z" fill="#2C394B"/>
<path fill-rule="evenodd" clip-rule="evenodd" d="M47.1018 71.4848C50.6633 71.4848 56.0054 60.7491 56.0054 55.9971C56.0054 51.245 52.0192 47.3928 47.1018 47.3928C42.1845 47.3928 38.1982 51.245 38.1982 55.9971C38.1982 60.7491 42.9468 71.4848 47.1018 71.4848ZM47.1018 58.8652C48.7409 58.8652 50.0697 57.5811 50.0697 55.9971C50.0697 54.4131 48.7409 53.129 47.1018 53.129C45.4627 53.129 44.134 54.4131 44.134 55.9971C44.134 57.5811 45.4627 58.8652 47.1018 58.8652Z" fill="#F6E049"/>
<path fill-rule="evenodd" clip-rule="evenodd" d="M54.1661 60.1065C54.7086 58.4737 55.0054 57.0293 55.0054 55.9971C55.0054 51.8293 51.4994 48.3928 47.1018 48.3928C42.7043 48.3928 39.1982 51.8293 39.1982 55.9971C39.1982 58.1446 40.3073 61.8504 41.9789 65.0612C42.807 66.6518 43.7395 68.0542 44.6818 69.0434C45.6545 70.0645 46.4822 70.4848 47.1018 70.4848C47.2978 70.4848 47.5872 70.4087 47.9788 70.1651C48.3663 69.9241 48.7993 69.5527 49.2621 69.0534C50.1879 68.0545 51.1437 66.6411 52.0105 65.0456C52.874 63.456 53.6291 61.7226 54.1661 60.1065ZM51.0697 55.9971C51.0697 58.1653 49.2607 59.8652 47.1018 59.8652C44.943 59.8652 43.134 58.1653 43.134 55.9971C43.134 53.8288 44.943 52.129 47.1018 52.129C49.2607 52.129 51.0697 53.8288 51.0697 55.9971ZM56.0054 55.9971C56.0054 60.7491 50.6633 71.4848 47.1018 71.4848C42.9468 71.4848 38.1982 60.7491 38.1982 55.9971C38.1982 51.245 42.1845 47.3928 47.1018 47.3928C52.0192 47.3928 56.0054 51.245 56.0054 55.9971ZM50.0697 55.9971C50.0697 57.5811 48.7409 58.8652 47.1018 58.8652C45.4627 58.8652 44.134 57.5811 44.134 55.9971C44.134 54.4131 45.4627 53.129 47.1018 53.129C48.7409 53.129 50.0697 54.4131 50.0697 55.9971Z" fill="#2C394B"/>
<path d="M17.3423 67.9699C17.3423 68.6323 16.8054 69.1692 16.1431 69.1692C15.4808 69.1692 14.9438 68.6323 14.9438 67.9699C14.9438 67.3076 15.4808 66.7707 16.1431 66.7707C16.8054 66.7707 17.3423 67.3076 17.3423 67.9699Z" stroke="#2C394B"/>
<path d="M9.77053 45.0301C9.61084 45.0301 9.48139 44.9006 9.48139 44.7409V42.7703C9.48139 42.6107 9.61084 42.4812 9.77053 42.4812C9.93022 42.4812 10.0597 42.6107 10.0597 42.7703V44.7409C10.0597 44.9006 9.93022 45.0301 9.77053 45.0301ZM8.78524 44.0448C8.62555 44.0448 8.49609 43.9153 8.49609 43.7556C8.49609 43.5959 8.62555 43.4665 8.78524 43.4665H10.7558C10.9155 43.4665 11.045 43.5959 11.045 43.7556C11.045 43.9153 10.9155 44.0448 10.7558 44.0448H8.78524Z" fill="#2C394B"/>
<path d="M94.7329 33.985C94.5732 33.985 94.4438 33.8555 94.4438 33.6958V31.7252C94.4438 31.5655 94.5732 31.4361 94.7329 31.4361C94.8926 31.4361 95.0221 31.5655 95.0221 31.7252V33.6958C95.0221 33.8555 94.8926 33.985 94.7329 33.985ZM93.7476 32.9997C93.5879 32.9997 93.4585 32.8702 93.4585 32.7105C93.4585 32.5508 93.5879 32.4214 93.7476 32.4214H95.7182C95.8779 32.4214 96.0074 32.5508 96.0074 32.7105C96.0074 32.8702 95.8779 32.9997 95.7182 32.9997H93.7476Z" fill="#2C394B"/>
<path d="M105.703 18.6917C105.703 19.3541 105.166 19.891 104.504 19.891C103.842 19.891 103.305 19.3541 103.305 18.6917C103.305 18.0294 103.842 17.4925 104.504 17.4925C105.166 17.4925 105.703 18.0294 105.703 18.6917Z" stroke="#2C394B"/>
</g>
<defs>
<clipPath id="clip0_250_12200">
<rect width="113" height="83.2632" fill="white"/>
</clipPath>
<clipPath id="clip1_250_12200">
<rect width="48.4286" height="37.3835" fill="white" transform="translate(56.9248 40.782)"/>
</clipPath>
<clipPath id="clip2_250_12200">
<rect width="21.2406" height="21.2406" fill="white" transform="matrix(-0.487369 0.873196 0.873196 0.487369 10.3521 -3.3985)"/>
</clipPath>
</defs>
</svg>
