<svg width="71" height="71" viewBox="0 0 71 71" fill="none" xmlns="http://www.w3.org/2000/svg">
<g filter="url(#filter0_d_816_3997)">
<rect x="20" y="16" width="31" height="31" rx="8" fill="white"/>
</g>
<path d="M37.1689 42.578C42.4957 41.7767 46.5796 37.1804 46.5796 31.6303C46.5796 25.5157 41.6227 20.5588 35.5082 20.5588C29.3936 20.5588 24.4368 25.5157 24.4368 31.6303C24.4368 37.1804 28.5207 41.7767 33.8475 42.578V34.9517H32.1868C31.2696 34.9517 30.5261 34.2081 30.5261 33.291C30.5261 32.3738 31.2696 31.6303 32.1868 31.6303H33.8475V29.416C33.8475 27.2759 35.5824 25.541 37.7225 25.541H38.2761C39.1932 25.541 39.9368 26.2845 39.9368 27.2017C39.9368 28.1189 39.1932 28.8624 38.2761 28.8624H37.7225C37.4168 28.8624 37.1689 29.1103 37.1689 29.416V31.6303H38.8296C39.7468 31.6303 40.4903 32.3738 40.4903 33.291C40.4903 34.2081 39.7468 34.9517 38.8296 34.9517H37.1689V42.578Z" fill="#A9B6C9"/>
<defs>
<filter id="filter0_d_816_3997" x="0" y="0" width="71" height="71" filterUnits="userSpaceOnUse" color-interpolation-filters="sRGB">
<feFlood flood-opacity="0" result="BackgroundImageFix"/>
<feColorMatrix in="SourceAlpha" type="matrix" values="0 0 0 0 0 0 0 0 0 0 0 0 0 0 0 0 0 0 127 0" result="hardAlpha"/>
<feOffset dy="4"/>
<feGaussianBlur stdDeviation="10"/>
<feComposite in2="hardAlpha" operator="out"/>
<feColorMatrix type="matrix" values="0 0 0 0 0.820556 0 0 0 0 0.852133 0 0 0 0 0.933333 0 0 0 1 0"/>
<feBlend mode="normal" in2="BackgroundImageFix" result="effect1_dropShadow_816_3997"/>
<feBlend mode="normal" in="SourceGraphic" in2="effect1_dropShadow_816_3997" result="shape"/>
</filter>
</defs>
</svg>
