<svg width="113" height="84" viewBox="0 0 113 84" fill="none" xmlns="http://www.w3.org/2000/svg">
<g clip-path="url(#clip0_250_13211)">
<path d="M89.4779 28.5537C89.4779 28.8596 89.7548 29.1075 90.0964 29.1075C90.4379 29.1075 90.7148 28.8596 90.7148 28.5537C90.7148 28.2479 90.4379 28 90.0964 28C89.7548 28 89.4779 28.2479 89.4779 28.5537Z" fill="#2C394B"/>
<path d="M87.0038 28.5537C87.0038 28.8596 87.2807 29.1075 87.6223 29.1075C87.9638 29.1075 88.2407 28.8596 88.2407 28.5537C88.2407 28.2479 87.9638 28 87.6223 28C87.2807 28 87.0038 28.2479 87.0038 28.5537Z" fill="#2C394B"/>
<path d="M84.5302 28.5537C84.5302 28.8596 84.807 29.1075 85.1486 29.1075C85.4902 29.1075 85.7671 28.8596 85.7671 28.5537C85.7671 28.2479 85.4902 28 85.1486 28C84.807 28 84.5302 28.2479 84.5302 28.5537Z" fill="#2C394B"/>
<path d="M82.056 28.5537C82.056 28.8596 82.3329 29.1075 82.6745 29.1075C83.0161 29.1075 83.293 28.8596 83.293 28.5537C83.293 28.2479 83.0161 28 82.6745 28C82.3329 28 82.056 28.2479 82.056 28.5537Z" fill="#2C394B"/>
<path d="M79.5824 28.5537C79.5824 28.8596 79.8593 29.1075 80.2009 29.1075C80.5424 29.1075 80.8193 28.8596 80.8193 28.5537C80.8193 28.2479 80.5424 28 80.2009 28C79.8593 28 79.5824 28.2479 79.5824 28.5537Z" fill="#2C394B"/>
<path d="M77.1083 28.5537C77.1083 28.8596 77.3852 29.1075 77.7267 29.1075C78.0683 29.1075 78.3452 28.8596 78.3452 28.5537C78.3452 28.2479 78.0683 28 77.7267 28C77.3852 28 77.1083 28.2479 77.1083 28.5537Z" fill="#2C394B"/>
<path d="M74.6346 28.5537C74.6346 28.8596 74.9115 29.1075 75.2531 29.1075C75.5947 29.1075 75.8716 28.8596 75.8716 28.5537C75.8716 28.2479 75.5947 28 75.2531 28C74.9115 28 74.6346 28.2479 74.6346 28.5537Z" fill="#2C394B"/>
<path d="M72.1605 28.5537C72.1605 28.8596 72.4374 29.1075 72.779 29.1075C73.1206 29.1075 73.3975 28.8596 73.3975 28.5537C73.3975 28.2479 73.1206 28 72.779 28C72.4374 28 72.1605 28.2479 72.1605 28.5537Z" fill="#2C394B"/>
<path d="M69.6869 28.5537C69.6869 28.8596 69.9638 29.1075 70.3054 29.1075C70.6469 29.1075 70.9238 28.8596 70.9238 28.5537C70.9238 28.2479 70.6469 28 70.3054 28C69.9638 28 69.6869 28.2479 69.6869 28.5537Z" fill="#2C394B"/>
<path d="M67.2128 28.5537C67.2128 28.8596 67.4897 29.1075 67.8312 29.1075C68.1728 29.1075 68.4497 28.8596 68.4497 28.5537C68.4497 28.2479 68.1728 28 67.8312 28C67.4897 28 67.2128 28.2479 67.2128 28.5537Z" fill="#2C394B"/>
<path d="M64.7391 28.5537C64.7391 28.8596 65.016 29.1075 65.3576 29.1075C65.6992 29.1075 65.9761 28.8596 65.9761 28.5537C65.9761 28.2479 65.6992 28 65.3576 28C65.016 28 64.7391 28.2479 64.7391 28.5537Z" fill="#2C394B"/>
<path d="M62.265 28.5537C62.265 28.8596 62.5419 29.1075 62.8835 29.1075C63.2251 29.1075 63.502 28.8596 63.502 28.5537C63.502 28.2479 63.2251 28 62.8835 28C62.5419 28 62.265 28.2479 62.265 28.5537Z" fill="#2C394B"/>
<path d="M59.7914 28.5537C59.7914 28.8596 60.0683 29.1075 60.4098 29.1075C60.7514 29.1075 61.0283 28.8596 61.0283 28.5537C61.0283 28.2479 60.7514 28 60.4098 28C60.0683 28 59.7914 28.2479 59.7914 28.5537Z" fill="#2C394B"/>
<path d="M57.3172 28.5537C57.3172 28.8596 57.5941 29.1075 57.9357 29.1075C58.2773 29.1075 58.5542 28.8596 58.5542 28.5537C58.5542 28.2479 58.2773 28 57.9357 28C57.5941 28 57.3172 28.2479 57.3172 28.5537Z" fill="#2C394B"/>
<path d="M54.8431 28.5537C54.8431 28.8596 55.12 29.1075 55.4616 29.1075C55.8032 29.1075 56.0801 28.8596 56.0801 28.5537C56.0801 28.2479 55.8032 28 55.4616 28C55.12 28 54.8431 28.2479 54.8431 28.5537Z" fill="#2C394B"/>
<path d="M89.4779 30.7686C89.4779 31.0744 89.7548 31.3223 90.0964 31.3223C90.4379 31.3223 90.7148 31.0744 90.7148 30.7686C90.7148 30.4628 90.4379 30.2149 90.0964 30.2149C89.7548 30.2149 89.4779 30.4628 89.4779 30.7686Z" fill="#2C394B"/>
<path d="M87.0038 30.7686C87.0038 31.0745 87.2807 31.3224 87.6223 31.3224C87.9638 31.3224 88.2407 31.0745 88.2407 30.7686C88.2407 30.4628 87.9638 30.2149 87.6223 30.2149C87.2807 30.2149 87.0038 30.4628 87.0038 30.7686Z" fill="#2C394B"/>
<path d="M84.5302 30.7686C84.5302 31.0745 84.807 31.3224 85.1486 31.3224C85.4902 31.3224 85.7671 31.0745 85.7671 30.7686C85.7671 30.4628 85.4902 30.2149 85.1486 30.2149C84.807 30.2149 84.5302 30.4628 84.5302 30.7686Z" fill="#2C394B"/>
<path d="M82.056 30.7686C82.056 31.0745 82.3329 31.3224 82.6745 31.3224C83.0161 31.3224 83.293 31.0745 83.293 30.7686C83.293 30.4628 83.0161 30.2149 82.6745 30.2149C82.3329 30.2149 82.056 30.4628 82.056 30.7686Z" fill="#2C394B"/>
<path d="M79.5824 30.7686C79.5824 31.0745 79.8593 31.3224 80.2009 31.3224C80.5424 31.3224 80.8193 31.0745 80.8193 30.7686C80.8193 30.4628 80.5424 30.2149 80.2009 30.2149C79.8593 30.2149 79.5824 30.4628 79.5824 30.7686Z" fill="#2C394B"/>
<path d="M77.1083 30.7686C77.1083 31.0745 77.3852 31.3224 77.7267 31.3224C78.0683 31.3224 78.3452 31.0745 78.3452 30.7686C78.3452 30.4628 78.0683 30.2149 77.7267 30.2149C77.3852 30.2149 77.1083 30.4628 77.1083 30.7686Z" fill="#2C394B"/>
<path d="M74.6346 30.7686C74.6346 31.0745 74.9115 31.3224 75.2531 31.3224C75.5947 31.3224 75.8716 31.0745 75.8716 30.7686C75.8716 30.4628 75.5947 30.2149 75.2531 30.2149C74.9115 30.2149 74.6346 30.4628 74.6346 30.7686Z" fill="#2C394B"/>
<path d="M72.1605 30.7686C72.1605 31.0745 72.4374 31.3224 72.779 31.3224C73.1206 31.3224 73.3975 31.0745 73.3975 30.7686C73.3975 30.4628 73.1206 30.2149 72.779 30.2149C72.4374 30.2149 72.1605 30.4628 72.1605 30.7686Z" fill="#2C394B"/>
<path d="M69.6869 30.7686C69.6869 31.0745 69.9638 31.3224 70.3054 31.3224C70.6469 31.3224 70.9238 31.0745 70.9238 30.7686C70.9238 30.4628 70.6469 30.2149 70.3054 30.2149C69.9638 30.2149 69.6869 30.4628 69.6869 30.7686Z" fill="#2C394B"/>
<path d="M67.2128 30.7686C67.2128 31.0745 67.4897 31.3224 67.8312 31.3224C68.1728 31.3224 68.4497 31.0745 68.4497 30.7686C68.4497 30.4628 68.1728 30.2149 67.8312 30.2149C67.4897 30.2149 67.2128 30.4628 67.2128 30.7686Z" fill="#2C394B"/>
<path d="M64.7391 30.7686C64.7391 31.0745 65.016 31.3224 65.3576 31.3224C65.6992 31.3224 65.9761 31.0745 65.9761 30.7686C65.9761 30.4628 65.6992 30.2149 65.3576 30.2149C65.016 30.2149 64.7391 30.4628 64.7391 30.7686Z" fill="#2C394B"/>
<path d="M62.265 30.7686C62.265 31.0745 62.5419 31.3224 62.8835 31.3224C63.2251 31.3224 63.502 31.0745 63.502 30.7686C63.502 30.4628 63.2251 30.2149 62.8835 30.2149C62.5419 30.2149 62.265 30.4628 62.265 30.7686Z" fill="#2C394B"/>
<path d="M59.7914 30.7686C59.7914 31.0745 60.0683 31.3224 60.4098 31.3224C60.7514 31.3224 61.0283 31.0745 61.0283 30.7686C61.0283 30.4628 60.7514 30.2149 60.4098 30.2149C60.0683 30.2149 59.7914 30.4628 59.7914 30.7686Z" fill="#2C394B"/>
<path d="M57.3172 30.7686C57.3172 31.0745 57.5941 31.3224 57.9357 31.3224C58.2773 31.3224 58.5542 31.0745 58.5542 30.7686C58.5542 30.4628 58.2773 30.2149 57.9357 30.2149C57.5941 30.2149 57.3172 30.4628 57.3172 30.7686Z" fill="#2C394B"/>
<path d="M54.8431 30.7686C54.8431 31.0745 55.12 31.3224 55.4616 31.3224C55.8032 31.3224 56.0801 31.0745 56.0801 30.7686C56.0801 30.4628 55.8032 30.2149 55.4616 30.2149C55.12 30.2149 54.8431 30.4628 54.8431 30.7686Z" fill="#2C394B"/>
<path d="M52.3695 30.7686C52.3695 31.0745 52.6464 31.3224 52.988 31.3224C53.3295 31.3224 53.6064 31.0745 53.6064 30.7686C53.6064 30.4628 53.3295 30.2149 52.988 30.2149C52.6464 30.2149 52.3695 30.4628 52.3695 30.7686Z" fill="#2C394B"/>
<path d="M89.4779 32.9835C89.4779 33.2894 89.7548 33.5373 90.0964 33.5373C90.4379 33.5373 90.7148 33.2894 90.7148 32.9835C90.7148 32.6777 90.4379 32.4298 90.0964 32.4298C89.7548 32.4298 89.4779 32.6777 89.4779 32.9835Z" fill="#2C394B"/>
<path d="M87.0038 32.9835C87.0038 33.2894 87.2807 33.5373 87.6223 33.5373C87.9638 33.5373 88.2407 33.2894 88.2407 32.9835C88.2407 32.6777 87.9638 32.4298 87.6223 32.4298C87.2807 32.4298 87.0038 32.6777 87.0038 32.9835Z" fill="#2C394B"/>
<path d="M84.5302 32.9835C84.5302 33.2894 84.807 33.5373 85.1486 33.5373C85.4902 33.5373 85.7671 33.2894 85.7671 32.9835C85.7671 32.6777 85.4902 32.4298 85.1486 32.4298C84.807 32.4298 84.5302 32.6777 84.5302 32.9835Z" fill="#2C394B"/>
<path d="M82.056 32.9835C82.056 33.2894 82.3329 33.5373 82.6745 33.5373C83.0161 33.5373 83.293 33.2894 83.293 32.9835C83.293 32.6777 83.0161 32.4298 82.6745 32.4298C82.3329 32.4298 82.056 32.6777 82.056 32.9835Z" fill="#2C394B"/>
<path d="M79.5824 32.9835C79.5824 33.2894 79.8593 33.5373 80.2009 33.5373C80.5424 33.5373 80.8193 33.2894 80.8193 32.9835C80.8193 32.6777 80.5424 32.4298 80.2009 32.4298C79.8593 32.4298 79.5824 32.6777 79.5824 32.9835Z" fill="#2C394B"/>
<path d="M77.1083 32.9835C77.1083 33.2894 77.3852 33.5373 77.7267 33.5373C78.0683 33.5373 78.3452 33.2894 78.3452 32.9835C78.3452 32.6777 78.0683 32.4298 77.7267 32.4298C77.3852 32.4298 77.1083 32.6777 77.1083 32.9835Z" fill="#2C394B"/>
<path d="M74.6346 32.9835C74.6346 33.2894 74.9115 33.5373 75.2531 33.5373C75.5947 33.5373 75.8716 33.2894 75.8716 32.9835C75.8716 32.6777 75.5947 32.4298 75.2531 32.4298C74.9115 32.4298 74.6346 32.6777 74.6346 32.9835Z" fill="#2C394B"/>
<path d="M72.1605 32.9835C72.1605 33.2894 72.4374 33.5373 72.779 33.5373C73.1206 33.5373 73.3975 33.2894 73.3975 32.9835C73.3975 32.6777 73.1206 32.4298 72.779 32.4298C72.4374 32.4298 72.1605 32.6777 72.1605 32.9835Z" fill="#2C394B"/>
<path d="M69.6869 32.9835C69.6869 33.2894 69.9638 33.5373 70.3054 33.5373C70.6469 33.5373 70.9238 33.2894 70.9238 32.9835C70.9238 32.6777 70.6469 32.4298 70.3054 32.4298C69.9638 32.4298 69.6869 32.6777 69.6869 32.9835Z" fill="#2C394B"/>
<path d="M67.2128 32.9835C67.2128 33.2894 67.4897 33.5373 67.8312 33.5373C68.1728 33.5373 68.4497 33.2894 68.4497 32.9835C68.4497 32.6777 68.1728 32.4298 67.8312 32.4298C67.4897 32.4298 67.2128 32.6777 67.2128 32.9835Z" fill="#2C394B"/>
<path d="M64.7391 32.9835C64.7391 33.2894 65.016 33.5373 65.3576 33.5373C65.6992 33.5373 65.9761 33.2894 65.9761 32.9835C65.9761 32.6777 65.6992 32.4298 65.3576 32.4298C65.016 32.4298 64.7391 32.6777 64.7391 32.9835Z" fill="#2C394B"/>
<path d="M62.265 32.9835C62.265 33.2894 62.5419 33.5373 62.8835 33.5373C63.2251 33.5373 63.502 33.2894 63.502 32.9835C63.502 32.6777 63.2251 32.4298 62.8835 32.4298C62.5419 32.4298 62.265 32.6777 62.265 32.9835Z" fill="#2C394B"/>
<path d="M59.7914 32.9835C59.7914 33.2894 60.0683 33.5373 60.4098 33.5373C60.7514 33.5373 61.0283 33.2894 61.0283 32.9835C61.0283 32.6777 60.7514 32.4298 60.4098 32.4298C60.0683 32.4298 59.7914 32.6777 59.7914 32.9835Z" fill="#2C394B"/>
<path d="M57.3172 32.9835C57.3172 33.2894 57.5941 33.5373 57.9357 33.5373C58.2773 33.5373 58.5542 33.2894 58.5542 32.9835C58.5542 32.6777 58.2773 32.4298 57.9357 32.4298C57.5941 32.4298 57.3172 32.6777 57.3172 32.9835Z" fill="#2C394B"/>
<path d="M54.8431 32.9835C54.8431 33.2894 55.12 33.5373 55.4616 33.5373C55.8032 33.5373 56.0801 33.2894 56.0801 32.9835C56.0801 32.6777 55.8032 32.4298 55.4616 32.4298C55.12 32.4298 54.8431 32.6777 54.8431 32.9835Z" fill="#2C394B"/>
<path d="M52.3695 32.9835C52.3695 33.2894 52.6464 33.5373 52.988 33.5373C53.3295 33.5373 53.6064 33.2894 53.6064 32.9835C53.6064 32.6777 53.3295 32.4298 52.988 32.4298C52.6464 32.4298 52.3695 32.6777 52.3695 32.9835Z" fill="#2C394B"/>
<path d="M49.8954 32.9835C49.8954 33.2894 50.1723 33.5373 50.5139 33.5373C50.8554 33.5373 51.1323 33.2894 51.1323 32.9835C51.1323 32.6777 50.8554 32.4298 50.5139 32.4298C50.1723 32.4298 49.8954 32.6777 49.8954 32.9835Z" fill="#2C394B"/>
<path d="M89.4779 35.1985C89.4779 35.5043 89.7548 35.7522 90.0964 35.7522C90.4379 35.7522 90.7148 35.5043 90.7148 35.1985C90.7148 34.8927 90.4379 34.6448 90.0964 34.6448C89.7548 34.6448 89.4779 34.8927 89.4779 35.1985Z" fill="#2C394B"/>
<path d="M87.0038 35.1985C87.0038 35.5043 87.2807 35.7522 87.6223 35.7522C87.9638 35.7522 88.2407 35.5043 88.2407 35.1985C88.2407 34.8927 87.9638 34.6448 87.6223 34.6448C87.2807 34.6448 87.0038 34.8927 87.0038 35.1985Z" fill="#2C394B"/>
<path d="M84.5302 35.1985C84.5302 35.5043 84.807 35.7522 85.1486 35.7522C85.4902 35.7522 85.7671 35.5043 85.7671 35.1985C85.7671 34.8927 85.4902 34.6448 85.1486 34.6448C84.807 34.6448 84.5302 34.8927 84.5302 35.1985Z" fill="#2C394B"/>
<path d="M82.056 35.1985C82.056 35.5043 82.3329 35.7522 82.6745 35.7522C83.0161 35.7522 83.293 35.5043 83.293 35.1985C83.293 34.8927 83.0161 34.6448 82.6745 34.6448C82.3329 34.6448 82.056 34.8927 82.056 35.1985Z" fill="#2C394B"/>
<path d="M79.5824 35.1985C79.5824 35.5043 79.8593 35.7522 80.2009 35.7522C80.5424 35.7522 80.8193 35.5043 80.8193 35.1985C80.8193 34.8927 80.5424 34.6448 80.2009 34.6448C79.8593 34.6448 79.5824 34.8927 79.5824 35.1985Z" fill="#2C394B"/>
<path d="M77.1083 35.1985C77.1083 35.5043 77.3852 35.7522 77.7267 35.7522C78.0683 35.7522 78.3452 35.5043 78.3452 35.1985C78.3452 34.8927 78.0683 34.6448 77.7267 34.6448C77.3852 34.6448 77.1083 34.8927 77.1083 35.1985Z" fill="#2C394B"/>
<path d="M74.6346 35.1985C74.6346 35.5043 74.9115 35.7522 75.2531 35.7522C75.5947 35.7522 75.8716 35.5043 75.8716 35.1985C75.8716 34.8927 75.5947 34.6448 75.2531 34.6448C74.9115 34.6448 74.6346 34.8927 74.6346 35.1985Z" fill="#2C394B"/>
<path d="M72.1605 35.1985C72.1605 35.5043 72.4374 35.7522 72.779 35.7522C73.1206 35.7522 73.3975 35.5043 73.3975 35.1985C73.3975 34.8927 73.1206 34.6448 72.779 34.6448C72.4374 34.6448 72.1605 34.8927 72.1605 35.1985Z" fill="#2C394B"/>
<path d="M69.6869 35.1985C69.6869 35.5043 69.9638 35.7522 70.3054 35.7522C70.6469 35.7522 70.9238 35.5043 70.9238 35.1985C70.9238 34.8927 70.6469 34.6448 70.3054 34.6448C69.9638 34.6448 69.6869 34.8927 69.6869 35.1985Z" fill="#2C394B"/>
<path d="M67.2128 35.1985C67.2128 35.5043 67.4897 35.7522 67.8312 35.7522C68.1728 35.7522 68.4497 35.5043 68.4497 35.1985C68.4497 34.8927 68.1728 34.6448 67.8312 34.6448C67.4897 34.6448 67.2128 34.8927 67.2128 35.1985Z" fill="#2C394B"/>
<path d="M64.7391 35.1985C64.7391 35.5043 65.016 35.7522 65.3576 35.7522C65.6992 35.7522 65.9761 35.5043 65.9761 35.1985C65.9761 34.8927 65.6992 34.6448 65.3576 34.6448C65.016 34.6448 64.7391 34.8927 64.7391 35.1985Z" fill="#2C394B"/>
<path d="M62.265 35.1985C62.265 35.5043 62.5419 35.7522 62.8835 35.7522C63.2251 35.7522 63.502 35.5043 63.502 35.1985C63.502 34.8927 63.2251 34.6448 62.8835 34.6448C62.5419 34.6448 62.265 34.8927 62.265 35.1985Z" fill="#2C394B"/>
<path d="M59.7914 35.1985C59.7914 35.5043 60.0683 35.7522 60.4098 35.7522C60.7514 35.7522 61.0283 35.5043 61.0283 35.1985C61.0283 34.8927 60.7514 34.6448 60.4098 34.6448C60.0683 34.6448 59.7914 34.8927 59.7914 35.1985Z" fill="#2C394B"/>
<path d="M57.3172 35.1985C57.3172 35.5043 57.5941 35.7522 57.9357 35.7522C58.2773 35.7522 58.5542 35.5043 58.5542 35.1985C58.5542 34.8927 58.2773 34.6448 57.9357 34.6448C57.5941 34.6448 57.3172 34.8927 57.3172 35.1985Z" fill="#2C394B"/>
<path d="M54.8431 35.1985C54.8431 35.5043 55.12 35.7522 55.4616 35.7522C55.8032 35.7522 56.0801 35.5043 56.0801 35.1985C56.0801 34.8927 55.8032 34.6448 55.4616 34.6448C55.12 34.6448 54.8431 34.8927 54.8431 35.1985Z" fill="#2C394B"/>
<path d="M52.3695 35.1985C52.3695 35.5043 52.6464 35.7522 52.988 35.7522C53.3295 35.7522 53.6064 35.5043 53.6064 35.1985C53.6064 34.8927 53.3295 34.6448 52.988 34.6448C52.6464 34.6448 52.3695 34.8927 52.3695 35.1985Z" fill="#2C394B"/>
<path d="M49.8954 35.1985C49.8954 35.5043 50.1723 35.7522 50.5139 35.7522C50.8554 35.7522 51.1323 35.5043 51.1323 35.1985C51.1323 34.8927 50.8554 34.6448 50.5139 34.6448C50.1723 34.6448 49.8954 34.8927 49.8954 35.1985Z" fill="#2C394B"/>
<path d="M47.4217 35.1985C47.4217 35.5043 47.6986 35.7522 48.0402 35.7522C48.3818 35.7522 48.6587 35.5043 48.6587 35.1985C48.6587 34.8927 48.3818 34.6448 48.0402 34.6448C47.6986 34.6448 47.4217 34.8927 47.4217 35.1985Z" fill="#2C394B"/>
<path d="M89.4779 37.4134C89.4779 37.7192 89.7548 37.9671 90.0964 37.9671C90.4379 37.9671 90.7148 37.7192 90.7148 37.4134C90.7148 37.1076 90.4379 36.8597 90.0964 36.8597C89.7548 36.8597 89.4779 37.1076 89.4779 37.4134Z" fill="#2C394B"/>
<path d="M87.0038 37.4134C87.0038 37.7192 87.2807 37.9671 87.6223 37.9671C87.9638 37.9671 88.2407 37.7192 88.2407 37.4134C88.2407 37.1076 87.9638 36.8597 87.6223 36.8597C87.2807 36.8597 87.0038 37.1076 87.0038 37.4134Z" fill="#2C394B"/>
<path d="M84.5302 37.4134C84.5302 37.7192 84.807 37.9671 85.1486 37.9671C85.4902 37.9671 85.7671 37.7192 85.7671 37.4134C85.7671 37.1076 85.4902 36.8597 85.1486 36.8597C84.807 36.8597 84.5302 37.1076 84.5302 37.4134Z" fill="#2C394B"/>
<path d="M82.056 37.4134C82.056 37.7192 82.3329 37.9671 82.6745 37.9671C83.0161 37.9671 83.293 37.7192 83.293 37.4134C83.293 37.1076 83.0161 36.8597 82.6745 36.8597C82.3329 36.8597 82.056 37.1076 82.056 37.4134Z" fill="#2C394B"/>
<path d="M79.5824 37.4134C79.5824 37.7192 79.8593 37.9671 80.2009 37.9671C80.5424 37.9671 80.8193 37.7192 80.8193 37.4134C80.8193 37.1076 80.5424 36.8597 80.2009 36.8597C79.8593 36.8597 79.5824 37.1076 79.5824 37.4134Z" fill="#2C394B"/>
<path d="M77.1083 37.4134C77.1083 37.7192 77.3852 37.9671 77.7267 37.9671C78.0683 37.9671 78.3452 37.7192 78.3452 37.4134C78.3452 37.1076 78.0683 36.8597 77.7267 36.8597C77.3852 36.8597 77.1083 37.1076 77.1083 37.4134Z" fill="#2C394B"/>
<path d="M74.6346 37.4134C74.6346 37.7192 74.9115 37.9671 75.2531 37.9671C75.5947 37.9671 75.8716 37.7192 75.8716 37.4134C75.8716 37.1076 75.5947 36.8597 75.2531 36.8597C74.9115 36.8597 74.6346 37.1076 74.6346 37.4134Z" fill="#2C394B"/>
<path d="M72.1605 37.4134C72.1605 37.7192 72.4374 37.9671 72.779 37.9671C73.1206 37.9671 73.3975 37.7192 73.3975 37.4134C73.3975 37.1076 73.1206 36.8597 72.779 36.8597C72.4374 36.8597 72.1605 37.1076 72.1605 37.4134Z" fill="#2C394B"/>
<path d="M69.6869 37.4134C69.6869 37.7192 69.9638 37.9671 70.3054 37.9671C70.6469 37.9671 70.9238 37.7192 70.9238 37.4134C70.9238 37.1076 70.6469 36.8597 70.3054 36.8597C69.9638 36.8597 69.6869 37.1076 69.6869 37.4134Z" fill="#2C394B"/>
<path d="M67.2128 37.4134C67.2128 37.7192 67.4897 37.9671 67.8312 37.9671C68.1728 37.9671 68.4497 37.7192 68.4497 37.4134C68.4497 37.1076 68.1728 36.8597 67.8312 36.8597C67.4897 36.8597 67.2128 37.1076 67.2128 37.4134Z" fill="#2C394B"/>
<path d="M64.7391 37.4134C64.7391 37.7192 65.016 37.9671 65.3576 37.9671C65.6992 37.9671 65.9761 37.7192 65.9761 37.4134C65.9761 37.1076 65.6992 36.8597 65.3576 36.8597C65.016 36.8597 64.7391 37.1076 64.7391 37.4134Z" fill="#2C394B"/>
<path d="M62.265 37.4134C62.265 37.7192 62.5419 37.9671 62.8835 37.9671C63.2251 37.9671 63.502 37.7192 63.502 37.4134C63.502 37.1076 63.2251 36.8597 62.8835 36.8597C62.5419 36.8597 62.265 37.1076 62.265 37.4134Z" fill="#2C394B"/>
<path d="M59.7914 37.4134C59.7914 37.7192 60.0683 37.9671 60.4098 37.9671C60.7514 37.9671 61.0283 37.7192 61.0283 37.4134C61.0283 37.1076 60.7514 36.8597 60.4098 36.8597C60.0683 36.8597 59.7914 37.1076 59.7914 37.4134Z" fill="#2C394B"/>
<path d="M57.3172 37.4134C57.3172 37.7192 57.5941 37.9671 57.9357 37.9671C58.2773 37.9671 58.5542 37.7192 58.5542 37.4134C58.5542 37.1076 58.2773 36.8597 57.9357 36.8597C57.5941 36.8597 57.3172 37.1076 57.3172 37.4134Z" fill="#2C394B"/>
<path d="M54.8431 37.4134C54.8431 37.7192 55.12 37.9671 55.4616 37.9671C55.8032 37.9671 56.0801 37.7192 56.0801 37.4134C56.0801 37.1076 55.8032 36.8597 55.4616 36.8597C55.12 36.8597 54.8431 37.1076 54.8431 37.4134Z" fill="#2C394B"/>
<path d="M52.3695 37.4134C52.3695 37.7192 52.6464 37.9671 52.988 37.9671C53.3295 37.9671 53.6064 37.7192 53.6064 37.4134C53.6064 37.1076 53.3295 36.8597 52.988 36.8597C52.6464 36.8597 52.3695 37.1076 52.3695 37.4134Z" fill="#2C394B"/>
<path d="M49.8954 37.4134C49.8954 37.7192 50.1723 37.9671 50.5139 37.9671C50.8554 37.9671 51.1323 37.7192 51.1323 37.4134C51.1323 37.1076 50.8554 36.8597 50.5139 36.8597C50.1723 36.8597 49.8954 37.1076 49.8954 37.4134Z" fill="#2C394B"/>
<path d="M47.4217 37.4134C47.4217 37.7192 47.6986 37.9671 48.0402 37.9671C48.3818 37.9671 48.6587 37.7192 48.6587 37.4134C48.6587 37.1076 48.3818 36.8597 48.0402 36.8597C47.6986 36.8597 47.4217 37.1076 47.4217 37.4134Z" fill="#2C394B"/>
<path d="M44.9476 37.4134C44.9476 37.7192 45.2245 37.9671 45.5661 37.9671C45.9077 37.9671 46.1846 37.7192 46.1846 37.4134C46.1846 37.1076 45.9077 36.8597 45.5661 36.8597C45.2245 36.8597 44.9476 37.1076 44.9476 37.4134Z" fill="#2C394B"/>
<path d="M89.4779 39.6283C89.4779 39.9341 89.7548 40.182 90.0964 40.182C90.4379 40.182 90.7148 39.9341 90.7148 39.6283C90.7148 39.3225 90.4379 39.0746 90.0964 39.0746C89.7548 39.0746 89.4779 39.3225 89.4779 39.6283Z" fill="#2C394B"/>
<path d="M87.0038 39.6283C87.0038 39.9341 87.2807 40.182 87.6223 40.182C87.9638 40.182 88.2407 39.9341 88.2407 39.6283C88.2407 39.3225 87.9638 39.0746 87.6223 39.0746C87.2807 39.0746 87.0038 39.3225 87.0038 39.6283Z" fill="#2C394B"/>
<path d="M84.5302 39.6283C84.5302 39.9341 84.807 40.182 85.1486 40.182C85.4902 40.182 85.7671 39.9341 85.7671 39.6283C85.7671 39.3225 85.4902 39.0746 85.1486 39.0746C84.807 39.0746 84.5302 39.3225 84.5302 39.6283Z" fill="#2C394B"/>
<path d="M82.056 39.6283C82.056 39.9341 82.3329 40.182 82.6745 40.182C83.0161 40.182 83.293 39.9341 83.293 39.6283C83.293 39.3225 83.0161 39.0746 82.6745 39.0746C82.3329 39.0746 82.056 39.3225 82.056 39.6283Z" fill="#2C394B"/>
<path d="M79.5824 39.6283C79.5824 39.9341 79.8593 40.182 80.2009 40.182C80.5424 40.182 80.8193 39.9341 80.8193 39.6283C80.8193 39.3225 80.5424 39.0746 80.2009 39.0746C79.8593 39.0746 79.5824 39.3225 79.5824 39.6283Z" fill="#2C394B"/>
<path d="M77.1083 39.6283C77.1083 39.9341 77.3852 40.182 77.7267 40.182C78.0683 40.182 78.3452 39.9341 78.3452 39.6283C78.3452 39.3225 78.0683 39.0746 77.7267 39.0746C77.3852 39.0746 77.1083 39.3225 77.1083 39.6283Z" fill="#2C394B"/>
<path d="M74.6346 39.6283C74.6346 39.9341 74.9115 40.182 75.2531 40.182C75.5947 40.182 75.8716 39.9341 75.8716 39.6283C75.8716 39.3225 75.5947 39.0746 75.2531 39.0746C74.9115 39.0746 74.6346 39.3225 74.6346 39.6283Z" fill="#2C394B"/>
<path d="M72.1605 39.6283C72.1605 39.9341 72.4374 40.182 72.779 40.182C73.1206 40.182 73.3975 39.9341 73.3975 39.6283C73.3975 39.3225 73.1206 39.0746 72.779 39.0746C72.4374 39.0746 72.1605 39.3225 72.1605 39.6283Z" fill="#2C394B"/>
<path d="M69.6869 39.6283C69.6869 39.9341 69.9638 40.182 70.3054 40.182C70.6469 40.182 70.9238 39.9341 70.9238 39.6283C70.9238 39.3225 70.6469 39.0746 70.3054 39.0746C69.9638 39.0746 69.6869 39.3225 69.6869 39.6283Z" fill="#2C394B"/>
<path d="M67.2128 39.6283C67.2128 39.9341 67.4897 40.182 67.8312 40.182C68.1728 40.182 68.4497 39.9341 68.4497 39.6283C68.4497 39.3225 68.1728 39.0746 67.8312 39.0746C67.4897 39.0746 67.2128 39.3225 67.2128 39.6283Z" fill="#2C394B"/>
<path d="M64.7391 39.6283C64.7391 39.9341 65.016 40.182 65.3576 40.182C65.6992 40.182 65.9761 39.9341 65.9761 39.6283C65.9761 39.3225 65.6992 39.0746 65.3576 39.0746C65.016 39.0746 64.7391 39.3225 64.7391 39.6283Z" fill="#2C394B"/>
<path d="M62.265 39.6283C62.265 39.9341 62.5419 40.182 62.8835 40.182C63.2251 40.182 63.502 39.9341 63.502 39.6283C63.502 39.3225 63.2251 39.0746 62.8835 39.0746C62.5419 39.0746 62.265 39.3225 62.265 39.6283Z" fill="#2C394B"/>
<path d="M59.7914 39.6283C59.7914 39.9341 60.0683 40.182 60.4098 40.182C60.7514 40.182 61.0283 39.9341 61.0283 39.6283C61.0283 39.3225 60.7514 39.0746 60.4098 39.0746C60.0683 39.0746 59.7914 39.3225 59.7914 39.6283Z" fill="#2C394B"/>
<path d="M57.3172 39.6283C57.3172 39.9341 57.5941 40.182 57.9357 40.182C58.2773 40.182 58.5542 39.9341 58.5542 39.6283C58.5542 39.3225 58.2773 39.0746 57.9357 39.0746C57.5941 39.0746 57.3172 39.3225 57.3172 39.6283Z" fill="#2C394B"/>
<path d="M54.8431 39.6283C54.8431 39.9341 55.12 40.182 55.4616 40.182C55.8032 40.182 56.0801 39.9341 56.0801 39.6283C56.0801 39.3225 55.8032 39.0746 55.4616 39.0746C55.12 39.0746 54.8431 39.3225 54.8431 39.6283Z" fill="#2C394B"/>
<path d="M52.3695 39.6283C52.3695 39.9341 52.6464 40.182 52.988 40.182C53.3295 40.182 53.6064 39.9341 53.6064 39.6283C53.6064 39.3225 53.3295 39.0746 52.988 39.0746C52.6464 39.0746 52.3695 39.3225 52.3695 39.6283Z" fill="#2C394B"/>
<path d="M49.8954 39.6283C49.8954 39.9341 50.1723 40.182 50.5139 40.182C50.8554 40.182 51.1323 39.9341 51.1323 39.6283C51.1323 39.3225 50.8554 39.0746 50.5139 39.0746C50.1723 39.0746 49.8954 39.3225 49.8954 39.6283Z" fill="#2C394B"/>
<path d="M47.4217 39.6283C47.4217 39.9341 47.6986 40.182 48.0402 40.182C48.3818 40.182 48.6587 39.9341 48.6587 39.6283C48.6587 39.3225 48.3818 39.0746 48.0402 39.0746C47.6986 39.0746 47.4217 39.3225 47.4217 39.6283Z" fill="#2C394B"/>
<path d="M44.9476 39.6283C44.9476 39.9341 45.2245 40.182 45.5661 40.182C45.9077 40.182 46.1846 39.9341 46.1846 39.6283C46.1846 39.3225 45.9077 39.0746 45.5661 39.0746C45.2245 39.0746 44.9476 39.3225 44.9476 39.6283Z" fill="#2C394B"/>
<path d="M89.4779 41.8432C89.4779 42.149 89.7548 42.397 90.0964 42.397C90.4379 42.397 90.7148 42.149 90.7148 41.8432C90.7148 41.5374 90.4379 41.2895 90.0964 41.2895C89.7548 41.2895 89.4779 41.5374 89.4779 41.8432Z" fill="#2C394B"/>
<path d="M87.0038 41.8433C87.0038 42.1491 87.2807 42.397 87.6223 42.397C87.9638 42.397 88.2407 42.1491 88.2407 41.8433C88.2407 41.5375 87.9638 41.2896 87.6223 41.2896C87.2807 41.2896 87.0038 41.5375 87.0038 41.8433Z" fill="#2C394B"/>
<path d="M84.5302 41.8433C84.5302 42.1491 84.807 42.397 85.1486 42.397C85.4902 42.397 85.7671 42.1491 85.7671 41.8433C85.7671 41.5375 85.4902 41.2896 85.1486 41.2896C84.807 41.2896 84.5302 41.5375 84.5302 41.8433Z" fill="#2C394B"/>
<path d="M82.056 41.8433C82.056 42.1491 82.3329 42.397 82.6745 42.397C83.0161 42.397 83.293 42.1491 83.293 41.8433C83.293 41.5375 83.0161 41.2896 82.6745 41.2896C82.3329 41.2896 82.056 41.5375 82.056 41.8433Z" fill="#2C394B"/>
<path d="M79.5824 41.8433C79.5824 42.1491 79.8593 42.397 80.2009 42.397C80.5424 42.397 80.8193 42.1491 80.8193 41.8433C80.8193 41.5375 80.5424 41.2896 80.2009 41.2896C79.8593 41.2896 79.5824 41.5375 79.5824 41.8433Z" fill="#2C394B"/>
<path d="M77.1083 41.8433C77.1083 42.1491 77.3852 42.397 77.7267 42.397C78.0683 42.397 78.3452 42.1491 78.3452 41.8433C78.3452 41.5375 78.0683 41.2896 77.7267 41.2896C77.3852 41.2896 77.1083 41.5375 77.1083 41.8433Z" fill="#2C394B"/>
<path d="M74.6346 41.8433C74.6346 42.1491 74.9115 42.397 75.2531 42.397C75.5947 42.397 75.8716 42.1491 75.8716 41.8433C75.8716 41.5375 75.5947 41.2896 75.2531 41.2896C74.9115 41.2896 74.6346 41.5375 74.6346 41.8433Z" fill="#2C394B"/>
<path d="M72.1605 41.8433C72.1605 42.1491 72.4374 42.397 72.779 42.397C73.1206 42.397 73.3975 42.1491 73.3975 41.8433C73.3975 41.5375 73.1206 41.2896 72.779 41.2896C72.4374 41.2896 72.1605 41.5375 72.1605 41.8433Z" fill="#2C394B"/>
<path d="M69.6869 41.8433C69.6869 42.1491 69.9638 42.397 70.3054 42.397C70.6469 42.397 70.9238 42.1491 70.9238 41.8433C70.9238 41.5375 70.6469 41.2896 70.3054 41.2896C69.9638 41.2896 69.6869 41.5375 69.6869 41.8433Z" fill="#2C394B"/>
<path d="M67.2128 41.8433C67.2128 42.1491 67.4897 42.397 67.8312 42.397C68.1728 42.397 68.4497 42.1491 68.4497 41.8433C68.4497 41.5375 68.1728 41.2896 67.8312 41.2896C67.4897 41.2896 67.2128 41.5375 67.2128 41.8433Z" fill="#2C394B"/>
<path d="M64.7391 41.8433C64.7391 42.1491 65.016 42.397 65.3576 42.397C65.6992 42.397 65.9761 42.1491 65.9761 41.8433C65.9761 41.5375 65.6992 41.2896 65.3576 41.2896C65.016 41.2896 64.7391 41.5375 64.7391 41.8433Z" fill="#2C394B"/>
<path d="M62.265 41.8433C62.265 42.1491 62.5419 42.397 62.8835 42.397C63.2251 42.397 63.502 42.1491 63.502 41.8433C63.502 41.5375 63.2251 41.2896 62.8835 41.2896C62.5419 41.2896 62.265 41.5375 62.265 41.8433Z" fill="#2C394B"/>
<path d="M59.7914 41.8433C59.7914 42.1491 60.0683 42.397 60.4098 42.397C60.7514 42.397 61.0283 42.1491 61.0283 41.8433C61.0283 41.5375 60.7514 41.2896 60.4098 41.2896C60.0683 41.2896 59.7914 41.5375 59.7914 41.8433Z" fill="#2C394B"/>
<path d="M57.3172 41.8433C57.3172 42.1491 57.5941 42.397 57.9357 42.397C58.2773 42.397 58.5542 42.1491 58.5542 41.8433C58.5542 41.5375 58.2773 41.2896 57.9357 41.2896C57.5941 41.2896 57.3172 41.5375 57.3172 41.8433Z" fill="#2C394B"/>
<path d="M54.8431 41.8433C54.8431 42.1491 55.12 42.397 55.4616 42.397C55.8032 42.397 56.0801 42.1491 56.0801 41.8433C56.0801 41.5375 55.8032 41.2896 55.4616 41.2896C55.12 41.2896 54.8431 41.5375 54.8431 41.8433Z" fill="#2C394B"/>
<path d="M52.3695 41.8433C52.3695 42.1491 52.6464 42.397 52.988 42.397C53.3295 42.397 53.6064 42.1491 53.6064 41.8433C53.6064 41.5375 53.3295 41.2896 52.988 41.2896C52.6464 41.2896 52.3695 41.5375 52.3695 41.8433Z" fill="#2C394B"/>
<path d="M49.8954 41.8433C49.8954 42.1491 50.1723 42.397 50.5139 42.397C50.8554 42.397 51.1323 42.1491 51.1323 41.8433C51.1323 41.5375 50.8554 41.2896 50.5139 41.2896C50.1723 41.2896 49.8954 41.5375 49.8954 41.8433Z" fill="#2C394B"/>
<path d="M47.4217 41.8433C47.4217 42.1491 47.6986 42.397 48.0402 42.397C48.3818 42.397 48.6587 42.1491 48.6587 41.8433C48.6587 41.5375 48.3818 41.2896 48.0402 41.2896C47.6986 41.2896 47.4217 41.5375 47.4217 41.8433Z" fill="#2C394B"/>
<path d="M44.9476 41.8433C44.9476 42.1491 45.2245 42.397 45.5661 42.397C45.9077 42.397 46.1846 42.1491 46.1846 41.8433C46.1846 41.5375 45.9077 41.2896 45.5661 41.2896C45.2245 41.2896 44.9476 41.5375 44.9476 41.8433Z" fill="#2C394B"/>
<path d="M42.474 41.8433C42.474 42.1491 42.7509 42.397 43.0925 42.397C43.434 42.397 43.7109 42.1491 43.7109 41.8433C43.7109 41.5375 43.434 41.2896 43.0925 41.2896C42.7509 41.2896 42.474 41.5375 42.474 41.8433Z" fill="#2C394B"/>
<path d="M89.4779 44.0581C89.4779 44.3639 89.7548 44.6118 90.0964 44.6118C90.4379 44.6118 90.7148 44.3639 90.7148 44.0581C90.7148 43.7523 90.4379 43.5044 90.0964 43.5044C89.7548 43.5044 89.4779 43.7523 89.4779 44.0581Z" fill="#2C394B"/>
<path d="M87.0038 44.0581C87.0038 44.3639 87.2807 44.6118 87.6223 44.6118C87.9638 44.6118 88.2407 44.3639 88.2407 44.0581C88.2407 43.7523 87.9638 43.5044 87.6223 43.5044C87.2807 43.5044 87.0038 43.7523 87.0038 44.0581Z" fill="#2C394B"/>
<path d="M84.5302 44.0581C84.5302 44.3639 84.807 44.6118 85.1486 44.6118C85.4902 44.6118 85.7671 44.3639 85.7671 44.0581C85.7671 43.7523 85.4902 43.5044 85.1486 43.5044C84.807 43.5044 84.5302 43.7523 84.5302 44.0581Z" fill="#2C394B"/>
<path d="M82.056 44.0581C82.056 44.3639 82.3329 44.6118 82.6745 44.6118C83.0161 44.6118 83.293 44.3639 83.293 44.0581C83.293 43.7523 83.0161 43.5044 82.6745 43.5044C82.3329 43.5044 82.056 43.7523 82.056 44.0581Z" fill="#2C394B"/>
<path d="M79.5824 44.0581C79.5824 44.3639 79.8593 44.6118 80.2009 44.6118C80.5424 44.6118 80.8193 44.3639 80.8193 44.0581C80.8193 43.7523 80.5424 43.5044 80.2009 43.5044C79.8593 43.5044 79.5824 43.7523 79.5824 44.0581Z" fill="#2C394B"/>
<path d="M77.1083 44.0581C77.1083 44.3639 77.3852 44.6118 77.7267 44.6118C78.0683 44.6118 78.3452 44.3639 78.3452 44.0581C78.3452 43.7523 78.0683 43.5044 77.7267 43.5044C77.3852 43.5044 77.1083 43.7523 77.1083 44.0581Z" fill="#2C394B"/>
<path d="M74.6346 44.0581C74.6346 44.3639 74.9115 44.6118 75.2531 44.6118C75.5947 44.6118 75.8716 44.3639 75.8716 44.0581C75.8716 43.7523 75.5947 43.5044 75.2531 43.5044C74.9115 43.5044 74.6346 43.7523 74.6346 44.0581Z" fill="#2C394B"/>
<path d="M72.1605 44.0581C72.1605 44.3639 72.4374 44.6118 72.779 44.6118C73.1206 44.6118 73.3975 44.3639 73.3975 44.0581C73.3975 43.7523 73.1206 43.5044 72.779 43.5044C72.4374 43.5044 72.1605 43.7523 72.1605 44.0581Z" fill="#2C394B"/>
<path d="M69.6869 44.0581C69.6869 44.3639 69.9638 44.6118 70.3054 44.6118C70.6469 44.6118 70.9238 44.3639 70.9238 44.0581C70.9238 43.7523 70.6469 43.5044 70.3054 43.5044C69.9638 43.5044 69.6869 43.7523 69.6869 44.0581Z" fill="#2C394B"/>
<path d="M67.2128 44.0581C67.2128 44.3639 67.4897 44.6118 67.8312 44.6118C68.1728 44.6118 68.4497 44.3639 68.4497 44.0581C68.4497 43.7523 68.1728 43.5044 67.8312 43.5044C67.4897 43.5044 67.2128 43.7523 67.2128 44.0581Z" fill="#2C394B"/>
<path d="M64.7391 44.0581C64.7391 44.3639 65.016 44.6118 65.3576 44.6118C65.6992 44.6118 65.9761 44.3639 65.9761 44.0581C65.9761 43.7523 65.6992 43.5044 65.3576 43.5044C65.016 43.5044 64.7391 43.7523 64.7391 44.0581Z" fill="#2C394B"/>
<path d="M62.265 44.0581C62.265 44.3639 62.5419 44.6118 62.8835 44.6118C63.2251 44.6118 63.502 44.3639 63.502 44.0581C63.502 43.7523 63.2251 43.5044 62.8835 43.5044C62.5419 43.5044 62.265 43.7523 62.265 44.0581Z" fill="#2C394B"/>
<path d="M59.7914 44.0581C59.7914 44.3639 60.0683 44.6118 60.4098 44.6118C60.7514 44.6118 61.0283 44.3639 61.0283 44.0581C61.0283 43.7523 60.7514 43.5044 60.4098 43.5044C60.0683 43.5044 59.7914 43.7523 59.7914 44.0581Z" fill="#2C394B"/>
<path d="M57.3172 44.0581C57.3172 44.3639 57.5941 44.6118 57.9357 44.6118C58.2773 44.6118 58.5542 44.3639 58.5542 44.0581C58.5542 43.7523 58.2773 43.5044 57.9357 43.5044C57.5941 43.5044 57.3172 43.7523 57.3172 44.0581Z" fill="#2C394B"/>
<path d="M54.8431 44.0581C54.8431 44.3639 55.12 44.6118 55.4616 44.6118C55.8032 44.6118 56.0801 44.3639 56.0801 44.0581C56.0801 43.7523 55.8032 43.5044 55.4616 43.5044C55.12 43.5044 54.8431 43.7523 54.8431 44.0581Z" fill="#2C394B"/>
<path d="M52.3695 44.0581C52.3695 44.3639 52.6464 44.6118 52.988 44.6118C53.3295 44.6118 53.6064 44.3639 53.6064 44.0581C53.6064 43.7523 53.3295 43.5044 52.988 43.5044C52.6464 43.5044 52.3695 43.7523 52.3695 44.0581Z" fill="#2C394B"/>
<path d="M49.8954 44.0581C49.8954 44.3639 50.1723 44.6118 50.5139 44.6118C50.8554 44.6118 51.1323 44.3639 51.1323 44.0581C51.1323 43.7523 50.8554 43.5044 50.5139 43.5044C50.1723 43.5044 49.8954 43.7523 49.8954 44.0581Z" fill="#2C394B"/>
<path d="M47.4217 44.0581C47.4217 44.3639 47.6986 44.6118 48.0402 44.6118C48.3818 44.6118 48.6587 44.3639 48.6587 44.0581C48.6587 43.7523 48.3818 43.5044 48.0402 43.5044C47.6986 43.5044 47.4217 43.7523 47.4217 44.0581Z" fill="#2C394B"/>
<path d="M44.9476 44.0581C44.9476 44.3639 45.2245 44.6118 45.5661 44.6118C45.9077 44.6118 46.1846 44.3639 46.1846 44.0581C46.1846 43.7523 45.9077 43.5044 45.5661 43.5044C45.2245 43.5044 44.9476 43.7523 44.9476 44.0581Z" fill="#2C394B"/>
<path d="M42.474 44.0581C42.474 44.3639 42.7509 44.6118 43.0925 44.6118C43.434 44.6118 43.7109 44.3639 43.7109 44.0581C43.7109 43.7523 43.434 43.5044 43.0925 43.5044C42.7509 43.5044 42.474 43.7523 42.474 44.0581Z" fill="#2C394B"/>
<path d="M39.9999 44.0581C39.9999 44.3639 40.2768 44.6118 40.6183 44.6118C40.9599 44.6118 41.2368 44.3639 41.2368 44.0581C41.2368 43.7523 40.9599 43.5044 40.6183 43.5044C40.2768 43.5044 39.9999 43.7523 39.9999 44.0581Z" fill="#2C394B"/>
<path d="M89.4779 46.2731C89.4779 46.5789 89.7548 46.8268 90.0964 46.8268C90.4379 46.8268 90.7148 46.5789 90.7148 46.2731C90.7148 45.9673 90.4379 45.7194 90.0964 45.7194C89.7548 45.7194 89.4779 45.9673 89.4779 46.2731Z" fill="#2C394B"/>
<path d="M87.0038 46.2731C87.0038 46.5789 87.2807 46.8268 87.6223 46.8268C87.9638 46.8268 88.2407 46.5789 88.2407 46.2731C88.2407 45.9673 87.9638 45.7194 87.6223 45.7194C87.2807 45.7194 87.0038 45.9673 87.0038 46.2731Z" fill="#2C394B"/>
<path d="M84.5302 46.2731C84.5302 46.5789 84.807 46.8268 85.1486 46.8268C85.4902 46.8268 85.7671 46.5789 85.7671 46.2731C85.7671 45.9673 85.4902 45.7194 85.1486 45.7194C84.807 45.7194 84.5302 45.9673 84.5302 46.2731Z" fill="#2C394B"/>
<path d="M82.056 46.2731C82.056 46.5789 82.3329 46.8268 82.6745 46.8268C83.0161 46.8268 83.293 46.5789 83.293 46.2731C83.293 45.9673 83.0161 45.7194 82.6745 45.7194C82.3329 45.7194 82.056 45.9673 82.056 46.2731Z" fill="#2C394B"/>
<path d="M79.5824 46.2731C79.5824 46.5789 79.8593 46.8268 80.2009 46.8268C80.5424 46.8268 80.8193 46.5789 80.8193 46.2731C80.8193 45.9673 80.5424 45.7194 80.2009 45.7194C79.8593 45.7194 79.5824 45.9673 79.5824 46.2731Z" fill="#2C394B"/>
<path d="M77.1083 46.2731C77.1083 46.5789 77.3852 46.8268 77.7267 46.8268C78.0683 46.8268 78.3452 46.5789 78.3452 46.2731C78.3452 45.9673 78.0683 45.7194 77.7267 45.7194C77.3852 45.7194 77.1083 45.9673 77.1083 46.2731Z" fill="#2C394B"/>
<path d="M74.6346 46.2731C74.6346 46.5789 74.9115 46.8268 75.2531 46.8268C75.5947 46.8268 75.8716 46.5789 75.8716 46.2731C75.8716 45.9673 75.5947 45.7194 75.2531 45.7194C74.9115 45.7194 74.6346 45.9673 74.6346 46.2731Z" fill="#2C394B"/>
<path d="M72.1605 46.2731C72.1605 46.5789 72.4374 46.8268 72.779 46.8268C73.1206 46.8268 73.3975 46.5789 73.3975 46.2731C73.3975 45.9673 73.1206 45.7194 72.779 45.7194C72.4374 45.7194 72.1605 45.9673 72.1605 46.2731Z" fill="#2C394B"/>
<path d="M69.6869 46.2731C69.6869 46.5789 69.9638 46.8268 70.3054 46.8268C70.6469 46.8268 70.9238 46.5789 70.9238 46.2731C70.9238 45.9673 70.6469 45.7194 70.3054 45.7194C69.9638 45.7194 69.6869 45.9673 69.6869 46.2731Z" fill="#2C394B"/>
<path d="M67.2128 46.2731C67.2128 46.5789 67.4897 46.8268 67.8312 46.8268C68.1728 46.8268 68.4497 46.5789 68.4497 46.2731C68.4497 45.9673 68.1728 45.7194 67.8312 45.7194C67.4897 45.7194 67.2128 45.9673 67.2128 46.2731Z" fill="#2C394B"/>
<path d="M64.7391 46.2731C64.7391 46.5789 65.016 46.8268 65.3576 46.8268C65.6992 46.8268 65.9761 46.5789 65.9761 46.2731C65.9761 45.9673 65.6992 45.7194 65.3576 45.7194C65.016 45.7194 64.7391 45.9673 64.7391 46.2731Z" fill="#2C394B"/>
<path d="M62.265 46.2731C62.265 46.5789 62.5419 46.8268 62.8835 46.8268C63.2251 46.8268 63.502 46.5789 63.502 46.2731C63.502 45.9673 63.2251 45.7194 62.8835 45.7194C62.5419 45.7194 62.265 45.9673 62.265 46.2731Z" fill="#2C394B"/>
<path d="M59.7914 46.2731C59.7914 46.5789 60.0683 46.8268 60.4098 46.8268C60.7514 46.8268 61.0283 46.5789 61.0283 46.2731C61.0283 45.9673 60.7514 45.7194 60.4098 45.7194C60.0683 45.7194 59.7914 45.9673 59.7914 46.2731Z" fill="#2C394B"/>
<path d="M57.3172 46.2731C57.3172 46.5789 57.5941 46.8268 57.9357 46.8268C58.2773 46.8268 58.5542 46.5789 58.5542 46.2731C58.5542 45.9673 58.2773 45.7194 57.9357 45.7194C57.5941 45.7194 57.3172 45.9673 57.3172 46.2731Z" fill="#2C394B"/>
<path d="M54.8431 46.2731C54.8431 46.5789 55.12 46.8268 55.4616 46.8268C55.8032 46.8268 56.0801 46.5789 56.0801 46.2731C56.0801 45.9673 55.8032 45.7194 55.4616 45.7194C55.12 45.7194 54.8431 45.9673 54.8431 46.2731Z" fill="#2C394B"/>
<path d="M52.3695 46.2731C52.3695 46.5789 52.6464 46.8268 52.988 46.8268C53.3295 46.8268 53.6064 46.5789 53.6064 46.2731C53.6064 45.9673 53.3295 45.7194 52.988 45.7194C52.6464 45.7194 52.3695 45.9673 52.3695 46.2731Z" fill="#2C394B"/>
<path d="M49.8954 46.2731C49.8954 46.5789 50.1723 46.8268 50.5139 46.8268C50.8554 46.8268 51.1323 46.5789 51.1323 46.2731C51.1323 45.9673 50.8554 45.7194 50.5139 45.7194C50.1723 45.7194 49.8954 45.9673 49.8954 46.2731Z" fill="#2C394B"/>
<path d="M47.4217 46.2731C47.4217 46.5789 47.6986 46.8268 48.0402 46.8268C48.3818 46.8268 48.6587 46.5789 48.6587 46.2731C48.6587 45.9673 48.3818 45.7194 48.0402 45.7194C47.6986 45.7194 47.4217 45.9673 47.4217 46.2731Z" fill="#2C394B"/>
<path d="M44.9476 46.2731C44.9476 46.5789 45.2245 46.8268 45.5661 46.8268C45.9077 46.8268 46.1846 46.5789 46.1846 46.2731C46.1846 45.9673 45.9077 45.7194 45.5661 45.7194C45.2245 45.7194 44.9476 45.9673 44.9476 46.2731Z" fill="#2C394B"/>
<path d="M42.474 46.2731C42.474 46.5789 42.7509 46.8268 43.0925 46.8268C43.434 46.8268 43.7109 46.5789 43.7109 46.2731C43.7109 45.9673 43.434 45.7194 43.0925 45.7194C42.7509 45.7194 42.474 45.9673 42.474 46.2731Z" fill="#2C394B"/>
<path d="M39.9999 46.2731C39.9999 46.5789 40.2768 46.8268 40.6183 46.8268C40.9599 46.8268 41.2368 46.5789 41.2368 46.2731C41.2368 45.9673 40.9599 45.7194 40.6183 45.7194C40.2768 45.7194 39.9999 45.9673 39.9999 46.2731Z" fill="#2C394B"/>
<path d="M89.4779 48.488C89.4779 48.7938 89.7548 49.0417 90.0964 49.0417C90.4379 49.0417 90.7148 48.7938 90.7148 48.488C90.7148 48.1822 90.4379 47.9343 90.0964 47.9343C89.7548 47.9343 89.4779 48.1822 89.4779 48.488Z" fill="#2C394B"/>
<path d="M87.0038 48.4879C87.0038 48.7938 87.2807 49.0417 87.6223 49.0417C87.9638 49.0417 88.2407 48.7938 88.2407 48.4879C88.2407 48.1821 87.9638 47.9342 87.6223 47.9342C87.2807 47.9342 87.0038 48.1821 87.0038 48.4879Z" fill="#2C394B"/>
<path d="M84.5302 48.4879C84.5302 48.7938 84.807 49.0417 85.1486 49.0417C85.4902 49.0417 85.7671 48.7938 85.7671 48.4879C85.7671 48.1821 85.4902 47.9342 85.1486 47.9342C84.807 47.9342 84.5302 48.1821 84.5302 48.4879Z" fill="#2C394B"/>
<path d="M82.056 48.4879C82.056 48.7938 82.3329 49.0417 82.6745 49.0417C83.0161 49.0417 83.293 48.7938 83.293 48.4879C83.293 48.1821 83.0161 47.9342 82.6745 47.9342C82.3329 47.9342 82.056 48.1821 82.056 48.4879Z" fill="#2C394B"/>
<path d="M79.5824 48.4879C79.5824 48.7938 79.8593 49.0417 80.2009 49.0417C80.5424 49.0417 80.8193 48.7938 80.8193 48.4879C80.8193 48.1821 80.5424 47.9342 80.2009 47.9342C79.8593 47.9342 79.5824 48.1821 79.5824 48.4879Z" fill="#2C394B"/>
<path d="M77.1083 48.4879C77.1083 48.7938 77.3852 49.0417 77.7267 49.0417C78.0683 49.0417 78.3452 48.7938 78.3452 48.4879C78.3452 48.1821 78.0683 47.9342 77.7267 47.9342C77.3852 47.9342 77.1083 48.1821 77.1083 48.4879Z" fill="#2C394B"/>
<path d="M74.6346 48.4879C74.6346 48.7938 74.9115 49.0417 75.2531 49.0417C75.5947 49.0417 75.8716 48.7938 75.8716 48.4879C75.8716 48.1821 75.5947 47.9342 75.2531 47.9342C74.9115 47.9342 74.6346 48.1821 74.6346 48.4879Z" fill="#2C394B"/>
<path d="M72.1605 48.4879C72.1605 48.7938 72.4374 49.0417 72.779 49.0417C73.1206 49.0417 73.3975 48.7938 73.3975 48.4879C73.3975 48.1821 73.1206 47.9342 72.779 47.9342C72.4374 47.9342 72.1605 48.1821 72.1605 48.4879Z" fill="#2C394B"/>
<path d="M69.6869 48.4879C69.6869 48.7938 69.9638 49.0417 70.3054 49.0417C70.6469 49.0417 70.9238 48.7938 70.9238 48.4879C70.9238 48.1821 70.6469 47.9342 70.3054 47.9342C69.9638 47.9342 69.6869 48.1821 69.6869 48.4879Z" fill="#2C394B"/>
<path d="M67.2128 48.4879C67.2128 48.7938 67.4897 49.0417 67.8312 49.0417C68.1728 49.0417 68.4497 48.7938 68.4497 48.4879C68.4497 48.1821 68.1728 47.9342 67.8312 47.9342C67.4897 47.9342 67.2128 48.1821 67.2128 48.4879Z" fill="#2C394B"/>
<path d="M64.7391 48.4879C64.7391 48.7938 65.016 49.0417 65.3576 49.0417C65.6992 49.0417 65.9761 48.7938 65.9761 48.4879C65.9761 48.1821 65.6992 47.9342 65.3576 47.9342C65.016 47.9342 64.7391 48.1821 64.7391 48.4879Z" fill="#2C394B"/>
<path d="M62.265 48.4879C62.265 48.7938 62.5419 49.0417 62.8835 49.0417C63.2251 49.0417 63.502 48.7938 63.502 48.4879C63.502 48.1821 63.2251 47.9342 62.8835 47.9342C62.5419 47.9342 62.265 48.1821 62.265 48.4879Z" fill="#2C394B"/>
<path d="M59.7914 48.4879C59.7914 48.7938 60.0683 49.0417 60.4098 49.0417C60.7514 49.0417 61.0283 48.7938 61.0283 48.4879C61.0283 48.1821 60.7514 47.9342 60.4098 47.9342C60.0683 47.9342 59.7914 48.1821 59.7914 48.4879Z" fill="#2C394B"/>
<path d="M57.3172 48.4879C57.3172 48.7938 57.5941 49.0417 57.9357 49.0417C58.2773 49.0417 58.5542 48.7938 58.5542 48.4879C58.5542 48.1821 58.2773 47.9342 57.9357 47.9342C57.5941 47.9342 57.3172 48.1821 57.3172 48.4879Z" fill="#2C394B"/>
<path d="M54.8431 48.4879C54.8431 48.7938 55.12 49.0417 55.4616 49.0417C55.8032 49.0417 56.0801 48.7938 56.0801 48.4879C56.0801 48.1821 55.8032 47.9342 55.4616 47.9342C55.12 47.9342 54.8431 48.1821 54.8431 48.4879Z" fill="#2C394B"/>
<path d="M52.3695 48.4879C52.3695 48.7938 52.6464 49.0417 52.988 49.0417C53.3295 49.0417 53.6064 48.7938 53.6064 48.4879C53.6064 48.1821 53.3295 47.9342 52.988 47.9342C52.6464 47.9342 52.3695 48.1821 52.3695 48.4879Z" fill="#2C394B"/>
<path d="M49.8954 48.4879C49.8954 48.7938 50.1723 49.0417 50.5139 49.0417C50.8554 49.0417 51.1323 48.7938 51.1323 48.4879C51.1323 48.1821 50.8554 47.9342 50.5139 47.9342C50.1723 47.9342 49.8954 48.1821 49.8954 48.4879Z" fill="#2C394B"/>
<path d="M47.4217 48.4879C47.4217 48.7938 47.6986 49.0417 48.0402 49.0417C48.3818 49.0417 48.6587 48.7938 48.6587 48.4879C48.6587 48.1821 48.3818 47.9342 48.0402 47.9342C47.6986 47.9342 47.4217 48.1821 47.4217 48.4879Z" fill="#2C394B"/>
<path d="M44.9476 48.4879C44.9476 48.7938 45.2245 49.0417 45.5661 49.0417C45.9077 49.0417 46.1846 48.7938 46.1846 48.4879C46.1846 48.1821 45.9077 47.9342 45.5661 47.9342C45.2245 47.9342 44.9476 48.1821 44.9476 48.4879Z" fill="#2C394B"/>
<path d="M42.474 48.4879C42.474 48.7938 42.7509 49.0417 43.0925 49.0417C43.434 49.0417 43.7109 48.7938 43.7109 48.4879C43.7109 48.1821 43.434 47.9342 43.0925 47.9342C42.7509 47.9342 42.474 48.1821 42.474 48.4879Z" fill="#2C394B"/>
<path d="M39.9999 48.4879C39.9999 48.7938 40.2768 49.0417 40.6183 49.0417C40.9599 49.0417 41.2368 48.7938 41.2368 48.4879C41.2368 48.1821 40.9599 47.9342 40.6183 47.9342C40.2768 47.9342 39.9999 48.1821 39.9999 48.4879Z" fill="#2C394B"/>
<path d="M89.4779 50.7029C89.4779 51.0087 89.7548 51.2566 90.0964 51.2566C90.4379 51.2566 90.7148 51.0087 90.7148 50.7029C90.7148 50.397 90.4379 50.1491 90.0964 50.1491C89.7548 50.1491 89.4779 50.397 89.4779 50.7029Z" fill="#2C394B"/>
<path d="M87.0038 50.7028C87.0038 51.0087 87.2807 51.2566 87.6223 51.2566C87.9638 51.2566 88.2407 51.0087 88.2407 50.7028C88.2407 50.397 87.9638 50.1491 87.6223 50.1491C87.2807 50.1491 87.0038 50.397 87.0038 50.7028Z" fill="#2C394B"/>
<path d="M84.5302 50.7028C84.5302 51.0087 84.807 51.2566 85.1486 51.2566C85.4902 51.2566 85.7671 51.0087 85.7671 50.7028C85.7671 50.397 85.4902 50.1491 85.1486 50.1491C84.807 50.1491 84.5302 50.397 84.5302 50.7028Z" fill="#2C394B"/>
<path d="M82.056 50.7028C82.056 51.0087 82.3329 51.2566 82.6745 51.2566C83.0161 51.2566 83.293 51.0087 83.293 50.7028C83.293 50.397 83.0161 50.1491 82.6745 50.1491C82.3329 50.1491 82.056 50.397 82.056 50.7028Z" fill="#2C394B"/>
<path d="M79.5824 50.7028C79.5824 51.0087 79.8593 51.2566 80.2009 51.2566C80.5424 51.2566 80.8193 51.0087 80.8193 50.7028C80.8193 50.397 80.5424 50.1491 80.2009 50.1491C79.8593 50.1491 79.5824 50.397 79.5824 50.7028Z" fill="#2C394B"/>
<path d="M77.1083 50.7028C77.1083 51.0087 77.3852 51.2566 77.7267 51.2566C78.0683 51.2566 78.3452 51.0087 78.3452 50.7028C78.3452 50.397 78.0683 50.1491 77.7267 50.1491C77.3852 50.1491 77.1083 50.397 77.1083 50.7028Z" fill="#2C394B"/>
<path d="M74.6346 50.7028C74.6346 51.0087 74.9115 51.2566 75.2531 51.2566C75.5947 51.2566 75.8716 51.0087 75.8716 50.7028C75.8716 50.397 75.5947 50.1491 75.2531 50.1491C74.9115 50.1491 74.6346 50.397 74.6346 50.7028Z" fill="#2C394B"/>
<path d="M72.1605 50.7028C72.1605 51.0087 72.4374 51.2566 72.779 51.2566C73.1206 51.2566 73.3975 51.0087 73.3975 50.7028C73.3975 50.397 73.1206 50.1491 72.779 50.1491C72.4374 50.1491 72.1605 50.397 72.1605 50.7028Z" fill="#2C394B"/>
<path d="M69.6869 50.7028C69.6869 51.0087 69.9638 51.2566 70.3054 51.2566C70.6469 51.2566 70.9238 51.0087 70.9238 50.7028C70.9238 50.397 70.6469 50.1491 70.3054 50.1491C69.9638 50.1491 69.6869 50.397 69.6869 50.7028Z" fill="#2C394B"/>
<path d="M67.2128 50.7028C67.2128 51.0087 67.4897 51.2566 67.8312 51.2566C68.1728 51.2566 68.4497 51.0087 68.4497 50.7028C68.4497 50.397 68.1728 50.1491 67.8312 50.1491C67.4897 50.1491 67.2128 50.397 67.2128 50.7028Z" fill="#2C394B"/>
<path d="M64.7391 50.7028C64.7391 51.0087 65.016 51.2566 65.3576 51.2566C65.6992 51.2566 65.9761 51.0087 65.9761 50.7028C65.9761 50.397 65.6992 50.1491 65.3576 50.1491C65.016 50.1491 64.7391 50.397 64.7391 50.7028Z" fill="#2C394B"/>
<path d="M62.265 50.7028C62.265 51.0087 62.5419 51.2566 62.8835 51.2566C63.2251 51.2566 63.502 51.0087 63.502 50.7028C63.502 50.397 63.2251 50.1491 62.8835 50.1491C62.5419 50.1491 62.265 50.397 62.265 50.7028Z" fill="#2C394B"/>
<path d="M59.7914 50.7028C59.7914 51.0087 60.0683 51.2566 60.4098 51.2566C60.7514 51.2566 61.0283 51.0087 61.0283 50.7028C61.0283 50.397 60.7514 50.1491 60.4098 50.1491C60.0683 50.1491 59.7914 50.397 59.7914 50.7028Z" fill="#2C394B"/>
<path d="M57.3172 50.7028C57.3172 51.0087 57.5941 51.2566 57.9357 51.2566C58.2773 51.2566 58.5542 51.0087 58.5542 50.7028C58.5542 50.397 58.2773 50.1491 57.9357 50.1491C57.5941 50.1491 57.3172 50.397 57.3172 50.7028Z" fill="#2C394B"/>
<path d="M54.8431 50.7028C54.8431 51.0087 55.12 51.2566 55.4616 51.2566C55.8032 51.2566 56.0801 51.0087 56.0801 50.7028C56.0801 50.397 55.8032 50.1491 55.4616 50.1491C55.12 50.1491 54.8431 50.397 54.8431 50.7028Z" fill="#2C394B"/>
<path d="M52.3695 50.7028C52.3695 51.0087 52.6464 51.2566 52.988 51.2566C53.3295 51.2566 53.6064 51.0087 53.6064 50.7028C53.6064 50.397 53.3295 50.1491 52.988 50.1491C52.6464 50.1491 52.3695 50.397 52.3695 50.7028Z" fill="#2C394B"/>
<path d="M49.8954 50.7028C49.8954 51.0087 50.1723 51.2566 50.5139 51.2566C50.8554 51.2566 51.1323 51.0087 51.1323 50.7028C51.1323 50.397 50.8554 50.1491 50.5139 50.1491C50.1723 50.1491 49.8954 50.397 49.8954 50.7028Z" fill="#2C394B"/>
<path d="M47.4217 50.7028C47.4217 51.0087 47.6986 51.2566 48.0402 51.2566C48.3818 51.2566 48.6587 51.0087 48.6587 50.7028C48.6587 50.397 48.3818 50.1491 48.0402 50.1491C47.6986 50.1491 47.4217 50.397 47.4217 50.7028Z" fill="#2C394B"/>
<path d="M44.9476 50.7028C44.9476 51.0087 45.2245 51.2566 45.5661 51.2566C45.9077 51.2566 46.1846 51.0087 46.1846 50.7028C46.1846 50.397 45.9077 50.1491 45.5661 50.1491C45.2245 50.1491 44.9476 50.397 44.9476 50.7028Z" fill="#2C394B"/>
<path d="M42.474 50.7028C42.474 51.0087 42.7509 51.2566 43.0925 51.2566C43.434 51.2566 43.7109 51.0087 43.7109 50.7028C43.7109 50.397 43.434 50.1491 43.0925 50.1491C42.7509 50.1491 42.474 50.397 42.474 50.7028Z" fill="#2C394B"/>
<path d="M39.9999 50.7028C39.9999 51.0087 40.2768 51.2566 40.6183 51.2566C40.9599 51.2566 41.2368 51.0087 41.2368 50.7028C41.2368 50.397 40.9599 50.1491 40.6183 50.1491C40.2768 50.1491 39.9999 50.397 39.9999 50.7028Z" fill="#2C394B"/>
<path d="M89.4779 52.9178C89.4779 53.2236 89.7548 53.4715 90.0964 53.4715C90.4379 53.4715 90.7148 53.2236 90.7148 52.9178C90.7148 52.612 90.4379 52.3641 90.0964 52.3641C89.7548 52.3641 89.4779 52.612 89.4779 52.9178Z" fill="#2C394B"/>
<path d="M87.0038 52.9178C87.0038 53.2236 87.2807 53.4715 87.6223 53.4715C87.9638 53.4715 88.2407 53.2236 88.2407 52.9178C88.2407 52.612 87.9638 52.3641 87.6223 52.3641C87.2807 52.3641 87.0038 52.612 87.0038 52.9178Z" fill="#2C394B"/>
<path d="M84.5302 52.9178C84.5302 53.2236 84.807 53.4715 85.1486 53.4715C85.4902 53.4715 85.7671 53.2236 85.7671 52.9178C85.7671 52.612 85.4902 52.3641 85.1486 52.3641C84.807 52.3641 84.5302 52.612 84.5302 52.9178Z" fill="#2C394B"/>
<path d="M82.056 52.9178C82.056 53.2236 82.3329 53.4715 82.6745 53.4715C83.0161 53.4715 83.293 53.2236 83.293 52.9178C83.293 52.612 83.0161 52.3641 82.6745 52.3641C82.3329 52.3641 82.056 52.612 82.056 52.9178Z" fill="#2C394B"/>
<path d="M79.5824 52.9178C79.5824 53.2236 79.8593 53.4715 80.2009 53.4715C80.5424 53.4715 80.8193 53.2236 80.8193 52.9178C80.8193 52.612 80.5424 52.3641 80.2009 52.3641C79.8593 52.3641 79.5824 52.612 79.5824 52.9178Z" fill="#2C394B"/>
<path d="M77.1083 52.9178C77.1083 53.2236 77.3852 53.4715 77.7267 53.4715C78.0683 53.4715 78.3452 53.2236 78.3452 52.9178C78.3452 52.612 78.0683 52.3641 77.7267 52.3641C77.3852 52.3641 77.1083 52.612 77.1083 52.9178Z" fill="#2C394B"/>
<path d="M74.6346 52.9178C74.6346 53.2236 74.9115 53.4715 75.2531 53.4715C75.5947 53.4715 75.8716 53.2236 75.8716 52.9178C75.8716 52.612 75.5947 52.3641 75.2531 52.3641C74.9115 52.3641 74.6346 52.612 74.6346 52.9178Z" fill="#2C394B"/>
<path d="M72.1605 52.9178C72.1605 53.2236 72.4374 53.4715 72.779 53.4715C73.1206 53.4715 73.3975 53.2236 73.3975 52.9178C73.3975 52.612 73.1206 52.3641 72.779 52.3641C72.4374 52.3641 72.1605 52.612 72.1605 52.9178Z" fill="#2C394B"/>
<path d="M69.6869 52.9178C69.6869 53.2236 69.9638 53.4715 70.3054 53.4715C70.6469 53.4715 70.9238 53.2236 70.9238 52.9178C70.9238 52.612 70.6469 52.3641 70.3054 52.3641C69.9638 52.3641 69.6869 52.612 69.6869 52.9178Z" fill="#2C394B"/>
<path d="M67.2128 52.9178C67.2128 53.2236 67.4897 53.4715 67.8312 53.4715C68.1728 53.4715 68.4497 53.2236 68.4497 52.9178C68.4497 52.612 68.1728 52.3641 67.8312 52.3641C67.4897 52.3641 67.2128 52.612 67.2128 52.9178Z" fill="#2C394B"/>
<path d="M64.7391 52.9178C64.7391 53.2236 65.016 53.4715 65.3576 53.4715C65.6992 53.4715 65.9761 53.2236 65.9761 52.9178C65.9761 52.612 65.6992 52.3641 65.3576 52.3641C65.016 52.3641 64.7391 52.612 64.7391 52.9178Z" fill="#2C394B"/>
<path d="M62.265 52.9178C62.265 53.2236 62.5419 53.4715 62.8835 53.4715C63.2251 53.4715 63.502 53.2236 63.502 52.9178C63.502 52.612 63.2251 52.3641 62.8835 52.3641C62.5419 52.3641 62.265 52.612 62.265 52.9178Z" fill="#2C394B"/>
<path d="M59.7914 52.9178C59.7914 53.2236 60.0683 53.4715 60.4098 53.4715C60.7514 53.4715 61.0283 53.2236 61.0283 52.9178C61.0283 52.612 60.7514 52.3641 60.4098 52.3641C60.0683 52.3641 59.7914 52.612 59.7914 52.9178Z" fill="#2C394B"/>
<path d="M57.3172 52.9178C57.3172 53.2236 57.5941 53.4715 57.9357 53.4715C58.2773 53.4715 58.5542 53.2236 58.5542 52.9178C58.5542 52.612 58.2773 52.3641 57.9357 52.3641C57.5941 52.3641 57.3172 52.612 57.3172 52.9178Z" fill="#2C394B"/>
<path d="M54.8431 52.9178C54.8431 53.2236 55.12 53.4715 55.4616 53.4715C55.8032 53.4715 56.0801 53.2236 56.0801 52.9178C56.0801 52.612 55.8032 52.3641 55.4616 52.3641C55.12 52.3641 54.8431 52.612 54.8431 52.9178Z" fill="#2C394B"/>
<path d="M52.3695 52.9178C52.3695 53.2236 52.6464 53.4715 52.988 53.4715C53.3295 53.4715 53.6064 53.2236 53.6064 52.9178C53.6064 52.612 53.3295 52.3641 52.988 52.3641C52.6464 52.3641 52.3695 52.612 52.3695 52.9178Z" fill="#2C394B"/>
<path d="M49.8954 52.9178C49.8954 53.2236 50.1723 53.4715 50.5139 53.4715C50.8554 53.4715 51.1323 53.2236 51.1323 52.9178C51.1323 52.612 50.8554 52.3641 50.5139 52.3641C50.1723 52.3641 49.8954 52.612 49.8954 52.9178Z" fill="#2C394B"/>
<path d="M47.4217 52.9178C47.4217 53.2236 47.6986 53.4715 48.0402 53.4715C48.3818 53.4715 48.6587 53.2236 48.6587 52.9178C48.6587 52.612 48.3818 52.3641 48.0402 52.3641C47.6986 52.3641 47.4217 52.612 47.4217 52.9178Z" fill="#2C394B"/>
<path d="M44.9476 52.9178C44.9476 53.2236 45.2245 53.4715 45.5661 53.4715C45.9077 53.4715 46.1846 53.2236 46.1846 52.9178C46.1846 52.612 45.9077 52.3641 45.5661 52.3641C45.2245 52.3641 44.9476 52.612 44.9476 52.9178Z" fill="#2C394B"/>
<path d="M42.474 52.9178C42.474 53.2236 42.7509 53.4715 43.0925 53.4715C43.434 53.4715 43.7109 53.2236 43.7109 52.9178C43.7109 52.612 43.434 52.3641 43.0925 52.3641C42.7509 52.3641 42.474 52.612 42.474 52.9178Z" fill="#2C394B"/>
<path d="M39.9999 52.9178C39.9999 53.2236 40.2768 53.4715 40.6183 53.4715C40.9599 53.4715 41.2368 53.2236 41.2368 52.9178C41.2368 52.612 40.9599 52.3641 40.6183 52.3641C40.2768 52.3641 39.9999 52.612 39.9999 52.9178Z" fill="#2C394B"/>
<path d="M89.4779 55.1328C89.4779 55.4386 89.7548 55.6865 90.0964 55.6865C90.4379 55.6865 90.7148 55.4386 90.7148 55.1328C90.7148 54.8269 90.4379 54.579 90.0964 54.579C89.7548 54.579 89.4779 54.8269 89.4779 55.1328Z" fill="#2C394B"/>
<path d="M87.0038 55.1328C87.0038 55.4386 87.2807 55.6865 87.6223 55.6865C87.9638 55.6865 88.2407 55.4386 88.2407 55.1328C88.2407 54.827 87.9638 54.579 87.6223 54.579C87.2807 54.579 87.0038 54.827 87.0038 55.1328Z" fill="#2C394B"/>
<path d="M84.5302 55.1328C84.5302 55.4386 84.807 55.6865 85.1486 55.6865C85.4902 55.6865 85.7671 55.4386 85.7671 55.1328C85.7671 54.827 85.4902 54.579 85.1486 54.579C84.807 54.579 84.5302 54.827 84.5302 55.1328Z" fill="#2C394B"/>
<path d="M82.056 55.1328C82.056 55.4386 82.3329 55.6865 82.6745 55.6865C83.0161 55.6865 83.293 55.4386 83.293 55.1328C83.293 54.827 83.0161 54.579 82.6745 54.579C82.3329 54.579 82.056 54.827 82.056 55.1328Z" fill="#2C394B"/>
<path d="M79.5824 55.1328C79.5824 55.4386 79.8593 55.6865 80.2009 55.6865C80.5424 55.6865 80.8193 55.4386 80.8193 55.1328C80.8193 54.827 80.5424 54.579 80.2009 54.579C79.8593 54.579 79.5824 54.827 79.5824 55.1328Z" fill="#2C394B"/>
<path d="M77.1083 55.1328C77.1083 55.4386 77.3852 55.6865 77.7267 55.6865C78.0683 55.6865 78.3452 55.4386 78.3452 55.1328C78.3452 54.827 78.0683 54.579 77.7267 54.579C77.3852 54.579 77.1083 54.827 77.1083 55.1328Z" fill="#2C394B"/>
<path d="M74.6346 55.1328C74.6346 55.4386 74.9115 55.6865 75.2531 55.6865C75.5947 55.6865 75.8716 55.4386 75.8716 55.1328C75.8716 54.827 75.5947 54.579 75.2531 54.579C74.9115 54.579 74.6346 54.827 74.6346 55.1328Z" fill="#2C394B"/>
<path d="M72.1605 55.1328C72.1605 55.4386 72.4374 55.6865 72.779 55.6865C73.1206 55.6865 73.3975 55.4386 73.3975 55.1328C73.3975 54.827 73.1206 54.579 72.779 54.579C72.4374 54.579 72.1605 54.827 72.1605 55.1328Z" fill="#2C394B"/>
<path d="M69.6869 55.1328C69.6869 55.4386 69.9638 55.6865 70.3054 55.6865C70.6469 55.6865 70.9238 55.4386 70.9238 55.1328C70.9238 54.827 70.6469 54.579 70.3054 54.579C69.9638 54.579 69.6869 54.827 69.6869 55.1328Z" fill="#2C394B"/>
<path d="M67.2128 55.1328C67.2128 55.4386 67.4897 55.6865 67.8312 55.6865C68.1728 55.6865 68.4497 55.4386 68.4497 55.1328C68.4497 54.827 68.1728 54.579 67.8312 54.579C67.4897 54.579 67.2128 54.827 67.2128 55.1328Z" fill="#2C394B"/>
<path d="M64.7391 55.1328C64.7391 55.4386 65.016 55.6865 65.3576 55.6865C65.6992 55.6865 65.9761 55.4386 65.9761 55.1328C65.9761 54.827 65.6992 54.579 65.3576 54.579C65.016 54.579 64.7391 54.827 64.7391 55.1328Z" fill="#2C394B"/>
<path d="M62.265 55.1328C62.265 55.4386 62.5419 55.6865 62.8835 55.6865C63.2251 55.6865 63.502 55.4386 63.502 55.1328C63.502 54.827 63.2251 54.579 62.8835 54.579C62.5419 54.579 62.265 54.827 62.265 55.1328Z" fill="#2C394B"/>
<path d="M59.7914 55.1328C59.7914 55.4386 60.0683 55.6865 60.4098 55.6865C60.7514 55.6865 61.0283 55.4386 61.0283 55.1328C61.0283 54.827 60.7514 54.579 60.4098 54.579C60.0683 54.579 59.7914 54.827 59.7914 55.1328Z" fill="#2C394B"/>
<path d="M57.3172 55.1328C57.3172 55.4386 57.5941 55.6865 57.9357 55.6865C58.2773 55.6865 58.5542 55.4386 58.5542 55.1328C58.5542 54.827 58.2773 54.579 57.9357 54.579C57.5941 54.579 57.3172 54.827 57.3172 55.1328Z" fill="#2C394B"/>
<path d="M54.8431 55.1328C54.8431 55.4386 55.12 55.6865 55.4616 55.6865C55.8032 55.6865 56.0801 55.4386 56.0801 55.1328C56.0801 54.827 55.8032 54.579 55.4616 54.579C55.12 54.579 54.8431 54.827 54.8431 55.1328Z" fill="#2C394B"/>
<path d="M52.3695 55.1328C52.3695 55.4386 52.6464 55.6865 52.988 55.6865C53.3295 55.6865 53.6064 55.4386 53.6064 55.1328C53.6064 54.827 53.3295 54.579 52.988 54.579C52.6464 54.579 52.3695 54.827 52.3695 55.1328Z" fill="#2C394B"/>
<path d="M49.8954 55.1328C49.8954 55.4386 50.1723 55.6865 50.5139 55.6865C50.8554 55.6865 51.1323 55.4386 51.1323 55.1328C51.1323 54.827 50.8554 54.579 50.5139 54.579C50.1723 54.579 49.8954 54.827 49.8954 55.1328Z" fill="#2C394B"/>
<path d="M47.4217 55.1328C47.4217 55.4386 47.6986 55.6865 48.0402 55.6865C48.3818 55.6865 48.6587 55.4386 48.6587 55.1328C48.6587 54.827 48.3818 54.579 48.0402 54.579C47.6986 54.579 47.4217 54.827 47.4217 55.1328Z" fill="#2C394B"/>
<path d="M44.9476 55.1328C44.9476 55.4386 45.2245 55.6865 45.5661 55.6865C45.9077 55.6865 46.1846 55.4386 46.1846 55.1328C46.1846 54.827 45.9077 54.579 45.5661 54.579C45.2245 54.579 44.9476 54.827 44.9476 55.1328Z" fill="#2C394B"/>
<path d="M42.474 55.1328C42.474 55.4386 42.7509 55.6865 43.0925 55.6865C43.434 55.6865 43.7109 55.4386 43.7109 55.1328C43.7109 54.827 43.434 54.579 43.0925 54.579C42.7509 54.579 42.474 54.827 42.474 55.1328Z" fill="#2C394B"/>
<path d="M39.9999 55.1328C39.9999 55.4386 40.2768 55.6865 40.6183 55.6865C40.9599 55.6865 41.2368 55.4386 41.2368 55.1328C41.2368 54.827 40.9599 54.579 40.6183 54.579C40.2768 54.579 39.9999 54.827 39.9999 55.1328Z" fill="#2C394B"/>
<path d="M89.4779 57.3476C89.4779 57.6534 89.7548 57.9014 90.0964 57.9014C90.4379 57.9014 90.7148 57.6534 90.7148 57.3476C90.7148 57.0418 90.4379 56.7939 90.0964 56.7939C89.7548 56.7939 89.4779 57.0418 89.4779 57.3476Z" fill="#2C394B"/>
<path d="M87.0038 57.3477C87.0038 57.6535 87.2807 57.9014 87.6223 57.9014C87.9638 57.9014 88.2407 57.6535 88.2407 57.3477C88.2407 57.0419 87.9638 56.7939 87.6223 56.7939C87.2807 56.7939 87.0038 57.0419 87.0038 57.3477Z" fill="#2C394B"/>
<path d="M84.5302 57.3477C84.5302 57.6535 84.807 57.9014 85.1486 57.9014C85.4902 57.9014 85.7671 57.6535 85.7671 57.3477C85.7671 57.0419 85.4902 56.7939 85.1486 56.7939C84.807 56.7939 84.5302 57.0419 84.5302 57.3477Z" fill="#2C394B"/>
<path d="M82.056 57.3477C82.056 57.6535 82.3329 57.9014 82.6745 57.9014C83.0161 57.9014 83.293 57.6535 83.293 57.3477C83.293 57.0419 83.0161 56.7939 82.6745 56.7939C82.3329 56.7939 82.056 57.0419 82.056 57.3477Z" fill="#2C394B"/>
<path d="M79.5824 57.3477C79.5824 57.6535 79.8593 57.9014 80.2009 57.9014C80.5424 57.9014 80.8193 57.6535 80.8193 57.3477C80.8193 57.0419 80.5424 56.7939 80.2009 56.7939C79.8593 56.7939 79.5824 57.0419 79.5824 57.3477Z" fill="#2C394B"/>
<path d="M77.1083 57.3477C77.1083 57.6535 77.3852 57.9014 77.7267 57.9014C78.0683 57.9014 78.3452 57.6535 78.3452 57.3477C78.3452 57.0419 78.0683 56.7939 77.7267 56.7939C77.3852 56.7939 77.1083 57.0419 77.1083 57.3477Z" fill="#2C394B"/>
<path d="M74.6346 57.3477C74.6346 57.6535 74.9115 57.9014 75.2531 57.9014C75.5947 57.9014 75.8716 57.6535 75.8716 57.3477C75.8716 57.0419 75.5947 56.7939 75.2531 56.7939C74.9115 56.7939 74.6346 57.0419 74.6346 57.3477Z" fill="#2C394B"/>
<path d="M72.1605 57.3477C72.1605 57.6535 72.4374 57.9014 72.779 57.9014C73.1206 57.9014 73.3975 57.6535 73.3975 57.3477C73.3975 57.0419 73.1206 56.7939 72.779 56.7939C72.4374 56.7939 72.1605 57.0419 72.1605 57.3477Z" fill="#2C394B"/>
<path d="M69.6869 57.3477C69.6869 57.6535 69.9638 57.9014 70.3054 57.9014C70.6469 57.9014 70.9238 57.6535 70.9238 57.3477C70.9238 57.0419 70.6469 56.7939 70.3054 56.7939C69.9638 56.7939 69.6869 57.0419 69.6869 57.3477Z" fill="#2C394B"/>
<path d="M67.2128 57.3477C67.2128 57.6535 67.4897 57.9014 67.8312 57.9014C68.1728 57.9014 68.4497 57.6535 68.4497 57.3477C68.4497 57.0419 68.1728 56.7939 67.8312 56.7939C67.4897 56.7939 67.2128 57.0419 67.2128 57.3477Z" fill="#2C394B"/>
<path d="M64.7391 57.3477C64.7391 57.6535 65.016 57.9014 65.3576 57.9014C65.6992 57.9014 65.9761 57.6535 65.9761 57.3477C65.9761 57.0419 65.6992 56.7939 65.3576 56.7939C65.016 56.7939 64.7391 57.0419 64.7391 57.3477Z" fill="#2C394B"/>
<path d="M62.265 57.3477C62.265 57.6535 62.5419 57.9014 62.8835 57.9014C63.2251 57.9014 63.502 57.6535 63.502 57.3477C63.502 57.0419 63.2251 56.7939 62.8835 56.7939C62.5419 56.7939 62.265 57.0419 62.265 57.3477Z" fill="#2C394B"/>
<path d="M59.7914 57.3477C59.7914 57.6535 60.0683 57.9014 60.4098 57.9014C60.7514 57.9014 61.0283 57.6535 61.0283 57.3477C61.0283 57.0419 60.7514 56.7939 60.4098 56.7939C60.0683 56.7939 59.7914 57.0419 59.7914 57.3477Z" fill="#2C394B"/>
<path d="M57.3172 57.3477C57.3172 57.6535 57.5941 57.9014 57.9357 57.9014C58.2773 57.9014 58.5542 57.6535 58.5542 57.3477C58.5542 57.0419 58.2773 56.7939 57.9357 56.7939C57.5941 56.7939 57.3172 57.0419 57.3172 57.3477Z" fill="#2C394B"/>
<path d="M54.8431 57.3477C54.8431 57.6535 55.12 57.9014 55.4616 57.9014C55.8032 57.9014 56.0801 57.6535 56.0801 57.3477C56.0801 57.0419 55.8032 56.7939 55.4616 56.7939C55.12 56.7939 54.8431 57.0419 54.8431 57.3477Z" fill="#2C394B"/>
<path d="M52.3695 57.3477C52.3695 57.6535 52.6464 57.9014 52.988 57.9014C53.3295 57.9014 53.6064 57.6535 53.6064 57.3477C53.6064 57.0419 53.3295 56.7939 52.988 56.7939C52.6464 56.7939 52.3695 57.0419 52.3695 57.3477Z" fill="#2C394B"/>
<path d="M49.8954 57.3477C49.8954 57.6535 50.1723 57.9014 50.5139 57.9014C50.8554 57.9014 51.1323 57.6535 51.1323 57.3477C51.1323 57.0419 50.8554 56.7939 50.5139 56.7939C50.1723 56.7939 49.8954 57.0419 49.8954 57.3477Z" fill="#2C394B"/>
<path d="M47.4217 57.3477C47.4217 57.6535 47.6986 57.9014 48.0402 57.9014C48.3818 57.9014 48.6587 57.6535 48.6587 57.3477C48.6587 57.0419 48.3818 56.7939 48.0402 56.7939C47.6986 56.7939 47.4217 57.0419 47.4217 57.3477Z" fill="#2C394B"/>
<path d="M44.9476 57.3477C44.9476 57.6535 45.2245 57.9014 45.5661 57.9014C45.9077 57.9014 46.1846 57.6535 46.1846 57.3477C46.1846 57.0419 45.9077 56.7939 45.5661 56.7939C45.2245 56.7939 44.9476 57.0419 44.9476 57.3477Z" fill="#2C394B"/>
<path d="M42.474 57.3477C42.474 57.6535 42.7509 57.9014 43.0925 57.9014C43.434 57.9014 43.7109 57.6535 43.7109 57.3477C43.7109 57.0419 43.434 56.7939 43.0925 56.7939C42.7509 56.7939 42.474 57.0419 42.474 57.3477Z" fill="#2C394B"/>
<path d="M39.9999 57.3477C39.9999 57.6535 40.2768 57.9014 40.6183 57.9014C40.9599 57.9014 41.2368 57.6535 41.2368 57.3477C41.2368 57.0419 40.9599 56.7939 40.6183 56.7939C40.2768 56.7939 39.9999 57.0419 39.9999 57.3477Z" fill="#2C394B"/>
<path d="M89.4779 59.5625C89.4779 59.8683 89.7548 60.1162 90.0964 60.1162C90.4379 60.1162 90.7148 59.8683 90.7148 59.5625C90.7148 59.2567 90.4379 59.0088 90.0964 59.0088C89.7548 59.0088 89.4779 59.2567 89.4779 59.5625Z" fill="#2C394B"/>
<path d="M87.0038 59.5625C87.0038 59.8683 87.2807 60.1162 87.6223 60.1162C87.9638 60.1162 88.2407 59.8683 88.2407 59.5625C88.2407 59.2567 87.9638 59.0088 87.6223 59.0088C87.2807 59.0088 87.0038 59.2567 87.0038 59.5625Z" fill="#2C394B"/>
<path d="M84.5302 59.5625C84.5302 59.8683 84.807 60.1162 85.1486 60.1162C85.4902 60.1162 85.7671 59.8683 85.7671 59.5625C85.7671 59.2567 85.4902 59.0088 85.1486 59.0088C84.807 59.0088 84.5302 59.2567 84.5302 59.5625Z" fill="#2C394B"/>
<path d="M82.056 59.5625C82.056 59.8683 82.3329 60.1162 82.6745 60.1162C83.0161 60.1162 83.293 59.8683 83.293 59.5625C83.293 59.2567 83.0161 59.0088 82.6745 59.0088C82.3329 59.0088 82.056 59.2567 82.056 59.5625Z" fill="#2C394B"/>
<path d="M79.5824 59.5625C79.5824 59.8683 79.8593 60.1162 80.2009 60.1162C80.5424 60.1162 80.8193 59.8683 80.8193 59.5625C80.8193 59.2567 80.5424 59.0088 80.2009 59.0088C79.8593 59.0088 79.5824 59.2567 79.5824 59.5625Z" fill="#2C394B"/>
<path d="M77.1083 59.5625C77.1083 59.8683 77.3852 60.1162 77.7267 60.1162C78.0683 60.1162 78.3452 59.8683 78.3452 59.5625C78.3452 59.2567 78.0683 59.0088 77.7267 59.0088C77.3852 59.0088 77.1083 59.2567 77.1083 59.5625Z" fill="#2C394B"/>
<path d="M74.6346 59.5625C74.6346 59.8683 74.9115 60.1162 75.2531 60.1162C75.5947 60.1162 75.8716 59.8683 75.8716 59.5625C75.8716 59.2567 75.5947 59.0088 75.2531 59.0088C74.9115 59.0088 74.6346 59.2567 74.6346 59.5625Z" fill="#2C394B"/>
<path d="M72.1605 59.5625C72.1605 59.8683 72.4374 60.1162 72.779 60.1162C73.1206 60.1162 73.3975 59.8683 73.3975 59.5625C73.3975 59.2567 73.1206 59.0088 72.779 59.0088C72.4374 59.0088 72.1605 59.2567 72.1605 59.5625Z" fill="#2C394B"/>
<path d="M69.6869 59.5625C69.6869 59.8683 69.9638 60.1162 70.3054 60.1162C70.6469 60.1162 70.9238 59.8683 70.9238 59.5625C70.9238 59.2567 70.6469 59.0088 70.3054 59.0088C69.9638 59.0088 69.6869 59.2567 69.6869 59.5625Z" fill="#2C394B"/>
<path d="M67.2128 59.5625C67.2128 59.8683 67.4897 60.1162 67.8312 60.1162C68.1728 60.1162 68.4497 59.8683 68.4497 59.5625C68.4497 59.2567 68.1728 59.0088 67.8312 59.0088C67.4897 59.0088 67.2128 59.2567 67.2128 59.5625Z" fill="#2C394B"/>
<path d="M64.7391 59.5625C64.7391 59.8683 65.016 60.1162 65.3576 60.1162C65.6992 60.1162 65.9761 59.8683 65.9761 59.5625C65.9761 59.2567 65.6992 59.0088 65.3576 59.0088C65.016 59.0088 64.7391 59.2567 64.7391 59.5625Z" fill="#2C394B"/>
<path d="M62.265 59.5625C62.265 59.8683 62.5419 60.1162 62.8835 60.1162C63.2251 60.1162 63.502 59.8683 63.502 59.5625C63.502 59.2567 63.2251 59.0088 62.8835 59.0088C62.5419 59.0088 62.265 59.2567 62.265 59.5625Z" fill="#2C394B"/>
<path d="M59.7914 59.5625C59.7914 59.8683 60.0683 60.1162 60.4098 60.1162C60.7514 60.1162 61.0283 59.8683 61.0283 59.5625C61.0283 59.2567 60.7514 59.0088 60.4098 59.0088C60.0683 59.0088 59.7914 59.2567 59.7914 59.5625Z" fill="#2C394B"/>
<path d="M57.3172 59.5625C57.3172 59.8683 57.5941 60.1162 57.9357 60.1162C58.2773 60.1162 58.5542 59.8683 58.5542 59.5625C58.5542 59.2567 58.2773 59.0088 57.9357 59.0088C57.5941 59.0088 57.3172 59.2567 57.3172 59.5625Z" fill="#2C394B"/>
<path d="M54.8431 59.5625C54.8431 59.8683 55.12 60.1162 55.4616 60.1162C55.8032 60.1162 56.0801 59.8683 56.0801 59.5625C56.0801 59.2567 55.8032 59.0088 55.4616 59.0088C55.12 59.0088 54.8431 59.2567 54.8431 59.5625Z" fill="#2C394B"/>
<path d="M52.3695 59.5625C52.3695 59.8683 52.6464 60.1162 52.988 60.1162C53.3295 60.1162 53.6064 59.8683 53.6064 59.5625C53.6064 59.2567 53.3295 59.0088 52.988 59.0088C52.6464 59.0088 52.3695 59.2567 52.3695 59.5625Z" fill="#2C394B"/>
<path d="M49.8954 59.5625C49.8954 59.8683 50.1723 60.1162 50.5139 60.1162C50.8554 60.1162 51.1323 59.8683 51.1323 59.5625C51.1323 59.2567 50.8554 59.0088 50.5139 59.0088C50.1723 59.0088 49.8954 59.2567 49.8954 59.5625Z" fill="#2C394B"/>
<path d="M47.4217 59.5625C47.4217 59.8683 47.6986 60.1162 48.0402 60.1162C48.3818 60.1162 48.6587 59.8683 48.6587 59.5625C48.6587 59.2567 48.3818 59.0088 48.0402 59.0088C47.6986 59.0088 47.4217 59.2567 47.4217 59.5625Z" fill="#2C394B"/>
<path d="M44.9476 59.5625C44.9476 59.8683 45.2245 60.1162 45.5661 60.1162C45.9077 60.1162 46.1846 59.8683 46.1846 59.5625C46.1846 59.2567 45.9077 59.0088 45.5661 59.0088C45.2245 59.0088 44.9476 59.2567 44.9476 59.5625Z" fill="#2C394B"/>
<path d="M42.474 59.5625C42.474 59.8683 42.7509 60.1162 43.0925 60.1162C43.434 60.1162 43.7109 59.8683 43.7109 59.5625C43.7109 59.2567 43.434 59.0088 43.0925 59.0088C42.7509 59.0088 42.474 59.2567 42.474 59.5625Z" fill="#2C394B"/>
<path d="M16 79L22.6852 60L26.8971 48.0294L42.3824 40H55H67.6176L82.5294 48.0294L94 79L74.5 68.6765L55 79L36.6471 68.6765L16 79Z" fill="#E2EEFF"/>
<path fill-rule="evenodd" clip-rule="evenodd" d="M67.7438 39.5H42.2605L26.4912 47.6767L15.1182 80L36.6333 69.2424L54.9928 79.5696L74.5 69.2422L94.9239 80.0549L82.9328 47.6787L67.7438 39.5ZM54.5 78.1451L37.2086 68.4186L42.7923 40.5H54.5V78.1451ZM36.2048 68.3386L41.6878 40.9234L40.3638 41.6099L25.4557 53.6326L16.8819 78L36.2048 68.3386ZM55.5 78.1695V40.5H67.2235L73.9233 68.416L55.5 78.1695ZM82.1262 48.3801L68.3647 40.9701L74.9335 68.3402L93.0762 77.9451L82.1262 48.3801Z" fill="#2C394B"/>
<path fill-rule="evenodd" clip-rule="evenodd" d="M55.5 62C62.9 62 74 38.3825 74 27.9286C74 17.4746 65.7173 9 55.5 9C45.2827 9 37 17.4746 37 27.9286C37 38.3825 46.8667 62 55.5 62ZM55.5 34.2381C58.9058 34.2381 61.6667 31.4132 61.6667 27.9286C61.6667 24.4439 58.9058 21.619 55.5 21.619C52.0942 21.619 49.3333 24.4439 49.3333 27.9286C49.3333 31.4132 52.0942 34.2381 55.5 34.2381Z" fill="#F6E049"/>
<path d="M10.6851 61.6851C10.4894 61.8808 10.1722 61.8808 9.97648 61.6851L7.5617 59.2703C7.36602 59.0747 7.36602 58.7574 7.5617 58.5617C7.75738 58.366 8.07465 58.366 8.27033 58.5617L10.6851 60.9765C10.8808 61.1722 10.8808 61.4894 10.6851 61.6851ZM8.27034 61.6851C8.07466 61.8808 7.75739 61.8808 7.56171 61.6851C7.36602 61.4894 7.36602 61.1722 7.56171 60.9765L9.97647 58.5617C10.1722 58.366 10.4894 58.366 10.6851 58.5617C10.8808 58.7574 10.8808 59.0747 10.6851 59.2704L8.27034 61.6851Z" fill="#2C394B"/>
<path d="M93.6456 17.6456C93.4516 17.8396 93.137 17.8396 92.943 17.6456L90.5485 15.2512C90.3545 15.0571 90.3545 14.7425 90.5485 14.5485C90.7426 14.3545 91.0572 14.3545 91.2512 14.5485L93.6456 16.9429C93.8396 17.137 93.8396 17.4516 93.6456 17.6456ZM91.2512 17.6456C91.0572 17.8396 90.7426 17.8396 90.5485 17.6456C90.3545 17.4516 90.3545 17.137 90.5485 16.9429L92.9429 14.5485C93.137 14.3545 93.4516 14.3545 93.6456 14.5485C93.8396 14.7426 93.8396 15.0571 93.6456 15.2512L91.2512 17.6456Z" fill="#2C394B"/>
<path fill-rule="evenodd" clip-rule="evenodd" d="M71.1959 37.3631C72.3393 33.7196 73 30.3949 73 27.9286C73 18.0052 65.1435 10 55.5 10C45.8565 10 38 18.0052 38 27.9286C38 32.9398 40.3969 41.299 43.9099 48.4433C45.6599 52.0022 47.6551 55.193 49.7106 57.4776C51.8014 59.8015 53.7838 61 55.5 61C56.1609 61 56.9524 60.7336 57.8696 60.1296C58.7816 59.529 59.7556 58.6352 60.7601 57.4878C62.7687 55.1932 64.8069 51.9915 66.6353 48.428C68.4605 44.8708 70.0573 40.991 71.1959 37.3631ZM62.6667 27.9286C62.6667 31.9438 59.4795 35.2381 55.5 35.2381C51.5205 35.2381 48.3333 31.9438 48.3333 27.9286C48.3333 23.9133 51.5205 20.619 55.5 20.619C59.4795 20.619 62.6667 23.9133 62.6667 27.9286ZM74 27.9286C74 38.3825 62.9 62 55.5 62C46.8667 62 37 38.3825 37 27.9286C37 17.4746 45.2827 9 55.5 9C65.7173 9 74 17.4746 74 27.9286ZM61.6667 27.9286C61.6667 31.4132 58.9058 34.2381 55.5 34.2381C52.0942 34.2381 49.3333 31.4132 49.3333 27.9286C49.3333 24.4439 52.0942 21.619 55.5 21.619C58.9058 21.619 61.6667 24.4439 61.6667 27.9286Z" fill="#2C394B"/>
<g filter="url(#filter0_b_250_13211)">
<path d="M5.42235 9.16572C5.42235 7.50887 6.76549 6.16573 8.42235 6.16573L34.2917 6.16573C36.9947 6.16572 38.3191 9.45989 36.3683 11.3309L10.4989 36.1416C8.59168 37.9708 5.42234 36.6191 5.42234 33.9764L5.42235 9.16572Z" fill="#F7F7F7" fill-opacity="0.2"/>
<path d="M5.92235 9.16572C5.92235 7.78501 7.04163 6.66573 8.42235 6.66573L34.2917 6.66573C36.5442 6.66572 37.6479 9.41086 36.0222 10.97L10.1528 35.7807C8.56346 37.3051 5.92234 36.1786 5.92234 33.9764L5.92235 9.16572Z" stroke="#EBEBEB"/>
</g>
<circle cx="19.606" cy="27.606" r="7.5" fill="#2C394B"/>
<path d="M24.854 22.2479C23.4329 20.8561 21.5171 20.0858 19.5281 20.1064C17.5391 20.1271 15.6398 20.937 14.2479 22.3581C12.8561 23.7791 12.0858 25.6949 12.1064 27.6839C12.1271 29.6729 12.937 31.5723 14.3581 32.9641L19.606 27.606L24.854 22.2479Z" fill="#74B9FF"/>
<path d="M11.7035 11.7035C11.5906 11.8164 11.4075 11.8164 11.2946 11.7035L9.90116 10.3101C9.78824 10.1971 9.78824 10.0141 9.90116 9.90115C10.0141 9.78823 10.1972 9.78823 10.3101 9.90115L11.7035 11.2946C11.8164 11.4075 11.8164 11.5906 11.7035 11.7035ZM10.3101 11.7035C10.1972 11.8164 10.0141 11.8164 9.90116 11.7035C9.78825 11.5906 9.78825 11.4075 9.90116 11.2946L11.2946 9.90115C11.4075 9.78823 11.5906 9.78823 11.7035 9.90115C11.8164 10.0141 11.8164 10.1971 11.7035 10.3101L10.3101 11.7035Z" fill="#2C394B"/>
</g>
<defs>
<filter id="filter0_b_250_13211" x="3.42236" y="4.16571" width="35.8755" height="34.8167" filterUnits="userSpaceOnUse" color-interpolation-filters="sRGB">
<feFlood flood-opacity="0" result="BackgroundImageFix"/>
<feGaussianBlur in="BackgroundImage" stdDeviation="1"/>
<feComposite in2="SourceAlpha" operator="in" result="effect1_backgroundBlur_250_13211"/>
<feBlend mode="normal" in="SourceGraphic" in2="effect1_backgroundBlur_250_13211" result="shape"/>
</filter>
<clipPath id="clip0_250_13211">
<rect width="113" height="83.2632" fill="white"/>
</clipPath>
</defs>
</svg>
