<svg width="113" height="84" viewBox="0 0 113 84" fill="none" xmlns="http://www.w3.org/2000/svg">
<g clip-path="url(#clip0_250_12884)">
<path d="M56.8584 39.7037C56.8584 40.0923 56.5007 40.4074 56.0593 40.4074C55.618 40.4074 55.2603 40.0923 55.2603 39.7037C55.2603 39.3151 55.618 39 56.0593 39C56.5007 39 56.8584 39.3151 56.8584 39.7037Z" fill="#2C394B"/>
<path d="M60.0547 39.7037C60.0547 40.0923 59.6969 40.4074 59.2556 40.4074C58.8143 40.4074 58.4565 40.0923 58.4565 39.7037C58.4565 39.3151 58.8143 39 59.2556 39C59.6969 39 60.0547 39.3151 60.0547 39.7037Z" fill="#2C394B"/>
<path d="M63.251 39.7037C63.251 40.0923 62.8932 40.4074 62.4519 40.4074C62.0106 40.4074 61.6528 40.0923 61.6528 39.7037C61.6528 39.3151 62.0106 39 62.4519 39C62.8932 39 63.251 39.3151 63.251 39.7037Z" fill="#2C394B"/>
<path d="M66.4473 39.7037C66.4473 40.0923 66.0895 40.4074 65.6482 40.4074C65.2069 40.4074 64.8491 40.0923 64.8491 39.7037C64.8491 39.3151 65.2069 39 65.6482 39C66.0895 39 66.4473 39.3151 66.4473 39.7037Z" fill="#2C394B"/>
<path d="M69.6436 39.7037C69.6436 40.0923 69.2858 40.4074 68.8445 40.4074C68.4032 40.4074 68.0454 40.0923 68.0454 39.7037C68.0454 39.3151 68.4032 39 68.8445 39C69.2858 39 69.6436 39.3151 69.6436 39.7037Z" fill="#2C394B"/>
<path d="M72.8399 39.7037C72.8399 40.0923 72.4821 40.4074 72.0408 40.4074C71.5995 40.4074 71.2417 40.0923 71.2417 39.7037C71.2417 39.3151 71.5995 39 72.0408 39C72.4821 39 72.8399 39.3151 72.8399 39.7037Z" fill="#2C394B"/>
<path d="M76.0362 39.7037C76.0362 40.0923 75.6784 40.4074 75.2371 40.4074C74.7958 40.4074 74.438 40.0923 74.438 39.7037C74.438 39.3151 74.7958 39 75.2371 39C75.6784 39 76.0362 39.3151 76.0362 39.7037Z" fill="#2C394B"/>
<path d="M79.2325 39.7037C79.2325 40.0923 78.8747 40.4074 78.4334 40.4074C77.992 40.4074 77.6343 40.0923 77.6343 39.7037C77.6343 39.3151 77.992 39 78.4334 39C78.8747 39 79.2325 39.3151 79.2325 39.7037Z" fill="#2C394B"/>
<path d="M82.4292 39.7037C82.4292 40.0923 82.0715 40.4074 81.6301 40.4074C81.1888 40.4074 80.8311 40.0923 80.8311 39.7037C80.8311 39.3151 81.1888 39 81.6301 39C82.0715 39 82.4292 39.3151 82.4292 39.7037Z" fill="#2C394B"/>
<path d="M85.6255 39.7037C85.6255 40.0923 85.2678 40.4074 84.8264 40.4074C84.3851 40.4074 84.0273 40.0923 84.0273 39.7037C84.0273 39.3151 84.3851 39 84.8264 39C85.2678 39 85.6255 39.3151 85.6255 39.7037Z" fill="#2C394B"/>
<path d="M88.8218 39.7037C88.8218 40.0923 88.464 40.4074 88.0227 40.4074C87.5814 40.4074 87.2236 40.0923 87.2236 39.7037C87.2236 39.3151 87.5814 39 88.0227 39C88.464 39 88.8218 39.3151 88.8218 39.7037Z" fill="#2C394B"/>
<path d="M56.8584 42.5185C56.8584 42.9071 56.5007 43.2222 56.0593 43.2222C55.618 43.2222 55.2603 42.9071 55.2603 42.5185C55.2603 42.1298 55.618 41.8148 56.0593 41.8148C56.5007 41.8148 56.8584 42.1298 56.8584 42.5185Z" fill="#2C394B"/>
<path d="M60.0547 42.5185C60.0547 42.9071 59.6969 43.2222 59.2556 43.2222C58.8143 43.2222 58.4565 42.9071 58.4565 42.5185C58.4565 42.1298 58.8143 41.8148 59.2556 41.8148C59.6969 41.8148 60.0547 42.1298 60.0547 42.5185Z" fill="#2C394B"/>
<path d="M63.251 42.5185C63.251 42.9071 62.8932 43.2222 62.4519 43.2222C62.0106 43.2222 61.6528 42.9071 61.6528 42.5185C61.6528 42.1298 62.0106 41.8148 62.4519 41.8148C62.8932 41.8148 63.251 42.1298 63.251 42.5185Z" fill="#2C394B"/>
<path d="M66.4473 42.5185C66.4473 42.9071 66.0895 43.2222 65.6482 43.2222C65.2069 43.2222 64.8491 42.9071 64.8491 42.5185C64.8491 42.1298 65.2069 41.8148 65.6482 41.8148C66.0895 41.8148 66.4473 42.1298 66.4473 42.5185Z" fill="#2C394B"/>
<path d="M69.6436 42.5185C69.6436 42.9071 69.2858 43.2222 68.8445 43.2222C68.4032 43.2222 68.0454 42.9071 68.0454 42.5185C68.0454 42.1298 68.4032 41.8148 68.8445 41.8148C69.2858 41.8148 69.6436 42.1298 69.6436 42.5185Z" fill="#2C394B"/>
<path d="M72.8399 42.5185C72.8399 42.9071 72.4821 43.2222 72.0408 43.2222C71.5995 43.2222 71.2417 42.9071 71.2417 42.5185C71.2417 42.1298 71.5995 41.8148 72.0408 41.8148C72.4821 41.8148 72.8399 42.1298 72.8399 42.5185Z" fill="#2C394B"/>
<path d="M76.0362 42.5185C76.0362 42.9071 75.6784 43.2222 75.2371 43.2222C74.7958 43.2222 74.438 42.9071 74.438 42.5185C74.438 42.1298 74.7958 41.8148 75.2371 41.8148C75.6784 41.8148 76.0362 42.1298 76.0362 42.5185Z" fill="#2C394B"/>
<path d="M79.2325 42.5185C79.2325 42.9071 78.8747 43.2222 78.4334 43.2222C77.992 43.2222 77.6343 42.9071 77.6343 42.5185C77.6343 42.1298 77.992 41.8148 78.4334 41.8148C78.8747 41.8148 79.2325 42.1298 79.2325 42.5185Z" fill="#2C394B"/>
<path d="M82.4292 42.5185C82.4292 42.9071 82.0715 43.2222 81.6301 43.2222C81.1888 43.2222 80.8311 42.9071 80.8311 42.5185C80.8311 42.1298 81.1888 41.8148 81.6301 41.8148C82.0715 41.8148 82.4292 42.1298 82.4292 42.5185Z" fill="#2C394B"/>
<path d="M85.6255 42.5185C85.6255 42.9071 85.2678 43.2222 84.8264 43.2222C84.3851 43.2222 84.0273 42.9071 84.0273 42.5185C84.0273 42.1298 84.3851 41.8148 84.8264 41.8148C85.2678 41.8148 85.6255 42.1298 85.6255 42.5185Z" fill="#2C394B"/>
<path d="M88.8218 42.5185C88.8218 42.9071 88.464 43.2222 88.0227 43.2222C87.5814 43.2222 87.2236 42.9071 87.2236 42.5185C87.2236 42.1298 87.5814 41.8148 88.0227 41.8148C88.464 41.8148 88.8218 42.1298 88.8218 42.5185Z" fill="#2C394B"/>
<path d="M92.0181 42.5185C92.0181 42.9071 91.6603 43.2222 91.219 43.2222C90.7777 43.2222 90.4199 42.9071 90.4199 42.5185C90.4199 42.1298 90.7777 41.8148 91.219 41.8148C91.6603 41.8148 92.0181 42.1298 92.0181 42.5185Z" fill="#2C394B"/>
<path d="M56.8584 45.3332C56.8584 45.7218 56.5007 46.0369 56.0593 46.0369C55.618 46.0369 55.2603 45.7218 55.2603 45.3332C55.2603 44.9446 55.618 44.6295 56.0593 44.6295C56.5007 44.6295 56.8584 44.9446 56.8584 45.3332Z" fill="#2C394B"/>
<path d="M60.0547 45.3332C60.0547 45.7218 59.6969 46.0369 59.2556 46.0369C58.8143 46.0369 58.4565 45.7218 58.4565 45.3332C58.4565 44.9446 58.8143 44.6295 59.2556 44.6295C59.6969 44.6295 60.0547 44.9446 60.0547 45.3332Z" fill="#2C394B"/>
<path d="M63.251 45.3332C63.251 45.7218 62.8932 46.0369 62.4519 46.0369C62.0106 46.0369 61.6528 45.7218 61.6528 45.3332C61.6528 44.9446 62.0106 44.6295 62.4519 44.6295C62.8932 44.6295 63.251 44.9446 63.251 45.3332Z" fill="#2C394B"/>
<path d="M66.4473 45.3332C66.4473 45.7218 66.0895 46.0369 65.6482 46.0369C65.2069 46.0369 64.8491 45.7218 64.8491 45.3332C64.8491 44.9446 65.2069 44.6295 65.6482 44.6295C66.0895 44.6295 66.4473 44.9446 66.4473 45.3332Z" fill="#2C394B"/>
<path d="M69.6436 45.3332C69.6436 45.7218 69.2858 46.0369 68.8445 46.0369C68.4032 46.0369 68.0454 45.7218 68.0454 45.3332C68.0454 44.9446 68.4032 44.6295 68.8445 44.6295C69.2858 44.6295 69.6436 44.9446 69.6436 45.3332Z" fill="#2C394B"/>
<path d="M72.8399 45.3332C72.8399 45.7218 72.4821 46.0369 72.0408 46.0369C71.5995 46.0369 71.2417 45.7218 71.2417 45.3332C71.2417 44.9446 71.5995 44.6295 72.0408 44.6295C72.4821 44.6295 72.8399 44.9446 72.8399 45.3332Z" fill="#2C394B"/>
<path d="M76.0362 45.3332C76.0362 45.7218 75.6784 46.0369 75.2371 46.0369C74.7958 46.0369 74.438 45.7218 74.438 45.3332C74.438 44.9446 74.7958 44.6295 75.2371 44.6295C75.6784 44.6295 76.0362 44.9446 76.0362 45.3332Z" fill="#2C394B"/>
<path d="M79.2325 45.3332C79.2325 45.7218 78.8747 46.0369 78.4334 46.0369C77.992 46.0369 77.6343 45.7218 77.6343 45.3332C77.6343 44.9446 77.992 44.6295 78.4334 44.6295C78.8747 44.6295 79.2325 44.9446 79.2325 45.3332Z" fill="#2C394B"/>
<path d="M82.4292 45.3332C82.4292 45.7218 82.0715 46.0369 81.6301 46.0369C81.1888 46.0369 80.8311 45.7218 80.8311 45.3332C80.8311 44.9446 81.1888 44.6295 81.6301 44.6295C82.0715 44.6295 82.4292 44.9446 82.4292 45.3332Z" fill="#2C394B"/>
<path d="M85.6255 45.3332C85.6255 45.7218 85.2678 46.0369 84.8264 46.0369C84.3851 46.0369 84.0273 45.7218 84.0273 45.3332C84.0273 44.9446 84.3851 44.6295 84.8264 44.6295C85.2678 44.6295 85.6255 44.9446 85.6255 45.3332Z" fill="#2C394B"/>
<path d="M88.8218 45.3332C88.8218 45.7218 88.464 46.0369 88.0227 46.0369C87.5814 46.0369 87.2236 45.7218 87.2236 45.3332C87.2236 44.9446 87.5814 44.6295 88.0227 44.6295C88.464 44.6295 88.8218 44.9446 88.8218 45.3332Z" fill="#2C394B"/>
<path d="M92.0181 45.3332C92.0181 45.7218 91.6603 46.0369 91.219 46.0369C90.7777 46.0369 90.4199 45.7218 90.4199 45.3332C90.4199 44.9446 90.7777 44.6295 91.219 44.6295C91.6603 44.6295 92.0181 44.9446 92.0181 45.3332Z" fill="#2C394B"/>
<path d="M95.2144 45.3332C95.2144 45.7218 94.8566 46.0369 94.4153 46.0369C93.974 46.0369 93.6162 45.7218 93.6162 45.3332C93.6162 44.9446 93.974 44.6295 94.4153 44.6295C94.8566 44.6295 95.2144 44.9446 95.2144 45.3332Z" fill="#2C394B"/>
<path d="M56.8584 48.148C56.8584 48.5367 56.5007 48.8517 56.0593 48.8517C55.618 48.8517 55.2603 48.5367 55.2603 48.148C55.2603 47.7594 55.618 47.4443 56.0593 47.4443C56.5007 47.4443 56.8584 47.7594 56.8584 48.148Z" fill="#2C394B"/>
<path d="M60.0547 48.148C60.0547 48.5367 59.6969 48.8517 59.2556 48.8517C58.8143 48.8517 58.4565 48.5367 58.4565 48.148C58.4565 47.7594 58.8143 47.4443 59.2556 47.4443C59.6969 47.4443 60.0547 47.7594 60.0547 48.148Z" fill="#2C394B"/>
<path d="M63.251 48.148C63.251 48.5367 62.8932 48.8517 62.4519 48.8517C62.0106 48.8517 61.6528 48.5367 61.6528 48.148C61.6528 47.7594 62.0106 47.4443 62.4519 47.4443C62.8932 47.4443 63.251 47.7594 63.251 48.148Z" fill="#2C394B"/>
<path d="M66.4473 48.148C66.4473 48.5367 66.0895 48.8517 65.6482 48.8517C65.2069 48.8517 64.8491 48.5367 64.8491 48.148C64.8491 47.7594 65.2069 47.4443 65.6482 47.4443C66.0895 47.4443 66.4473 47.7594 66.4473 48.148Z" fill="#2C394B"/>
<path d="M69.6436 48.148C69.6436 48.5367 69.2858 48.8517 68.8445 48.8517C68.4032 48.8517 68.0454 48.5367 68.0454 48.148C68.0454 47.7594 68.4032 47.4443 68.8445 47.4443C69.2858 47.4443 69.6436 47.7594 69.6436 48.148Z" fill="#2C394B"/>
<path d="M72.8399 48.148C72.8399 48.5367 72.4821 48.8517 72.0408 48.8517C71.5995 48.8517 71.2417 48.5367 71.2417 48.148C71.2417 47.7594 71.5995 47.4443 72.0408 47.4443C72.4821 47.4443 72.8399 47.7594 72.8399 48.148Z" fill="#2C394B"/>
<path d="M76.0362 48.148C76.0362 48.5367 75.6784 48.8517 75.2371 48.8517C74.7958 48.8517 74.438 48.5367 74.438 48.148C74.438 47.7594 74.7958 47.4443 75.2371 47.4443C75.6784 47.4443 76.0362 47.7594 76.0362 48.148Z" fill="#2C394B"/>
<path d="M79.2325 48.148C79.2325 48.5367 78.8747 48.8517 78.4334 48.8517C77.992 48.8517 77.6343 48.5367 77.6343 48.148C77.6343 47.7594 77.992 47.4443 78.4334 47.4443C78.8747 47.4443 79.2325 47.7594 79.2325 48.148Z" fill="#2C394B"/>
<path d="M82.4292 48.148C82.4292 48.5367 82.0715 48.8517 81.6301 48.8517C81.1888 48.8517 80.8311 48.5367 80.8311 48.148C80.8311 47.7594 81.1888 47.4443 81.6301 47.4443C82.0715 47.4443 82.4292 47.7594 82.4292 48.148Z" fill="#2C394B"/>
<path d="M85.6255 48.148C85.6255 48.5367 85.2678 48.8517 84.8264 48.8517C84.3851 48.8517 84.0273 48.5367 84.0273 48.148C84.0273 47.7594 84.3851 47.4443 84.8264 47.4443C85.2678 47.4443 85.6255 47.7594 85.6255 48.148Z" fill="#2C394B"/>
<path d="M88.8218 48.148C88.8218 48.5367 88.464 48.8517 88.0227 48.8517C87.5814 48.8517 87.2236 48.5367 87.2236 48.148C87.2236 47.7594 87.5814 47.4443 88.0227 47.4443C88.464 47.4443 88.8218 47.7594 88.8218 48.148Z" fill="#2C394B"/>
<path d="M92.0181 48.148C92.0181 48.5367 91.6603 48.8517 91.219 48.8517C90.7777 48.8517 90.4199 48.5367 90.4199 48.148C90.4199 47.7594 90.7777 47.4443 91.219 47.4443C91.6603 47.4443 92.0181 47.7594 92.0181 48.148Z" fill="#2C394B"/>
<path d="M95.2144 48.148C95.2144 48.5367 94.8566 48.8517 94.4153 48.8517C93.974 48.8517 93.6162 48.5367 93.6162 48.148C93.6162 47.7594 93.974 47.4443 94.4153 47.4443C94.8566 47.4443 95.2144 47.7594 95.2144 48.148Z" fill="#2C394B"/>
<path d="M98.4107 48.148C98.4107 48.5367 98.0529 48.8517 97.6116 48.8517C97.1703 48.8517 96.8125 48.5367 96.8125 48.148C96.8125 47.7594 97.1703 47.4443 97.6116 47.4443C98.0529 47.4443 98.4107 47.7594 98.4107 48.148Z" fill="#2C394B"/>
<path d="M56.8584 50.9628C56.8584 51.3514 56.5007 51.6665 56.0593 51.6665C55.618 51.6665 55.2603 51.3514 55.2603 50.9628C55.2603 50.5741 55.618 50.2591 56.0593 50.2591C56.5007 50.2591 56.8584 50.5741 56.8584 50.9628Z" fill="#2C394B"/>
<path d="M60.0547 50.9628C60.0547 51.3514 59.6969 51.6665 59.2556 51.6665C58.8143 51.6665 58.4565 51.3514 58.4565 50.9628C58.4565 50.5741 58.8143 50.2591 59.2556 50.2591C59.6969 50.2591 60.0547 50.5741 60.0547 50.9628Z" fill="#2C394B"/>
<path d="M63.251 50.9628C63.251 51.3514 62.8932 51.6665 62.4519 51.6665C62.0106 51.6665 61.6528 51.3514 61.6528 50.9628C61.6528 50.5741 62.0106 50.2591 62.4519 50.2591C62.8932 50.2591 63.251 50.5741 63.251 50.9628Z" fill="#2C394B"/>
<path d="M66.4473 50.9628C66.4473 51.3514 66.0895 51.6665 65.6482 51.6665C65.2069 51.6665 64.8491 51.3514 64.8491 50.9628C64.8491 50.5741 65.2069 50.2591 65.6482 50.2591C66.0895 50.2591 66.4473 50.5741 66.4473 50.9628Z" fill="#2C394B"/>
<path d="M69.6436 50.9628C69.6436 51.3514 69.2858 51.6665 68.8445 51.6665C68.4032 51.6665 68.0454 51.3514 68.0454 50.9628C68.0454 50.5741 68.4032 50.2591 68.8445 50.2591C69.2858 50.2591 69.6436 50.5741 69.6436 50.9628Z" fill="#2C394B"/>
<path d="M72.8399 50.9628C72.8399 51.3514 72.4821 51.6665 72.0408 51.6665C71.5995 51.6665 71.2417 51.3514 71.2417 50.9628C71.2417 50.5741 71.5995 50.2591 72.0408 50.2591C72.4821 50.2591 72.8399 50.5741 72.8399 50.9628Z" fill="#2C394B"/>
<path d="M76.0362 50.9628C76.0362 51.3514 75.6784 51.6665 75.2371 51.6665C74.7958 51.6665 74.438 51.3514 74.438 50.9628C74.438 50.5741 74.7958 50.2591 75.2371 50.2591C75.6784 50.2591 76.0362 50.5741 76.0362 50.9628Z" fill="#2C394B"/>
<path d="M79.2325 50.9628C79.2325 51.3514 78.8747 51.6665 78.4334 51.6665C77.992 51.6665 77.6343 51.3514 77.6343 50.9628C77.6343 50.5741 77.992 50.2591 78.4334 50.2591C78.8747 50.2591 79.2325 50.5741 79.2325 50.9628Z" fill="#2C394B"/>
<path d="M82.4292 50.9628C82.4292 51.3514 82.0715 51.6665 81.6301 51.6665C81.1888 51.6665 80.8311 51.3514 80.8311 50.9628C80.8311 50.5741 81.1888 50.2591 81.6301 50.2591C82.0715 50.2591 82.4292 50.5741 82.4292 50.9628Z" fill="#2C394B"/>
<path d="M85.6255 50.9628C85.6255 51.3514 85.2678 51.6665 84.8264 51.6665C84.3851 51.6665 84.0273 51.3514 84.0273 50.9628C84.0273 50.5741 84.3851 50.2591 84.8264 50.2591C85.2678 50.2591 85.6255 50.5741 85.6255 50.9628Z" fill="#2C394B"/>
<path d="M88.8218 50.9628C88.8218 51.3514 88.464 51.6665 88.0227 51.6665C87.5814 51.6665 87.2236 51.3514 87.2236 50.9628C87.2236 50.5741 87.5814 50.2591 88.0227 50.2591C88.464 50.2591 88.8218 50.5741 88.8218 50.9628Z" fill="#2C394B"/>
<path d="M92.0181 50.9628C92.0181 51.3514 91.6603 51.6665 91.219 51.6665C90.7777 51.6665 90.4199 51.3514 90.4199 50.9628C90.4199 50.5741 90.7777 50.2591 91.219 50.2591C91.6603 50.2591 92.0181 50.5741 92.0181 50.9628Z" fill="#2C394B"/>
<path d="M95.2144 50.9628C95.2144 51.3514 94.8566 51.6665 94.4153 51.6665C93.974 51.6665 93.6162 51.3514 93.6162 50.9628C93.6162 50.5741 93.974 50.2591 94.4153 50.2591C94.8566 50.2591 95.2144 50.5741 95.2144 50.9628Z" fill="#2C394B"/>
<path d="M98.4107 50.9628C98.4107 51.3514 98.0529 51.6665 97.6116 51.6665C97.1703 51.6665 96.8125 51.3514 96.8125 50.9628C96.8125 50.5741 97.1703 50.2591 97.6116 50.2591C98.0529 50.2591 98.4107 50.5741 98.4107 50.9628Z" fill="#2C394B"/>
<path d="M101.607 50.9628C101.607 51.3514 101.25 51.6665 100.808 51.6665C100.367 51.6665 100.009 51.3514 100.009 50.9628C100.009 50.5741 100.367 50.2591 100.808 50.2591C101.25 50.2591 101.607 50.5741 101.607 50.9628Z" fill="#2C394B"/>
<path d="M56.8584 53.7775C56.8584 54.1662 56.5007 54.4812 56.0593 54.4812C55.618 54.4812 55.2603 54.1662 55.2603 53.7775C55.2603 53.3889 55.618 53.0739 56.0593 53.0739C56.5007 53.0739 56.8584 53.3889 56.8584 53.7775Z" fill="#2C394B"/>
<path d="M60.0547 53.7775C60.0547 54.1662 59.6969 54.4812 59.2556 54.4812C58.8143 54.4812 58.4565 54.1662 58.4565 53.7775C58.4565 53.3889 58.8143 53.0739 59.2556 53.0739C59.6969 53.0739 60.0547 53.3889 60.0547 53.7775Z" fill="#2C394B"/>
<path d="M63.251 53.7775C63.251 54.1662 62.8932 54.4812 62.4519 54.4812C62.0106 54.4812 61.6528 54.1662 61.6528 53.7775C61.6528 53.3889 62.0106 53.0739 62.4519 53.0739C62.8932 53.0739 63.251 53.3889 63.251 53.7775Z" fill="#2C394B"/>
<path d="M66.4473 53.7775C66.4473 54.1662 66.0895 54.4812 65.6482 54.4812C65.2069 54.4812 64.8491 54.1662 64.8491 53.7775C64.8491 53.3889 65.2069 53.0739 65.6482 53.0739C66.0895 53.0739 66.4473 53.3889 66.4473 53.7775Z" fill="#2C394B"/>
<path d="M69.6436 53.7775C69.6436 54.1662 69.2858 54.4812 68.8445 54.4812C68.4032 54.4812 68.0454 54.1662 68.0454 53.7775C68.0454 53.3889 68.4032 53.0739 68.8445 53.0739C69.2858 53.0739 69.6436 53.3889 69.6436 53.7775Z" fill="#2C394B"/>
<path d="M72.8399 53.7775C72.8399 54.1662 72.4821 54.4812 72.0408 54.4812C71.5995 54.4812 71.2417 54.1662 71.2417 53.7775C71.2417 53.3889 71.5995 53.0739 72.0408 53.0739C72.4821 53.0739 72.8399 53.3889 72.8399 53.7775Z" fill="#2C394B"/>
<path d="M76.0362 53.7775C76.0362 54.1662 75.6784 54.4812 75.2371 54.4812C74.7958 54.4812 74.438 54.1662 74.438 53.7775C74.438 53.3889 74.7958 53.0739 75.2371 53.0739C75.6784 53.0739 76.0362 53.3889 76.0362 53.7775Z" fill="#2C394B"/>
<path d="M79.2325 53.7775C79.2325 54.1662 78.8747 54.4812 78.4334 54.4812C77.992 54.4812 77.6343 54.1662 77.6343 53.7775C77.6343 53.3889 77.992 53.0739 78.4334 53.0739C78.8747 53.0739 79.2325 53.3889 79.2325 53.7775Z" fill="#2C394B"/>
<path d="M82.4292 53.7775C82.4292 54.1662 82.0715 54.4812 81.6301 54.4812C81.1888 54.4812 80.8311 54.1662 80.8311 53.7775C80.8311 53.3889 81.1888 53.0739 81.6301 53.0739C82.0715 53.0739 82.4292 53.3889 82.4292 53.7775Z" fill="#2C394B"/>
<path d="M85.6255 53.7775C85.6255 54.1662 85.2678 54.4812 84.8264 54.4812C84.3851 54.4812 84.0273 54.1662 84.0273 53.7775C84.0273 53.3889 84.3851 53.0739 84.8264 53.0739C85.2678 53.0739 85.6255 53.3889 85.6255 53.7775Z" fill="#2C394B"/>
<path d="M88.8218 53.7775C88.8218 54.1662 88.464 54.4812 88.0227 54.4812C87.5814 54.4812 87.2236 54.1662 87.2236 53.7775C87.2236 53.3889 87.5814 53.0739 88.0227 53.0739C88.464 53.0739 88.8218 53.3889 88.8218 53.7775Z" fill="#2C394B"/>
<path d="M92.0181 53.7775C92.0181 54.1662 91.6603 54.4812 91.219 54.4812C90.7777 54.4812 90.4199 54.1662 90.4199 53.7775C90.4199 53.3889 90.7777 53.0739 91.219 53.0739C91.6603 53.0739 92.0181 53.3889 92.0181 53.7775Z" fill="#2C394B"/>
<path d="M95.2144 53.7775C95.2144 54.1662 94.8566 54.4812 94.4153 54.4812C93.974 54.4812 93.6162 54.1662 93.6162 53.7775C93.6162 53.3889 93.974 53.0739 94.4153 53.0739C94.8566 53.0739 95.2144 53.3889 95.2144 53.7775Z" fill="#2C394B"/>
<path d="M98.4107 53.7775C98.4107 54.1662 98.0529 54.4812 97.6116 54.4812C97.1703 54.4812 96.8125 54.1662 96.8125 53.7775C96.8125 53.3889 97.1703 53.0739 97.6116 53.0739C98.0529 53.0739 98.4107 53.3889 98.4107 53.7775Z" fill="#2C394B"/>
<path d="M101.607 53.7775C101.607 54.1662 101.25 54.4812 100.808 54.4812C100.367 54.4812 100.009 54.1662 100.009 53.7775C100.009 53.3889 100.367 53.0739 100.808 53.0739C101.25 53.0739 101.607 53.3889 101.607 53.7775Z" fill="#2C394B"/>
<path d="M56.8584 56.5924C56.8584 56.981 56.5007 57.296 56.0593 57.296C55.618 57.296 55.2603 56.981 55.2603 56.5924C55.2603 56.2037 55.618 55.8887 56.0593 55.8887C56.5007 55.8887 56.8584 56.2037 56.8584 56.5924Z" fill="#2C394B"/>
<path d="M60.0547 56.5924C60.0547 56.981 59.6969 57.296 59.2556 57.296C58.8143 57.296 58.4565 56.981 58.4565 56.5924C58.4565 56.2037 58.8143 55.8887 59.2556 55.8887C59.6969 55.8887 60.0547 56.2037 60.0547 56.5924Z" fill="#2C394B"/>
<path d="M63.251 56.5924C63.251 56.981 62.8932 57.296 62.4519 57.296C62.0106 57.296 61.6528 56.981 61.6528 56.5924C61.6528 56.2037 62.0106 55.8887 62.4519 55.8887C62.8932 55.8887 63.251 56.2037 63.251 56.5924Z" fill="#2C394B"/>
<path d="M66.4473 56.5924C66.4473 56.981 66.0895 57.296 65.6482 57.296C65.2069 57.296 64.8491 56.981 64.8491 56.5924C64.8491 56.2037 65.2069 55.8887 65.6482 55.8887C66.0895 55.8887 66.4473 56.2037 66.4473 56.5924Z" fill="#2C394B"/>
<path d="M69.6436 56.5924C69.6436 56.981 69.2858 57.296 68.8445 57.296C68.4032 57.296 68.0454 56.981 68.0454 56.5924C68.0454 56.2037 68.4032 55.8887 68.8445 55.8887C69.2858 55.8887 69.6436 56.2037 69.6436 56.5924Z" fill="#2C394B"/>
<path d="M72.8399 56.5924C72.8399 56.981 72.4821 57.296 72.0408 57.296C71.5995 57.296 71.2417 56.981 71.2417 56.5924C71.2417 56.2037 71.5995 55.8887 72.0408 55.8887C72.4821 55.8887 72.8399 56.2037 72.8399 56.5924Z" fill="#2C394B"/>
<path d="M76.0362 56.5924C76.0362 56.981 75.6784 57.296 75.2371 57.296C74.7958 57.296 74.438 56.981 74.438 56.5924C74.438 56.2037 74.7958 55.8887 75.2371 55.8887C75.6784 55.8887 76.0362 56.2037 76.0362 56.5924Z" fill="#2C394B"/>
<path d="M79.2325 56.5924C79.2325 56.981 78.8747 57.296 78.4334 57.296C77.992 57.296 77.6343 56.981 77.6343 56.5924C77.6343 56.2037 77.992 55.8887 78.4334 55.8887C78.8747 55.8887 79.2325 56.2037 79.2325 56.5924Z" fill="#2C394B"/>
<path d="M82.4292 56.5924C82.4292 56.981 82.0715 57.296 81.6301 57.296C81.1888 57.296 80.8311 56.981 80.8311 56.5924C80.8311 56.2037 81.1888 55.8887 81.6301 55.8887C82.0715 55.8887 82.4292 56.2037 82.4292 56.5924Z" fill="#2C394B"/>
<path d="M85.6255 56.5924C85.6255 56.981 85.2678 57.296 84.8264 57.296C84.3851 57.296 84.0273 56.981 84.0273 56.5924C84.0273 56.2037 84.3851 55.8887 84.8264 55.8887C85.2678 55.8887 85.6255 56.2037 85.6255 56.5924Z" fill="#2C394B"/>
<path d="M88.8218 56.5924C88.8218 56.981 88.464 57.296 88.0227 57.296C87.5814 57.296 87.2236 56.981 87.2236 56.5924C87.2236 56.2037 87.5814 55.8887 88.0227 55.8887C88.464 55.8887 88.8218 56.2037 88.8218 56.5924Z" fill="#2C394B"/>
<path d="M92.0181 56.5924C92.0181 56.981 91.6603 57.296 91.219 57.296C90.7777 57.296 90.4199 56.981 90.4199 56.5924C90.4199 56.2037 90.7777 55.8887 91.219 55.8887C91.6603 55.8887 92.0181 56.2037 92.0181 56.5924Z" fill="#2C394B"/>
<path d="M95.2144 56.5924C95.2144 56.981 94.8566 57.296 94.4153 57.296C93.974 57.296 93.6162 56.981 93.6162 56.5924C93.6162 56.2037 93.974 55.8887 94.4153 55.8887C94.8566 55.8887 95.2144 56.2037 95.2144 56.5924Z" fill="#2C394B"/>
<path d="M98.4107 56.5924C98.4107 56.981 98.0529 57.296 97.6116 57.296C97.1703 57.296 96.8125 56.981 96.8125 56.5924C96.8125 56.2037 97.1703 55.8887 97.6116 55.8887C98.0529 55.8887 98.4107 56.2037 98.4107 56.5924Z" fill="#2C394B"/>
<path d="M101.607 56.5924C101.607 56.981 101.25 57.296 100.808 57.296C100.367 57.296 100.009 56.981 100.009 56.5924C100.009 56.2037 100.367 55.8887 100.808 55.8887C101.25 55.8887 101.607 56.2037 101.607 56.5924Z" fill="#2C394B"/>
<path d="M104.804 56.5924C104.804 56.981 104.446 57.296 104.005 57.296C103.563 57.296 103.206 56.981 103.206 56.5924C103.206 56.2037 103.563 55.8887 104.005 55.8887C104.446 55.8887 104.804 56.2037 104.804 56.5924Z" fill="#2C394B"/>
<path d="M56.8584 59.4071C56.8584 59.7957 56.5007 60.1108 56.0593 60.1108C55.618 60.1108 55.2603 59.7957 55.2603 59.4071C55.2603 59.0185 55.618 58.7034 56.0593 58.7034C56.5007 58.7034 56.8584 59.0185 56.8584 59.4071Z" fill="#2C394B"/>
<path d="M60.0547 59.4071C60.0547 59.7957 59.6969 60.1108 59.2556 60.1108C58.8143 60.1108 58.4565 59.7957 58.4565 59.4071C58.4565 59.0185 58.8143 58.7034 59.2556 58.7034C59.6969 58.7034 60.0547 59.0185 60.0547 59.4071Z" fill="#2C394B"/>
<path d="M63.251 59.4071C63.251 59.7957 62.8933 60.1108 62.4519 60.1108C62.0106 60.1108 61.6528 59.7957 61.6528 59.4071C61.6528 59.0185 62.0106 58.7034 62.4519 58.7034C62.8933 58.7034 63.251 59.0185 63.251 59.4071Z" fill="#2C394B"/>
<path d="M66.4473 59.4071C66.4473 59.7957 66.0895 60.1108 65.6482 60.1108C65.2069 60.1108 64.8491 59.7957 64.8491 59.4071C64.8491 59.0185 65.2069 58.7034 65.6482 58.7034C66.0895 58.7034 66.4473 59.0185 66.4473 59.4071Z" fill="#2C394B"/>
<path d="M69.6436 59.4071C69.6436 59.7957 69.2858 60.1108 68.8445 60.1108C68.4032 60.1108 68.0454 59.7957 68.0454 59.4071C68.0454 59.0185 68.4032 58.7034 68.8445 58.7034C69.2858 58.7034 69.6436 59.0185 69.6436 59.4071Z" fill="#2C394B"/>
<path d="M72.8399 59.4071C72.8399 59.7957 72.4821 60.1108 72.0408 60.1108C71.5995 60.1108 71.2417 59.7957 71.2417 59.4071C71.2417 59.0185 71.5995 58.7034 72.0408 58.7034C72.4821 58.7034 72.8399 59.0185 72.8399 59.4071Z" fill="#2C394B"/>
<path d="M76.0362 59.4071C76.0362 59.7957 75.6784 60.1108 75.2371 60.1108C74.7958 60.1108 74.438 59.7957 74.438 59.4071C74.438 59.0185 74.7958 58.7034 75.2371 58.7034C75.6784 58.7034 76.0362 59.0185 76.0362 59.4071Z" fill="#2C394B"/>
<path d="M79.2325 59.4071C79.2325 59.7957 78.8747 60.1108 78.4334 60.1108C77.992 60.1108 77.6343 59.7957 77.6343 59.4071C77.6343 59.0185 77.992 58.7034 78.4334 58.7034C78.8747 58.7034 79.2325 59.0185 79.2325 59.4071Z" fill="#2C394B"/>
<path d="M82.4292 59.4071C82.4292 59.7957 82.0715 60.1108 81.6301 60.1108C81.1888 60.1108 80.8311 59.7957 80.8311 59.4071C80.8311 59.0185 81.1888 58.7034 81.6301 58.7034C82.0715 58.7034 82.4292 59.0185 82.4292 59.4071Z" fill="#2C394B"/>
<path d="M85.6255 59.4071C85.6255 59.7957 85.2678 60.1108 84.8264 60.1108C84.3851 60.1108 84.0273 59.7957 84.0273 59.4071C84.0273 59.0185 84.3851 58.7034 84.8264 58.7034C85.2678 58.7034 85.6255 59.0185 85.6255 59.4071Z" fill="#2C394B"/>
<path d="M88.8218 59.4071C88.8218 59.7957 88.464 60.1108 88.0227 60.1108C87.5814 60.1108 87.2236 59.7957 87.2236 59.4071C87.2236 59.0185 87.5814 58.7034 88.0227 58.7034C88.464 58.7034 88.8218 59.0185 88.8218 59.4071Z" fill="#2C394B"/>
<path d="M92.0181 59.4071C92.0181 59.7957 91.6603 60.1108 91.219 60.1108C90.7777 60.1108 90.4199 59.7957 90.4199 59.4071C90.4199 59.0185 90.7777 58.7034 91.219 58.7034C91.6603 58.7034 92.0181 59.0185 92.0181 59.4071Z" fill="#2C394B"/>
<path d="M95.2144 59.4071C95.2144 59.7957 94.8566 60.1108 94.4153 60.1108C93.974 60.1108 93.6162 59.7957 93.6162 59.4071C93.6162 59.0185 93.974 58.7034 94.4153 58.7034C94.8566 58.7034 95.2144 59.0185 95.2144 59.4071Z" fill="#2C394B"/>
<path d="M98.4107 59.4071C98.4107 59.7957 98.0529 60.1108 97.6116 60.1108C97.1703 60.1108 96.8125 59.7957 96.8125 59.4071C96.8125 59.0185 97.1703 58.7034 97.6116 58.7034C98.0529 58.7034 98.4107 59.0185 98.4107 59.4071Z" fill="#2C394B"/>
<path d="M101.607 59.4071C101.607 59.7957 101.25 60.1108 100.808 60.1108C100.367 60.1108 100.009 59.7957 100.009 59.4071C100.009 59.0185 100.367 58.7034 100.808 58.7034C101.25 58.7034 101.607 59.0185 101.607 59.4071Z" fill="#2C394B"/>
<path d="M104.804 59.4071C104.804 59.7957 104.446 60.1108 104.005 60.1108C103.563 60.1108 103.206 59.7957 103.206 59.4071C103.206 59.0185 103.563 58.7034 104.005 58.7034C104.446 58.7034 104.804 59.0185 104.804 59.4071Z" fill="#2C394B"/>
<path d="M108 59.4071C108 59.7957 107.642 60.1108 107.201 60.1108C106.76 60.1108 106.402 59.7957 106.402 59.4071C106.402 59.0185 106.76 58.7034 107.201 58.7034C107.642 58.7034 108 59.0185 108 59.4071Z" fill="#2C394B"/>
<path d="M56.8584 62.2219C56.8584 62.6105 56.5007 62.9255 56.0593 62.9255C55.618 62.9255 55.2603 62.6105 55.2603 62.2219C55.2603 61.8332 55.618 61.5182 56.0593 61.5182C56.5007 61.5182 56.8584 61.8332 56.8584 62.2219Z" fill="#2C394B"/>
<path d="M60.0547 62.2219C60.0547 62.6105 59.6969 62.9255 59.2556 62.9255C58.8143 62.9255 58.4565 62.6105 58.4565 62.2219C58.4565 61.8332 58.8143 61.5182 59.2556 61.5182C59.6969 61.5182 60.0547 61.8332 60.0547 62.2219Z" fill="#2C394B"/>
<path d="M63.251 62.2219C63.251 62.6105 62.8933 62.9255 62.4519 62.9255C62.0106 62.9255 61.6528 62.6105 61.6528 62.2219C61.6528 61.8332 62.0106 61.5182 62.4519 61.5182C62.8933 61.5182 63.251 61.8332 63.251 62.2219Z" fill="#2C394B"/>
<path d="M66.4473 62.2219C66.4473 62.6105 66.0895 62.9255 65.6482 62.9255C65.2069 62.9255 64.8491 62.6105 64.8491 62.2219C64.8491 61.8332 65.2069 61.5182 65.6482 61.5182C66.0895 61.5182 66.4473 61.8332 66.4473 62.2219Z" fill="#2C394B"/>
<path d="M69.6436 62.2219C69.6436 62.6105 69.2858 62.9255 68.8445 62.9255C68.4032 62.9255 68.0454 62.6105 68.0454 62.2219C68.0454 61.8332 68.4032 61.5182 68.8445 61.5182C69.2858 61.5182 69.6436 61.8332 69.6436 62.2219Z" fill="#2C394B"/>
<path d="M72.8399 62.2219C72.8399 62.6105 72.4821 62.9255 72.0408 62.9255C71.5995 62.9255 71.2417 62.6105 71.2417 62.2219C71.2417 61.8332 71.5995 61.5182 72.0408 61.5182C72.4821 61.5182 72.8399 61.8332 72.8399 62.2219Z" fill="#2C394B"/>
<path d="M76.0362 62.2219C76.0362 62.6105 75.6784 62.9255 75.2371 62.9255C74.7958 62.9255 74.438 62.6105 74.438 62.2219C74.438 61.8332 74.7958 61.5182 75.2371 61.5182C75.6784 61.5182 76.0362 61.8332 76.0362 62.2219Z" fill="#2C394B"/>
<path d="M79.2325 62.2219C79.2325 62.6105 78.8747 62.9255 78.4334 62.9255C77.992 62.9255 77.6343 62.6105 77.6343 62.2219C77.6343 61.8332 77.992 61.5182 78.4334 61.5182C78.8747 61.5182 79.2325 61.8332 79.2325 62.2219Z" fill="#2C394B"/>
<path d="M82.4292 62.2219C82.4292 62.6105 82.0715 62.9255 81.6301 62.9255C81.1888 62.9255 80.8311 62.6105 80.8311 62.2219C80.8311 61.8332 81.1888 61.5182 81.6301 61.5182C82.0715 61.5182 82.4292 61.8332 82.4292 62.2219Z" fill="#2C394B"/>
<path d="M85.6255 62.2219C85.6255 62.6105 85.2678 62.9255 84.8264 62.9255C84.3851 62.9255 84.0273 62.6105 84.0273 62.2219C84.0273 61.8332 84.3851 61.5182 84.8264 61.5182C85.2678 61.5182 85.6255 61.8332 85.6255 62.2219Z" fill="#2C394B"/>
<path d="M88.8218 62.2219C88.8218 62.6105 88.464 62.9255 88.0227 62.9255C87.5814 62.9255 87.2236 62.6105 87.2236 62.2219C87.2236 61.8332 87.5814 61.5182 88.0227 61.5182C88.464 61.5182 88.8218 61.8332 88.8218 62.2219Z" fill="#2C394B"/>
<path d="M92.0181 62.2219C92.0181 62.6105 91.6603 62.9255 91.219 62.9255C90.7777 62.9255 90.4199 62.6105 90.4199 62.2219C90.4199 61.8332 90.7777 61.5182 91.219 61.5182C91.6603 61.5182 92.0181 61.8332 92.0181 62.2219Z" fill="#2C394B"/>
<path d="M95.2144 62.2219C95.2144 62.6105 94.8566 62.9255 94.4153 62.9255C93.974 62.9255 93.6162 62.6105 93.6162 62.2219C93.6162 61.8332 93.974 61.5182 94.4153 61.5182C94.8566 61.5182 95.2144 61.8332 95.2144 62.2219Z" fill="#2C394B"/>
<path d="M98.4107 62.2219C98.4107 62.6105 98.0529 62.9255 97.6116 62.9255C97.1703 62.9255 96.8125 62.6105 96.8125 62.2219C96.8125 61.8332 97.1703 61.5182 97.6116 61.5182C98.0529 61.5182 98.4107 61.8332 98.4107 62.2219Z" fill="#2C394B"/>
<path d="M101.607 62.2219C101.607 62.6105 101.25 62.9255 100.808 62.9255C100.367 62.9255 100.009 62.6105 100.009 62.2219C100.009 61.8332 100.367 61.5182 100.808 61.5182C101.25 61.5182 101.607 61.8332 101.607 62.2219Z" fill="#2C394B"/>
<path d="M104.804 62.2219C104.804 62.6105 104.446 62.9255 104.005 62.9255C103.563 62.9255 103.206 62.6105 103.206 62.2219C103.206 61.8332 103.563 61.5182 104.005 61.5182C104.446 61.5182 104.804 61.8332 104.804 62.2219Z" fill="#2C394B"/>
<path d="M108 62.2219C108 62.6105 107.642 62.9255 107.201 62.9255C106.76 62.9255 106.402 62.6105 106.402 62.2219C106.402 61.8332 106.76 61.5182 107.201 61.5182C107.642 61.5182 108 61.8332 108 62.2219Z" fill="#2C394B"/>
<path d="M56.8584 65.0366C56.8584 65.4252 56.5007 65.7403 56.0593 65.7403C55.618 65.7403 55.2603 65.4252 55.2603 65.0366C55.2603 64.6479 55.618 64.3329 56.0593 64.3329C56.5007 64.3329 56.8584 64.6479 56.8584 65.0366Z" fill="#2C394B"/>
<path d="M60.0547 65.0366C60.0547 65.4252 59.6969 65.7403 59.2556 65.7403C58.8143 65.7403 58.4565 65.4252 58.4565 65.0366C58.4565 64.6479 58.8143 64.3329 59.2556 64.3329C59.6969 64.3329 60.0547 64.6479 60.0547 65.0366Z" fill="#2C394B"/>
<path d="M63.251 65.0366C63.251 65.4252 62.8933 65.7403 62.4519 65.7403C62.0106 65.7403 61.6528 65.4252 61.6528 65.0366C61.6528 64.6479 62.0106 64.3329 62.4519 64.3329C62.8933 64.3329 63.251 64.6479 63.251 65.0366Z" fill="#2C394B"/>
<path d="M66.4473 65.0366C66.4473 65.4252 66.0895 65.7403 65.6482 65.7403C65.2069 65.7403 64.8491 65.4252 64.8491 65.0366C64.8491 64.6479 65.2069 64.3329 65.6482 64.3329C66.0895 64.3329 66.4473 64.6479 66.4473 65.0366Z" fill="#2C394B"/>
<path d="M69.6436 65.0366C69.6436 65.4252 69.2858 65.7403 68.8445 65.7403C68.4032 65.7403 68.0454 65.4252 68.0454 65.0366C68.0454 64.6479 68.4032 64.3329 68.8445 64.3329C69.2858 64.3329 69.6436 64.6479 69.6436 65.0366Z" fill="#2C394B"/>
<path d="M72.8399 65.0366C72.8399 65.4252 72.4821 65.7403 72.0408 65.7403C71.5995 65.7403 71.2417 65.4252 71.2417 65.0366C71.2417 64.6479 71.5995 64.3329 72.0408 64.3329C72.4821 64.3329 72.8399 64.6479 72.8399 65.0366Z" fill="#2C394B"/>
<path d="M76.0362 65.0366C76.0362 65.4252 75.6784 65.7403 75.2371 65.7403C74.7958 65.7403 74.438 65.4252 74.438 65.0366C74.438 64.6479 74.7958 64.3329 75.2371 64.3329C75.6784 64.3329 76.0362 64.6479 76.0362 65.0366Z" fill="#2C394B"/>
<path d="M79.2325 65.0366C79.2325 65.4252 78.8747 65.7403 78.4334 65.7403C77.992 65.7403 77.6343 65.4252 77.6343 65.0366C77.6343 64.6479 77.992 64.3329 78.4334 64.3329C78.8747 64.3329 79.2325 64.6479 79.2325 65.0366Z" fill="#2C394B"/>
<path d="M82.4292 65.0366C82.4292 65.4252 82.0715 65.7403 81.6301 65.7403C81.1888 65.7403 80.8311 65.4252 80.8311 65.0366C80.8311 64.6479 81.1888 64.3329 81.6301 64.3329C82.0715 64.3329 82.4292 64.6479 82.4292 65.0366Z" fill="#2C394B"/>
<path d="M85.6255 65.0366C85.6255 65.4252 85.2678 65.7403 84.8264 65.7403C84.3851 65.7403 84.0273 65.4252 84.0273 65.0366C84.0273 64.6479 84.3851 64.3329 84.8264 64.3329C85.2678 64.3329 85.6255 64.6479 85.6255 65.0366Z" fill="#2C394B"/>
<path d="M88.8218 65.0366C88.8218 65.4252 88.464 65.7403 88.0227 65.7403C87.5814 65.7403 87.2236 65.4252 87.2236 65.0366C87.2236 64.6479 87.5814 64.3329 88.0227 64.3329C88.464 64.3329 88.8218 64.6479 88.8218 65.0366Z" fill="#2C394B"/>
<path d="M92.0181 65.0366C92.0181 65.4252 91.6603 65.7403 91.219 65.7403C90.7777 65.7403 90.4199 65.4252 90.4199 65.0366C90.4199 64.6479 90.7777 64.3329 91.219 64.3329C91.6603 64.3329 92.0181 64.6479 92.0181 65.0366Z" fill="#2C394B"/>
<path d="M95.2144 65.0366C95.2144 65.4252 94.8566 65.7403 94.4153 65.7403C93.974 65.7403 93.6162 65.4252 93.6162 65.0366C93.6162 64.6479 93.974 64.3329 94.4153 64.3329C94.8566 64.3329 95.2144 64.6479 95.2144 65.0366Z" fill="#2C394B"/>
<path d="M98.4107 65.0366C98.4107 65.4252 98.0529 65.7403 97.6116 65.7403C97.1703 65.7403 96.8125 65.4252 96.8125 65.0366C96.8125 64.6479 97.1703 64.3329 97.6116 64.3329C98.0529 64.3329 98.4107 64.6479 98.4107 65.0366Z" fill="#2C394B"/>
<path d="M101.607 65.0366C101.607 65.4252 101.25 65.7403 100.808 65.7403C100.367 65.7403 100.009 65.4252 100.009 65.0366C100.009 64.6479 100.367 64.3329 100.808 64.3329C101.25 64.3329 101.607 64.6479 101.607 65.0366Z" fill="#2C394B"/>
<path d="M104.804 65.0366C104.804 65.4252 104.446 65.7403 104.005 65.7403C103.563 65.7403 103.206 65.4252 103.206 65.0366C103.206 64.6479 103.563 64.3329 104.005 64.3329C104.446 64.3329 104.804 64.6479 104.804 65.0366Z" fill="#2C394B"/>
<path d="M108 65.0366C108 65.4252 107.642 65.7403 107.201 65.7403C106.76 65.7403 106.402 65.4252 106.402 65.0366C106.402 64.6479 106.76 64.3329 107.201 64.3329C107.642 64.3329 108 64.6479 108 65.0366Z" fill="#2C394B"/>
<path d="M56.8584 67.8513C56.8584 68.24 56.5007 68.555 56.0593 68.555C55.618 68.555 55.2603 68.24 55.2603 67.8513C55.2603 67.4627 55.618 67.1476 56.0593 67.1476C56.5007 67.1476 56.8584 67.4627 56.8584 67.8513Z" fill="#2C394B"/>
<path d="M60.0547 67.8513C60.0547 68.24 59.6969 68.555 59.2556 68.555C58.8143 68.555 58.4565 68.24 58.4565 67.8513C58.4565 67.4627 58.8143 67.1476 59.2556 67.1476C59.6969 67.1476 60.0547 67.4627 60.0547 67.8513Z" fill="#2C394B"/>
<path d="M63.251 67.8513C63.251 68.24 62.8933 68.555 62.4519 68.555C62.0106 68.555 61.6528 68.24 61.6528 67.8513C61.6528 67.4627 62.0106 67.1476 62.4519 67.1476C62.8933 67.1476 63.251 67.4627 63.251 67.8513Z" fill="#2C394B"/>
<path d="M66.4473 67.8513C66.4473 68.24 66.0895 68.555 65.6482 68.555C65.2069 68.555 64.8491 68.24 64.8491 67.8513C64.8491 67.4627 65.2069 67.1476 65.6482 67.1476C66.0895 67.1476 66.4473 67.4627 66.4473 67.8513Z" fill="#2C394B"/>
<path d="M69.6436 67.8513C69.6436 68.24 69.2858 68.555 68.8445 68.555C68.4032 68.555 68.0454 68.24 68.0454 67.8513C68.0454 67.4627 68.4032 67.1476 68.8445 67.1476C69.2858 67.1476 69.6436 67.4627 69.6436 67.8513Z" fill="#2C394B"/>
<path d="M72.8399 67.8513C72.8399 68.24 72.4821 68.555 72.0408 68.555C71.5995 68.555 71.2417 68.24 71.2417 67.8513C71.2417 67.4627 71.5995 67.1476 72.0408 67.1476C72.4821 67.1476 72.8399 67.4627 72.8399 67.8513Z" fill="#2C394B"/>
<path d="M76.0362 67.8513C76.0362 68.24 75.6784 68.555 75.2371 68.555C74.7958 68.555 74.438 68.24 74.438 67.8513C74.438 67.4627 74.7958 67.1476 75.2371 67.1476C75.6784 67.1476 76.0362 67.4627 76.0362 67.8513Z" fill="#2C394B"/>
<path d="M79.2325 67.8513C79.2325 68.24 78.8747 68.555 78.4334 68.555C77.992 68.555 77.6343 68.24 77.6343 67.8513C77.6343 67.4627 77.992 67.1476 78.4334 67.1476C78.8747 67.1476 79.2325 67.4627 79.2325 67.8513Z" fill="#2C394B"/>
<path d="M82.4292 67.8513C82.4292 68.24 82.0715 68.555 81.6301 68.555C81.1888 68.555 80.8311 68.24 80.8311 67.8513C80.8311 67.4627 81.1888 67.1476 81.6301 67.1476C82.0715 67.1476 82.4292 67.4627 82.4292 67.8513Z" fill="#2C394B"/>
<path d="M85.6255 67.8513C85.6255 68.24 85.2678 68.555 84.8264 68.555C84.3851 68.555 84.0273 68.24 84.0273 67.8513C84.0273 67.4627 84.3851 67.1476 84.8264 67.1476C85.2678 67.1476 85.6255 67.4627 85.6255 67.8513Z" fill="#2C394B"/>
<path d="M88.8218 67.8513C88.8218 68.24 88.464 68.555 88.0227 68.555C87.5814 68.555 87.2236 68.24 87.2236 67.8513C87.2236 67.4627 87.5814 67.1476 88.0227 67.1476C88.464 67.1476 88.8218 67.4627 88.8218 67.8513Z" fill="#2C394B"/>
<path d="M92.0181 67.8513C92.0181 68.24 91.6603 68.555 91.219 68.555C90.7777 68.555 90.4199 68.24 90.4199 67.8513C90.4199 67.4627 90.7777 67.1476 91.219 67.1476C91.6603 67.1476 92.0181 67.4627 92.0181 67.8513Z" fill="#2C394B"/>
<path d="M95.2144 67.8513C95.2144 68.24 94.8566 68.555 94.4153 68.555C93.974 68.555 93.6162 68.24 93.6162 67.8513C93.6162 67.4627 93.974 67.1476 94.4153 67.1476C94.8566 67.1476 95.2144 67.4627 95.2144 67.8513Z" fill="#2C394B"/>
<path d="M98.4107 67.8513C98.4107 68.24 98.0529 68.555 97.6116 68.555C97.1703 68.555 96.8125 68.24 96.8125 67.8513C96.8125 67.4627 97.1703 67.1476 97.6116 67.1476C98.0529 67.1476 98.4107 67.4627 98.4107 67.8513Z" fill="#2C394B"/>
<path d="M101.607 67.8513C101.607 68.24 101.25 68.555 100.808 68.555C100.367 68.555 100.009 68.24 100.009 67.8513C100.009 67.4627 100.367 67.1476 100.808 67.1476C101.25 67.1476 101.607 67.4627 101.607 67.8513Z" fill="#2C394B"/>
<path d="M104.804 67.8513C104.804 68.24 104.446 68.555 104.005 68.555C103.563 68.555 103.206 68.24 103.206 67.8513C103.206 67.4627 103.563 67.1476 104.005 67.1476C104.446 67.1476 104.804 67.4627 104.804 67.8513Z" fill="#2C394B"/>
<path d="M108 67.8513C108 68.24 107.642 68.555 107.201 68.555C106.76 68.555 106.402 68.24 106.402 67.8513C106.402 67.4627 106.76 67.1476 107.201 67.1476C107.642 67.1476 108 67.4627 108 67.8513Z" fill="#2C394B"/>
<path d="M56.8584 70.6662C56.8584 71.0548 56.5007 71.3699 56.0593 71.3699C55.618 71.3699 55.2603 71.0548 55.2603 70.6662C55.2603 70.2776 55.618 69.9625 56.0593 69.9625C56.5007 69.9625 56.8584 70.2776 56.8584 70.6662Z" fill="#2C394B"/>
<path d="M60.0547 70.6662C60.0547 71.0548 59.6969 71.3699 59.2556 71.3699C58.8143 71.3699 58.4565 71.0548 58.4565 70.6662C58.4565 70.2776 58.8143 69.9625 59.2556 69.9625C59.6969 69.9625 60.0547 70.2776 60.0547 70.6662Z" fill="#2C394B"/>
<path d="M63.251 70.6662C63.251 71.0548 62.8933 71.3699 62.4519 71.3699C62.0106 71.3699 61.6528 71.0548 61.6528 70.6662C61.6528 70.2776 62.0106 69.9625 62.4519 69.9625C62.8933 69.9625 63.251 70.2776 63.251 70.6662Z" fill="#2C394B"/>
<path d="M66.4473 70.6662C66.4473 71.0548 66.0895 71.3699 65.6482 71.3699C65.2069 71.3699 64.8491 71.0548 64.8491 70.6662C64.8491 70.2776 65.2069 69.9625 65.6482 69.9625C66.0895 69.9625 66.4473 70.2776 66.4473 70.6662Z" fill="#2C394B"/>
<path d="M69.6436 70.6662C69.6436 71.0548 69.2858 71.3699 68.8445 71.3699C68.4032 71.3699 68.0454 71.0548 68.0454 70.6662C68.0454 70.2776 68.4032 69.9625 68.8445 69.9625C69.2858 69.9625 69.6436 70.2776 69.6436 70.6662Z" fill="#2C394B"/>
<path d="M72.8399 70.6662C72.8399 71.0548 72.4821 71.3699 72.0408 71.3699C71.5995 71.3699 71.2417 71.0548 71.2417 70.6662C71.2417 70.2776 71.5995 69.9625 72.0408 69.9625C72.4821 69.9625 72.8399 70.2776 72.8399 70.6662Z" fill="#2C394B"/>
<path d="M76.0362 70.6662C76.0362 71.0548 75.6784 71.3699 75.2371 71.3699C74.7958 71.3699 74.438 71.0548 74.438 70.6662C74.438 70.2776 74.7958 69.9625 75.2371 69.9625C75.6784 69.9625 76.0362 70.2776 76.0362 70.6662Z" fill="#2C394B"/>
<path d="M79.2325 70.6662C79.2325 71.0548 78.8747 71.3699 78.4334 71.3699C77.992 71.3699 77.6343 71.0548 77.6343 70.6662C77.6343 70.2776 77.992 69.9625 78.4334 69.9625C78.8747 69.9625 79.2325 70.2776 79.2325 70.6662Z" fill="#2C394B"/>
<path d="M82.4292 70.6662C82.4292 71.0548 82.0715 71.3699 81.6301 71.3699C81.1888 71.3699 80.8311 71.0548 80.8311 70.6662C80.8311 70.2776 81.1888 69.9625 81.6301 69.9625C82.0715 69.9625 82.4292 70.2776 82.4292 70.6662Z" fill="#2C394B"/>
<path d="M85.6255 70.6662C85.6255 71.0548 85.2678 71.3699 84.8264 71.3699C84.3851 71.3699 84.0273 71.0548 84.0273 70.6662C84.0273 70.2776 84.3851 69.9625 84.8264 69.9625C85.2678 69.9625 85.6255 70.2776 85.6255 70.6662Z" fill="#2C394B"/>
<path d="M88.8218 70.6662C88.8218 71.0548 88.464 71.3699 88.0227 71.3699C87.5814 71.3699 87.2236 71.0548 87.2236 70.6662C87.2236 70.2776 87.5814 69.9625 88.0227 69.9625C88.464 69.9625 88.8218 70.2776 88.8218 70.6662Z" fill="#2C394B"/>
<path d="M92.0181 70.6662C92.0181 71.0548 91.6603 71.3699 91.219 71.3699C90.7777 71.3699 90.4199 71.0548 90.4199 70.6662C90.4199 70.2776 90.7777 69.9625 91.219 69.9625C91.6603 69.9625 92.0181 70.2776 92.0181 70.6662Z" fill="#2C394B"/>
<path d="M95.2144 70.6662C95.2144 71.0548 94.8566 71.3699 94.4153 71.3699C93.974 71.3699 93.6162 71.0548 93.6162 70.6662C93.6162 70.2776 93.974 69.9625 94.4153 69.9625C94.8566 69.9625 95.2144 70.2776 95.2144 70.6662Z" fill="#2C394B"/>
<path d="M98.4107 70.6662C98.4107 71.0548 98.0529 71.3699 97.6116 71.3699C97.1703 71.3699 96.8125 71.0548 96.8125 70.6662C96.8125 70.2776 97.1703 69.9625 97.6116 69.9625C98.0529 69.9625 98.4107 70.2776 98.4107 70.6662Z" fill="#2C394B"/>
<path d="M101.607 70.6662C101.607 71.0548 101.25 71.3699 100.808 71.3699C100.367 71.3699 100.009 71.0548 100.009 70.6662C100.009 70.2776 100.367 69.9625 100.808 69.9625C101.25 69.9625 101.607 70.2776 101.607 70.6662Z" fill="#2C394B"/>
<path d="M104.804 70.6662C104.804 71.0548 104.446 71.3699 104.005 71.3699C103.563 71.3699 103.206 71.0548 103.206 70.6662C103.206 70.2776 103.563 69.9625 104.005 69.9625C104.446 69.9625 104.804 70.2776 104.804 70.6662Z" fill="#2C394B"/>
<path d="M108 70.6662C108 71.0548 107.642 71.3699 107.201 71.3699C106.76 71.3699 106.402 71.0548 106.402 70.6662C106.402 70.2776 106.76 69.9625 107.201 69.9625C107.642 69.9625 108 70.2776 108 70.6662Z" fill="#2C394B"/>
<path d="M56.8584 73.481C56.8584 73.8696 56.5007 74.1847 56.0593 74.1847C55.618 74.1847 55.2603 73.8696 55.2603 73.481C55.2603 73.0923 55.618 72.7773 56.0593 72.7773C56.5007 72.7773 56.8584 73.0923 56.8584 73.481Z" fill="#2C394B"/>
<path d="M60.0547 73.481C60.0547 73.8696 59.6969 74.1847 59.2556 74.1847C58.8143 74.1847 58.4565 73.8696 58.4565 73.481C58.4565 73.0923 58.8143 72.7773 59.2556 72.7773C59.6969 72.7773 60.0547 73.0923 60.0547 73.481Z" fill="#2C394B"/>
<path d="M63.251 73.481C63.251 73.8696 62.8933 74.1847 62.4519 74.1847C62.0106 74.1847 61.6528 73.8696 61.6528 73.481C61.6528 73.0923 62.0106 72.7773 62.4519 72.7773C62.8933 72.7773 63.251 73.0923 63.251 73.481Z" fill="#2C394B"/>
<path d="M66.4473 73.481C66.4473 73.8696 66.0895 74.1847 65.6482 74.1847C65.2069 74.1847 64.8491 73.8696 64.8491 73.481C64.8491 73.0923 65.2069 72.7773 65.6482 72.7773C66.0895 72.7773 66.4473 73.0923 66.4473 73.481Z" fill="#2C394B"/>
<path d="M69.6436 73.481C69.6436 73.8696 69.2858 74.1847 68.8445 74.1847C68.4032 74.1847 68.0454 73.8696 68.0454 73.481C68.0454 73.0923 68.4032 72.7773 68.8445 72.7773C69.2858 72.7773 69.6436 73.0923 69.6436 73.481Z" fill="#2C394B"/>
<path d="M72.8399 73.481C72.8399 73.8696 72.4821 74.1847 72.0408 74.1847C71.5995 74.1847 71.2417 73.8696 71.2417 73.481C71.2417 73.0923 71.5995 72.7773 72.0408 72.7773C72.4821 72.7773 72.8399 73.0923 72.8399 73.481Z" fill="#2C394B"/>
<path d="M76.0362 73.481C76.0362 73.8696 75.6784 74.1847 75.2371 74.1847C74.7958 74.1847 74.438 73.8696 74.438 73.481C74.438 73.0923 74.7958 72.7773 75.2371 72.7773C75.6784 72.7773 76.0362 73.0923 76.0362 73.481Z" fill="#2C394B"/>
<path d="M79.2325 73.481C79.2325 73.8696 78.8747 74.1847 78.4334 74.1847C77.992 74.1847 77.6343 73.8696 77.6343 73.481C77.6343 73.0923 77.992 72.7773 78.4334 72.7773C78.8747 72.7773 79.2325 73.0923 79.2325 73.481Z" fill="#2C394B"/>
<path d="M82.4292 73.481C82.4292 73.8696 82.0715 74.1847 81.6301 74.1847C81.1888 74.1847 80.8311 73.8696 80.8311 73.481C80.8311 73.0923 81.1888 72.7773 81.6301 72.7773C82.0715 72.7773 82.4292 73.0923 82.4292 73.481Z" fill="#2C394B"/>
<path d="M85.6255 73.481C85.6255 73.8696 85.2678 74.1847 84.8264 74.1847C84.3851 74.1847 84.0273 73.8696 84.0273 73.481C84.0273 73.0923 84.3851 72.7773 84.8264 72.7773C85.2678 72.7773 85.6255 73.0923 85.6255 73.481Z" fill="#2C394B"/>
<path d="M88.8218 73.481C88.8218 73.8696 88.464 74.1847 88.0227 74.1847C87.5814 74.1847 87.2236 73.8696 87.2236 73.481C87.2236 73.0923 87.5814 72.7773 88.0227 72.7773C88.464 72.7773 88.8218 73.0923 88.8218 73.481Z" fill="#2C394B"/>
<path d="M92.0181 73.481C92.0181 73.8696 91.6603 74.1847 91.219 74.1847C90.7777 74.1847 90.4199 73.8696 90.4199 73.481C90.4199 73.0923 90.7777 72.7773 91.219 72.7773C91.6603 72.7773 92.0181 73.0923 92.0181 73.481Z" fill="#2C394B"/>
<path d="M95.2144 73.481C95.2144 73.8696 94.8566 74.1847 94.4153 74.1847C93.974 74.1847 93.6162 73.8696 93.6162 73.481C93.6162 73.0923 93.974 72.7773 94.4153 72.7773C94.8566 72.7773 95.2144 73.0923 95.2144 73.481Z" fill="#2C394B"/>
<path d="M98.4107 73.481C98.4107 73.8696 98.0529 74.1847 97.6116 74.1847C97.1703 74.1847 96.8125 73.8696 96.8125 73.481C96.8125 73.0923 97.1703 72.7773 97.6116 72.7773C98.0529 72.7773 98.4107 73.0923 98.4107 73.481Z" fill="#2C394B"/>
<path d="M101.607 73.481C101.607 73.8696 101.25 74.1847 100.808 74.1847C100.367 74.1847 100.009 73.8696 100.009 73.481C100.009 73.0923 100.367 72.7773 100.808 72.7773C101.25 72.7773 101.607 73.0923 101.607 73.481Z" fill="#2C394B"/>
<path d="M104.804 73.481C104.804 73.8696 104.446 74.1847 104.005 74.1847C103.563 74.1847 103.206 73.8696 103.206 73.481C103.206 73.0923 103.563 72.7773 104.005 72.7773C104.446 72.7773 104.804 73.0923 104.804 73.481Z" fill="#2C394B"/>
<path d="M108 73.481C108 73.8696 107.642 74.1847 107.201 74.1847C106.76 74.1847 106.402 73.8696 106.402 73.481C106.402 73.0923 106.76 72.7773 107.201 72.7773C107.642 72.7773 108 73.0923 108 73.481Z" fill="#2C394B"/>
<path d="M56.8584 76.2957C56.8584 76.6844 56.5007 76.9994 56.0593 76.9994C55.618 76.9994 55.2603 76.6844 55.2603 76.2957C55.2603 75.9071 55.618 75.592 56.0593 75.592C56.5007 75.592 56.8584 75.9071 56.8584 76.2957Z" fill="#2C394B"/>
<path d="M60.0547 76.2957C60.0547 76.6844 59.6969 76.9994 59.2556 76.9994C58.8143 76.9994 58.4565 76.6844 58.4565 76.2957C58.4565 75.9071 58.8143 75.592 59.2556 75.592C59.6969 75.592 60.0547 75.9071 60.0547 76.2957Z" fill="#2C394B"/>
<path d="M63.251 76.2957C63.251 76.6844 62.8933 76.9994 62.4519 76.9994C62.0106 76.9994 61.6528 76.6844 61.6528 76.2957C61.6528 75.9071 62.0106 75.592 62.4519 75.592C62.8933 75.592 63.251 75.9071 63.251 76.2957Z" fill="#2C394B"/>
<path d="M66.4473 76.2957C66.4473 76.6844 66.0895 76.9994 65.6482 76.9994C65.2069 76.9994 64.8491 76.6844 64.8491 76.2957C64.8491 75.9071 65.2069 75.592 65.6482 75.592C66.0895 75.592 66.4473 75.9071 66.4473 76.2957Z" fill="#2C394B"/>
<path d="M69.6436 76.2957C69.6436 76.6844 69.2858 76.9994 68.8445 76.9994C68.4032 76.9994 68.0454 76.6844 68.0454 76.2957C68.0454 75.9071 68.4032 75.592 68.8445 75.592C69.2858 75.592 69.6436 75.9071 69.6436 76.2957Z" fill="#2C394B"/>
<path d="M72.8399 76.2957C72.8399 76.6844 72.4821 76.9994 72.0408 76.9994C71.5995 76.9994 71.2417 76.6844 71.2417 76.2957C71.2417 75.9071 71.5995 75.592 72.0408 75.592C72.4821 75.592 72.8399 75.9071 72.8399 76.2957Z" fill="#2C394B"/>
<path d="M76.0362 76.2957C76.0362 76.6844 75.6784 76.9994 75.2371 76.9994C74.7958 76.9994 74.438 76.6844 74.438 76.2957C74.438 75.9071 74.7958 75.592 75.2371 75.592C75.6784 75.592 76.0362 75.9071 76.0362 76.2957Z" fill="#2C394B"/>
<path d="M79.2325 76.2957C79.2325 76.6844 78.8747 76.9994 78.4334 76.9994C77.992 76.9994 77.6343 76.6844 77.6343 76.2957C77.6343 75.9071 77.992 75.592 78.4334 75.592C78.8747 75.592 79.2325 75.9071 79.2325 76.2957Z" fill="#2C394B"/>
<path d="M82.4292 76.2957C82.4292 76.6844 82.0715 76.9994 81.6301 76.9994C81.1888 76.9994 80.8311 76.6844 80.8311 76.2957C80.8311 75.9071 81.1888 75.592 81.6301 75.592C82.0715 75.592 82.4292 75.9071 82.4292 76.2957Z" fill="#2C394B"/>
<path d="M85.6255 76.2957C85.6255 76.6844 85.2678 76.9994 84.8264 76.9994C84.3851 76.9994 84.0273 76.6844 84.0273 76.2957C84.0273 75.9071 84.3851 75.592 84.8264 75.592C85.2678 75.592 85.6255 75.9071 85.6255 76.2957Z" fill="#2C394B"/>
<path d="M88.8218 76.2957C88.8218 76.6844 88.464 76.9994 88.0227 76.9994C87.5814 76.9994 87.2236 76.6844 87.2236 76.2957C87.2236 75.9071 87.5814 75.592 88.0227 75.592C88.464 75.592 88.8218 75.9071 88.8218 76.2957Z" fill="#2C394B"/>
<path d="M92.0181 76.2957C92.0181 76.6844 91.6603 76.9994 91.219 76.9994C90.7777 76.9994 90.4199 76.6844 90.4199 76.2957C90.4199 75.9071 90.7777 75.592 91.219 75.592C91.6603 75.592 92.0181 75.9071 92.0181 76.2957Z" fill="#2C394B"/>
<path d="M95.2144 76.2957C95.2144 76.6844 94.8566 76.9994 94.4153 76.9994C93.974 76.9994 93.6162 76.6844 93.6162 76.2957C93.6162 75.9071 93.974 75.592 94.4153 75.592C94.8566 75.592 95.2144 75.9071 95.2144 76.2957Z" fill="#2C394B"/>
<path d="M98.4107 76.2957C98.4107 76.6844 98.0529 76.9994 97.6116 76.9994C97.1703 76.9994 96.8125 76.6844 96.8125 76.2957C96.8125 75.9071 97.1703 75.592 97.6116 75.592C98.0529 75.592 98.4107 75.9071 98.4107 76.2957Z" fill="#2C394B"/>
<path d="M101.607 76.2957C101.607 76.6844 101.25 76.9994 100.808 76.9994C100.367 76.9994 100.009 76.6844 100.009 76.2957C100.009 75.9071 100.367 75.592 100.808 75.592C101.25 75.592 101.607 75.9071 101.607 76.2957Z" fill="#2C394B"/>
<path d="M104.804 76.2957C104.804 76.6844 104.446 76.9994 104.005 76.9994C103.563 76.9994 103.206 76.6844 103.206 76.2957C103.206 75.9071 103.563 75.592 104.005 75.592C104.446 75.592 104.804 75.9071 104.804 76.2957Z" fill="#2C394B"/>
<path d="M108 76.2957C108 76.6844 107.642 76.9994 107.201 76.9994C106.76 76.9994 106.402 76.6844 106.402 76.2957C106.402 75.9071 106.76 75.592 107.201 75.592C107.642 75.592 108 75.9071 108 76.2957Z" fill="#2C394B"/>
<path d="M56.8584 79.1104C56.8584 79.499 56.5007 79.8141 56.0593 79.8141C55.618 79.8141 55.2603 79.499 55.2603 79.1104C55.2603 78.7218 55.618 78.4067 56.0593 78.4067C56.5007 78.4067 56.8584 78.7218 56.8584 79.1104Z" fill="#2C394B"/>
<path d="M60.0547 79.1104C60.0547 79.499 59.6969 79.8141 59.2556 79.8141C58.8143 79.8141 58.4565 79.499 58.4565 79.1104C58.4565 78.7218 58.8143 78.4067 59.2556 78.4067C59.6969 78.4067 60.0547 78.7218 60.0547 79.1104Z" fill="#2C394B"/>
<path d="M63.251 79.1104C63.251 79.499 62.8932 79.8141 62.4519 79.8141C62.0106 79.8141 61.6528 79.499 61.6528 79.1104C61.6528 78.7218 62.0106 78.4067 62.4519 78.4067C62.8932 78.4067 63.251 78.7218 63.251 79.1104Z" fill="#2C394B"/>
<path d="M66.4473 79.1104C66.4473 79.499 66.0895 79.8141 65.6482 79.8141C65.2069 79.8141 64.8491 79.499 64.8491 79.1104C64.8491 78.7218 65.2069 78.4067 65.6482 78.4067C66.0895 78.4067 66.4473 78.7218 66.4473 79.1104Z" fill="#2C394B"/>
<path d="M69.6436 79.1104C69.6436 79.499 69.2858 79.8141 68.8445 79.8141C68.4032 79.8141 68.0454 79.499 68.0454 79.1104C68.0454 78.7218 68.4032 78.4067 68.8445 78.4067C69.2858 78.4067 69.6436 78.7218 69.6436 79.1104Z" fill="#2C394B"/>
<path d="M72.8399 79.1104C72.8399 79.499 72.4821 79.8141 72.0408 79.8141C71.5995 79.8141 71.2417 79.499 71.2417 79.1104C71.2417 78.7218 71.5995 78.4067 72.0408 78.4067C72.4821 78.4067 72.8399 78.7218 72.8399 79.1104Z" fill="#2C394B"/>
<path d="M76.0362 79.1104C76.0362 79.499 75.6784 79.8141 75.2371 79.8141C74.7958 79.8141 74.438 79.499 74.438 79.1104C74.438 78.7218 74.7958 78.4067 75.2371 78.4067C75.6784 78.4067 76.0362 78.7218 76.0362 79.1104Z" fill="#2C394B"/>
<path d="M79.2325 79.1104C79.2325 79.499 78.8747 79.8141 78.4334 79.8141C77.992 79.8141 77.6343 79.499 77.6343 79.1104C77.6343 78.7218 77.992 78.4067 78.4334 78.4067C78.8747 78.4067 79.2325 78.7218 79.2325 79.1104Z" fill="#2C394B"/>
<path d="M82.4292 79.1104C82.4292 79.499 82.0715 79.8141 81.6301 79.8141C81.1888 79.8141 80.8311 79.499 80.8311 79.1104C80.8311 78.7218 81.1888 78.4067 81.6301 78.4067C82.0715 78.4067 82.4292 78.7218 82.4292 79.1104Z" fill="#2C394B"/>
<path d="M85.6255 79.1104C85.6255 79.499 85.2678 79.8141 84.8264 79.8141C84.3851 79.8141 84.0273 79.499 84.0273 79.1104C84.0273 78.7218 84.3851 78.4067 84.8264 78.4067C85.2678 78.4067 85.6255 78.7218 85.6255 79.1104Z" fill="#2C394B"/>
<path d="M88.8218 79.1104C88.8218 79.499 88.464 79.8141 88.0227 79.8141C87.5814 79.8141 87.2236 79.499 87.2236 79.1104C87.2236 78.7218 87.5814 78.4067 88.0227 78.4067C88.464 78.4067 88.8218 78.7218 88.8218 79.1104Z" fill="#2C394B"/>
<path d="M92.0181 79.1104C92.0181 79.499 91.6603 79.8141 91.219 79.8141C90.7777 79.8141 90.4199 79.499 90.4199 79.1104C90.4199 78.7218 90.7777 78.4067 91.219 78.4067C91.6603 78.4067 92.0181 78.7218 92.0181 79.1104Z" fill="#2C394B"/>
<path d="M95.2144 79.1104C95.2144 79.499 94.8566 79.8141 94.4153 79.8141C93.974 79.8141 93.6162 79.499 93.6162 79.1104C93.6162 78.7218 93.974 78.4067 94.4153 78.4067C94.8566 78.4067 95.2144 78.7218 95.2144 79.1104Z" fill="#2C394B"/>
<path d="M98.4107 79.1104C98.4107 79.499 98.0529 79.8141 97.6116 79.8141C97.1703 79.8141 96.8125 79.499 96.8125 79.1104C96.8125 78.7218 97.1703 78.4067 97.6116 78.4067C98.0529 78.4067 98.4107 78.7218 98.4107 79.1104Z" fill="#2C394B"/>
<path d="M101.607 79.1104C101.607 79.499 101.25 79.8141 100.808 79.8141C100.367 79.8141 100.009 79.499 100.009 79.1104C100.009 78.7218 100.367 78.4067 100.808 78.4067C101.25 78.4067 101.607 78.7218 101.607 79.1104Z" fill="#2C394B"/>
<path d="M104.804 79.1104C104.804 79.499 104.446 79.8141 104.005 79.8141C103.563 79.8141 103.206 79.499 103.206 79.1104C103.206 78.7218 103.563 78.4067 104.005 78.4067C104.446 78.4067 104.804 78.7218 104.804 79.1104Z" fill="#2C394B"/>
</g>
<path d="M20 19.7C20 15.9997 23.0489 13 26.8098 13H81.2885C85.0495 13 88.0984 15.9997 88.0984 19.7V73.3C88.0984 77.0003 85.0495 80 81.2885 80H26.8098C23.0489 80 20 77.0003 20 73.3V19.7Z" fill="#E2EEFF"/>
<path fill-rule="evenodd" clip-rule="evenodd" d="M81.2885 14.1167H26.8098C24.9784 14.1167 23.3496 14.9702 22.312 16.2951C21.5739 17.2375 21.135 18.4183 21.135 19.7V73.3C21.135 76.3836 23.6757 78.8833 26.8098 78.8833H81.2885C82.8524 78.8833 84.2686 78.2609 85.2951 77.2541C86.3257 76.2432 86.9634 74.8449 86.9634 73.3V19.7C86.9634 16.6164 84.4227 14.1167 81.2885 14.1167ZM26.8098 13C23.0489 13 20 15.9997 20 19.7V73.3C20 77.0003 23.0489 80 26.8098 80H81.2885C85.0495 80 88.0984 77.0003 88.0984 73.3V19.7C88.0984 15.9997 85.0495 13 81.2885 13H26.8098Z" fill="#2C394B"/>
<path d="M40.9507 57.0456V63.316C40.9507 63.6308 41.2003 63.8861 41.5081 63.8861H66.5901C66.8979 63.8861 67.1474 63.6308 67.1474 63.316V57.0456C67.1474 56.7308 67.397 56.4756 67.7048 56.4756H72.1638C72.4717 56.4756 72.7212 56.7308 72.7212 57.0456V68.4463C72.7212 68.7612 72.4717 69.0164 72.1638 69.0164H35.9343C35.6265 69.0164 35.377 68.7612 35.377 68.4463V57.0456C35.377 56.7308 35.6265 56.4756 35.9343 56.4756H40.3933C40.7012 56.4756 40.9507 56.7308 40.9507 57.0456Z" fill="#74B9FF"/>
<path d="M53.2852 57.8778L46.9945 46.4954C46.7845 46.1154 47.053 45.6449 47.4798 45.6449H49.8688C50.1766 45.6449 50.4261 45.3897 50.4261 45.0749V24.5536C50.4261 24.2388 50.6757 23.9836 50.9835 23.9836H56.5573C56.8651 23.9836 57.1147 24.2388 57.1147 24.5536V45.0749C57.1147 45.3897 57.3642 45.6449 57.672 45.6449H60.061C60.4878 45.6449 60.7563 46.1154 60.5462 46.4954L54.2556 57.8778C54.0423 58.2638 53.4985 58.2638 53.2852 57.8778Z" fill="#74B9FF"/>
<path fill-rule="evenodd" clip-rule="evenodd" d="M49.8768 24.5537C49.8768 23.9472 50.3607 23.4344 50.9834 23.4344H56.5571C57.1798 23.4344 57.6637 23.9472 57.6637 24.5537V45.0749C57.6637 45.0806 57.6647 45.0843 57.6658 45.0869C57.667 45.0899 57.6687 45.0923 57.6704 45.0941C57.6713 45.0949 57.672 45.0955 57.6724 45.0958H60.0609C60.9267 45.0958 61.4289 46.0335 61.0268 46.7611L54.7361 58.1434C54.3139 58.9076 53.2267 58.9076 52.8044 58.1434L46.5138 46.7611C46.1116 46.0335 46.6138 45.0958 47.4796 45.0958H49.8681C49.8685 45.0955 49.8692 45.0949 49.8701 45.0941C49.8718 45.0923 49.8735 45.0899 49.8747 45.0869C49.8758 45.0843 49.8768 45.0806 49.8768 45.0749V24.5537ZM50.9773 24.5417C50.9762 24.5443 50.9752 24.548 50.9752 24.5537V45.0749C50.9752 45.6814 50.4913 46.1942 49.8686 46.1942H47.4796C47.4796 46.1942 47.4795 46.1942 47.4794 46.1942C47.4784 46.1952 47.4769 46.197 47.4752 46.1999C47.472 46.2055 47.4707 46.2111 47.4706 46.2152C47.4706 46.2171 47.4708 46.2188 47.4712 46.2206C47.4716 46.2222 47.4725 46.2253 47.4751 46.2299L53.7657 57.6122C53.7675 57.6154 53.7689 57.6173 53.7696 57.6181C53.7698 57.6182 53.77 57.6182 53.7703 57.6182C53.7705 57.6182 53.7707 57.6182 53.7709 57.6181C53.7716 57.6173 53.773 57.6154 53.7748 57.6122L60.0654 46.2299C60.068 46.2253 60.0689 46.2222 60.0693 46.2206C60.0697 46.2188 60.0699 46.2171 60.0699 46.2152C60.0698 46.2111 60.0685 46.2055 60.0653 46.1999C60.0637 46.197 60.0621 46.1952 60.0611 46.1942C60.061 46.1942 60.0609 46.1942 60.0609 46.1942H57.6719C57.0492 46.1942 56.5653 45.6814 56.5653 45.0749V24.5537C56.5653 24.548 56.5643 24.5443 56.5632 24.5417C56.562 24.5387 56.5603 24.5363 56.5586 24.5345C56.5578 24.5337 56.5571 24.5331 56.5566 24.5328H50.9839C50.9835 24.5331 50.9828 24.5337 50.9819 24.5345C50.9802 24.5363 50.9785 24.5387 50.9773 24.5417ZM34.8276 57.0457C34.8276 56.4392 35.3115 55.9265 35.9342 55.9265H40.3932C41.0159 55.9265 41.4998 56.4392 41.4998 57.0457V63.3161C41.4998 63.3217 41.5008 63.3254 41.5019 63.3281C41.5028 63.3304 41.5041 63.3324 41.5054 63.334C41.5058 63.3344 41.5061 63.3348 41.5065 63.3352C41.5074 63.3361 41.5081 63.3366 41.5085 63.3369H66.5894C66.5898 63.3366 66.5905 63.3361 66.5914 63.3352C66.5931 63.3334 66.5948 63.331 66.596 63.3281C66.5966 63.3266 66.5972 63.3247 66.5976 63.3223C66.5979 63.3205 66.5981 63.3185 66.5981 63.3161V57.0457C66.5981 56.4392 67.082 55.9265 67.7047 55.9265H72.1637C72.7864 55.9265 73.2703 56.4392 73.2703 57.0457V68.4464C73.2703 69.0528 72.7864 69.5656 72.1637 69.5656H35.9342C35.3115 69.5656 34.8276 69.0528 34.8276 68.4464V57.0457ZM35.9281 57.0337C35.927 57.0363 35.926 57.04 35.926 57.0457V68.4464C35.926 68.452 35.927 68.4558 35.9281 68.4584C35.9293 68.4613 35.931 68.4638 35.9327 68.4655C35.9336 68.4664 35.9343 68.4669 35.9347 68.4672H72.1632C72.1636 68.4669 72.1643 68.4664 72.1652 68.4655C72.1669 68.4638 72.1686 68.4613 72.1698 68.4584C72.1709 68.4558 72.1719 68.452 72.1719 68.4464V57.0457C72.1719 57.04 72.1709 57.0363 72.1698 57.0337C72.1686 57.0307 72.1669 57.0283 72.1652 57.0265C72.1643 57.0257 72.1636 57.0251 72.1632 57.0248H67.7052C67.705 57.025 67.7048 57.0252 67.7044 57.0254C67.7041 57.0257 67.7037 57.0261 67.7032 57.0265C67.7015 57.0283 67.6998 57.0307 67.6986 57.0337C67.6975 57.0363 67.6965 57.04 67.6965 57.0457V63.3161C67.6965 63.9225 67.2126 64.4353 66.5899 64.4353H41.508C40.8853 64.4353 40.4014 63.9225 40.4014 63.3161V57.0457C40.4014 57.04 40.4004 57.0363 40.3993 57.0337C40.3981 57.0307 40.3964 57.0283 40.3947 57.0265C40.3938 57.0257 40.3931 57.0251 40.3927 57.0248H35.9347C35.9343 57.0251 35.9336 57.0257 35.9327 57.0265C35.931 57.0283 35.9293 57.0307 35.9281 57.0337Z" fill="#2C394B"/>
<path d="M37.8571 39.5714C37.8571 48.6446 30.5018 56 21.4286 56C12.3553 56 5 48.6446 5 39.5714C5 30.4981 12.3553 23.1428 21.4286 23.1428C30.5018 23.1428 37.8571 30.4981 37.8571 39.5714Z" fill="#F6E049"/>
<path fill-rule="evenodd" clip-rule="evenodd" d="M21.4286 54.5714C29.7128 54.5714 36.4286 47.8557 36.4286 39.5714C36.4286 31.2871 29.7128 24.5714 21.4286 24.5714C13.1443 24.5714 6.42857 31.2871 6.42857 39.5714C6.42857 47.8557 13.1443 54.5714 21.4286 54.5714ZM21.4286 56C30.5018 56 37.8571 48.6446 37.8571 39.5714C37.8571 30.4981 30.5018 23.1428 21.4286 23.1428C12.3553 23.1428 5 30.4981 5 39.5714C5 48.6446 12.3553 56 21.4286 56Z" fill="#2C394B"/>
<path d="M37.8571 31C37.8571 40.0732 30.5018 47.4286 21.4286 47.4286C12.3553 47.4286 5 40.0732 5 31C5 21.9267 12.3553 14.5714 21.4286 14.5714C30.5018 14.5714 37.8571 21.9267 37.8571 31Z" fill="#F6E049"/>
<path fill-rule="evenodd" clip-rule="evenodd" d="M21.4286 46C29.7128 46 36.4286 39.2843 36.4286 31C36.4286 22.7157 29.7128 16 21.4286 16C13.1443 16 6.42857 22.7157 6.42857 31C6.42857 39.2843 13.1443 46 21.4286 46ZM21.4286 47.4286C30.5018 47.4286 37.8571 40.0732 37.8571 31C37.8571 21.9267 30.5018 14.5714 21.4286 14.5714C12.3553 14.5714 5 21.9267 5 31C5 40.0732 12.3553 47.4286 21.4286 47.4286Z" fill="#2C394B"/>
<path d="M37.8571 22.4286C37.8571 31.5018 30.5018 38.8571 21.4286 38.8571C12.3553 38.8571 5 31.5018 5 22.4286C5 13.3553 12.3553 6 21.4286 6C30.5018 6 37.8571 13.3553 37.8571 22.4286Z" fill="#F6E049"/>
<path fill-rule="evenodd" clip-rule="evenodd" d="M21.4286 37.4286C29.7128 37.4286 36.4286 30.7128 36.4286 22.4286C36.4286 14.1443 29.7128 7.42857 21.4286 7.42857C13.1443 7.42857 6.42857 14.1443 6.42857 22.4286C6.42857 30.7128 13.1443 37.4286 21.4286 37.4286ZM21.4286 38.8571C30.5018 38.8571 37.8571 31.5018 37.8571 22.4286C37.8571 13.3553 30.5018 6 21.4286 6C12.3553 6 5 13.3553 5 22.4286C5 31.5018 12.3553 38.8571 21.4286 38.8571Z" fill="#2C394B"/>
<path d="M27.4138 24.6574C27.6707 24.7077 27.8399 24.9574 27.7711 25.21C27.4182 26.5042 26.6721 27.6617 25.6303 28.519C24.4662 29.477 23.0052 30.0006 21.4975 30C19.9899 29.9994 18.5293 29.4748 17.3659 28.5159C16.3247 27.6578 15.5795 26.4997 15.2276 25.2052C15.159 24.9526 15.3284 24.703 15.5853 24.653C15.8423 24.6029 16.0892 24.7713 16.161 25.0231C16.4687 26.1019 17.0974 27.0661 17.9688 27.7843C18.9626 28.6034 20.2101 29.0515 21.4979 29.052C22.7857 29.0525 24.0336 28.6053 25.0279 27.787C25.8999 27.0695 26.5293 26.1057 26.8379 25.0271C26.9099 24.7755 27.1569 24.6072 27.4138 24.6574Z" fill="#2C394B"/>
<path d="M18.8571 18.6431C18.8571 19.7082 17.9937 20.5717 16.9286 20.5717C15.8635 20.5717 15 19.7082 15 18.6431C15 17.578 15.8635 16.7145 16.9286 16.7145C17.9937 16.7145 18.8571 17.578 18.8571 18.6431Z" fill="#2C394B"/>
<path d="M27.8571 18.6431C27.8571 19.7082 26.9937 20.5717 25.9286 20.5717C24.8635 20.5717 24 19.7082 24 18.6431C24 17.578 24.8635 16.7145 25.9286 16.7145C26.9937 16.7145 27.8571 17.578 27.8571 18.6431Z" fill="#2C394B"/>
<defs>
<clipPath id="clip0_250_12884">
<rect width="54" height="41" fill="white" transform="translate(54 39)"/>
</clipPath>
</defs>
</svg>
