<svg width="113" height="84" viewBox="0 0 113 84" fill="none" xmlns="http://www.w3.org/2000/svg">
<path d="M19.2369 47.7835C19.2369 48.0894 18.96 48.3373 18.6185 48.3373C18.2769 48.3373 18 48.0894 18 47.7835C18 47.4777 18.2769 47.2298 18.6185 47.2298C18.96 47.2298 19.2369 47.4777 19.2369 47.7835Z" fill="#2C394B"/>
<path d="M21.7111 47.7835C21.7111 48.0894 21.4342 48.3373 21.0926 48.3373C20.751 48.3373 20.4741 48.0894 20.4741 47.7835C20.4741 47.4777 20.751 47.2298 21.0926 47.2298C21.4342 47.2298 21.7111 47.4777 21.7111 47.7835Z" fill="#2C394B"/>
<path d="M24.1847 47.7835C24.1847 48.0894 23.9078 48.3373 23.5662 48.3373C23.2247 48.3373 22.9478 48.0894 22.9478 47.7835C22.9478 47.4777 23.2247 47.2298 23.5662 47.2298C23.9078 47.2298 24.1847 47.4777 24.1847 47.7835Z" fill="#2C394B"/>
<path d="M26.6588 47.7835C26.6588 48.0894 26.3819 48.3373 26.0403 48.3373C25.6988 48.3373 25.4219 48.0894 25.4219 47.7835C25.4219 47.4777 25.6988 47.2298 26.0403 47.2298C26.3819 47.2298 26.6588 47.4777 26.6588 47.7835Z" fill="#2C394B"/>
<path d="M29.1325 47.7835C29.1325 48.0894 28.8556 48.3373 28.514 48.3373C28.1724 48.3373 27.8955 48.0894 27.8955 47.7835C27.8955 47.4777 28.1724 47.2298 28.514 47.2298C28.8556 47.2298 29.1325 47.4777 29.1325 47.7835Z" fill="#2C394B"/>
<path d="M31.6066 47.7835C31.6066 48.0894 31.3297 48.3373 30.9881 48.3373C30.6465 48.3373 30.3696 48.0894 30.3696 47.7835C30.3696 47.4777 30.6465 47.2298 30.9881 47.2298C31.3297 47.2298 31.6066 47.4777 31.6066 47.7835Z" fill="#2C394B"/>
<path d="M34.0802 47.7835C34.0802 48.0894 33.8033 48.3373 33.4617 48.3373C33.1202 48.3373 32.8433 48.0894 32.8433 47.7835C32.8433 47.4777 33.1202 47.2298 33.4617 47.2298C33.8033 47.2298 34.0802 47.4777 34.0802 47.7835Z" fill="#2C394B"/>
<path d="M36.5543 47.7835C36.5543 48.0894 36.2774 48.3373 35.9359 48.3373C35.5943 48.3373 35.3174 48.0894 35.3174 47.7835C35.3174 47.4777 35.5943 47.2298 35.9359 47.2298C36.2774 47.2298 36.5543 47.4777 36.5543 47.7835Z" fill="#2C394B"/>
<path d="M39.028 47.7835C39.028 48.0894 38.7511 48.3373 38.4095 48.3373C38.0679 48.3373 37.791 48.0894 37.791 47.7835C37.791 47.4777 38.0679 47.2298 38.4095 47.2298C38.7511 47.2298 39.028 47.4777 39.028 47.7835Z" fill="#2C394B"/>
<path d="M41.5021 47.7835C41.5021 48.0894 41.2252 48.3373 40.8836 48.3373C40.542 48.3373 40.2651 48.0894 40.2651 47.7835C40.2651 47.4777 40.542 47.2298 40.8836 47.2298C41.2252 47.2298 41.5021 47.4777 41.5021 47.7835Z" fill="#2C394B"/>
<path d="M43.9757 47.7835C43.9757 48.0894 43.6988 48.3373 43.3572 48.3373C43.0157 48.3373 42.7388 48.0894 42.7388 47.7835C42.7388 47.4777 43.0157 47.2298 43.3572 47.2298C43.6988 47.2298 43.9757 47.4777 43.9757 47.7835Z" fill="#2C394B"/>
<path d="M46.4498 47.7835C46.4498 48.0894 46.1729 48.3373 45.8314 48.3373C45.4898 48.3373 45.2129 48.0894 45.2129 47.7835C45.2129 47.4777 45.4898 47.2298 45.8314 47.2298C46.1729 47.2298 46.4498 47.4777 46.4498 47.7835Z" fill="#2C394B"/>
<path d="M48.9235 47.7835C48.9235 48.0894 48.6466 48.3373 48.305 48.3373C47.9634 48.3373 47.6865 48.0894 47.6865 47.7835C47.6865 47.4777 47.9634 47.2298 48.305 47.2298C48.6466 47.2298 48.9235 47.4777 48.9235 47.7835Z" fill="#2C394B"/>
<path d="M51.3976 47.7835C51.3976 48.0894 51.1207 48.3373 50.7791 48.3373C50.4375 48.3373 50.1606 48.0894 50.1606 47.7835C50.1606 47.4777 50.4375 47.2298 50.7791 47.2298C51.1207 47.2298 51.3976 47.4777 51.3976 47.7835Z" fill="#2C394B"/>
<path d="M53.8717 47.7835C53.8717 48.0894 53.5948 48.3373 53.2532 48.3373C52.9117 48.3373 52.6348 48.0894 52.6348 47.7835C52.6348 47.4777 52.9117 47.2298 53.2532 47.2298C53.5948 47.2298 53.8717 47.4777 53.8717 47.7835Z" fill="#2C394B"/>
<path d="M19.237 49.9984C19.237 50.3042 18.9601 50.5521 18.6185 50.5521C18.2769 50.5521 18 50.3042 18 49.9984C18 49.6926 18.2769 49.4447 18.6185 49.4447C18.9601 49.4447 19.237 49.6926 19.237 49.9984Z" fill="#2C394B"/>
<path d="M21.7111 49.9984C21.7111 50.3042 21.4342 50.5522 21.0926 50.5522C20.751 50.5522 20.4741 50.3042 20.4741 49.9984C20.4741 49.6926 20.751 49.4447 21.0926 49.4447C21.4342 49.4447 21.7111 49.6926 21.7111 49.9984Z" fill="#2C394B"/>
<path d="M24.1847 49.9984C24.1847 50.3042 23.9078 50.5522 23.5662 50.5522C23.2247 50.5522 22.9478 50.3042 22.9478 49.9984C22.9478 49.6926 23.2247 49.4447 23.5662 49.4447C23.9078 49.4447 24.1847 49.6926 24.1847 49.9984Z" fill="#2C394B"/>
<path d="M26.6588 49.9984C26.6588 50.3042 26.3819 50.5522 26.0403 50.5522C25.6988 50.5522 25.4219 50.3042 25.4219 49.9984C25.4219 49.6926 25.6988 49.4447 26.0403 49.4447C26.3819 49.4447 26.6588 49.6926 26.6588 49.9984Z" fill="#2C394B"/>
<path d="M29.1325 49.9984C29.1325 50.3042 28.8556 50.5522 28.514 50.5522C28.1724 50.5522 27.8955 50.3042 27.8955 49.9984C27.8955 49.6926 28.1724 49.4447 28.514 49.4447C28.8556 49.4447 29.1325 49.6926 29.1325 49.9984Z" fill="#2C394B"/>
<path d="M31.6066 49.9984C31.6066 50.3042 31.3297 50.5522 30.9881 50.5522C30.6465 50.5522 30.3696 50.3042 30.3696 49.9984C30.3696 49.6926 30.6465 49.4447 30.9881 49.4447C31.3297 49.4447 31.6066 49.6926 31.6066 49.9984Z" fill="#2C394B"/>
<path d="M34.0802 49.9984C34.0802 50.3042 33.8033 50.5522 33.4617 50.5522C33.1202 50.5522 32.8433 50.3042 32.8433 49.9984C32.8433 49.6926 33.1202 49.4447 33.4617 49.4447C33.8033 49.4447 34.0802 49.6926 34.0802 49.9984Z" fill="#2C394B"/>
<path d="M36.5543 49.9984C36.5543 50.3042 36.2774 50.5522 35.9359 50.5522C35.5943 50.5522 35.3174 50.3042 35.3174 49.9984C35.3174 49.6926 35.5943 49.4447 35.9359 49.4447C36.2774 49.4447 36.5543 49.6926 36.5543 49.9984Z" fill="#2C394B"/>
<path d="M39.028 49.9984C39.028 50.3042 38.7511 50.5522 38.4095 50.5522C38.0679 50.5522 37.791 50.3042 37.791 49.9984C37.791 49.6926 38.0679 49.4447 38.4095 49.4447C38.7511 49.4447 39.028 49.6926 39.028 49.9984Z" fill="#2C394B"/>
<path d="M41.5021 49.9984C41.5021 50.3042 41.2252 50.5522 40.8836 50.5522C40.542 50.5522 40.2651 50.3042 40.2651 49.9984C40.2651 49.6926 40.542 49.4447 40.8836 49.4447C41.2252 49.4447 41.5021 49.6926 41.5021 49.9984Z" fill="#2C394B"/>
<path d="M43.9757 49.9984C43.9757 50.3042 43.6988 50.5522 43.3572 50.5522C43.0157 50.5522 42.7388 50.3042 42.7388 49.9984C42.7388 49.6926 43.0157 49.4447 43.3572 49.4447C43.6988 49.4447 43.9757 49.6926 43.9757 49.9984Z" fill="#2C394B"/>
<path d="M46.4498 49.9984C46.4498 50.3042 46.1729 50.5522 45.8314 50.5522C45.4898 50.5522 45.2129 50.3042 45.2129 49.9984C45.2129 49.6926 45.4898 49.4447 45.8314 49.4447C46.1729 49.4447 46.4498 49.6926 46.4498 49.9984Z" fill="#2C394B"/>
<path d="M48.9235 49.9984C48.9235 50.3042 48.6466 50.5522 48.305 50.5522C47.9634 50.5522 47.6865 50.3042 47.6865 49.9984C47.6865 49.6926 47.9634 49.4447 48.305 49.4447C48.6466 49.4447 48.9235 49.6926 48.9235 49.9984Z" fill="#2C394B"/>
<path d="M51.3976 49.9984C51.3976 50.3042 51.1207 50.5522 50.7791 50.5522C50.4375 50.5522 50.1606 50.3042 50.1606 49.9984C50.1606 49.6926 50.4375 49.4447 50.7791 49.4447C51.1207 49.4447 51.3976 49.6926 51.3976 49.9984Z" fill="#2C394B"/>
<path d="M53.8717 49.9984C53.8717 50.3042 53.5948 50.5522 53.2532 50.5522C52.9117 50.5522 52.6348 50.3042 52.6348 49.9984C52.6348 49.6926 52.9117 49.4447 53.2532 49.4447C53.5948 49.4447 53.8717 49.6926 53.8717 49.9984Z" fill="#2C394B"/>
<path d="M56.3453 49.9984C56.3453 50.3042 56.0684 50.5522 55.7269 50.5522C55.3853 50.5522 55.1084 50.3042 55.1084 49.9984C55.1084 49.6926 55.3853 49.4447 55.7269 49.4447C56.0684 49.4447 56.3453 49.6926 56.3453 49.9984Z" fill="#2C394B"/>
<path d="M19.2369 52.2133C19.2369 52.5192 18.96 52.7671 18.6185 52.7671C18.2769 52.7671 18 52.5192 18 52.2133C18 51.9075 18.2769 51.6596 18.6185 51.6596C18.96 51.6596 19.2369 51.9075 19.2369 52.2133Z" fill="#2C394B"/>
<path d="M21.7111 52.2133C21.7111 52.5192 21.4342 52.7671 21.0926 52.7671C20.751 52.7671 20.4741 52.5192 20.4741 52.2133C20.4741 51.9075 20.751 51.6596 21.0926 51.6596C21.4342 51.6596 21.7111 51.9075 21.7111 52.2133Z" fill="#2C394B"/>
<path d="M24.1847 52.2133C24.1847 52.5192 23.9078 52.7671 23.5662 52.7671C23.2247 52.7671 22.9478 52.5192 22.9478 52.2133C22.9478 51.9075 23.2247 51.6596 23.5662 51.6596C23.9078 51.6596 24.1847 51.9075 24.1847 52.2133Z" fill="#2C394B"/>
<path d="M26.6588 52.2133C26.6588 52.5192 26.3819 52.7671 26.0403 52.7671C25.6988 52.7671 25.4219 52.5192 25.4219 52.2133C25.4219 51.9075 25.6988 51.6596 26.0403 51.6596C26.3819 51.6596 26.6588 51.9075 26.6588 52.2133Z" fill="#2C394B"/>
<path d="M29.1325 52.2133C29.1325 52.5192 28.8556 52.7671 28.514 52.7671C28.1724 52.7671 27.8955 52.5192 27.8955 52.2133C27.8955 51.9075 28.1724 51.6596 28.514 51.6596C28.8556 51.6596 29.1325 51.9075 29.1325 52.2133Z" fill="#2C394B"/>
<path d="M31.6066 52.2133C31.6066 52.5192 31.3297 52.7671 30.9881 52.7671C30.6465 52.7671 30.3696 52.5192 30.3696 52.2133C30.3696 51.9075 30.6465 51.6596 30.9881 51.6596C31.3297 51.6596 31.6066 51.9075 31.6066 52.2133Z" fill="#2C394B"/>
<path d="M34.0802 52.2133C34.0802 52.5192 33.8033 52.7671 33.4617 52.7671C33.1202 52.7671 32.8433 52.5192 32.8433 52.2133C32.8433 51.9075 33.1202 51.6596 33.4617 51.6596C33.8033 51.6596 34.0802 51.9075 34.0802 52.2133Z" fill="#2C394B"/>
<path d="M36.5543 52.2133C36.5543 52.5192 36.2774 52.7671 35.9359 52.7671C35.5943 52.7671 35.3174 52.5192 35.3174 52.2133C35.3174 51.9075 35.5943 51.6596 35.9359 51.6596C36.2774 51.6596 36.5543 51.9075 36.5543 52.2133Z" fill="#2C394B"/>
<path d="M39.028 52.2133C39.028 52.5192 38.7511 52.7671 38.4095 52.7671C38.0679 52.7671 37.791 52.5192 37.791 52.2133C37.791 51.9075 38.0679 51.6596 38.4095 51.6596C38.7511 51.6596 39.028 51.9075 39.028 52.2133Z" fill="#2C394B"/>
<path d="M41.5021 52.2133C41.5021 52.5192 41.2252 52.7671 40.8836 52.7671C40.542 52.7671 40.2651 52.5192 40.2651 52.2133C40.2651 51.9075 40.542 51.6596 40.8836 51.6596C41.2252 51.6596 41.5021 51.9075 41.5021 52.2133Z" fill="#2C394B"/>
<path d="M43.9757 52.2133C43.9757 52.5192 43.6988 52.7671 43.3572 52.7671C43.0157 52.7671 42.7388 52.5192 42.7388 52.2133C42.7388 51.9075 43.0157 51.6596 43.3572 51.6596C43.6988 51.6596 43.9757 51.9075 43.9757 52.2133Z" fill="#2C394B"/>
<path d="M46.4498 52.2133C46.4498 52.5192 46.1729 52.7671 45.8314 52.7671C45.4898 52.7671 45.2129 52.5192 45.2129 52.2133C45.2129 51.9075 45.4898 51.6596 45.8314 51.6596C46.1729 51.6596 46.4498 51.9075 46.4498 52.2133Z" fill="#2C394B"/>
<path d="M48.9235 52.2133C48.9235 52.5192 48.6466 52.7671 48.305 52.7671C47.9634 52.7671 47.6865 52.5192 47.6865 52.2133C47.6865 51.9075 47.9634 51.6596 48.305 51.6596C48.6466 51.6596 48.9235 51.9075 48.9235 52.2133Z" fill="#2C394B"/>
<path d="M51.3976 52.2133C51.3976 52.5192 51.1207 52.7671 50.7791 52.7671C50.4375 52.7671 50.1606 52.5192 50.1606 52.2133C50.1606 51.9075 50.4375 51.6596 50.7791 51.6596C51.1207 51.6596 51.3976 51.9075 51.3976 52.2133Z" fill="#2C394B"/>
<path d="M53.8717 52.2133C53.8717 52.5192 53.5948 52.7671 53.2532 52.7671C52.9117 52.7671 52.6348 52.5192 52.6348 52.2133C52.6348 51.9075 52.9117 51.6596 53.2532 51.6596C53.5948 51.6596 53.8717 51.9075 53.8717 52.2133Z" fill="#2C394B"/>
<path d="M56.3453 52.2133C56.3453 52.5192 56.0684 52.7671 55.7269 52.7671C55.3853 52.7671 55.1084 52.5192 55.1084 52.2133C55.1084 51.9075 55.3853 51.6596 55.7269 51.6596C56.0684 51.6596 56.3453 51.9075 56.3453 52.2133Z" fill="#2C394B"/>
<path d="M58.8195 52.2133C58.8195 52.5192 58.5426 52.7671 58.201 52.7671C57.8594 52.7671 57.5825 52.5192 57.5825 52.2133C57.5825 51.9075 57.8594 51.6596 58.201 51.6596C58.5426 51.6596 58.8195 51.9075 58.8195 52.2133Z" fill="#2C394B"/>
<path d="M19.2369 54.4283C19.2369 54.7341 18.96 54.982 18.6185 54.982C18.2769 54.982 18 54.7341 18 54.4283C18 54.1225 18.2769 53.8746 18.6185 53.8746C18.96 53.8746 19.2369 54.1225 19.2369 54.4283Z" fill="#2C394B"/>
<path d="M21.7111 54.4283C21.7111 54.7341 21.4342 54.982 21.0926 54.982C20.751 54.982 20.4741 54.7341 20.4741 54.4283C20.4741 54.1225 20.751 53.8746 21.0926 53.8746C21.4342 53.8746 21.7111 54.1225 21.7111 54.4283Z" fill="#2C394B"/>
<path d="M24.1847 54.4283C24.1847 54.7341 23.9078 54.982 23.5662 54.982C23.2247 54.982 22.9478 54.7341 22.9478 54.4283C22.9478 54.1225 23.2247 53.8746 23.5662 53.8746C23.9078 53.8746 24.1847 54.1225 24.1847 54.4283Z" fill="#2C394B"/>
<path d="M26.6588 54.4283C26.6588 54.7341 26.3819 54.982 26.0403 54.982C25.6988 54.982 25.4219 54.7341 25.4219 54.4283C25.4219 54.1225 25.6988 53.8746 26.0403 53.8746C26.3819 53.8746 26.6588 54.1225 26.6588 54.4283Z" fill="#2C394B"/>
<path d="M29.1325 54.4283C29.1325 54.7341 28.8556 54.982 28.514 54.982C28.1724 54.982 27.8955 54.7341 27.8955 54.4283C27.8955 54.1225 28.1724 53.8746 28.514 53.8746C28.8556 53.8746 29.1325 54.1225 29.1325 54.4283Z" fill="#2C394B"/>
<path d="M31.6066 54.4283C31.6066 54.7341 31.3297 54.982 30.9881 54.982C30.6465 54.982 30.3696 54.7341 30.3696 54.4283C30.3696 54.1225 30.6465 53.8746 30.9881 53.8746C31.3297 53.8746 31.6066 54.1225 31.6066 54.4283Z" fill="#2C394B"/>
<path d="M34.0802 54.4283C34.0802 54.7341 33.8033 54.982 33.4617 54.982C33.1202 54.982 32.8433 54.7341 32.8433 54.4283C32.8433 54.1225 33.1202 53.8746 33.4617 53.8746C33.8033 53.8746 34.0802 54.1225 34.0802 54.4283Z" fill="#2C394B"/>
<path d="M36.5543 54.4283C36.5543 54.7341 36.2774 54.982 35.9359 54.982C35.5943 54.982 35.3174 54.7341 35.3174 54.4283C35.3174 54.1225 35.5943 53.8746 35.9359 53.8746C36.2774 53.8746 36.5543 54.1225 36.5543 54.4283Z" fill="#2C394B"/>
<path d="M39.028 54.4283C39.028 54.7341 38.7511 54.982 38.4095 54.982C38.0679 54.982 37.791 54.7341 37.791 54.4283C37.791 54.1225 38.0679 53.8746 38.4095 53.8746C38.7511 53.8746 39.028 54.1225 39.028 54.4283Z" fill="#2C394B"/>
<path d="M41.5021 54.4283C41.5021 54.7341 41.2252 54.982 40.8836 54.982C40.542 54.982 40.2651 54.7341 40.2651 54.4283C40.2651 54.1225 40.542 53.8746 40.8836 53.8746C41.2252 53.8746 41.5021 54.1225 41.5021 54.4283Z" fill="#2C394B"/>
<path d="M43.9757 54.4283C43.9757 54.7341 43.6988 54.982 43.3572 54.982C43.0157 54.982 42.7388 54.7341 42.7388 54.4283C42.7388 54.1225 43.0157 53.8746 43.3572 53.8746C43.6988 53.8746 43.9757 54.1225 43.9757 54.4283Z" fill="#2C394B"/>
<path d="M46.4498 54.4283C46.4498 54.7341 46.1729 54.982 45.8314 54.982C45.4898 54.982 45.2129 54.7341 45.2129 54.4283C45.2129 54.1225 45.4898 53.8746 45.8314 53.8746C46.1729 53.8746 46.4498 54.1225 46.4498 54.4283Z" fill="#2C394B"/>
<path d="M48.9235 54.4283C48.9235 54.7341 48.6466 54.982 48.305 54.982C47.9634 54.982 47.6865 54.7341 47.6865 54.4283C47.6865 54.1225 47.9634 53.8746 48.305 53.8746C48.6466 53.8746 48.9235 54.1225 48.9235 54.4283Z" fill="#2C394B"/>
<path d="M51.3976 54.4283C51.3976 54.7341 51.1207 54.982 50.7791 54.982C50.4375 54.982 50.1606 54.7341 50.1606 54.4283C50.1606 54.1225 50.4375 53.8746 50.7791 53.8746C51.1207 53.8746 51.3976 54.1225 51.3976 54.4283Z" fill="#2C394B"/>
<path d="M53.8717 54.4283C53.8717 54.7341 53.5948 54.982 53.2532 54.982C52.9117 54.982 52.6348 54.7341 52.6348 54.4283C52.6348 54.1225 52.9117 53.8746 53.2532 53.8746C53.5948 53.8746 53.8717 54.1225 53.8717 54.4283Z" fill="#2C394B"/>
<path d="M56.3453 54.4283C56.3453 54.7341 56.0684 54.982 55.7269 54.982C55.3853 54.982 55.1084 54.7341 55.1084 54.4283C55.1084 54.1225 55.3853 53.8746 55.7269 53.8746C56.0684 53.8746 56.3453 54.1225 56.3453 54.4283Z" fill="#2C394B"/>
<path d="M58.8195 54.4283C58.8195 54.7341 58.5426 54.982 58.201 54.982C57.8594 54.982 57.5825 54.7341 57.5825 54.4283C57.5825 54.1225 57.8594 53.8746 58.201 53.8746C58.5426 53.8746 58.8195 54.1225 58.8195 54.4283Z" fill="#2C394B"/>
<path d="M61.2931 54.4283C61.2931 54.7341 61.0162 54.982 60.6746 54.982C60.3331 54.982 60.0562 54.7341 60.0562 54.4283C60.0562 54.1225 60.3331 53.8746 60.6746 53.8746C61.0162 53.8746 61.2931 54.1225 61.2931 54.4283Z" fill="#2C394B"/>
<path d="M19.2369 56.6432C19.2369 56.949 18.96 57.1969 18.6185 57.1969C18.2769 57.1969 18 56.949 18 56.6432C18 56.3374 18.2769 56.0895 18.6185 56.0895C18.96 56.0895 19.2369 56.3374 19.2369 56.6432Z" fill="#2C394B"/>
<path d="M21.7111 56.6432C21.7111 56.949 21.4342 57.1969 21.0926 57.1969C20.751 57.1969 20.4741 56.949 20.4741 56.6432C20.4741 56.3374 20.751 56.0895 21.0926 56.0895C21.4342 56.0895 21.7111 56.3374 21.7111 56.6432Z" fill="#2C394B"/>
<path d="M24.1847 56.6432C24.1847 56.949 23.9078 57.1969 23.5662 57.1969C23.2247 57.1969 22.9478 56.949 22.9478 56.6432C22.9478 56.3374 23.2247 56.0895 23.5662 56.0895C23.9078 56.0895 24.1847 56.3374 24.1847 56.6432Z" fill="#2C394B"/>
<path d="M26.6588 56.6432C26.6588 56.949 26.3819 57.1969 26.0403 57.1969C25.6988 57.1969 25.4219 56.949 25.4219 56.6432C25.4219 56.3374 25.6988 56.0895 26.0403 56.0895C26.3819 56.0895 26.6588 56.3374 26.6588 56.6432Z" fill="#2C394B"/>
<path d="M29.1325 56.6432C29.1325 56.949 28.8556 57.1969 28.514 57.1969C28.1724 57.1969 27.8955 56.949 27.8955 56.6432C27.8955 56.3374 28.1724 56.0895 28.514 56.0895C28.8556 56.0895 29.1325 56.3374 29.1325 56.6432Z" fill="#2C394B"/>
<path d="M31.6066 56.6432C31.6066 56.949 31.3297 57.1969 30.9881 57.1969C30.6465 57.1969 30.3696 56.949 30.3696 56.6432C30.3696 56.3374 30.6465 56.0895 30.9881 56.0895C31.3297 56.0895 31.6066 56.3374 31.6066 56.6432Z" fill="#2C394B"/>
<path d="M34.0802 56.6432C34.0802 56.949 33.8033 57.1969 33.4617 57.1969C33.1202 57.1969 32.8433 56.949 32.8433 56.6432C32.8433 56.3374 33.1202 56.0895 33.4617 56.0895C33.8033 56.0895 34.0802 56.3374 34.0802 56.6432Z" fill="#2C394B"/>
<path d="M36.5543 56.6432C36.5543 56.949 36.2774 57.1969 35.9359 57.1969C35.5943 57.1969 35.3174 56.949 35.3174 56.6432C35.3174 56.3374 35.5943 56.0895 35.9359 56.0895C36.2774 56.0895 36.5543 56.3374 36.5543 56.6432Z" fill="#2C394B"/>
<path d="M39.028 56.6432C39.028 56.949 38.7511 57.1969 38.4095 57.1969C38.0679 57.1969 37.791 56.949 37.791 56.6432C37.791 56.3374 38.0679 56.0895 38.4095 56.0895C38.7511 56.0895 39.028 56.3374 39.028 56.6432Z" fill="#2C394B"/>
<path d="M41.5021 56.6432C41.5021 56.949 41.2252 57.1969 40.8836 57.1969C40.542 57.1969 40.2651 56.949 40.2651 56.6432C40.2651 56.3374 40.542 56.0895 40.8836 56.0895C41.2252 56.0895 41.5021 56.3374 41.5021 56.6432Z" fill="#2C394B"/>
<path d="M43.9757 56.6432C43.9757 56.949 43.6988 57.1969 43.3572 57.1969C43.0157 57.1969 42.7388 56.949 42.7388 56.6432C42.7388 56.3374 43.0157 56.0895 43.3572 56.0895C43.6988 56.0895 43.9757 56.3374 43.9757 56.6432Z" fill="#2C394B"/>
<path d="M46.4498 56.6432C46.4498 56.949 46.1729 57.1969 45.8314 57.1969C45.4898 57.1969 45.2129 56.949 45.2129 56.6432C45.2129 56.3374 45.4898 56.0895 45.8314 56.0895C46.1729 56.0895 46.4498 56.3374 46.4498 56.6432Z" fill="#2C394B"/>
<path d="M48.9235 56.6432C48.9235 56.949 48.6466 57.1969 48.305 57.1969C47.9634 57.1969 47.6865 56.949 47.6865 56.6432C47.6865 56.3374 47.9634 56.0895 48.305 56.0895C48.6466 56.0895 48.9235 56.3374 48.9235 56.6432Z" fill="#2C394B"/>
<path d="M51.3976 56.6432C51.3976 56.949 51.1207 57.1969 50.7791 57.1969C50.4375 57.1969 50.1606 56.949 50.1606 56.6432C50.1606 56.3374 50.4375 56.0895 50.7791 56.0895C51.1207 56.0895 51.3976 56.3374 51.3976 56.6432Z" fill="#2C394B"/>
<path d="M53.8717 56.6432C53.8717 56.949 53.5948 57.1969 53.2532 57.1969C52.9117 57.1969 52.6348 56.949 52.6348 56.6432C52.6348 56.3374 52.9117 56.0895 53.2532 56.0895C53.5948 56.0895 53.8717 56.3374 53.8717 56.6432Z" fill="#2C394B"/>
<path d="M56.3453 56.6432C56.3453 56.949 56.0684 57.1969 55.7269 57.1969C55.3853 57.1969 55.1084 56.949 55.1084 56.6432C55.1084 56.3374 55.3853 56.0895 55.7269 56.0895C56.0684 56.0895 56.3453 56.3374 56.3453 56.6432Z" fill="#2C394B"/>
<path d="M58.8195 56.6432C58.8195 56.949 58.5426 57.1969 58.201 57.1969C57.8594 57.1969 57.5825 56.949 57.5825 56.6432C57.5825 56.3374 57.8594 56.0895 58.201 56.0895C58.5426 56.0895 58.8195 56.3374 58.8195 56.6432Z" fill="#2C394B"/>
<path d="M61.2931 56.6432C61.2931 56.949 61.0162 57.1969 60.6746 57.1969C60.3331 57.1969 60.0562 56.949 60.0562 56.6432C60.0562 56.3374 60.3331 56.0895 60.6746 56.0895C61.0162 56.0895 61.2931 56.3374 61.2931 56.6432Z" fill="#2C394B"/>
<path d="M63.7672 56.6432C63.7672 56.949 63.4903 57.1969 63.1487 57.1969C62.8072 57.1969 62.5303 56.949 62.5303 56.6432C62.5303 56.3374 62.8072 56.0895 63.1487 56.0895C63.4903 56.0895 63.7672 56.3374 63.7672 56.6432Z" fill="#2C394B"/>
<path d="M19.2369 58.8581C19.2369 59.1639 18.96 59.4118 18.6185 59.4118C18.2769 59.4118 18 59.1639 18 58.8581C18 58.5523 18.2769 58.3044 18.6185 58.3044C18.96 58.3044 19.2369 58.5523 19.2369 58.8581Z" fill="#2C394B"/>
<path d="M21.7111 58.8581C21.7111 59.1639 21.4342 59.4118 21.0926 59.4118C20.751 59.4118 20.4741 59.1639 20.4741 58.8581C20.4741 58.5523 20.751 58.3044 21.0926 58.3044C21.4342 58.3044 21.7111 58.5523 21.7111 58.8581Z" fill="#2C394B"/>
<path d="M24.1847 58.8581C24.1847 59.1639 23.9078 59.4118 23.5662 59.4118C23.2247 59.4118 22.9478 59.1639 22.9478 58.8581C22.9478 58.5523 23.2247 58.3044 23.5662 58.3044C23.9078 58.3044 24.1847 58.5523 24.1847 58.8581Z" fill="#2C394B"/>
<path d="M26.6588 58.8581C26.6588 59.1639 26.3819 59.4118 26.0403 59.4118C25.6988 59.4118 25.4219 59.1639 25.4219 58.8581C25.4219 58.5523 25.6988 58.3044 26.0403 58.3044C26.3819 58.3044 26.6588 58.5523 26.6588 58.8581Z" fill="#2C394B"/>
<path d="M29.1325 58.8581C29.1325 59.1639 28.8556 59.4118 28.514 59.4118C28.1724 59.4118 27.8955 59.1639 27.8955 58.8581C27.8955 58.5523 28.1724 58.3044 28.514 58.3044C28.8556 58.3044 29.1325 58.5523 29.1325 58.8581Z" fill="#2C394B"/>
<path d="M31.6066 58.8581C31.6066 59.1639 31.3297 59.4118 30.9881 59.4118C30.6465 59.4118 30.3696 59.1639 30.3696 58.8581C30.3696 58.5523 30.6465 58.3044 30.9881 58.3044C31.3297 58.3044 31.6066 58.5523 31.6066 58.8581Z" fill="#2C394B"/>
<path d="M34.0802 58.8581C34.0802 59.1639 33.8033 59.4118 33.4617 59.4118C33.1202 59.4118 32.8433 59.1639 32.8433 58.8581C32.8433 58.5523 33.1202 58.3044 33.4617 58.3044C33.8033 58.3044 34.0802 58.5523 34.0802 58.8581Z" fill="#2C394B"/>
<path d="M36.5543 58.8581C36.5543 59.1639 36.2774 59.4118 35.9359 59.4118C35.5943 59.4118 35.3174 59.1639 35.3174 58.8581C35.3174 58.5523 35.5943 58.3044 35.9359 58.3044C36.2774 58.3044 36.5543 58.5523 36.5543 58.8581Z" fill="#2C394B"/>
<path d="M39.028 58.8581C39.028 59.1639 38.7511 59.4118 38.4095 59.4118C38.0679 59.4118 37.791 59.1639 37.791 58.8581C37.791 58.5523 38.0679 58.3044 38.4095 58.3044C38.7511 58.3044 39.028 58.5523 39.028 58.8581Z" fill="#2C394B"/>
<path d="M41.5021 58.8581C41.5021 59.1639 41.2252 59.4118 40.8836 59.4118C40.542 59.4118 40.2651 59.1639 40.2651 58.8581C40.2651 58.5523 40.542 58.3044 40.8836 58.3044C41.2252 58.3044 41.5021 58.5523 41.5021 58.8581Z" fill="#2C394B"/>
<path d="M43.9757 58.8581C43.9757 59.1639 43.6988 59.4118 43.3572 59.4118C43.0157 59.4118 42.7388 59.1639 42.7388 58.8581C42.7388 58.5523 43.0157 58.3044 43.3572 58.3044C43.6988 58.3044 43.9757 58.5523 43.9757 58.8581Z" fill="#2C394B"/>
<path d="M46.4498 58.8581C46.4498 59.1639 46.1729 59.4118 45.8314 59.4118C45.4898 59.4118 45.2129 59.1639 45.2129 58.8581C45.2129 58.5523 45.4898 58.3044 45.8314 58.3044C46.1729 58.3044 46.4498 58.5523 46.4498 58.8581Z" fill="#2C394B"/>
<path d="M48.9235 58.8581C48.9235 59.1639 48.6466 59.4118 48.305 59.4118C47.9634 59.4118 47.6865 59.1639 47.6865 58.8581C47.6865 58.5523 47.9634 58.3044 48.305 58.3044C48.6466 58.3044 48.9235 58.5523 48.9235 58.8581Z" fill="#2C394B"/>
<path d="M51.3976 58.8581C51.3976 59.1639 51.1207 59.4118 50.7791 59.4118C50.4375 59.4118 50.1606 59.1639 50.1606 58.8581C50.1606 58.5523 50.4375 58.3044 50.7791 58.3044C51.1207 58.3044 51.3976 58.5523 51.3976 58.8581Z" fill="#2C394B"/>
<path d="M53.8717 58.8581C53.8717 59.1639 53.5948 59.4118 53.2532 59.4118C52.9117 59.4118 52.6348 59.1639 52.6348 58.8581C52.6348 58.5523 52.9117 58.3044 53.2532 58.3044C53.5948 58.3044 53.8717 58.5523 53.8717 58.8581Z" fill="#2C394B"/>
<path d="M56.3453 58.8581C56.3453 59.1639 56.0684 59.4118 55.7269 59.4118C55.3853 59.4118 55.1084 59.1639 55.1084 58.8581C55.1084 58.5523 55.3853 58.3044 55.7269 58.3044C56.0684 58.3044 56.3453 58.5523 56.3453 58.8581Z" fill="#2C394B"/>
<path d="M58.8195 58.8581C58.8195 59.1639 58.5426 59.4118 58.201 59.4118C57.8594 59.4118 57.5825 59.1639 57.5825 58.8581C57.5825 58.5523 57.8594 58.3044 58.201 58.3044C58.5426 58.3044 58.8195 58.5523 58.8195 58.8581Z" fill="#2C394B"/>
<path d="M61.2931 58.8581C61.2931 59.1639 61.0162 59.4118 60.6746 59.4118C60.3331 59.4118 60.0562 59.1639 60.0562 58.8581C60.0562 58.5523 60.3331 58.3044 60.6746 58.3044C61.0162 58.3044 61.2931 58.5523 61.2931 58.8581Z" fill="#2C394B"/>
<path d="M63.7672 58.8581C63.7672 59.1639 63.4903 59.4118 63.1487 59.4118C62.8072 59.4118 62.5303 59.1639 62.5303 58.8581C62.5303 58.5523 62.8072 58.3044 63.1487 58.3044C63.4903 58.3044 63.7672 58.5523 63.7672 58.8581Z" fill="#2C394B"/>
<path d="M19.2369 61.073C19.2369 61.3788 18.96 61.6268 18.6185 61.6268C18.2769 61.6268 18 61.3788 18 61.073C18 60.7672 18.2769 60.5193 18.6185 60.5193C18.96 60.5193 19.2369 60.7672 19.2369 61.073Z" fill="#2C394B"/>
<path d="M21.7111 61.073C21.7111 61.3788 21.4342 61.6267 21.0926 61.6267C20.751 61.6267 20.4741 61.3788 20.4741 61.073C20.4741 60.7672 20.751 60.5193 21.0926 60.5193C21.4342 60.5193 21.7111 60.7672 21.7111 61.073Z" fill="#2C394B"/>
<path d="M24.1847 61.073C24.1847 61.3788 23.9078 61.6267 23.5662 61.6267C23.2247 61.6267 22.9478 61.3788 22.9478 61.073C22.9478 60.7672 23.2247 60.5193 23.5662 60.5193C23.9078 60.5193 24.1847 60.7672 24.1847 61.073Z" fill="#2C394B"/>
<path d="M26.6588 61.073C26.6588 61.3788 26.3819 61.6267 26.0403 61.6267C25.6988 61.6267 25.4219 61.3788 25.4219 61.073C25.4219 60.7672 25.6988 60.5193 26.0403 60.5193C26.3819 60.5193 26.6588 60.7672 26.6588 61.073Z" fill="#2C394B"/>
<path d="M29.1325 61.073C29.1325 61.3788 28.8556 61.6267 28.514 61.6267C28.1724 61.6267 27.8955 61.3788 27.8955 61.073C27.8955 60.7672 28.1724 60.5193 28.514 60.5193C28.8556 60.5193 29.1325 60.7672 29.1325 61.073Z" fill="#2C394B"/>
<path d="M31.6066 61.073C31.6066 61.3788 31.3297 61.6267 30.9881 61.6267C30.6465 61.6267 30.3696 61.3788 30.3696 61.073C30.3696 60.7672 30.6465 60.5193 30.9881 60.5193C31.3297 60.5193 31.6066 60.7672 31.6066 61.073Z" fill="#2C394B"/>
<path d="M34.0802 61.073C34.0802 61.3788 33.8033 61.6267 33.4617 61.6267C33.1202 61.6267 32.8433 61.3788 32.8433 61.073C32.8433 60.7672 33.1202 60.5193 33.4617 60.5193C33.8033 60.5193 34.0802 60.7672 34.0802 61.073Z" fill="#2C394B"/>
<path d="M36.5543 61.073C36.5543 61.3788 36.2774 61.6267 35.9359 61.6267C35.5943 61.6267 35.3174 61.3788 35.3174 61.073C35.3174 60.7672 35.5943 60.5193 35.9359 60.5193C36.2774 60.5193 36.5543 60.7672 36.5543 61.073Z" fill="#2C394B"/>
<path d="M39.028 61.073C39.028 61.3788 38.7511 61.6267 38.4095 61.6267C38.0679 61.6267 37.791 61.3788 37.791 61.073C37.791 60.7672 38.0679 60.5193 38.4095 60.5193C38.7511 60.5193 39.028 60.7672 39.028 61.073Z" fill="#2C394B"/>
<path d="M41.5021 61.073C41.5021 61.3788 41.2252 61.6267 40.8836 61.6267C40.542 61.6267 40.2651 61.3788 40.2651 61.073C40.2651 60.7672 40.542 60.5193 40.8836 60.5193C41.2252 60.5193 41.5021 60.7672 41.5021 61.073Z" fill="#2C394B"/>
<path d="M43.9757 61.073C43.9757 61.3788 43.6988 61.6267 43.3572 61.6267C43.0157 61.6267 42.7388 61.3788 42.7388 61.073C42.7388 60.7672 43.0157 60.5193 43.3572 60.5193C43.6988 60.5193 43.9757 60.7672 43.9757 61.073Z" fill="#2C394B"/>
<path d="M46.4498 61.073C46.4498 61.3788 46.1729 61.6267 45.8314 61.6267C45.4898 61.6267 45.2129 61.3788 45.2129 61.073C45.2129 60.7672 45.4898 60.5193 45.8314 60.5193C46.1729 60.5193 46.4498 60.7672 46.4498 61.073Z" fill="#2C394B"/>
<path d="M48.9235 61.073C48.9235 61.3788 48.6466 61.6267 48.305 61.6267C47.9634 61.6267 47.6865 61.3788 47.6865 61.073C47.6865 60.7672 47.9634 60.5193 48.305 60.5193C48.6466 60.5193 48.9235 60.7672 48.9235 61.073Z" fill="#2C394B"/>
<path d="M51.3976 61.073C51.3976 61.3788 51.1207 61.6267 50.7791 61.6267C50.4375 61.6267 50.1606 61.3788 50.1606 61.073C50.1606 60.7672 50.4375 60.5193 50.7791 60.5193C51.1207 60.5193 51.3976 60.7672 51.3976 61.073Z" fill="#2C394B"/>
<path d="M53.8717 61.073C53.8717 61.3788 53.5948 61.6267 53.2532 61.6267C52.9117 61.6267 52.6348 61.3788 52.6348 61.073C52.6348 60.7672 52.9117 60.5193 53.2532 60.5193C53.5948 60.5193 53.8717 60.7672 53.8717 61.073Z" fill="#2C394B"/>
<path d="M56.3453 61.073C56.3453 61.3788 56.0684 61.6267 55.7269 61.6267C55.3853 61.6267 55.1084 61.3788 55.1084 61.073C55.1084 60.7672 55.3853 60.5193 55.7269 60.5193C56.0684 60.5193 56.3453 60.7672 56.3453 61.073Z" fill="#2C394B"/>
<path d="M58.8195 61.073C58.8195 61.3788 58.5426 61.6267 58.201 61.6267C57.8594 61.6267 57.5825 61.3788 57.5825 61.073C57.5825 60.7672 57.8594 60.5193 58.201 60.5193C58.5426 60.5193 58.8195 60.7672 58.8195 61.073Z" fill="#2C394B"/>
<path d="M61.2931 61.073C61.2931 61.3788 61.0162 61.6267 60.6746 61.6267C60.3331 61.6267 60.0562 61.3788 60.0562 61.073C60.0562 60.7672 60.3331 60.5193 60.6746 60.5193C61.0162 60.5193 61.2931 60.7672 61.2931 61.073Z" fill="#2C394B"/>
<path d="M63.7672 61.073C63.7672 61.3788 63.4903 61.6267 63.1487 61.6267C62.8072 61.6267 62.5303 61.3788 62.5303 61.073C62.5303 60.7672 62.8072 60.5193 63.1487 60.5193C63.4903 60.5193 63.7672 60.7672 63.7672 61.073Z" fill="#2C394B"/>
<path d="M66.2409 61.073C66.2409 61.3788 65.964 61.6267 65.6224 61.6267C65.2808 61.6267 65.0039 61.3788 65.0039 61.073C65.0039 60.7672 65.2808 60.5193 65.6224 60.5193C65.964 60.5193 66.2409 60.7672 66.2409 61.073Z" fill="#2C394B"/>
<path d="M19.2369 63.288C19.2369 63.5938 18.96 63.8417 18.6185 63.8417C18.2769 63.8417 18 63.5938 18 63.288C18 62.9822 18.2769 62.7343 18.6185 62.7343C18.96 62.7343 19.2369 62.9822 19.2369 63.288Z" fill="#2C394B"/>
<path d="M21.7111 63.288C21.7111 63.5938 21.4342 63.8417 21.0926 63.8417C20.751 63.8417 20.4741 63.5938 20.4741 63.288C20.4741 62.9822 20.751 62.7343 21.0926 62.7343C21.4342 62.7343 21.7111 62.9822 21.7111 63.288Z" fill="#2C394B"/>
<path d="M24.1847 63.288C24.1847 63.5938 23.9078 63.8417 23.5662 63.8417C23.2247 63.8417 22.9478 63.5938 22.9478 63.288C22.9478 62.9822 23.2247 62.7343 23.5662 62.7343C23.9078 62.7343 24.1847 62.9822 24.1847 63.288Z" fill="#2C394B"/>
<path d="M26.6588 63.288C26.6588 63.5938 26.3819 63.8417 26.0403 63.8417C25.6988 63.8417 25.4219 63.5938 25.4219 63.288C25.4219 62.9822 25.6988 62.7343 26.0403 62.7343C26.3819 62.7343 26.6588 62.9822 26.6588 63.288Z" fill="#2C394B"/>
<path d="M29.1325 63.288C29.1325 63.5938 28.8556 63.8417 28.514 63.8417C28.1724 63.8417 27.8955 63.5938 27.8955 63.288C27.8955 62.9822 28.1724 62.7343 28.514 62.7343C28.8556 62.7343 29.1325 62.9822 29.1325 63.288Z" fill="#2C394B"/>
<path d="M31.6066 63.288C31.6066 63.5938 31.3297 63.8417 30.9881 63.8417C30.6465 63.8417 30.3696 63.5938 30.3696 63.288C30.3696 62.9822 30.6465 62.7343 30.9881 62.7343C31.3297 62.7343 31.6066 62.9822 31.6066 63.288Z" fill="#2C394B"/>
<path d="M34.0802 63.288C34.0802 63.5938 33.8033 63.8417 33.4617 63.8417C33.1202 63.8417 32.8433 63.5938 32.8433 63.288C32.8433 62.9822 33.1202 62.7343 33.4617 62.7343C33.8033 62.7343 34.0802 62.9822 34.0802 63.288Z" fill="#2C394B"/>
<path d="M36.5543 63.288C36.5543 63.5938 36.2774 63.8417 35.9359 63.8417C35.5943 63.8417 35.3174 63.5938 35.3174 63.288C35.3174 62.9822 35.5943 62.7343 35.9359 62.7343C36.2774 62.7343 36.5543 62.9822 36.5543 63.288Z" fill="#2C394B"/>
<path d="M39.028 63.288C39.028 63.5938 38.7511 63.8417 38.4095 63.8417C38.0679 63.8417 37.791 63.5938 37.791 63.288C37.791 62.9822 38.0679 62.7343 38.4095 62.7343C38.7511 62.7343 39.028 62.9822 39.028 63.288Z" fill="#2C394B"/>
<path d="M41.5021 63.288C41.5021 63.5938 41.2252 63.8417 40.8836 63.8417C40.542 63.8417 40.2651 63.5938 40.2651 63.288C40.2651 62.9822 40.542 62.7343 40.8836 62.7343C41.2252 62.7343 41.5021 62.9822 41.5021 63.288Z" fill="#2C394B"/>
<path d="M43.9757 63.288C43.9757 63.5938 43.6988 63.8417 43.3572 63.8417C43.0157 63.8417 42.7388 63.5938 42.7388 63.288C42.7388 62.9822 43.0157 62.7343 43.3572 62.7343C43.6988 62.7343 43.9757 62.9822 43.9757 63.288Z" fill="#2C394B"/>
<path d="M46.4498 63.288C46.4498 63.5938 46.1729 63.8417 45.8314 63.8417C45.4898 63.8417 45.2129 63.5938 45.2129 63.288C45.2129 62.9822 45.4898 62.7343 45.8314 62.7343C46.1729 62.7343 46.4498 62.9822 46.4498 63.288Z" fill="#2C394B"/>
<path d="M48.9235 63.288C48.9235 63.5938 48.6466 63.8417 48.305 63.8417C47.9634 63.8417 47.6865 63.5938 47.6865 63.288C47.6865 62.9822 47.9634 62.7343 48.305 62.7343C48.6466 62.7343 48.9235 62.9822 48.9235 63.288Z" fill="#2C394B"/>
<path d="M51.3976 63.288C51.3976 63.5938 51.1207 63.8417 50.7791 63.8417C50.4375 63.8417 50.1606 63.5938 50.1606 63.288C50.1606 62.9822 50.4375 62.7343 50.7791 62.7343C51.1207 62.7343 51.3976 62.9822 51.3976 63.288Z" fill="#2C394B"/>
<path d="M53.8717 63.288C53.8717 63.5938 53.5948 63.8417 53.2532 63.8417C52.9117 63.8417 52.6348 63.5938 52.6348 63.288C52.6348 62.9822 52.9117 62.7343 53.2532 62.7343C53.5948 62.7343 53.8717 62.9822 53.8717 63.288Z" fill="#2C394B"/>
<path d="M56.3454 63.288C56.3454 63.5938 56.0684 63.8417 55.7269 63.8417C55.3853 63.8417 55.1084 63.5938 55.1084 63.288C55.1084 62.9822 55.3853 62.7343 55.7269 62.7343C56.0684 62.7343 56.3454 62.9822 56.3454 63.288Z" fill="#2C394B"/>
<path d="M58.8195 63.288C58.8195 63.5938 58.5426 63.8417 58.201 63.8417C57.8594 63.8417 57.5825 63.5938 57.5825 63.288C57.5825 62.9822 57.8594 62.7343 58.201 62.7343C58.5426 62.7343 58.8195 62.9822 58.8195 63.288Z" fill="#2C394B"/>
<path d="M61.2931 63.288C61.2931 63.5938 61.0162 63.8417 60.6746 63.8417C60.3331 63.8417 60.0562 63.5938 60.0562 63.288C60.0562 62.9822 60.3331 62.7343 60.6746 62.7343C61.0162 62.7343 61.2931 62.9822 61.2931 63.288Z" fill="#2C394B"/>
<path d="M63.7672 63.288C63.7672 63.5938 63.4903 63.8417 63.1487 63.8417C62.8072 63.8417 62.5303 63.5938 62.5303 63.288C62.5303 62.9822 62.8072 62.7343 63.1487 62.7343C63.4903 62.7343 63.7672 62.9822 63.7672 63.288Z" fill="#2C394B"/>
<path d="M66.2409 63.288C66.2409 63.5938 65.964 63.8417 65.6224 63.8417C65.2808 63.8417 65.0039 63.5938 65.0039 63.288C65.0039 62.9822 65.2808 62.7343 65.6224 62.7343C65.964 62.7343 66.2409 62.9822 66.2409 63.288Z" fill="#2C394B"/>
<path d="M68.715 63.288C68.715 63.5938 68.4381 63.8417 68.0965 63.8417C67.7549 63.8417 67.478 63.5938 67.478 63.288C67.478 62.9822 67.7549 62.7343 68.0965 62.7343C68.4381 62.7343 68.715 62.9822 68.715 63.288Z" fill="#2C394B"/>
<path d="M19.2369 65.5029C19.2369 65.8087 18.96 66.0566 18.6185 66.0566C18.2769 66.0566 18 65.8087 18 65.5029C18 65.1971 18.2769 64.9492 18.6185 64.9492C18.96 64.9492 19.2369 65.1971 19.2369 65.5029Z" fill="#2C394B"/>
<path d="M21.7111 65.5029C21.7111 65.8087 21.4342 66.0566 21.0926 66.0566C20.751 66.0566 20.4741 65.8087 20.4741 65.5029C20.4741 65.1971 20.751 64.9492 21.0926 64.9492C21.4342 64.9492 21.7111 65.1971 21.7111 65.5029Z" fill="#2C394B"/>
<path d="M24.1847 65.5029C24.1847 65.8087 23.9078 66.0566 23.5662 66.0566C23.2247 66.0566 22.9478 65.8087 22.9478 65.5029C22.9478 65.1971 23.2247 64.9492 23.5662 64.9492C23.9078 64.9492 24.1847 65.1971 24.1847 65.5029Z" fill="#2C394B"/>
<path d="M26.6588 65.5029C26.6588 65.8087 26.3819 66.0566 26.0403 66.0566C25.6988 66.0566 25.4219 65.8087 25.4219 65.5029C25.4219 65.1971 25.6988 64.9492 26.0403 64.9492C26.3819 64.9492 26.6588 65.1971 26.6588 65.5029Z" fill="#2C394B"/>
<path d="M29.1325 65.5029C29.1325 65.8087 28.8556 66.0566 28.514 66.0566C28.1724 66.0566 27.8955 65.8087 27.8955 65.5029C27.8955 65.1971 28.1724 64.9492 28.514 64.9492C28.8556 64.9492 29.1325 65.1971 29.1325 65.5029Z" fill="#2C394B"/>
<path d="M31.6066 65.5029C31.6066 65.8087 31.3297 66.0566 30.9881 66.0566C30.6465 66.0566 30.3696 65.8087 30.3696 65.5029C30.3696 65.1971 30.6465 64.9492 30.9881 64.9492C31.3297 64.9492 31.6066 65.1971 31.6066 65.5029Z" fill="#2C394B"/>
<path d="M34.0802 65.5029C34.0802 65.8087 33.8033 66.0566 33.4617 66.0566C33.1202 66.0566 32.8433 65.8087 32.8433 65.5029C32.8433 65.1971 33.1202 64.9492 33.4617 64.9492C33.8033 64.9492 34.0802 65.1971 34.0802 65.5029Z" fill="#2C394B"/>
<path d="M36.5543 65.5029C36.5543 65.8087 36.2774 66.0566 35.9359 66.0566C35.5943 66.0566 35.3174 65.8087 35.3174 65.5029C35.3174 65.1971 35.5943 64.9492 35.9359 64.9492C36.2774 64.9492 36.5543 65.1971 36.5543 65.5029Z" fill="#2C394B"/>
<path d="M39.028 65.5029C39.028 65.8087 38.7511 66.0566 38.4095 66.0566C38.0679 66.0566 37.791 65.8087 37.791 65.5029C37.791 65.1971 38.0679 64.9492 38.4095 64.9492C38.7511 64.9492 39.028 65.1971 39.028 65.5029Z" fill="#2C394B"/>
<path d="M41.5021 65.5029C41.5021 65.8087 41.2252 66.0566 40.8836 66.0566C40.542 66.0566 40.2651 65.8087 40.2651 65.5029C40.2651 65.1971 40.542 64.9492 40.8836 64.9492C41.2252 64.9492 41.5021 65.1971 41.5021 65.5029Z" fill="#2C394B"/>
<path d="M43.9757 65.5029C43.9757 65.8087 43.6988 66.0566 43.3572 66.0566C43.0157 66.0566 42.7388 65.8087 42.7388 65.5029C42.7388 65.1971 43.0157 64.9492 43.3572 64.9492C43.6988 64.9492 43.9757 65.1971 43.9757 65.5029Z" fill="#2C394B"/>
<path d="M46.4498 65.5029C46.4498 65.8087 46.1729 66.0566 45.8314 66.0566C45.4898 66.0566 45.2129 65.8087 45.2129 65.5029C45.2129 65.1971 45.4898 64.9492 45.8314 64.9492C46.1729 64.9492 46.4498 65.1971 46.4498 65.5029Z" fill="#2C394B"/>
<path d="M48.9235 65.5029C48.9235 65.8087 48.6466 66.0566 48.305 66.0566C47.9634 66.0566 47.6865 65.8087 47.6865 65.5029C47.6865 65.1971 47.9634 64.9492 48.305 64.9492C48.6466 64.9492 48.9235 65.1971 48.9235 65.5029Z" fill="#2C394B"/>
<path d="M51.3976 65.5029C51.3976 65.8087 51.1207 66.0566 50.7791 66.0566C50.4375 66.0566 50.1606 65.8087 50.1606 65.5029C50.1606 65.1971 50.4375 64.9492 50.7791 64.9492C51.1207 64.9492 51.3976 65.1971 51.3976 65.5029Z" fill="#2C394B"/>
<path d="M53.8717 65.5029C53.8717 65.8087 53.5948 66.0566 53.2532 66.0566C52.9117 66.0566 52.6348 65.8087 52.6348 65.5029C52.6348 65.1971 52.9117 64.9492 53.2532 64.9492C53.5948 64.9492 53.8717 65.1971 53.8717 65.5029Z" fill="#2C394B"/>
<path d="M56.3454 65.5029C56.3454 65.8087 56.0684 66.0566 55.7269 66.0566C55.3853 66.0566 55.1084 65.8087 55.1084 65.5029C55.1084 65.1971 55.3853 64.9492 55.7269 64.9492C56.0684 64.9492 56.3454 65.1971 56.3454 65.5029Z" fill="#2C394B"/>
<path d="M58.8195 65.5029C58.8195 65.8087 58.5426 66.0566 58.201 66.0566C57.8594 66.0566 57.5825 65.8087 57.5825 65.5029C57.5825 65.1971 57.8594 64.9492 58.201 64.9492C58.5426 64.9492 58.8195 65.1971 58.8195 65.5029Z" fill="#2C394B"/>
<path d="M61.2931 65.5029C61.2931 65.8087 61.0162 66.0566 60.6746 66.0566C60.3331 66.0566 60.0562 65.8087 60.0562 65.5029C60.0562 65.1971 60.3331 64.9492 60.6746 64.9492C61.0162 64.9492 61.2931 65.1971 61.2931 65.5029Z" fill="#2C394B"/>
<path d="M63.7672 65.5029C63.7672 65.8087 63.4903 66.0566 63.1487 66.0566C62.8072 66.0566 62.5303 65.8087 62.5303 65.5029C62.5303 65.1971 62.8072 64.9492 63.1487 64.9492C63.4903 64.9492 63.7672 65.1971 63.7672 65.5029Z" fill="#2C394B"/>
<path d="M66.2409 65.5029C66.2409 65.8087 65.964 66.0566 65.6224 66.0566C65.2808 66.0566 65.0039 65.8087 65.0039 65.5029C65.0039 65.1971 65.2808 64.9492 65.6224 64.9492C65.964 64.9492 66.2409 65.1971 66.2409 65.5029Z" fill="#2C394B"/>
<path d="M68.715 65.5029C68.715 65.8087 68.4381 66.0566 68.0965 66.0566C67.7549 66.0566 67.478 65.8087 67.478 65.5029C67.478 65.1971 67.7549 64.9492 68.0965 64.9492C68.4381 64.9492 68.715 65.1971 68.715 65.5029Z" fill="#2C394B"/>
<path d="M19.2369 67.7178C19.2369 68.0236 18.96 68.2715 18.6185 68.2715C18.2769 68.2715 18 68.0236 18 67.7178C18 67.412 18.2769 67.1641 18.6185 67.1641C18.96 67.1641 19.2369 67.412 19.2369 67.7178Z" fill="#2C394B"/>
<path d="M21.7111 67.7177C21.7111 68.0236 21.4342 68.2715 21.0926 68.2715C20.751 68.2715 20.4741 68.0236 20.4741 67.7177C20.4741 67.4119 20.751 67.164 21.0926 67.164C21.4342 67.164 21.7111 67.4119 21.7111 67.7177Z" fill="#2C394B"/>
<path d="M24.1847 67.7177C24.1847 68.0236 23.9078 68.2715 23.5662 68.2715C23.2247 68.2715 22.9478 68.0236 22.9478 67.7177C22.9478 67.4119 23.2247 67.164 23.5662 67.164C23.9078 67.164 24.1847 67.4119 24.1847 67.7177Z" fill="#2C394B"/>
<path d="M26.6588 67.7177C26.6588 68.0236 26.3819 68.2715 26.0403 68.2715C25.6988 68.2715 25.4219 68.0236 25.4219 67.7177C25.4219 67.4119 25.6988 67.164 26.0403 67.164C26.3819 67.164 26.6588 67.4119 26.6588 67.7177Z" fill="#2C394B"/>
<path d="M29.1325 67.7177C29.1325 68.0236 28.8556 68.2715 28.514 68.2715C28.1724 68.2715 27.8955 68.0236 27.8955 67.7177C27.8955 67.4119 28.1724 67.164 28.514 67.164C28.8556 67.164 29.1325 67.4119 29.1325 67.7177Z" fill="#2C394B"/>
<path d="M31.6066 67.7177C31.6066 68.0236 31.3297 68.2715 30.9881 68.2715C30.6465 68.2715 30.3696 68.0236 30.3696 67.7177C30.3696 67.4119 30.6465 67.164 30.9881 67.164C31.3297 67.164 31.6066 67.4119 31.6066 67.7177Z" fill="#2C394B"/>
<path d="M34.0802 67.7177C34.0802 68.0236 33.8033 68.2715 33.4617 68.2715C33.1202 68.2715 32.8433 68.0236 32.8433 67.7177C32.8433 67.4119 33.1202 67.164 33.4617 67.164C33.8033 67.164 34.0802 67.4119 34.0802 67.7177Z" fill="#2C394B"/>
<path d="M36.5543 67.7177C36.5543 68.0236 36.2774 68.2715 35.9359 68.2715C35.5943 68.2715 35.3174 68.0236 35.3174 67.7177C35.3174 67.4119 35.5943 67.164 35.9359 67.164C36.2774 67.164 36.5543 67.4119 36.5543 67.7177Z" fill="#2C394B"/>
<path d="M39.028 67.7177C39.028 68.0236 38.7511 68.2715 38.4095 68.2715C38.0679 68.2715 37.791 68.0236 37.791 67.7177C37.791 67.4119 38.0679 67.164 38.4095 67.164C38.7511 67.164 39.028 67.4119 39.028 67.7177Z" fill="#2C394B"/>
<path d="M41.5021 67.7177C41.5021 68.0236 41.2252 68.2715 40.8836 68.2715C40.542 68.2715 40.2651 68.0236 40.2651 67.7177C40.2651 67.4119 40.542 67.164 40.8836 67.164C41.2252 67.164 41.5021 67.4119 41.5021 67.7177Z" fill="#2C394B"/>
<path d="M43.9757 67.7177C43.9757 68.0236 43.6988 68.2715 43.3572 68.2715C43.0157 68.2715 42.7388 68.0236 42.7388 67.7177C42.7388 67.4119 43.0157 67.164 43.3572 67.164C43.6988 67.164 43.9757 67.4119 43.9757 67.7177Z" fill="#2C394B"/>
<path d="M46.4498 67.7177C46.4498 68.0236 46.1729 68.2715 45.8314 68.2715C45.4898 68.2715 45.2129 68.0236 45.2129 67.7177C45.2129 67.4119 45.4898 67.164 45.8314 67.164C46.1729 67.164 46.4498 67.4119 46.4498 67.7177Z" fill="#2C394B"/>
<path d="M48.9235 67.7177C48.9235 68.0236 48.6466 68.2715 48.305 68.2715C47.9634 68.2715 47.6865 68.0236 47.6865 67.7177C47.6865 67.4119 47.9634 67.164 48.305 67.164C48.6466 67.164 48.9235 67.4119 48.9235 67.7177Z" fill="#2C394B"/>
<path d="M51.3976 67.7177C51.3976 68.0236 51.1207 68.2715 50.7791 68.2715C50.4375 68.2715 50.1606 68.0236 50.1606 67.7177C50.1606 67.4119 50.4375 67.164 50.7791 67.164C51.1207 67.164 51.3976 67.4119 51.3976 67.7177Z" fill="#2C394B"/>
<path d="M53.8717 67.7177C53.8717 68.0236 53.5948 68.2715 53.2532 68.2715C52.9117 68.2715 52.6348 68.0236 52.6348 67.7177C52.6348 67.4119 52.9117 67.164 53.2532 67.164C53.5948 67.164 53.8717 67.4119 53.8717 67.7177Z" fill="#2C394B"/>
<path d="M56.3454 67.7177C56.3454 68.0236 56.0684 68.2715 55.7269 68.2715C55.3853 68.2715 55.1084 68.0236 55.1084 67.7177C55.1084 67.4119 55.3853 67.164 55.7269 67.164C56.0684 67.164 56.3454 67.4119 56.3454 67.7177Z" fill="#2C394B"/>
<path d="M58.8195 67.7177C58.8195 68.0236 58.5426 68.2715 58.201 68.2715C57.8594 68.2715 57.5825 68.0236 57.5825 67.7177C57.5825 67.4119 57.8594 67.164 58.201 67.164C58.5426 67.164 58.8195 67.4119 58.8195 67.7177Z" fill="#2C394B"/>
<path d="M61.2931 67.7177C61.2931 68.0236 61.0162 68.2715 60.6746 68.2715C60.3331 68.2715 60.0562 68.0236 60.0562 67.7177C60.0562 67.4119 60.3331 67.164 60.6746 67.164C61.0162 67.164 61.2931 67.4119 61.2931 67.7177Z" fill="#2C394B"/>
<path d="M63.7672 67.7177C63.7672 68.0236 63.4903 68.2715 63.1487 68.2715C62.8072 68.2715 62.5303 68.0236 62.5303 67.7177C62.5303 67.4119 62.8072 67.164 63.1487 67.164C63.4903 67.164 63.7672 67.4119 63.7672 67.7177Z" fill="#2C394B"/>
<path d="M66.2409 67.7177C66.2409 68.0236 65.964 68.2715 65.6224 68.2715C65.2808 68.2715 65.0039 68.0236 65.0039 67.7177C65.0039 67.4119 65.2808 67.164 65.6224 67.164C65.964 67.164 66.2409 67.4119 66.2409 67.7177Z" fill="#2C394B"/>
<path d="M68.715 67.7177C68.715 68.0236 68.4381 68.2715 68.0965 68.2715C67.7549 68.2715 67.478 68.0236 67.478 67.7177C67.478 67.4119 67.7549 67.164 68.0965 67.164C68.4381 67.164 68.715 67.4119 68.715 67.7177Z" fill="#2C394B"/>
<path d="M19.2369 69.9327C19.2369 70.2385 18.96 70.4864 18.6185 70.4864C18.2769 70.4864 18 70.2385 18 69.9327C18 69.6268 18.2769 69.3789 18.6185 69.3789C18.96 69.3789 19.2369 69.6268 19.2369 69.9327Z" fill="#2C394B"/>
<path d="M21.7111 69.9326C21.7111 70.2385 21.4342 70.4864 21.0926 70.4864C20.751 70.4864 20.4741 70.2385 20.4741 69.9326C20.4741 69.6268 20.751 69.3789 21.0926 69.3789C21.4342 69.3789 21.7111 69.6268 21.7111 69.9326Z" fill="#2C394B"/>
<path d="M24.1847 69.9326C24.1847 70.2385 23.9078 70.4864 23.5662 70.4864C23.2247 70.4864 22.9478 70.2385 22.9478 69.9326C22.9478 69.6268 23.2247 69.3789 23.5662 69.3789C23.9078 69.3789 24.1847 69.6268 24.1847 69.9326Z" fill="#2C394B"/>
<path d="M26.6588 69.9326C26.6588 70.2385 26.3819 70.4864 26.0403 70.4864C25.6988 70.4864 25.4219 70.2385 25.4219 69.9326C25.4219 69.6268 25.6988 69.3789 26.0403 69.3789C26.3819 69.3789 26.6588 69.6268 26.6588 69.9326Z" fill="#2C394B"/>
<path d="M29.1325 69.9326C29.1325 70.2385 28.8556 70.4864 28.514 70.4864C28.1724 70.4864 27.8955 70.2385 27.8955 69.9326C27.8955 69.6268 28.1724 69.3789 28.514 69.3789C28.8556 69.3789 29.1325 69.6268 29.1325 69.9326Z" fill="#2C394B"/>
<path d="M31.6066 69.9326C31.6066 70.2385 31.3297 70.4864 30.9881 70.4864C30.6465 70.4864 30.3696 70.2385 30.3696 69.9326C30.3696 69.6268 30.6465 69.3789 30.9881 69.3789C31.3297 69.3789 31.6066 69.6268 31.6066 69.9326Z" fill="#2C394B"/>
<path d="M34.0802 69.9326C34.0802 70.2385 33.8033 70.4864 33.4617 70.4864C33.1202 70.4864 32.8433 70.2385 32.8433 69.9326C32.8433 69.6268 33.1202 69.3789 33.4617 69.3789C33.8033 69.3789 34.0802 69.6268 34.0802 69.9326Z" fill="#2C394B"/>
<path d="M36.5543 69.9326C36.5543 70.2385 36.2774 70.4864 35.9359 70.4864C35.5943 70.4864 35.3174 70.2385 35.3174 69.9326C35.3174 69.6268 35.5943 69.3789 35.9359 69.3789C36.2774 69.3789 36.5543 69.6268 36.5543 69.9326Z" fill="#2C394B"/>
<path d="M39.028 69.9326C39.028 70.2385 38.7511 70.4864 38.4095 70.4864C38.0679 70.4864 37.791 70.2385 37.791 69.9326C37.791 69.6268 38.0679 69.3789 38.4095 69.3789C38.7511 69.3789 39.028 69.6268 39.028 69.9326Z" fill="#2C394B"/>
<path d="M41.5021 69.9326C41.5021 70.2385 41.2252 70.4864 40.8836 70.4864C40.542 70.4864 40.2651 70.2385 40.2651 69.9326C40.2651 69.6268 40.542 69.3789 40.8836 69.3789C41.2252 69.3789 41.5021 69.6268 41.5021 69.9326Z" fill="#2C394B"/>
<path d="M43.9757 69.9326C43.9757 70.2385 43.6988 70.4864 43.3572 70.4864C43.0157 70.4864 42.7388 70.2385 42.7388 69.9326C42.7388 69.6268 43.0157 69.3789 43.3572 69.3789C43.6988 69.3789 43.9757 69.6268 43.9757 69.9326Z" fill="#2C394B"/>
<path d="M46.4498 69.9326C46.4498 70.2385 46.1729 70.4864 45.8314 70.4864C45.4898 70.4864 45.2129 70.2385 45.2129 69.9326C45.2129 69.6268 45.4898 69.3789 45.8314 69.3789C46.1729 69.3789 46.4498 69.6268 46.4498 69.9326Z" fill="#2C394B"/>
<path d="M48.9235 69.9326C48.9235 70.2385 48.6466 70.4864 48.305 70.4864C47.9634 70.4864 47.6865 70.2385 47.6865 69.9326C47.6865 69.6268 47.9634 69.3789 48.305 69.3789C48.6466 69.3789 48.9235 69.6268 48.9235 69.9326Z" fill="#2C394B"/>
<path d="M51.3976 69.9326C51.3976 70.2385 51.1207 70.4864 50.7791 70.4864C50.4375 70.4864 50.1606 70.2385 50.1606 69.9326C50.1606 69.6268 50.4375 69.3789 50.7791 69.3789C51.1207 69.3789 51.3976 69.6268 51.3976 69.9326Z" fill="#2C394B"/>
<path d="M53.8717 69.9326C53.8717 70.2385 53.5948 70.4864 53.2532 70.4864C52.9117 70.4864 52.6348 70.2385 52.6348 69.9326C52.6348 69.6268 52.9117 69.3789 53.2532 69.3789C53.5948 69.3789 53.8717 69.6268 53.8717 69.9326Z" fill="#2C394B"/>
<path d="M56.3454 69.9326C56.3454 70.2385 56.0684 70.4864 55.7269 70.4864C55.3853 70.4864 55.1084 70.2385 55.1084 69.9326C55.1084 69.6268 55.3853 69.3789 55.7269 69.3789C56.0684 69.3789 56.3454 69.6268 56.3454 69.9326Z" fill="#2C394B"/>
<path d="M58.8195 69.9326C58.8195 70.2385 58.5426 70.4864 58.201 70.4864C57.8594 70.4864 57.5825 70.2385 57.5825 69.9326C57.5825 69.6268 57.8594 69.3789 58.201 69.3789C58.5426 69.3789 58.8195 69.6268 58.8195 69.9326Z" fill="#2C394B"/>
<path d="M61.2931 69.9326C61.2931 70.2385 61.0162 70.4864 60.6746 70.4864C60.3331 70.4864 60.0562 70.2385 60.0562 69.9326C60.0562 69.6268 60.3331 69.3789 60.6746 69.3789C61.0162 69.3789 61.2931 69.6268 61.2931 69.9326Z" fill="#2C394B"/>
<path d="M63.7672 69.9326C63.7672 70.2385 63.4903 70.4864 63.1487 70.4864C62.8072 70.4864 62.5303 70.2385 62.5303 69.9326C62.5303 69.6268 62.8072 69.3789 63.1487 69.3789C63.4903 69.3789 63.7672 69.6268 63.7672 69.9326Z" fill="#2C394B"/>
<path d="M66.2409 69.9326C66.2409 70.2385 65.964 70.4864 65.6224 70.4864C65.2808 70.4864 65.0039 70.2385 65.0039 69.9326C65.0039 69.6268 65.2808 69.3789 65.6224 69.3789C65.964 69.3789 66.2409 69.6268 66.2409 69.9326Z" fill="#2C394B"/>
<path d="M68.715 69.9326C68.715 70.2385 68.4381 70.4864 68.0965 70.4864C67.7549 70.4864 67.478 70.2385 67.478 69.9326C67.478 69.6268 67.7549 69.3789 68.0965 69.3789C68.4381 69.3789 68.715 69.6268 68.715 69.9326Z" fill="#2C394B"/>
<path d="M19.2369 72.1476C19.2369 72.4534 18.96 72.7013 18.6185 72.7013C18.2769 72.7013 18 72.4534 18 72.1476C18 71.8418 18.2769 71.5939 18.6185 71.5939C18.96 71.5939 19.2369 71.8418 19.2369 72.1476Z" fill="#2C394B"/>
<path d="M21.7111 72.1476C21.7111 72.4534 21.4342 72.7013 21.0926 72.7013C20.751 72.7013 20.4741 72.4534 20.4741 72.1476C20.4741 71.8418 20.751 71.5939 21.0926 71.5939C21.4342 71.5939 21.7111 71.8418 21.7111 72.1476Z" fill="#2C394B"/>
<path d="M24.1847 72.1476C24.1847 72.4534 23.9078 72.7013 23.5662 72.7013C23.2247 72.7013 22.9478 72.4534 22.9478 72.1476C22.9478 71.8418 23.2247 71.5939 23.5662 71.5939C23.9078 71.5939 24.1847 71.8418 24.1847 72.1476Z" fill="#2C394B"/>
<path d="M26.6588 72.1476C26.6588 72.4534 26.3819 72.7013 26.0403 72.7013C25.6988 72.7013 25.4219 72.4534 25.4219 72.1476C25.4219 71.8418 25.6988 71.5939 26.0403 71.5939C26.3819 71.5939 26.6588 71.8418 26.6588 72.1476Z" fill="#2C394B"/>
<path d="M29.1325 72.1476C29.1325 72.4534 28.8556 72.7013 28.514 72.7013C28.1724 72.7013 27.8955 72.4534 27.8955 72.1476C27.8955 71.8418 28.1724 71.5939 28.514 71.5939C28.8556 71.5939 29.1325 71.8418 29.1325 72.1476Z" fill="#2C394B"/>
<path d="M31.6066 72.1476C31.6066 72.4534 31.3297 72.7013 30.9881 72.7013C30.6465 72.7013 30.3696 72.4534 30.3696 72.1476C30.3696 71.8418 30.6465 71.5939 30.9881 71.5939C31.3297 71.5939 31.6066 71.8418 31.6066 72.1476Z" fill="#2C394B"/>
<path d="M34.0802 72.1476C34.0802 72.4534 33.8033 72.7013 33.4617 72.7013C33.1202 72.7013 32.8433 72.4534 32.8433 72.1476C32.8433 71.8418 33.1202 71.5939 33.4617 71.5939C33.8033 71.5939 34.0802 71.8418 34.0802 72.1476Z" fill="#2C394B"/>
<path d="M36.5543 72.1476C36.5543 72.4534 36.2774 72.7013 35.9359 72.7013C35.5943 72.7013 35.3174 72.4534 35.3174 72.1476C35.3174 71.8418 35.5943 71.5939 35.9359 71.5939C36.2774 71.5939 36.5543 71.8418 36.5543 72.1476Z" fill="#2C394B"/>
<path d="M39.028 72.1476C39.028 72.4534 38.7511 72.7013 38.4095 72.7013C38.0679 72.7013 37.791 72.4534 37.791 72.1476C37.791 71.8418 38.0679 71.5939 38.4095 71.5939C38.7511 71.5939 39.028 71.8418 39.028 72.1476Z" fill="#2C394B"/>
<path d="M41.5021 72.1476C41.5021 72.4534 41.2252 72.7013 40.8836 72.7013C40.542 72.7013 40.2651 72.4534 40.2651 72.1476C40.2651 71.8418 40.542 71.5939 40.8836 71.5939C41.2252 71.5939 41.5021 71.8418 41.5021 72.1476Z" fill="#2C394B"/>
<path d="M43.9757 72.1476C43.9757 72.4534 43.6988 72.7013 43.3572 72.7013C43.0157 72.7013 42.7388 72.4534 42.7388 72.1476C42.7388 71.8418 43.0157 71.5939 43.3572 71.5939C43.6988 71.5939 43.9757 71.8418 43.9757 72.1476Z" fill="#2C394B"/>
<path d="M46.4498 72.1476C46.4498 72.4534 46.1729 72.7013 45.8314 72.7013C45.4898 72.7013 45.2129 72.4534 45.2129 72.1476C45.2129 71.8418 45.4898 71.5939 45.8314 71.5939C46.1729 71.5939 46.4498 71.8418 46.4498 72.1476Z" fill="#2C394B"/>
<path d="M48.9235 72.1476C48.9235 72.4534 48.6466 72.7013 48.305 72.7013C47.9634 72.7013 47.6865 72.4534 47.6865 72.1476C47.6865 71.8418 47.9634 71.5939 48.305 71.5939C48.6466 71.5939 48.9235 71.8418 48.9235 72.1476Z" fill="#2C394B"/>
<path d="M51.3976 72.1476C51.3976 72.4534 51.1207 72.7013 50.7791 72.7013C50.4375 72.7013 50.1606 72.4534 50.1606 72.1476C50.1606 71.8418 50.4375 71.5939 50.7791 71.5939C51.1207 71.5939 51.3976 71.8418 51.3976 72.1476Z" fill="#2C394B"/>
<path d="M53.8717 72.1476C53.8717 72.4534 53.5948 72.7013 53.2532 72.7013C52.9117 72.7013 52.6348 72.4534 52.6348 72.1476C52.6348 71.8418 52.9117 71.5939 53.2532 71.5939C53.5948 71.5939 53.8717 71.8418 53.8717 72.1476Z" fill="#2C394B"/>
<path d="M56.3454 72.1476C56.3454 72.4534 56.0684 72.7013 55.7269 72.7013C55.3853 72.7013 55.1084 72.4534 55.1084 72.1476C55.1084 71.8418 55.3853 71.5939 55.7269 71.5939C56.0684 71.5939 56.3454 71.8418 56.3454 72.1476Z" fill="#2C394B"/>
<path d="M58.8195 72.1476C58.8195 72.4534 58.5426 72.7013 58.201 72.7013C57.8594 72.7013 57.5825 72.4534 57.5825 72.1476C57.5825 71.8418 57.8594 71.5939 58.201 71.5939C58.5426 71.5939 58.8195 71.8418 58.8195 72.1476Z" fill="#2C394B"/>
<path d="M61.2931 72.1476C61.2931 72.4534 61.0162 72.7013 60.6746 72.7013C60.3331 72.7013 60.0562 72.4534 60.0562 72.1476C60.0562 71.8418 60.3331 71.5939 60.6746 71.5939C61.0162 71.5939 61.2931 71.8418 61.2931 72.1476Z" fill="#2C394B"/>
<path d="M63.7672 72.1476C63.7672 72.4534 63.4903 72.7013 63.1487 72.7013C62.8072 72.7013 62.5303 72.4534 62.5303 72.1476C62.5303 71.8418 62.8072 71.5939 63.1487 71.5939C63.4903 71.5939 63.7672 71.8418 63.7672 72.1476Z" fill="#2C394B"/>
<path d="M66.2409 72.1476C66.2409 72.4534 65.964 72.7013 65.6224 72.7013C65.2808 72.7013 65.0039 72.4534 65.0039 72.1476C65.0039 71.8418 65.2808 71.5939 65.6224 71.5939C65.964 71.5939 66.2409 71.8418 66.2409 72.1476Z" fill="#2C394B"/>
<path d="M68.715 72.1476C68.715 72.4534 68.4381 72.7013 68.0965 72.7013C67.7549 72.7013 67.478 72.4534 67.478 72.1476C67.478 71.8418 67.7549 71.5939 68.0965 71.5939C68.4381 71.5939 68.715 71.8418 68.715 72.1476Z" fill="#2C394B"/>
<path d="M19.2369 74.3626C19.2369 74.6684 18.96 74.9163 18.6185 74.9163C18.2769 74.9163 18 74.6684 18 74.3626C18 74.0567 18.2769 73.8088 18.6185 73.8088C18.96 73.8088 19.2369 74.0567 19.2369 74.3626Z" fill="#2C394B"/>
<path d="M21.7111 74.3626C21.7111 74.6684 21.4342 74.9163 21.0926 74.9163C20.751 74.9163 20.4741 74.6684 20.4741 74.3626C20.4741 74.0567 20.751 73.8088 21.0926 73.8088C21.4342 73.8088 21.7111 74.0567 21.7111 74.3626Z" fill="#2C394B"/>
<path d="M24.1847 74.3626C24.1847 74.6684 23.9078 74.9163 23.5662 74.9163C23.2247 74.9163 22.9478 74.6684 22.9478 74.3626C22.9478 74.0567 23.2247 73.8088 23.5662 73.8088C23.9078 73.8088 24.1847 74.0567 24.1847 74.3626Z" fill="#2C394B"/>
<path d="M26.6588 74.3626C26.6588 74.6684 26.3819 74.9163 26.0403 74.9163C25.6988 74.9163 25.4219 74.6684 25.4219 74.3626C25.4219 74.0567 25.6988 73.8088 26.0403 73.8088C26.3819 73.8088 26.6588 74.0567 26.6588 74.3626Z" fill="#2C394B"/>
<path d="M29.1325 74.3626C29.1325 74.6684 28.8556 74.9163 28.514 74.9163C28.1724 74.9163 27.8955 74.6684 27.8955 74.3626C27.8955 74.0567 28.1724 73.8088 28.514 73.8088C28.8556 73.8088 29.1325 74.0567 29.1325 74.3626Z" fill="#2C394B"/>
<path d="M31.6066 74.3626C31.6066 74.6684 31.3297 74.9163 30.9881 74.9163C30.6465 74.9163 30.3696 74.6684 30.3696 74.3626C30.3696 74.0567 30.6465 73.8088 30.9881 73.8088C31.3297 73.8088 31.6066 74.0567 31.6066 74.3626Z" fill="#2C394B"/>
<path d="M34.0802 74.3626C34.0802 74.6684 33.8033 74.9163 33.4617 74.9163C33.1202 74.9163 32.8433 74.6684 32.8433 74.3626C32.8433 74.0567 33.1202 73.8088 33.4617 73.8088C33.8033 73.8088 34.0802 74.0567 34.0802 74.3626Z" fill="#2C394B"/>
<path d="M36.5543 74.3626C36.5543 74.6684 36.2774 74.9163 35.9359 74.9163C35.5943 74.9163 35.3174 74.6684 35.3174 74.3626C35.3174 74.0567 35.5943 73.8088 35.9359 73.8088C36.2774 73.8088 36.5543 74.0567 36.5543 74.3626Z" fill="#2C394B"/>
<path d="M39.028 74.3626C39.028 74.6684 38.7511 74.9163 38.4095 74.9163C38.0679 74.9163 37.791 74.6684 37.791 74.3626C37.791 74.0567 38.0679 73.8088 38.4095 73.8088C38.7511 73.8088 39.028 74.0567 39.028 74.3626Z" fill="#2C394B"/>
<path d="M41.5021 74.3626C41.5021 74.6684 41.2252 74.9163 40.8836 74.9163C40.542 74.9163 40.2651 74.6684 40.2651 74.3626C40.2651 74.0567 40.542 73.8088 40.8836 73.8088C41.2252 73.8088 41.5021 74.0567 41.5021 74.3626Z" fill="#2C394B"/>
<path d="M43.9757 74.3626C43.9757 74.6684 43.6988 74.9163 43.3572 74.9163C43.0157 74.9163 42.7388 74.6684 42.7388 74.3626C42.7388 74.0567 43.0157 73.8088 43.3572 73.8088C43.6988 73.8088 43.9757 74.0567 43.9757 74.3626Z" fill="#2C394B"/>
<path d="M46.4498 74.3626C46.4498 74.6684 46.1729 74.9163 45.8314 74.9163C45.4898 74.9163 45.2129 74.6684 45.2129 74.3626C45.2129 74.0567 45.4898 73.8088 45.8314 73.8088C46.1729 73.8088 46.4498 74.0567 46.4498 74.3626Z" fill="#2C394B"/>
<path d="M48.9235 74.3626C48.9235 74.6684 48.6466 74.9163 48.305 74.9163C47.9634 74.9163 47.6865 74.6684 47.6865 74.3626C47.6865 74.0567 47.9634 73.8088 48.305 73.8088C48.6466 73.8088 48.9235 74.0567 48.9235 74.3626Z" fill="#2C394B"/>
<path d="M51.3976 74.3626C51.3976 74.6684 51.1207 74.9163 50.7791 74.9163C50.4375 74.9163 50.1606 74.6684 50.1606 74.3626C50.1606 74.0567 50.4375 73.8088 50.7791 73.8088C51.1207 73.8088 51.3976 74.0567 51.3976 74.3626Z" fill="#2C394B"/>
<path d="M53.8717 74.3626C53.8717 74.6684 53.5948 74.9163 53.2532 74.9163C52.9117 74.9163 52.6348 74.6684 52.6348 74.3626C52.6348 74.0567 52.9117 73.8088 53.2532 73.8088C53.5948 73.8088 53.8717 74.0567 53.8717 74.3626Z" fill="#2C394B"/>
<path d="M56.3454 74.3626C56.3454 74.6684 56.0684 74.9163 55.7269 74.9163C55.3853 74.9163 55.1084 74.6684 55.1084 74.3626C55.1084 74.0567 55.3853 73.8088 55.7269 73.8088C56.0684 73.8088 56.3454 74.0567 56.3454 74.3626Z" fill="#2C394B"/>
<path d="M58.8195 74.3626C58.8195 74.6684 58.5426 74.9163 58.201 74.9163C57.8594 74.9163 57.5825 74.6684 57.5825 74.3626C57.5825 74.0567 57.8594 73.8088 58.201 73.8088C58.5426 73.8088 58.8195 74.0567 58.8195 74.3626Z" fill="#2C394B"/>
<path d="M61.2931 74.3626C61.2931 74.6684 61.0162 74.9163 60.6746 74.9163C60.3331 74.9163 60.0562 74.6684 60.0562 74.3626C60.0562 74.0567 60.3331 73.8088 60.6746 73.8088C61.0162 73.8088 61.2931 74.0567 61.2931 74.3626Z" fill="#2C394B"/>
<path d="M63.7672 74.3626C63.7672 74.6684 63.4903 74.9163 63.1487 74.9163C62.8072 74.9163 62.5303 74.6684 62.5303 74.3626C62.5303 74.0567 62.8072 73.8088 63.1487 73.8088C63.4903 73.8088 63.7672 74.0567 63.7672 74.3626Z" fill="#2C394B"/>
<path d="M66.2409 74.3626C66.2409 74.6684 65.964 74.9163 65.6224 74.9163C65.2808 74.9163 65.0039 74.6684 65.0039 74.3626C65.0039 74.0567 65.2808 73.8088 65.6224 73.8088C65.964 73.8088 66.2409 74.0567 66.2409 74.3626Z" fill="#2C394B"/>
<path d="M68.715 74.3626C68.715 74.6684 68.4381 74.9163 68.0965 74.9163C67.7549 74.9163 67.478 74.6684 67.478 74.3626C67.478 74.0567 67.7549 73.8088 68.0965 73.8088C68.4381 73.8088 68.715 74.0567 68.715 74.3626Z" fill="#2C394B"/>
<path d="M19.2369 76.5774C19.2369 76.8832 18.96 77.1312 18.6185 77.1312C18.2769 77.1312 18 76.8832 18 76.5774C18 76.2716 18.2769 76.0237 18.6185 76.0237C18.96 76.0237 19.2369 76.2716 19.2369 76.5774Z" fill="#2C394B"/>
<path d="M21.7111 76.5775C21.7111 76.8833 21.4342 77.1312 21.0926 77.1312C20.751 77.1312 20.4741 76.8833 20.4741 76.5775C20.4741 76.2717 20.751 76.0237 21.0926 76.0237C21.4342 76.0237 21.7111 76.2717 21.7111 76.5775Z" fill="#2C394B"/>
<path d="M24.1847 76.5775C24.1847 76.8833 23.9078 77.1312 23.5662 77.1312C23.2247 77.1312 22.9478 76.8833 22.9478 76.5775C22.9478 76.2717 23.2247 76.0237 23.5662 76.0237C23.9078 76.0237 24.1847 76.2717 24.1847 76.5775Z" fill="#2C394B"/>
<path d="M26.6588 76.5775C26.6588 76.8833 26.3819 77.1312 26.0403 77.1312C25.6988 77.1312 25.4219 76.8833 25.4219 76.5775C25.4219 76.2717 25.6988 76.0237 26.0403 76.0237C26.3819 76.0237 26.6588 76.2717 26.6588 76.5775Z" fill="#2C394B"/>
<path d="M29.1325 76.5775C29.1325 76.8833 28.8556 77.1312 28.514 77.1312C28.1724 77.1312 27.8955 76.8833 27.8955 76.5775C27.8955 76.2717 28.1724 76.0237 28.514 76.0237C28.8556 76.0237 29.1325 76.2717 29.1325 76.5775Z" fill="#2C394B"/>
<path d="M31.6066 76.5775C31.6066 76.8833 31.3297 77.1312 30.9881 77.1312C30.6465 77.1312 30.3696 76.8833 30.3696 76.5775C30.3696 76.2717 30.6465 76.0237 30.9881 76.0237C31.3297 76.0237 31.6066 76.2717 31.6066 76.5775Z" fill="#2C394B"/>
<path d="M34.0802 76.5775C34.0802 76.8833 33.8033 77.1312 33.4617 77.1312C33.1202 77.1312 32.8433 76.8833 32.8433 76.5775C32.8433 76.2717 33.1202 76.0237 33.4617 76.0237C33.8033 76.0237 34.0802 76.2717 34.0802 76.5775Z" fill="#2C394B"/>
<path d="M36.5543 76.5775C36.5543 76.8833 36.2774 77.1312 35.9359 77.1312C35.5943 77.1312 35.3174 76.8833 35.3174 76.5775C35.3174 76.2717 35.5943 76.0237 35.9359 76.0237C36.2774 76.0237 36.5543 76.2717 36.5543 76.5775Z" fill="#2C394B"/>
<path d="M39.028 76.5775C39.028 76.8833 38.7511 77.1312 38.4095 77.1312C38.0679 77.1312 37.791 76.8833 37.791 76.5775C37.791 76.2717 38.0679 76.0237 38.4095 76.0237C38.7511 76.0237 39.028 76.2717 39.028 76.5775Z" fill="#2C394B"/>
<path d="M41.5021 76.5775C41.5021 76.8833 41.2252 77.1312 40.8836 77.1312C40.542 77.1312 40.2651 76.8833 40.2651 76.5775C40.2651 76.2717 40.542 76.0237 40.8836 76.0237C41.2252 76.0237 41.5021 76.2717 41.5021 76.5775Z" fill="#2C394B"/>
<path d="M43.9757 76.5775C43.9757 76.8833 43.6988 77.1312 43.3572 77.1312C43.0157 77.1312 42.7388 76.8833 42.7388 76.5775C42.7388 76.2717 43.0157 76.0237 43.3572 76.0237C43.6988 76.0237 43.9757 76.2717 43.9757 76.5775Z" fill="#2C394B"/>
<path d="M46.4498 76.5775C46.4498 76.8833 46.1729 77.1312 45.8314 77.1312C45.4898 77.1312 45.2129 76.8833 45.2129 76.5775C45.2129 76.2717 45.4898 76.0237 45.8314 76.0237C46.1729 76.0237 46.4498 76.2717 46.4498 76.5775Z" fill="#2C394B"/>
<path d="M48.9235 76.5775C48.9235 76.8833 48.6466 77.1312 48.305 77.1312C47.9634 77.1312 47.6865 76.8833 47.6865 76.5775C47.6865 76.2717 47.9634 76.0237 48.305 76.0237C48.6466 76.0237 48.9235 76.2717 48.9235 76.5775Z" fill="#2C394B"/>
<path d="M51.3976 76.5775C51.3976 76.8833 51.1207 77.1312 50.7791 77.1312C50.4375 77.1312 50.1606 76.8833 50.1606 76.5775C50.1606 76.2717 50.4375 76.0237 50.7791 76.0237C51.1207 76.0237 51.3976 76.2717 51.3976 76.5775Z" fill="#2C394B"/>
<path d="M53.8717 76.5775C53.8717 76.8833 53.5948 77.1312 53.2532 77.1312C52.9117 77.1312 52.6348 76.8833 52.6348 76.5775C52.6348 76.2717 52.9117 76.0237 53.2532 76.0237C53.5948 76.0237 53.8717 76.2717 53.8717 76.5775Z" fill="#2C394B"/>
<path d="M56.3454 76.5775C56.3454 76.8833 56.0684 77.1312 55.7269 77.1312C55.3853 77.1312 55.1084 76.8833 55.1084 76.5775C55.1084 76.2717 55.3853 76.0237 55.7269 76.0237C56.0684 76.0237 56.3454 76.2717 56.3454 76.5775Z" fill="#2C394B"/>
<path d="M58.8195 76.5775C58.8195 76.8833 58.5426 77.1312 58.201 77.1312C57.8594 77.1312 57.5825 76.8833 57.5825 76.5775C57.5825 76.2717 57.8594 76.0237 58.201 76.0237C58.5426 76.0237 58.8195 76.2717 58.8195 76.5775Z" fill="#2C394B"/>
<path d="M61.2931 76.5775C61.2931 76.8833 61.0162 77.1312 60.6746 77.1312C60.3331 77.1312 60.0562 76.8833 60.0562 76.5775C60.0562 76.2717 60.3331 76.0237 60.6746 76.0237C61.0162 76.0237 61.2931 76.2717 61.2931 76.5775Z" fill="#2C394B"/>
<path d="M63.7672 76.5775C63.7672 76.8833 63.4903 77.1312 63.1487 77.1312C62.8072 77.1312 62.5303 76.8833 62.5303 76.5775C62.5303 76.2717 62.8072 76.0237 63.1487 76.0237C63.4903 76.0237 63.7672 76.2717 63.7672 76.5775Z" fill="#2C394B"/>
<path d="M66.2409 76.5775C66.2409 76.8833 65.964 77.1312 65.6224 77.1312C65.2808 77.1312 65.0039 76.8833 65.0039 76.5775C65.0039 76.2717 65.2808 76.0237 65.6224 76.0237C65.964 76.0237 66.2409 76.2717 66.2409 76.5775Z" fill="#2C394B"/>
<path d="M68.715 76.5775C68.715 76.8833 68.4381 77.1312 68.0965 77.1312C67.7549 77.1312 67.478 76.8833 67.478 76.5775C67.478 76.2717 67.7549 76.0237 68.0965 76.0237C68.4381 76.0237 68.715 76.2717 68.715 76.5775Z" fill="#2C394B"/>
<path d="M19.2369 78.7923C19.2369 79.0981 18.96 79.346 18.6185 79.346C18.2769 79.346 18 79.0981 18 78.7923C18 78.4865 18.2769 78.2386 18.6185 78.2386C18.96 78.2386 19.2369 78.4865 19.2369 78.7923Z" fill="#2C394B"/>
<path d="M21.7111 78.7923C21.7111 79.0981 21.4342 79.346 21.0926 79.346C20.751 79.346 20.4741 79.0981 20.4741 78.7923C20.4741 78.4865 20.751 78.2386 21.0926 78.2386C21.4342 78.2386 21.7111 78.4865 21.7111 78.7923Z" fill="#2C394B"/>
<path d="M24.1847 78.7923C24.1847 79.0981 23.9078 79.346 23.5662 79.346C23.2247 79.346 22.9478 79.0981 22.9478 78.7923C22.9478 78.4865 23.2247 78.2386 23.5662 78.2386C23.9078 78.2386 24.1847 78.4865 24.1847 78.7923Z" fill="#2C394B"/>
<path d="M26.6588 78.7923C26.6588 79.0981 26.3819 79.346 26.0403 79.346C25.6988 79.346 25.4219 79.0981 25.4219 78.7923C25.4219 78.4865 25.6988 78.2386 26.0403 78.2386C26.3819 78.2386 26.6588 78.4865 26.6588 78.7923Z" fill="#2C394B"/>
<path d="M29.1325 78.7923C29.1325 79.0981 28.8556 79.346 28.514 79.346C28.1724 79.346 27.8955 79.0981 27.8955 78.7923C27.8955 78.4865 28.1724 78.2386 28.514 78.2386C28.8556 78.2386 29.1325 78.4865 29.1325 78.7923Z" fill="#2C394B"/>
<path d="M31.6066 78.7923C31.6066 79.0981 31.3297 79.346 30.9881 79.346C30.6465 79.346 30.3696 79.0981 30.3696 78.7923C30.3696 78.4865 30.6465 78.2386 30.9881 78.2386C31.3297 78.2386 31.6066 78.4865 31.6066 78.7923Z" fill="#2C394B"/>
<path d="M34.0802 78.7923C34.0802 79.0981 33.8033 79.346 33.4617 79.346C33.1202 79.346 32.8433 79.0981 32.8433 78.7923C32.8433 78.4865 33.1202 78.2386 33.4617 78.2386C33.8033 78.2386 34.0802 78.4865 34.0802 78.7923Z" fill="#2C394B"/>
<path d="M36.5543 78.7923C36.5543 79.0981 36.2774 79.346 35.9359 79.346C35.5943 79.346 35.3174 79.0981 35.3174 78.7923C35.3174 78.4865 35.5943 78.2386 35.9359 78.2386C36.2774 78.2386 36.5543 78.4865 36.5543 78.7923Z" fill="#2C394B"/>
<path d="M39.028 78.7923C39.028 79.0981 38.7511 79.346 38.4095 79.346C38.0679 79.346 37.791 79.0981 37.791 78.7923C37.791 78.4865 38.0679 78.2386 38.4095 78.2386C38.7511 78.2386 39.028 78.4865 39.028 78.7923Z" fill="#2C394B"/>
<path d="M41.5021 78.7923C41.5021 79.0981 41.2252 79.346 40.8836 79.346C40.542 79.346 40.2651 79.0981 40.2651 78.7923C40.2651 78.4865 40.542 78.2386 40.8836 78.2386C41.2252 78.2386 41.5021 78.4865 41.5021 78.7923Z" fill="#2C394B"/>
<path d="M43.9757 78.7923C43.9757 79.0981 43.6988 79.346 43.3572 79.346C43.0157 79.346 42.7388 79.0981 42.7388 78.7923C42.7388 78.4865 43.0157 78.2386 43.3572 78.2386C43.6988 78.2386 43.9757 78.4865 43.9757 78.7923Z" fill="#2C394B"/>
<path d="M46.4498 78.7923C46.4498 79.0981 46.1729 79.346 45.8314 79.346C45.4898 79.346 45.2129 79.0981 45.2129 78.7923C45.2129 78.4865 45.4898 78.2386 45.8314 78.2386C46.1729 78.2386 46.4498 78.4865 46.4498 78.7923Z" fill="#2C394B"/>
<path d="M48.9235 78.7923C48.9235 79.0981 48.6466 79.346 48.305 79.346C47.9634 79.346 47.6865 79.0981 47.6865 78.7923C47.6865 78.4865 47.9634 78.2386 48.305 78.2386C48.6466 78.2386 48.9235 78.4865 48.9235 78.7923Z" fill="#2C394B"/>
<path d="M51.3976 78.7923C51.3976 79.0981 51.1207 79.346 50.7791 79.346C50.4375 79.346 50.1606 79.0981 50.1606 78.7923C50.1606 78.4865 50.4375 78.2386 50.7791 78.2386C51.1207 78.2386 51.3976 78.4865 51.3976 78.7923Z" fill="#2C394B"/>
<path d="M53.8717 78.7923C53.8717 79.0981 53.5948 79.346 53.2532 79.346C52.9117 79.346 52.6348 79.0981 52.6348 78.7923C52.6348 78.4865 52.9117 78.2386 53.2532 78.2386C53.5948 78.2386 53.8717 78.4865 53.8717 78.7923Z" fill="#2C394B"/>
<path d="M56.3453 78.7923C56.3453 79.0981 56.0684 79.346 55.7269 79.346C55.3853 79.346 55.1084 79.0981 55.1084 78.7923C55.1084 78.4865 55.3853 78.2386 55.7269 78.2386C56.0684 78.2386 56.3453 78.4865 56.3453 78.7923Z" fill="#2C394B"/>
<path d="M58.8195 78.7923C58.8195 79.0981 58.5426 79.346 58.201 79.346C57.8594 79.346 57.5825 79.0981 57.5825 78.7923C57.5825 78.4865 57.8594 78.2386 58.201 78.2386C58.5426 78.2386 58.8195 78.4865 58.8195 78.7923Z" fill="#2C394B"/>
<path d="M61.2931 78.7923C61.2931 79.0981 61.0162 79.346 60.6746 79.346C60.3331 79.346 60.0562 79.0981 60.0562 78.7923C60.0562 78.4865 60.3331 78.2386 60.6746 78.2386C61.0162 78.2386 61.2931 78.4865 61.2931 78.7923Z" fill="#2C394B"/>
<path d="M63.7672 78.7923C63.7672 79.0981 63.4903 79.346 63.1487 79.346C62.8072 79.346 62.5303 79.0981 62.5303 78.7923C62.5303 78.4865 62.8072 78.2386 63.1487 78.2386C63.4903 78.2386 63.7672 78.4865 63.7672 78.7923Z" fill="#2C394B"/>
<path d="M66.2409 78.7923C66.2409 79.0981 65.964 79.346 65.6224 79.346C65.2808 79.346 65.0039 79.0981 65.0039 78.7923C65.0039 78.4865 65.2808 78.2386 65.6224 78.2386C65.964 78.2386 66.2409 78.4865 66.2409 78.7923Z" fill="#2C394B"/>
<path d="M8.18698 41.7935C7.8245 41.7935 7.5308 41.5256 7.52981 41.1942L7.52881 40.8257C7.52781 40.4936 7.82118 40.2239 8.18432 40.2233H8.18598C8.54812 40.2233 8.84216 40.4912 8.84315 40.8226L8.84415 41.1911C8.84515 41.5232 8.55145 41.7926 8.18831 41.7935C8.18798 41.7935 8.18731 41.7935 8.18698 41.7935Z" fill="#2C394B"/>
<path d="M8.19332 44.2278C7.83118 44.2278 7.53715 43.9596 7.53615 43.6284L7.53516 43.2596C7.53449 42.9276 7.82786 42.6581 8.191 42.6572H8.19233C8.5548 42.6572 8.84883 42.9255 8.8495 43.2566L8.85049 43.6254C8.85149 43.9574 8.55812 44.2269 8.19499 44.2278C8.19465 44.2278 8.19399 44.2278 8.19332 44.2278Z" fill="#2C394B"/>
<path d="M9.31895 42.8237C8.95681 42.8237 8.66278 42.5557 8.66211 42.2243C8.66112 41.8923 8.95482 41.6228 9.31762 41.6219L9.72096 41.6213H9.72229C10.0848 41.6213 10.3788 41.8892 10.3795 42.2207C10.3805 42.5527 10.0868 42.8222 9.72395 42.8228L9.32061 42.8237C9.32028 42.8237 9.31962 42.8237 9.31895 42.8237Z" fill="#2C394B"/>
<path d="M6.65717 42.8298C6.29503 42.8298 6.001 42.5618 6 42.2304C5.99901 41.8987 6.29271 41.6289 6.65551 41.628L7.05885 41.6271H7.06051C7.42266 41.6271 7.71669 41.895 7.71769 42.2264C7.71868 42.5582 7.42498 42.8279 7.06218 42.8289L6.65884 42.8298C6.6585 42.8298 6.65784 42.8298 6.65717 42.8298Z" fill="#2C394B"/>
<path d="M100.419 65.2648C100.184 65.2648 99.9935 65.0909 99.9928 64.8758L99.9922 64.6366C99.9915 64.421 100.182 64.2459 100.418 64.2455H100.419C100.654 64.2455 100.845 64.4195 100.845 64.6346L100.846 64.8738C100.847 65.0893 100.656 65.2642 100.42 65.2648C100.42 65.2648 100.42 65.2648 100.419 65.2648Z" fill="#2C394B"/>
<path d="M100.424 66.8449C100.189 66.8449 99.9979 66.6708 99.9972 66.4559L99.9966 66.2165C99.9962 66.0009 100.187 65.826 100.422 65.8254H100.423C100.658 65.8254 100.849 65.9996 100.85 66.2145L100.85 66.4539C100.851 66.6694 100.661 66.8443 100.425 66.8449C100.425 66.8449 100.424 66.8449 100.424 66.8449Z" fill="#2C394B"/>
<path d="M101.154 65.9335C100.919 65.9335 100.728 65.7596 100.728 65.5444C100.727 65.3289 100.918 65.154 101.154 65.1534L101.415 65.153H101.416C101.652 65.153 101.842 65.3269 101.843 65.5421C101.843 65.7576 101.653 65.9325 101.417 65.9329L101.155 65.9335C101.155 65.9335 101.155 65.9335 101.154 65.9335Z" fill="#2C394B"/>
<path d="M99.4266 65.9374C99.1915 65.9374 99.0006 65.7635 99 65.5484C98.9994 65.333 99.19 65.1579 99.4255 65.1573L99.6873 65.1567H99.6884C99.9235 65.1567 100.114 65.3307 100.115 65.5458C100.116 65.7611 99.925 65.9362 99.6895 65.9368L99.4277 65.9374C99.4274 65.9374 99.427 65.9374 99.4266 65.9374Z" fill="#2C394B"/>
<rect x="29.5" y="12.6973" width="48.7424" height="66.0621" rx="3.5" fill="#E2EEFF" stroke="#2C394B"/>
<path d="M77.9165 20.2458V70.21C77.9165 71.3392 77.0501 72.2529 75.9794 72.2529H73.9165C74.9872 72.2529 75.8536 71.3392 75.8536 70.21V20.2458C75.8536 19.6823 75.637 19.1721 75.2863 18.8023C75.243 18.7555 75.1976 18.7109 75.1491 18.6696C75.1017 18.6271 75.0511 18.588 74.9995 18.5521C74.6911 18.3312 74.3177 18.2029 73.9165 18.2029H75.9794C76.3807 18.2029 76.754 18.3312 77.0625 18.5521C77.114 18.5891 77.1646 18.6282 77.212 18.6696C77.2595 18.712 77.3059 18.7555 77.3492 18.8023C77.6999 19.1721 77.9165 19.6823 77.9165 20.2458Z" fill="#DAE7FA"/>
<path d="M29 16.1973C29 13.9882 30.7909 12.1973 33 12.1973H74.7424C76.9516 12.1973 78.7424 13.9882 78.7424 16.1973V20.3261H29V16.1973Z" fill="#2C394B"/>
<path d="M29 75.2594C29 77.4685 30.7909 79.2594 33 79.2594H74.7424C76.9516 79.2594 78.7424 77.4685 78.7424 75.2594V71.1307H29V75.2594Z" fill="#2C394B"/>
<rect x="51.3335" y="74.179" width="6.09091" height="2.03218" rx="1" fill="#F6E049"/>
<line x1="0.5" y1="-0.5" x2="6.60935" y2="-0.5" transform="matrix(0.706779 -0.707434 0.706779 0.707434 36.106 30.487)" stroke="white" stroke-linecap="round"/>
<line x1="0.5" y1="-0.5" x2="13.7187" y2="-0.5" transform="matrix(0.706779 -0.707434 0.706779 0.707434 36.106 35.4653)" stroke="white" stroke-linecap="round"/>
<circle cx="33.1353" cy="16.1428" r="0.849625" fill="#E06A63"/>
<circle cx="35.6841" cy="16.1428" r="0.849625" fill="#F6E049"/>
<circle cx="38.2329" cy="16.1428" r="0.849625" fill="#7FD6C2"/>
<path d="M59.4546 36.5229C59.4546 34.3117 61.2455 32.5192 63.4546 32.5192H80.8334C83.0425 32.5192 84.8334 34.3117 84.8334 36.5229V75.2557C84.8334 77.4669 83.0425 79.2594 80.8334 79.2594H63.4546C61.2455 79.2594 59.4546 77.4669 59.4546 75.2557V36.5229Z" fill="#74B9FF"/>
<path fill-rule="evenodd" clip-rule="evenodd" d="M80.8334 33.5201H63.4546C61.7977 33.5201 60.4546 34.8645 60.4546 36.5229V75.2557C60.4546 76.9141 61.7977 78.2585 63.4546 78.2585H80.8334C82.4902 78.2585 83.8334 76.9141 83.8334 75.2557V36.5229C83.8334 34.8645 82.4902 33.5201 80.8334 33.5201ZM63.4546 32.5192C61.2455 32.5192 59.4546 34.3117 59.4546 36.5229V75.2557C59.4546 77.4669 61.2455 79.2594 63.4546 79.2594H80.8334C83.0425 79.2594 84.8334 77.4669 84.8334 75.2557V36.5229C84.8334 34.3117 83.0425 32.5192 80.8334 32.5192H63.4546Z" fill="#2C394B"/>
<line x1="0.5" y1="-0.5" x2="6.60936" y2="-0.5" transform="matrix(0.706779 -0.707434 0.706779 0.707434 63.5151 46.6934)" stroke="white" stroke-linecap="round"/>
<line x1="0.5" y1="-0.5" x2="13.7187" y2="-0.5" transform="matrix(0.706779 -0.707434 0.706779 0.707434 63.5151 51.7228)" stroke="white" stroke-linecap="round"/>
<path d="M67 32.5118H77V34.5137C77 35.6193 76.1046 36.5155 75 36.5155H69C67.8954 36.5155 67 35.6193 67 34.5137V32.5118Z" fill="#2C394B"/>
<path fill-rule="evenodd" clip-rule="evenodd" d="M76 33.5128H68V34.5137C68 35.0665 68.4477 35.5146 69 35.5146H75C75.5523 35.5146 76 35.0665 76 34.5137V33.5128ZM67 32.5118V34.5137C67 35.6193 67.8954 36.5155 69 36.5155H75C76.1046 36.5155 77 35.6193 77 34.5137V32.5118H67Z" fill="#2C394B"/>
<g clip-path="url(#clip0_250_15743)">
<path fill-rule="evenodd" clip-rule="evenodd" d="M8.73371 13.2762H12.1158V26.491H8.73371V13.2762ZM5.77828 26.491H2.396V17.8668H5.77824V26.491H5.77828ZM15.0718 8.68608H18.4541V26.491H15.0718V8.68608ZM21.4095 4.09546H24.7916V26.491H21.4095V4.09546Z" fill="#F6E049"/>
<path fill-rule="evenodd" clip-rule="evenodd" d="M18.2219 26.2587H15.3043V8.91843H18.2219V26.2587ZM18.6864 7.98915H14.8398C14.5827 7.98915 14.3751 8.19689 14.3751 8.45379V26.7234C14.3751 26.9799 14.5827 27.188 14.8398 27.188H18.6864C18.9429 27.188 19.1512 26.9799 19.1512 26.7234V8.45379C19.1511 8.19689 18.9429 7.98915 18.6864 7.98915ZM11.8836 26.2587H8.96616V13.5086H11.8836V26.2587ZM12.3483 12.5793H8.50166C8.24518 12.5793 8.03693 12.7874 8.03693 13.0439V26.7233C8.03693 26.9798 8.24518 27.188 8.50166 27.188H12.3483C12.6052 27.188 12.813 26.9798 12.813 26.7233V13.044C12.813 12.7875 12.6052 12.5793 12.3483 12.5793ZM24.5594 26.2587H21.642V4.32785H24.5594V26.2587ZM25.0242 3.39862H21.1773C20.9208 3.39862 20.7128 3.60664 20.7128 3.86312V26.7233C20.7128 26.9798 20.9208 27.188 21.1773 27.188H25.0242C25.2806 27.188 25.4889 26.9798 25.4889 26.7233V3.86317C25.4888 3.60669 25.2806 3.39862 25.0242 3.39862ZM5.5461 26.2587H2.62845V18.0992H5.5461V26.2587ZM6.0106 17.17H2.16395C1.90747 17.17 1.69922 17.3781 1.69922 17.6346V26.7234C1.69922 26.9799 1.90747 27.188 2.16395 27.188H6.0106C6.26726 27.188 6.47533 26.9799 6.47533 26.7234V17.6346C6.47528 17.3781 6.26726 17.17 6.0106 17.17Z" fill="#2C394B"/>
</g>
<g clip-path="url(#clip1_250_15743)">
<path d="M93.0336 20.5621C92.7845 20.5621 92.5825 20.3601 92.5825 20.111V18.2932C92.5825 18.044 92.7845 17.8421 93.0336 17.8421C93.2828 17.8421 93.4847 18.044 93.4847 18.2932V20.111C93.4847 20.3601 93.2828 20.5621 93.0336 20.5621Z" fill="#2C394B"/>
<path opacity="0.52" d="M93.0336 30.5865C92.7845 30.5865 92.5825 30.3845 92.5825 30.1353V28.3176C92.5825 28.0684 92.7845 27.8665 93.0336 27.8665C93.2828 27.8665 93.4847 28.0684 93.4847 28.3176V30.1353C93.4847 30.3845 93.2828 30.5865 93.0336 30.5865Z" fill="#2C394B"/>
<path opacity="0.58" d="M95.2716 30.1474C95.0937 30.1474 94.9252 30.0415 94.8538 29.8667L94.1669 28.1837C94.0727 27.9531 94.1834 27.6897 94.414 27.5956C94.6445 27.5014 94.908 27.6121 95.0022 27.8428L95.6891 29.5257C95.7832 29.7564 95.6726 30.0197 95.4419 30.1138C95.3861 30.1367 95.3284 30.1474 95.2716 30.1474Z" fill="#2C394B"/>
<path opacity="0.94" d="M94.5844 20.8665C94.5276 20.8665 94.4699 20.8557 94.414 20.8329C94.1834 20.7388 94.0727 20.4755 94.1669 20.2448L94.8538 18.5618C94.9479 18.3312 95.2112 18.2202 95.4419 18.3147C95.6726 18.4088 95.7832 18.6721 95.6891 18.9028L95.0022 20.5858C94.9308 20.7606 94.7622 20.8665 94.5844 20.8665Z" fill="#2C394B"/>
<path opacity="0.46" d="M90.7958 30.1474C90.739 30.1474 90.6813 30.1367 90.6255 30.1139C90.3948 30.0198 90.2841 29.7564 90.3783 29.5257L91.0652 27.8428C91.1594 27.6121 91.4227 27.5014 91.6533 27.5956C91.884 27.6897 91.9947 27.9531 91.9005 28.1838L91.2136 29.8667C91.1422 30.0415 90.9737 30.1474 90.7958 30.1474Z" fill="#2C394B"/>
<path opacity="0.36" d="M87.552 26.9031C87.3741 26.9031 87.2055 26.7973 87.1342 26.6224C87.04 26.3917 87.1507 26.1284 87.3813 26.0343L89.0643 25.3473C89.2949 25.2529 89.5582 25.3637 89.6524 25.5944C89.7466 25.8251 89.6359 26.0884 89.4052 26.1825L87.7223 26.8695C87.6665 26.8923 87.6087 26.9031 87.552 26.9031Z" fill="#2C394B"/>
<path opacity="0.82" d="M96.8327 23.1148C96.6549 23.1148 96.4863 23.009 96.4149 22.8341C96.3208 22.6035 96.4314 22.3401 96.6621 22.246L98.345 21.5591C98.5756 21.4647 98.839 21.5754 98.9332 21.8062C99.0273 22.0369 98.9167 22.3002 98.686 22.3943L97.0031 23.0813C96.9473 23.1041 96.8895 23.1148 96.8327 23.1148Z" fill="#2C394B"/>
<path opacity="0.24" d="M89.2346 23.1148C89.1778 23.1148 89.1201 23.1041 89.0643 23.0812L87.3813 22.3943C87.1506 22.3002 87.04 22.0368 87.1342 21.8062C87.2283 21.5755 87.4916 21.4649 87.7223 21.559L89.4053 22.246C89.6359 22.3401 89.7466 22.6034 89.6524 22.8341C89.581 23.0089 89.4124 23.1148 89.2346 23.1148Z" fill="#2C394B"/>
<path opacity="0.7" d="M98.5158 26.9031C98.4591 26.9031 98.4013 26.8923 98.3455 26.8695L96.6626 26.1826C96.4319 26.0885 96.3213 25.8251 96.4154 25.5944C96.5096 25.364 96.7728 25.2532 97.0036 25.3473L98.6865 26.0343C98.9172 26.1284 99.0278 26.3917 98.9337 26.6224C98.8623 26.7972 98.6937 26.9031 98.5158 26.9031Z" fill="#2C394B"/>
<path opacity="0.88" d="M95.9355 21.7639C95.82 21.7639 95.7046 21.7199 95.6165 21.6318C95.4403 21.4556 95.4403 21.17 95.6165 20.9939L96.9018 19.7085C97.078 19.5323 97.3636 19.5323 97.5398 19.7085C97.7159 19.8846 97.7159 20.1703 97.5398 20.3464L96.2544 21.6318C96.1664 21.7199 96.0509 21.7639 95.9355 21.7639Z" fill="#2C394B"/>
<path opacity="0.4" d="M88.8471 28.8522C88.7316 28.8522 88.6162 28.8082 88.5281 28.7201C88.352 28.544 88.3519 28.2583 88.5281 28.0822L89.8134 26.7968C89.9896 26.6206 90.2752 26.6206 90.4514 26.7968C90.6275 26.973 90.6276 27.2586 90.4514 27.4347L89.1661 28.7201C89.078 28.8082 88.9625 28.8522 88.8471 28.8522Z" fill="#2C394B"/>
<path opacity="0.18" d="M90.1324 21.7639C90.017 21.7639 89.9016 21.7199 89.8134 21.6318L88.5281 20.3464C88.352 20.1703 88.352 19.8846 88.5281 19.7085C88.7043 19.5324 88.9899 19.5324 89.1661 19.7085L90.4514 20.9939C90.6276 21.17 90.6276 21.4556 90.4514 21.6318C90.3633 21.7199 90.2479 21.7639 90.1324 21.7639Z" fill="#2C394B"/>
<path opacity="0.64" d="M97.2208 28.8522C97.1053 28.8522 96.9899 28.8082 96.9018 28.7201L95.6165 27.4347C95.4403 27.2586 95.4403 26.973 95.6165 26.7968C95.7927 26.6207 96.0783 26.6207 96.2544 26.7968L97.5398 28.0822C97.7159 28.2583 97.7159 28.544 97.5398 28.7201C97.4517 28.8082 97.3362 28.8522 97.2208 28.8522Z" fill="#2C394B"/>
<path opacity="0.3" d="M88.9304 24.6654H87.1127C86.8636 24.6654 86.6616 24.4635 86.6616 24.2143C86.6616 23.9651 86.8636 23.7632 87.1127 23.7632H88.9304C89.1796 23.7632 89.3815 23.9651 89.3815 24.2143C89.3815 24.4635 89.1796 24.6654 88.9304 24.6654Z" fill="#2C394B"/>
<path opacity="0.76" d="M98.9549 24.6654H97.1371C96.888 24.6654 96.686 24.4635 96.686 24.2143C96.686 23.9651 96.888 23.7632 97.1371 23.7632H98.9549C99.204 23.7632 99.406 23.9651 99.406 24.2143C99.406 24.4635 99.2041 24.6654 98.9549 24.6654Z" fill="#2C394B"/>
</g>
<defs>
<clipPath id="clip0_250_15743">
<rect width="23.7895" height="23.7895" fill="white" transform="translate(1.69922 3.3985)"/>
</clipPath>
<clipPath id="clip1_250_15743">
<rect width="12.7444" height="12.7444" fill="white" transform="translate(86.6616 17.8421)"/>
</clipPath>
</defs>
</svg>
