<svg width="113" height="84" viewBox="0 0 113 84" fill="none" xmlns="http://www.w3.org/2000/svg">
<g clip-path="url(#clip0_250_12536)">
<g clip-path="url(#clip1_250_12536)">
<path d="M43.5929 44.6056C43.5929 44.9401 43.9014 45.2113 44.282 45.2113C44.6626 45.2113 44.9712 44.9401 44.9712 44.6056C44.9712 44.2712 44.6626 44 44.282 44C43.9014 44 43.5929 44.2712 43.5929 44.6056Z" fill="#2C394B"/>
<path d="M40.836 44.6056C40.836 44.9401 41.1446 45.2113 41.5252 45.2113C41.9058 45.2113 42.2144 44.9401 42.2144 44.6056C42.2144 44.2712 41.9058 44 41.5252 44C41.1446 44 40.836 44.2712 40.836 44.6056Z" fill="#2C394B"/>
<path d="M38.0792 44.6056C38.0792 44.9401 38.3878 45.2113 38.7684 45.2113C39.149 45.2113 39.4575 44.9401 39.4575 44.6056C39.4575 44.2712 39.149 44 38.7684 44C38.3878 44 38.0792 44.2712 38.0792 44.6056Z" fill="#2C394B"/>
<path d="M35.3229 44.6056C35.3229 44.9401 35.6314 45.2113 36.012 45.2113C36.3926 45.2113 36.7012 44.9401 36.7012 44.6056C36.7012 44.2712 36.3926 44 36.012 44C35.6314 44 35.3229 44.2712 35.3229 44.6056Z" fill="#2C394B"/>
<path d="M32.566 44.6056C32.566 44.9401 32.8746 45.2113 33.2552 45.2113C33.6358 45.2113 33.9443 44.9401 33.9443 44.6056C33.9443 44.2712 33.6358 44 33.2552 44C32.8746 44 32.566 44.2712 32.566 44.6056Z" fill="#2C394B"/>
<path d="M29.8097 44.6056C29.8097 44.9401 30.1182 45.2113 30.4988 45.2113C30.8794 45.2113 31.188 44.9401 31.188 44.6056C31.188 44.2712 30.8794 44 30.4988 44C30.1182 44 29.8097 44.2712 29.8097 44.6056Z" fill="#2C394B"/>
<path d="M27.0528 44.6056C27.0528 44.9401 27.3614 45.2113 27.742 45.2113C28.1226 45.2113 28.4312 44.9401 28.4312 44.6056C28.4312 44.2712 28.1226 44 27.742 44C27.3614 44 27.0528 44.2712 27.0528 44.6056Z" fill="#2C394B"/>
<path d="M24.2965 44.6056C24.2965 44.9401 24.605 45.2113 24.9856 45.2113C25.3663 45.2113 25.6748 44.9401 25.6748 44.6056C25.6748 44.2712 25.3663 44 24.9856 44C24.605 44 24.2965 44.2712 24.2965 44.6056Z" fill="#2C394B"/>
<path d="M21.5397 44.6056C21.5397 44.9401 21.8482 45.2113 22.2288 45.2113C22.6094 45.2113 22.918 44.9401 22.918 44.6056C22.918 44.2712 22.6094 44 22.2288 44C21.8482 44 21.5397 44.2712 21.5397 44.6056Z" fill="#2C394B"/>
<path d="M43.5929 47.0282C43.5929 47.3627 43.9014 47.6338 44.282 47.6338C44.6626 47.6338 44.9712 47.3627 44.9712 47.0282C44.9712 46.6937 44.6626 46.4225 44.282 46.4225C43.9014 46.4225 43.5929 46.6937 43.5929 47.0282Z" fill="#2C394B"/>
<path d="M40.836 47.0282C40.836 47.3627 41.1446 47.6338 41.5252 47.6338C41.9058 47.6338 42.2144 47.3627 42.2144 47.0282C42.2144 46.6937 41.9058 46.4225 41.5252 46.4225C41.1446 46.4225 40.836 46.6937 40.836 47.0282Z" fill="#2C394B"/>
<path d="M38.0792 47.0282C38.0792 47.3627 38.3878 47.6338 38.7684 47.6338C39.149 47.6338 39.4575 47.3627 39.4575 47.0282C39.4575 46.6937 39.149 46.4225 38.7684 46.4225C38.3878 46.4225 38.0792 46.6937 38.0792 47.0282Z" fill="#2C394B"/>
<path d="M35.3229 47.0282C35.3229 47.3627 35.6314 47.6338 36.012 47.6338C36.3926 47.6338 36.7012 47.3627 36.7012 47.0282C36.7012 46.6937 36.3926 46.4225 36.012 46.4225C35.6314 46.4225 35.3229 46.6937 35.3229 47.0282Z" fill="#2C394B"/>
<path d="M32.566 47.0282C32.566 47.3627 32.8746 47.6338 33.2552 47.6338C33.6358 47.6338 33.9443 47.3627 33.9443 47.0282C33.9443 46.6937 33.6358 46.4225 33.2552 46.4225C32.8746 46.4225 32.566 46.6937 32.566 47.0282Z" fill="#2C394B"/>
<path d="M29.8097 47.0282C29.8097 47.3627 30.1182 47.6338 30.4988 47.6338C30.8794 47.6338 31.188 47.3627 31.188 47.0282C31.188 46.6937 30.8794 46.4225 30.4988 46.4225C30.1182 46.4225 29.8097 46.6937 29.8097 47.0282Z" fill="#2C394B"/>
<path d="M27.0528 47.0282C27.0528 47.3627 27.3614 47.6338 27.742 47.6338C28.1226 47.6338 28.4312 47.3627 28.4312 47.0282C28.4312 46.6937 28.1226 46.4225 27.742 46.4225C27.3614 46.4225 27.0528 46.6937 27.0528 47.0282Z" fill="#2C394B"/>
<path d="M24.2965 47.0282C24.2965 47.3627 24.605 47.6338 24.9856 47.6338C25.3663 47.6338 25.6748 47.3627 25.6748 47.0282C25.6748 46.6937 25.3663 46.4225 24.9856 46.4225C24.605 46.4225 24.2965 46.6937 24.2965 47.0282Z" fill="#2C394B"/>
<path d="M21.5397 47.0282C21.5397 47.3627 21.8482 47.6338 22.2288 47.6338C22.6094 47.6338 22.918 47.3627 22.918 47.0282C22.918 46.6937 22.6094 46.4225 22.2288 46.4225C21.8482 46.4225 21.5397 46.6937 21.5397 47.0282Z" fill="#2C394B"/>
<path d="M18.7828 47.0282C18.7828 47.3627 19.0914 47.6338 19.472 47.6338C19.8526 47.6338 20.1611 47.3627 20.1611 47.0282C20.1611 46.6937 19.8526 46.4225 19.472 46.4225C19.0914 46.4225 18.7828 46.6937 18.7828 47.0282Z" fill="#2C394B"/>
<path d="M43.5929 49.4508C43.5929 49.7853 43.9014 50.0564 44.282 50.0564C44.6626 50.0564 44.9712 49.7853 44.9712 49.4508C44.9712 49.1163 44.6626 48.8452 44.282 48.8452C43.9014 48.8452 43.5929 49.1163 43.5929 49.4508Z" fill="#2C394B"/>
<path d="M40.836 49.4508C40.836 49.7853 41.1446 50.0564 41.5252 50.0564C41.9058 50.0564 42.2144 49.7853 42.2144 49.4508C42.2144 49.1163 41.9058 48.8452 41.5252 48.8452C41.1446 48.8452 40.836 49.1163 40.836 49.4508Z" fill="#2C394B"/>
<path d="M38.0792 49.4508C38.0792 49.7853 38.3878 50.0564 38.7684 50.0564C39.149 50.0564 39.4575 49.7853 39.4575 49.4508C39.4575 49.1163 39.149 48.8452 38.7684 48.8452C38.3878 48.8452 38.0792 49.1163 38.0792 49.4508Z" fill="#2C394B"/>
<path d="M35.3229 49.4508C35.3229 49.7853 35.6314 50.0564 36.012 50.0564C36.3926 50.0564 36.7012 49.7853 36.7012 49.4508C36.7012 49.1163 36.3926 48.8452 36.012 48.8452C35.6314 48.8452 35.3229 49.1163 35.3229 49.4508Z" fill="#2C394B"/>
<path d="M32.566 49.4508C32.566 49.7853 32.8746 50.0564 33.2552 50.0564C33.6358 50.0564 33.9443 49.7853 33.9443 49.4508C33.9443 49.1163 33.6358 48.8452 33.2552 48.8452C32.8746 48.8452 32.566 49.1163 32.566 49.4508Z" fill="#2C394B"/>
<path d="M29.8097 49.4508C29.8097 49.7853 30.1182 50.0564 30.4988 50.0564C30.8794 50.0564 31.188 49.7853 31.188 49.4508C31.188 49.1163 30.8794 48.8452 30.4988 48.8452C30.1182 48.8452 29.8097 49.1163 29.8097 49.4508Z" fill="#2C394B"/>
<path d="M27.0528 49.4508C27.0528 49.7853 27.3614 50.0564 27.742 50.0564C28.1226 50.0564 28.4312 49.7853 28.4312 49.4508C28.4312 49.1163 28.1226 48.8452 27.742 48.8452C27.3614 48.8452 27.0528 49.1163 27.0528 49.4508Z" fill="#2C394B"/>
<path d="M24.2965 49.4508C24.2965 49.7853 24.605 50.0564 24.9856 50.0564C25.3663 50.0564 25.6748 49.7853 25.6748 49.4508C25.6748 49.1163 25.3663 48.8452 24.9856 48.8452C24.605 48.8452 24.2965 49.1163 24.2965 49.4508Z" fill="#2C394B"/>
<path d="M21.5397 49.4508C21.5397 49.7853 21.8482 50.0564 22.2288 50.0564C22.6094 50.0564 22.918 49.7853 22.918 49.4508C22.918 49.1163 22.6094 48.8452 22.2288 48.8452C21.8482 48.8452 21.5397 49.1163 21.5397 49.4508Z" fill="#2C394B"/>
<path d="M18.7828 49.4508C18.7828 49.7853 19.0914 50.0564 19.472 50.0564C19.8526 50.0564 20.1611 49.7853 20.1611 49.4508C20.1611 49.1163 19.8526 48.8452 19.472 48.8452C19.0914 48.8452 18.7828 49.1163 18.7828 49.4508Z" fill="#2C394B"/>
<path d="M16.0265 49.4508C16.0265 49.7853 16.335 50.0564 16.7156 50.0564C17.0962 50.0564 17.4048 49.7853 17.4048 49.4508C17.4048 49.1163 17.0962 48.8452 16.7156 48.8452C16.335 48.8452 16.0265 49.1163 16.0265 49.4508Z" fill="#2C394B"/>
<path d="M43.5929 51.8733C43.5929 52.2078 43.9014 52.479 44.282 52.479C44.6626 52.479 44.9712 52.2078 44.9712 51.8733C44.9712 51.5389 44.6626 51.2677 44.282 51.2677C43.9014 51.2677 43.5929 51.5389 43.5929 51.8733Z" fill="#2C394B"/>
<path d="M40.836 51.8733C40.836 52.2078 41.1446 52.479 41.5252 52.479C41.9058 52.479 42.2144 52.2078 42.2144 51.8733C42.2144 51.5389 41.9058 51.2677 41.5252 51.2677C41.1446 51.2677 40.836 51.5389 40.836 51.8733Z" fill="#2C394B"/>
<path d="M38.0792 51.8733C38.0792 52.2078 38.3877 52.479 38.7684 52.479C39.149 52.479 39.4575 52.2078 39.4575 51.8733C39.4575 51.5389 39.149 51.2677 38.7684 51.2677C38.3877 51.2677 38.0792 51.5389 38.0792 51.8733Z" fill="#2C394B"/>
<path d="M35.3229 51.8733C35.3229 52.2078 35.6314 52.479 36.012 52.479C36.3926 52.479 36.7012 52.2078 36.7012 51.8733C36.7012 51.5389 36.3926 51.2677 36.012 51.2677C35.6314 51.2677 35.3229 51.5389 35.3229 51.8733Z" fill="#2C394B"/>
<path d="M32.566 51.8733C32.566 52.2078 32.8746 52.479 33.2552 52.479C33.6358 52.479 33.9443 52.2078 33.9443 51.8733C33.9443 51.5389 33.6358 51.2677 33.2552 51.2677C32.8746 51.2677 32.566 51.5389 32.566 51.8733Z" fill="#2C394B"/>
<path d="M29.8097 51.8733C29.8097 52.2078 30.1182 52.479 30.4988 52.479C30.8794 52.479 31.188 52.2078 31.188 51.8733C31.188 51.5389 30.8794 51.2677 30.4988 51.2677C30.1182 51.2677 29.8097 51.5389 29.8097 51.8733Z" fill="#2C394B"/>
<path d="M27.0528 51.8733C27.0528 52.2078 27.3614 52.479 27.742 52.479C28.1226 52.479 28.4312 52.2078 28.4312 51.8733C28.4312 51.5389 28.1226 51.2677 27.742 51.2677C27.3614 51.2677 27.0528 51.5389 27.0528 51.8733Z" fill="#2C394B"/>
<path d="M24.2965 51.8733C24.2965 52.2078 24.605 52.479 24.9856 52.479C25.3663 52.479 25.6748 52.2078 25.6748 51.8733C25.6748 51.5389 25.3663 51.2677 24.9856 51.2677C24.605 51.2677 24.2965 51.5389 24.2965 51.8733Z" fill="#2C394B"/>
<path d="M21.5397 51.8733C21.5397 52.2078 21.8482 52.479 22.2288 52.479C22.6094 52.479 22.918 52.2078 22.918 51.8733C22.918 51.5389 22.6094 51.2677 22.2288 51.2677C21.8482 51.2677 21.5397 51.5389 21.5397 51.8733Z" fill="#2C394B"/>
<path d="M18.7828 51.8733C18.7828 52.2078 19.0914 52.479 19.472 52.479C19.8526 52.479 20.1611 52.2078 20.1611 51.8733C20.1611 51.5389 19.8526 51.2677 19.472 51.2677C19.0914 51.2677 18.7828 51.5389 18.7828 51.8733Z" fill="#2C394B"/>
<path d="M16.0265 51.8733C16.0265 52.2078 16.335 52.479 16.7156 52.479C17.0962 52.479 17.4048 52.2078 17.4048 51.8733C17.4048 51.5389 17.0962 51.2677 16.7156 51.2677C16.335 51.2677 16.0265 51.5389 16.0265 51.8733Z" fill="#2C394B"/>
<path d="M13.2696 51.8733C13.2696 52.2078 13.5782 52.479 13.9588 52.479C14.3394 52.479 14.6479 52.2078 14.6479 51.8733C14.6479 51.5389 14.3394 51.2677 13.9588 51.2677C13.5782 51.2677 13.2696 51.5389 13.2696 51.8733Z" fill="#2C394B"/>
<path d="M43.5929 54.2959C43.5929 54.6304 43.9014 54.9015 44.282 54.9015C44.6626 54.9015 44.9712 54.6304 44.9712 54.2959C44.9712 53.9614 44.6626 53.6902 44.282 53.6902C43.9014 53.6902 43.5929 53.9614 43.5929 54.2959Z" fill="#2C394B"/>
<path d="M40.836 54.2959C40.836 54.6304 41.1446 54.9015 41.5252 54.9015C41.9058 54.9015 42.2144 54.6304 42.2144 54.2959C42.2144 53.9614 41.9058 53.6902 41.5252 53.6902C41.1446 53.6902 40.836 53.9614 40.836 54.2959Z" fill="#2C394B"/>
<path d="M38.0792 54.2959C38.0792 54.6304 38.3877 54.9015 38.7684 54.9015C39.149 54.9015 39.4575 54.6304 39.4575 54.2959C39.4575 53.9614 39.149 53.6902 38.7684 53.6902C38.3877 53.6902 38.0792 53.9614 38.0792 54.2959Z" fill="#2C394B"/>
<path d="M35.3229 54.2959C35.3229 54.6304 35.6314 54.9015 36.012 54.9015C36.3926 54.9015 36.7012 54.6304 36.7012 54.2959C36.7012 53.9614 36.3926 53.6902 36.012 53.6902C35.6314 53.6902 35.3229 53.9614 35.3229 54.2959Z" fill="#2C394B"/>
<path d="M32.566 54.2959C32.566 54.6304 32.8746 54.9015 33.2552 54.9015C33.6358 54.9015 33.9443 54.6304 33.9443 54.2959C33.9443 53.9614 33.6358 53.6902 33.2552 53.6902C32.8746 53.6902 32.566 53.9614 32.566 54.2959Z" fill="#2C394B"/>
<path d="M29.8097 54.2959C29.8097 54.6304 30.1182 54.9015 30.4988 54.9015C30.8794 54.9015 31.188 54.6304 31.188 54.2959C31.188 53.9614 30.8794 53.6902 30.4988 53.6902C30.1182 53.6902 29.8097 53.9614 29.8097 54.2959Z" fill="#2C394B"/>
<path d="M27.0528 54.2959C27.0528 54.6304 27.3614 54.9015 27.742 54.9015C28.1226 54.9015 28.4312 54.6304 28.4312 54.2959C28.4312 53.9614 28.1226 53.6902 27.742 53.6902C27.3614 53.6902 27.0528 53.9614 27.0528 54.2959Z" fill="#2C394B"/>
<path d="M24.2965 54.2959C24.2965 54.6304 24.605 54.9015 24.9856 54.9015C25.3663 54.9015 25.6748 54.6304 25.6748 54.2959C25.6748 53.9614 25.3663 53.6902 24.9856 53.6902C24.605 53.6902 24.2965 53.9614 24.2965 54.2959Z" fill="#2C394B"/>
<path d="M21.5397 54.2959C21.5397 54.6304 21.8482 54.9015 22.2288 54.9015C22.6094 54.9015 22.918 54.6304 22.918 54.2959C22.918 53.9614 22.6094 53.6902 22.2288 53.6902C21.8482 53.6902 21.5397 53.9614 21.5397 54.2959Z" fill="#2C394B"/>
<path d="M18.7828 54.2959C18.7828 54.6304 19.0914 54.9015 19.472 54.9015C19.8526 54.9015 20.1611 54.6304 20.1611 54.2959C20.1611 53.9614 19.8526 53.6902 19.472 53.6902C19.0914 53.6902 18.7828 53.9614 18.7828 54.2959Z" fill="#2C394B"/>
<path d="M16.0265 54.2959C16.0265 54.6304 16.335 54.9015 16.7156 54.9015C17.0962 54.9015 17.4048 54.6304 17.4048 54.2959C17.4048 53.9614 17.0962 53.6902 16.7156 53.6902C16.335 53.6902 16.0265 53.9614 16.0265 54.2959Z" fill="#2C394B"/>
<path d="M13.2696 54.2959C13.2696 54.6304 13.5782 54.9015 13.9588 54.9015C14.3394 54.9015 14.6479 54.6304 14.6479 54.2959C14.6479 53.9614 14.3394 53.6902 13.9588 53.6902C13.5782 53.6902 13.2696 53.9614 13.2696 54.2959Z" fill="#2C394B"/>
<path d="M10.5133 54.2959C10.5133 54.6304 10.8218 54.9015 11.2024 54.9015C11.5831 54.9015 11.8916 54.6304 11.8916 54.2959C11.8916 53.9614 11.5831 53.6902 11.2024 53.6902C10.8218 53.6902 10.5133 53.9614 10.5133 54.2959Z" fill="#2C394B"/>
<path d="M43.5929 56.7185C43.5929 57.053 43.9014 57.3241 44.282 57.3241C44.6626 57.3241 44.9712 57.053 44.9712 56.7185C44.9712 56.384 44.6626 56.1129 44.282 56.1129C43.9014 56.1129 43.5929 56.384 43.5929 56.7185Z" fill="#2C394B"/>
<path d="M40.836 56.7185C40.836 57.053 41.1446 57.3241 41.5252 57.3241C41.9058 57.3241 42.2144 57.053 42.2144 56.7185C42.2144 56.384 41.9058 56.1129 41.5252 56.1129C41.1446 56.1129 40.836 56.384 40.836 56.7185Z" fill="#2C394B"/>
<path d="M38.0792 56.7185C38.0792 57.053 38.3877 57.3241 38.7684 57.3241C39.149 57.3241 39.4575 57.053 39.4575 56.7185C39.4575 56.384 39.149 56.1129 38.7684 56.1129C38.3877 56.1129 38.0792 56.384 38.0792 56.7185Z" fill="#2C394B"/>
<path d="M35.3229 56.7185C35.3229 57.053 35.6314 57.3241 36.012 57.3241C36.3926 57.3241 36.7012 57.053 36.7012 56.7185C36.7012 56.384 36.3926 56.1129 36.012 56.1129C35.6314 56.1129 35.3229 56.384 35.3229 56.7185Z" fill="#2C394B"/>
<path d="M32.566 56.7185C32.566 57.053 32.8746 57.3241 33.2552 57.3241C33.6358 57.3241 33.9443 57.053 33.9443 56.7185C33.9443 56.384 33.6358 56.1129 33.2552 56.1129C32.8746 56.1129 32.566 56.384 32.566 56.7185Z" fill="#2C394B"/>
<path d="M29.8097 56.7185C29.8097 57.053 30.1182 57.3241 30.4988 57.3241C30.8794 57.3241 31.188 57.053 31.188 56.7185C31.188 56.384 30.8794 56.1129 30.4988 56.1129C30.1182 56.1129 29.8097 56.384 29.8097 56.7185Z" fill="#2C394B"/>
<path d="M27.0528 56.7185C27.0528 57.053 27.3614 57.3241 27.742 57.3241C28.1226 57.3241 28.4312 57.053 28.4312 56.7185C28.4312 56.384 28.1226 56.1129 27.742 56.1129C27.3614 56.1129 27.0528 56.384 27.0528 56.7185Z" fill="#2C394B"/>
<path d="M24.2965 56.7185C24.2965 57.053 24.605 57.3241 24.9856 57.3241C25.3663 57.3241 25.6748 57.053 25.6748 56.7185C25.6748 56.384 25.3663 56.1129 24.9856 56.1129C24.605 56.1129 24.2965 56.384 24.2965 56.7185Z" fill="#2C394B"/>
<path d="M21.5397 56.7185C21.5397 57.053 21.8482 57.3241 22.2288 57.3241C22.6094 57.3241 22.918 57.053 22.918 56.7185C22.918 56.384 22.6094 56.1129 22.2288 56.1129C21.8482 56.1129 21.5397 56.384 21.5397 56.7185Z" fill="#2C394B"/>
<path d="M18.7828 56.7185C18.7828 57.053 19.0914 57.3241 19.472 57.3241C19.8526 57.3241 20.1611 57.053 20.1611 56.7185C20.1611 56.384 19.8526 56.1129 19.472 56.1129C19.0914 56.1129 18.7828 56.384 18.7828 56.7185Z" fill="#2C394B"/>
<path d="M16.0265 56.7185C16.0265 57.053 16.335 57.3241 16.7156 57.3241C17.0962 57.3241 17.4048 57.053 17.4048 56.7185C17.4048 56.384 17.0962 56.1129 16.7156 56.1129C16.335 56.1129 16.0265 56.384 16.0265 56.7185Z" fill="#2C394B"/>
<path d="M13.2696 56.7185C13.2696 57.053 13.5782 57.3241 13.9588 57.3241C14.3394 57.3241 14.6479 57.053 14.6479 56.7185C14.6479 56.384 14.3394 56.1129 13.9588 56.1129C13.5782 56.1129 13.2696 56.384 13.2696 56.7185Z" fill="#2C394B"/>
<path d="M10.5133 56.7185C10.5133 57.053 10.8218 57.3241 11.2024 57.3241C11.5831 57.3241 11.8916 57.053 11.8916 56.7185C11.8916 56.384 11.5831 56.1129 11.2024 56.1129C10.8218 56.1129 10.5133 56.384 10.5133 56.7185Z" fill="#2C394B"/>
<path d="M43.5929 59.1411C43.5929 59.4756 43.9014 59.7467 44.282 59.7467C44.6626 59.7467 44.9712 59.4756 44.9712 59.1411C44.9712 58.8066 44.6626 58.5355 44.282 58.5355C43.9014 58.5355 43.5929 58.8066 43.5929 59.1411Z" fill="#2C394B"/>
<path d="M40.836 59.1411C40.836 59.4756 41.1446 59.7467 41.5252 59.7467C41.9058 59.7467 42.2144 59.4756 42.2144 59.1411C42.2144 58.8066 41.9058 58.5355 41.5252 58.5355C41.1446 58.5355 40.836 58.8066 40.836 59.1411Z" fill="#2C394B"/>
<path d="M38.0792 59.1411C38.0792 59.4756 38.3877 59.7467 38.7684 59.7467C39.149 59.7467 39.4575 59.4756 39.4575 59.1411C39.4575 58.8066 39.149 58.5355 38.7684 58.5355C38.3877 58.5355 38.0792 58.8066 38.0792 59.1411Z" fill="#2C394B"/>
<path d="M35.3229 59.1411C35.3229 59.4756 35.6314 59.7467 36.012 59.7467C36.3926 59.7467 36.7012 59.4756 36.7012 59.1411C36.7012 58.8066 36.3926 58.5355 36.012 58.5355C35.6314 58.5355 35.3229 58.8066 35.3229 59.1411Z" fill="#2C394B"/>
<path d="M32.566 59.1411C32.566 59.4756 32.8746 59.7467 33.2552 59.7467C33.6358 59.7467 33.9443 59.4756 33.9443 59.1411C33.9443 58.8066 33.6358 58.5355 33.2552 58.5355C32.8746 58.5355 32.566 58.8066 32.566 59.1411Z" fill="#2C394B"/>
<path d="M29.8097 59.1411C29.8097 59.4756 30.1182 59.7467 30.4988 59.7467C30.8794 59.7467 31.188 59.4756 31.188 59.1411C31.188 58.8066 30.8794 58.5355 30.4988 58.5355C30.1182 58.5355 29.8097 58.8066 29.8097 59.1411Z" fill="#2C394B"/>
<path d="M27.0528 59.1411C27.0528 59.4756 27.3614 59.7467 27.742 59.7467C28.1226 59.7467 28.4312 59.4756 28.4312 59.1411C28.4312 58.8066 28.1226 58.5355 27.742 58.5355C27.3614 58.5355 27.0528 58.8066 27.0528 59.1411Z" fill="#2C394B"/>
<path d="M24.2965 59.1411C24.2965 59.4756 24.605 59.7467 24.9856 59.7467C25.3663 59.7467 25.6748 59.4756 25.6748 59.1411C25.6748 58.8066 25.3663 58.5355 24.9856 58.5355C24.605 58.5355 24.2965 58.8066 24.2965 59.1411Z" fill="#2C394B"/>
<path d="M21.5397 59.1411C21.5397 59.4756 21.8482 59.7467 22.2288 59.7467C22.6094 59.7467 22.918 59.4756 22.918 59.1411C22.918 58.8066 22.6094 58.5355 22.2288 58.5355C21.8482 58.5355 21.5397 58.8066 21.5397 59.1411Z" fill="#2C394B"/>
<path d="M18.7828 59.1411C18.7828 59.4756 19.0914 59.7467 19.472 59.7467C19.8526 59.7467 20.1611 59.4756 20.1611 59.1411C20.1611 58.8066 19.8526 58.5355 19.472 58.5355C19.0914 58.5355 18.7828 58.8066 18.7828 59.1411Z" fill="#2C394B"/>
<path d="M16.0265 59.1411C16.0265 59.4756 16.335 59.7467 16.7156 59.7467C17.0962 59.7467 17.4048 59.4756 17.4048 59.1411C17.4048 58.8066 17.0962 58.5355 16.7156 58.5355C16.335 58.5355 16.0265 58.8066 16.0265 59.1411Z" fill="#2C394B"/>
<path d="M13.2696 59.1411C13.2696 59.4756 13.5782 59.7467 13.9588 59.7467C14.3394 59.7467 14.6479 59.4756 14.6479 59.1411C14.6479 58.8066 14.3394 58.5355 13.9588 58.5355C13.5782 58.5355 13.2696 58.8066 13.2696 59.1411Z" fill="#2C394B"/>
<path d="M10.5133 59.1411C10.5133 59.4756 10.8218 59.7467 11.2024 59.7467C11.5831 59.7467 11.8916 59.4756 11.8916 59.1411C11.8916 58.8066 11.5831 58.5355 11.2024 58.5355C10.8218 58.5355 10.5133 58.8066 10.5133 59.1411Z" fill="#2C394B"/>
<path d="M7.75645 59.1411C7.75645 59.4756 8.065 59.7467 8.44561 59.7467C8.82622 59.7467 9.13477 59.4756 9.13477 59.1411C9.13477 58.8066 8.82622 58.5355 8.44561 58.5355C8.065 58.5355 7.75645 58.8066 7.75645 59.1411Z" fill="#2C394B"/>
<path d="M43.5929 61.5636C43.5929 61.898 43.9014 62.1692 44.282 62.1692C44.6626 62.1692 44.9712 61.898 44.9712 61.5636C44.9712 61.2291 44.6626 60.9579 44.282 60.9579C43.9014 60.9579 43.5929 61.2291 43.5929 61.5636Z" fill="#2C394B"/>
<path d="M40.836 61.5636C40.836 61.898 41.1446 62.1692 41.5252 62.1692C41.9058 62.1692 42.2144 61.898 42.2144 61.5636C42.2144 61.2291 41.9058 60.9579 41.5252 60.9579C41.1446 60.9579 40.836 61.2291 40.836 61.5636Z" fill="#2C394B"/>
<path d="M38.0792 61.5636C38.0792 61.898 38.3878 62.1692 38.7684 62.1692C39.149 62.1692 39.4575 61.898 39.4575 61.5636C39.4575 61.2291 39.149 60.9579 38.7684 60.9579C38.3878 60.9579 38.0792 61.2291 38.0792 61.5636Z" fill="#2C394B"/>
<path d="M35.3229 61.5636C35.3229 61.898 35.6314 62.1692 36.012 62.1692C36.3926 62.1692 36.7012 61.898 36.7012 61.5636C36.7012 61.2291 36.3926 60.9579 36.012 60.9579C35.6314 60.9579 35.3229 61.2291 35.3229 61.5636Z" fill="#2C394B"/>
<path d="M32.566 61.5636C32.566 61.898 32.8746 62.1692 33.2552 62.1692C33.6358 62.1692 33.9443 61.898 33.9443 61.5636C33.9443 61.2291 33.6358 60.9579 33.2552 60.9579C32.8746 60.9579 32.566 61.2291 32.566 61.5636Z" fill="#2C394B"/>
<path d="M29.8097 61.5636C29.8097 61.898 30.1182 62.1692 30.4988 62.1692C30.8794 62.1692 31.188 61.898 31.188 61.5636C31.188 61.2291 30.8794 60.9579 30.4988 60.9579C30.1182 60.9579 29.8097 61.2291 29.8097 61.5636Z" fill="#2C394B"/>
<path d="M27.0528 61.5636C27.0528 61.898 27.3614 62.1692 27.742 62.1692C28.1226 62.1692 28.4312 61.898 28.4312 61.5636C28.4312 61.2291 28.1226 60.9579 27.742 60.9579C27.3614 60.9579 27.0528 61.2291 27.0528 61.5636Z" fill="#2C394B"/>
<path d="M24.2965 61.5636C24.2965 61.898 24.605 62.1692 24.9856 62.1692C25.3663 62.1692 25.6748 61.898 25.6748 61.5636C25.6748 61.2291 25.3663 60.9579 24.9856 60.9579C24.605 60.9579 24.2965 61.2291 24.2965 61.5636Z" fill="#2C394B"/>
<path d="M21.5397 61.5636C21.5397 61.898 21.8482 62.1692 22.2288 62.1692C22.6094 62.1692 22.918 61.898 22.918 61.5636C22.918 61.2291 22.6094 60.9579 22.2288 60.9579C21.8482 60.9579 21.5397 61.2291 21.5397 61.5636Z" fill="#2C394B"/>
<path d="M18.7828 61.5636C18.7828 61.898 19.0914 62.1692 19.472 62.1692C19.8526 62.1692 20.1611 61.898 20.1611 61.5636C20.1611 61.2291 19.8526 60.9579 19.472 60.9579C19.0914 60.9579 18.7828 61.2291 18.7828 61.5636Z" fill="#2C394B"/>
<path d="M16.0265 61.5636C16.0265 61.898 16.335 62.1692 16.7156 62.1692C17.0962 62.1692 17.4048 61.898 17.4048 61.5636C17.4048 61.2291 17.0962 60.9579 16.7156 60.9579C16.335 60.9579 16.0265 61.2291 16.0265 61.5636Z" fill="#2C394B"/>
<path d="M13.2696 61.5636C13.2696 61.898 13.5782 62.1692 13.9588 62.1692C14.3394 62.1692 14.6479 61.898 14.6479 61.5636C14.6479 61.2291 14.3394 60.9579 13.9588 60.9579C13.5782 60.9579 13.2696 61.2291 13.2696 61.5636Z" fill="#2C394B"/>
<path d="M10.5133 61.5636C10.5133 61.898 10.8218 62.1692 11.2024 62.1692C11.5831 62.1692 11.8916 61.898 11.8916 61.5636C11.8916 61.2291 11.5831 60.9579 11.2024 60.9579C10.8218 60.9579 10.5133 61.2291 10.5133 61.5636Z" fill="#2C394B"/>
<path d="M7.75645 61.5636C7.75645 61.898 8.065 62.1692 8.44561 62.1692C8.82622 62.1692 9.13477 61.898 9.13477 61.5636C9.13477 61.2291 8.82622 60.9579 8.44561 60.9579C8.065 60.9579 7.75645 61.2291 7.75645 61.5636Z" fill="#2C394B"/>
<path d="M5.00011 61.5636C5.00011 61.898 5.30865 62.1692 5.68926 62.1692C6.06987 62.1692 6.37842 61.898 6.37842 61.5636C6.37842 61.2291 6.06987 60.9579 5.68926 60.9579C5.30865 60.9579 5.00011 61.2291 5.00011 61.5636Z" fill="#2C394B"/>
<path d="M43.5929 63.9861C43.5929 64.3206 43.9014 64.5918 44.282 64.5918C44.6626 64.5918 44.9712 64.3206 44.9712 63.9861C44.9712 63.6516 44.6626 63.3805 44.282 63.3805C43.9014 63.3805 43.5929 63.6516 43.5929 63.9861Z" fill="#2C394B"/>
<path d="M40.836 63.9861C40.836 64.3206 41.1446 64.5918 41.5252 64.5918C41.9058 64.5918 42.2144 64.3206 42.2144 63.9861C42.2144 63.6516 41.9058 63.3805 41.5252 63.3805C41.1446 63.3805 40.836 63.6516 40.836 63.9861Z" fill="#2C394B"/>
<path d="M38.0792 63.9861C38.0792 64.3206 38.3878 64.5918 38.7684 64.5918C39.149 64.5918 39.4575 64.3206 39.4575 63.9861C39.4575 63.6516 39.149 63.3805 38.7684 63.3805C38.3878 63.3805 38.0792 63.6516 38.0792 63.9861Z" fill="#2C394B"/>
<path d="M35.3229 63.9861C35.3229 64.3206 35.6314 64.5918 36.012 64.5918C36.3926 64.5918 36.7012 64.3206 36.7012 63.9861C36.7012 63.6516 36.3926 63.3805 36.012 63.3805C35.6314 63.3805 35.3229 63.6516 35.3229 63.9861Z" fill="#2C394B"/>
<path d="M32.566 63.9861C32.566 64.3206 32.8746 64.5918 33.2552 64.5918C33.6358 64.5918 33.9443 64.3206 33.9443 63.9861C33.9443 63.6516 33.6358 63.3805 33.2552 63.3805C32.8746 63.3805 32.566 63.6516 32.566 63.9861Z" fill="#2C394B"/>
<path d="M29.8097 63.9861C29.8097 64.3206 30.1182 64.5918 30.4988 64.5918C30.8794 64.5918 31.188 64.3206 31.188 63.9861C31.188 63.6516 30.8794 63.3805 30.4988 63.3805C30.1182 63.3805 29.8097 63.6516 29.8097 63.9861Z" fill="#2C394B"/>
<path d="M27.0528 63.9861C27.0528 64.3206 27.3614 64.5918 27.742 64.5918C28.1226 64.5918 28.4312 64.3206 28.4312 63.9861C28.4312 63.6516 28.1226 63.3805 27.742 63.3805C27.3614 63.3805 27.0528 63.6516 27.0528 63.9861Z" fill="#2C394B"/>
<path d="M24.2965 63.9861C24.2965 64.3206 24.605 64.5918 24.9856 64.5918C25.3663 64.5918 25.6748 64.3206 25.6748 63.9861C25.6748 63.6516 25.3663 63.3805 24.9856 63.3805C24.605 63.3805 24.2965 63.6516 24.2965 63.9861Z" fill="#2C394B"/>
<path d="M21.5397 63.9861C21.5397 64.3206 21.8482 64.5918 22.2288 64.5918C22.6094 64.5918 22.918 64.3206 22.918 63.9861C22.918 63.6516 22.6094 63.3805 22.2288 63.3805C21.8482 63.3805 21.5397 63.6516 21.5397 63.9861Z" fill="#2C394B"/>
<path d="M18.7828 63.9861C18.7828 64.3206 19.0914 64.5918 19.472 64.5918C19.8526 64.5918 20.1611 64.3206 20.1611 63.9861C20.1611 63.6516 19.8526 63.3805 19.472 63.3805C19.0914 63.3805 18.7828 63.6516 18.7828 63.9861Z" fill="#2C394B"/>
<path d="M16.0265 63.9861C16.0265 64.3206 16.335 64.5918 16.7156 64.5918C17.0962 64.5918 17.4048 64.3206 17.4048 63.9861C17.4048 63.6516 17.0962 63.3805 16.7156 63.3805C16.335 63.3805 16.0265 63.6516 16.0265 63.9861Z" fill="#2C394B"/>
<path d="M13.2696 63.9861C13.2696 64.3206 13.5782 64.5918 13.9588 64.5918C14.3394 64.5918 14.6479 64.3206 14.6479 63.9861C14.6479 63.6516 14.3394 63.3805 13.9588 63.3805C13.5782 63.3805 13.2696 63.6516 13.2696 63.9861Z" fill="#2C394B"/>
<path d="M10.5133 63.9861C10.5133 64.3206 10.8218 64.5918 11.2024 64.5918C11.5831 64.5918 11.8916 64.3206 11.8916 63.9861C11.8916 63.6516 11.5831 63.3805 11.2024 63.3805C10.8218 63.3805 10.5133 63.6516 10.5133 63.9861Z" fill="#2C394B"/>
<path d="M7.75645 63.9861C7.75645 64.3206 8.065 64.5918 8.44561 64.5918C8.82622 64.5918 9.13477 64.3206 9.13477 63.9861C9.13477 63.6516 8.82622 63.3805 8.44561 63.3805C8.065 63.3805 7.75645 63.6516 7.75645 63.9861Z" fill="#2C394B"/>
<path d="M5.00011 63.9861C5.00011 64.3206 5.30865 64.5918 5.68926 64.5918C6.06987 64.5918 6.37842 64.3206 6.37842 63.9861C6.37842 63.6516 6.06987 63.3805 5.68926 63.3805C5.30865 63.3805 5.00011 63.6516 5.00011 63.9861Z" fill="#2C394B"/>
<path d="M43.5929 66.4087C43.5929 66.7432 43.9014 67.0143 44.282 67.0143C44.6626 67.0143 44.9712 66.7432 44.9712 66.4087C44.9712 66.0742 44.6626 65.803 44.282 65.803C43.9014 65.803 43.5929 66.0742 43.5929 66.4087Z" fill="#2C394B"/>
<path d="M40.836 66.4087C40.836 66.7432 41.1446 67.0143 41.5252 67.0143C41.9058 67.0143 42.2144 66.7432 42.2144 66.4087C42.2144 66.0742 41.9058 65.803 41.5252 65.803C41.1446 65.803 40.836 66.0742 40.836 66.4087Z" fill="#2C394B"/>
<path d="M38.0792 66.4087C38.0792 66.7432 38.3878 67.0143 38.7684 67.0143C39.149 67.0143 39.4575 66.7432 39.4575 66.4087C39.4575 66.0742 39.149 65.803 38.7684 65.803C38.3878 65.803 38.0792 66.0742 38.0792 66.4087Z" fill="#2C394B"/>
<path d="M35.3229 66.4087C35.3229 66.7432 35.6314 67.0143 36.012 67.0143C36.3926 67.0143 36.7012 66.7432 36.7012 66.4087C36.7012 66.0742 36.3926 65.803 36.012 65.803C35.6314 65.803 35.3229 66.0742 35.3229 66.4087Z" fill="#2C394B"/>
<path d="M32.566 66.4087C32.566 66.7432 32.8746 67.0143 33.2552 67.0143C33.6358 67.0143 33.9443 66.7432 33.9443 66.4087C33.9443 66.0742 33.6358 65.803 33.2552 65.803C32.8746 65.803 32.566 66.0742 32.566 66.4087Z" fill="#2C394B"/>
<path d="M29.8097 66.4087C29.8097 66.7432 30.1182 67.0143 30.4988 67.0143C30.8794 67.0143 31.188 66.7432 31.188 66.4087C31.188 66.0742 30.8794 65.803 30.4988 65.803C30.1182 65.803 29.8097 66.0742 29.8097 66.4087Z" fill="#2C394B"/>
<path d="M27.0528 66.4087C27.0528 66.7432 27.3614 67.0143 27.742 67.0143C28.1226 67.0143 28.4312 66.7432 28.4312 66.4087C28.4312 66.0742 28.1226 65.803 27.742 65.803C27.3614 65.803 27.0528 66.0742 27.0528 66.4087Z" fill="#2C394B"/>
<path d="M24.2965 66.4087C24.2965 66.7432 24.605 67.0143 24.9856 67.0143C25.3663 67.0143 25.6748 66.7432 25.6748 66.4087C25.6748 66.0742 25.3663 65.803 24.9856 65.803C24.605 65.803 24.2965 66.0742 24.2965 66.4087Z" fill="#2C394B"/>
<path d="M21.5397 66.4087C21.5397 66.7432 21.8482 67.0143 22.2288 67.0143C22.6094 67.0143 22.918 66.7432 22.918 66.4087C22.918 66.0742 22.6094 65.803 22.2288 65.803C21.8482 65.803 21.5397 66.0742 21.5397 66.4087Z" fill="#2C394B"/>
<path d="M18.7828 66.4087C18.7828 66.7432 19.0914 67.0143 19.472 67.0143C19.8526 67.0143 20.1611 66.7432 20.1611 66.4087C20.1611 66.0742 19.8526 65.803 19.472 65.803C19.0914 65.803 18.7828 66.0742 18.7828 66.4087Z" fill="#2C394B"/>
<path d="M16.0265 66.4087C16.0265 66.7432 16.335 67.0143 16.7156 67.0143C17.0962 67.0143 17.4048 66.7432 17.4048 66.4087C17.4048 66.0742 17.0962 65.803 16.7156 65.803C16.335 65.803 16.0265 66.0742 16.0265 66.4087Z" fill="#2C394B"/>
<path d="M13.2696 66.4087C13.2696 66.7432 13.5782 67.0143 13.9588 67.0143C14.3394 67.0143 14.6479 66.7432 14.6479 66.4087C14.6479 66.0742 14.3394 65.803 13.9588 65.803C13.5782 65.803 13.2696 66.0742 13.2696 66.4087Z" fill="#2C394B"/>
<path d="M10.5133 66.4087C10.5133 66.7432 10.8218 67.0143 11.2024 67.0143C11.5831 67.0143 11.8916 66.7432 11.8916 66.4087C11.8916 66.0742 11.5831 65.803 11.2024 65.803C10.8218 65.803 10.5133 66.0742 10.5133 66.4087Z" fill="#2C394B"/>
<path d="M7.75645 66.4087C7.75645 66.7432 8.065 67.0143 8.44561 67.0143C8.82622 67.0143 9.13477 66.7432 9.13477 66.4087C9.13477 66.0742 8.82622 65.803 8.44561 65.803C8.065 65.803 7.75645 66.0742 7.75645 66.4087Z" fill="#2C394B"/>
<path d="M5.00011 66.4087C5.00011 66.7432 5.30865 67.0143 5.68926 67.0143C6.06987 67.0143 6.37842 66.7432 6.37842 66.4087C6.37842 66.0742 6.06987 65.803 5.68926 65.803C5.30865 65.803 5.00011 66.0742 5.00011 66.4087Z" fill="#2C394B"/>
<path d="M43.5929 68.8313C43.5929 69.1658 43.9014 69.4369 44.282 69.4369C44.6626 69.4369 44.9712 69.1658 44.9712 68.8313C44.9712 68.4968 44.6626 68.2256 44.282 68.2256C43.9014 68.2256 43.5929 68.4968 43.5929 68.8313Z" fill="#2C394B"/>
<path d="M40.836 68.8313C40.836 69.1658 41.1446 69.4369 41.5252 69.4369C41.9058 69.4369 42.2144 69.1658 42.2144 68.8313C42.2144 68.4968 41.9058 68.2256 41.5252 68.2256C41.1446 68.2256 40.836 68.4968 40.836 68.8313Z" fill="#2C394B"/>
<path d="M38.0792 68.8313C38.0792 69.1658 38.3878 69.4369 38.7684 69.4369C39.149 69.4369 39.4575 69.1658 39.4575 68.8313C39.4575 68.4968 39.149 68.2256 38.7684 68.2256C38.3878 68.2256 38.0792 68.4968 38.0792 68.8313Z" fill="#2C394B"/>
<path d="M35.3229 68.8313C35.3229 69.1658 35.6314 69.4369 36.012 69.4369C36.3926 69.4369 36.7012 69.1658 36.7012 68.8313C36.7012 68.4968 36.3926 68.2256 36.012 68.2256C35.6314 68.2256 35.3229 68.4968 35.3229 68.8313Z" fill="#2C394B"/>
<path d="M32.566 68.8313C32.566 69.1658 32.8746 69.4369 33.2552 69.4369C33.6358 69.4369 33.9443 69.1658 33.9443 68.8313C33.9443 68.4968 33.6358 68.2256 33.2552 68.2256C32.8746 68.2256 32.566 68.4968 32.566 68.8313Z" fill="#2C394B"/>
<path d="M29.8097 68.8313C29.8097 69.1658 30.1182 69.4369 30.4988 69.4369C30.8794 69.4369 31.188 69.1658 31.188 68.8313C31.188 68.4968 30.8794 68.2256 30.4988 68.2256C30.1182 68.2256 29.8097 68.4968 29.8097 68.8313Z" fill="#2C394B"/>
<path d="M27.0528 68.8313C27.0528 69.1658 27.3614 69.4369 27.742 69.4369C28.1226 69.4369 28.4312 69.1658 28.4312 68.8313C28.4312 68.4968 28.1226 68.2256 27.742 68.2256C27.3614 68.2256 27.0528 68.4968 27.0528 68.8313Z" fill="#2C394B"/>
<path d="M24.2965 68.8313C24.2965 69.1658 24.605 69.4369 24.9856 69.4369C25.3663 69.4369 25.6748 69.1658 25.6748 68.8313C25.6748 68.4968 25.3663 68.2256 24.9856 68.2256C24.605 68.2256 24.2965 68.4968 24.2965 68.8313Z" fill="#2C394B"/>
<path d="M21.5397 68.8313C21.5397 69.1658 21.8482 69.4369 22.2288 69.4369C22.6094 69.4369 22.918 69.1658 22.918 68.8313C22.918 68.4968 22.6094 68.2256 22.2288 68.2256C21.8482 68.2256 21.5397 68.4968 21.5397 68.8313Z" fill="#2C394B"/>
<path d="M18.7828 68.8313C18.7828 69.1658 19.0914 69.4369 19.472 69.4369C19.8526 69.4369 20.1611 69.1658 20.1611 68.8313C20.1611 68.4968 19.8526 68.2256 19.472 68.2256C19.0914 68.2256 18.7828 68.4968 18.7828 68.8313Z" fill="#2C394B"/>
<path d="M16.0265 68.8313C16.0265 69.1658 16.335 69.4369 16.7156 69.4369C17.0962 69.4369 17.4048 69.1658 17.4048 68.8313C17.4048 68.4968 17.0962 68.2256 16.7156 68.2256C16.335 68.2256 16.0265 68.4968 16.0265 68.8313Z" fill="#2C394B"/>
<path d="M13.2696 68.8313C13.2696 69.1658 13.5782 69.4369 13.9588 69.4369C14.3394 69.4369 14.6479 69.1658 14.6479 68.8313C14.6479 68.4968 14.3394 68.2256 13.9588 68.2256C13.5782 68.2256 13.2696 68.4968 13.2696 68.8313Z" fill="#2C394B"/>
<path d="M10.5133 68.8313C10.5133 69.1658 10.8218 69.4369 11.2024 69.4369C11.5831 69.4369 11.8916 69.1658 11.8916 68.8313C11.8916 68.4968 11.5831 68.2256 11.2024 68.2256C10.8218 68.2256 10.5133 68.4968 10.5133 68.8313Z" fill="#2C394B"/>
<path d="M7.75645 68.8313C7.75645 69.1658 8.065 69.4369 8.44561 69.4369C8.82622 69.4369 9.13477 69.1658 9.13477 68.8313C9.13477 68.4968 8.82622 68.2256 8.44561 68.2256C8.065 68.2256 7.75645 68.4968 7.75645 68.8313Z" fill="#2C394B"/>
<path d="M5.00011 68.8313C5.00011 69.1658 5.30865 69.4369 5.68926 69.4369C6.06987 69.4369 6.37842 69.1658 6.37842 68.8313C6.37842 68.4968 6.06987 68.2256 5.68926 68.2256C5.30865 68.2256 5.00011 68.4968 5.00011 68.8313Z" fill="#2C394B"/>
<path d="M43.5929 71.2538C43.5929 71.5883 43.9014 71.8595 44.282 71.8595C44.6626 71.8595 44.9712 71.5883 44.9712 71.2538C44.9712 70.9193 44.6626 70.6482 44.282 70.6482C43.9014 70.6482 43.5929 70.9193 43.5929 71.2538Z" fill="#2C394B"/>
<path d="M40.836 71.2538C40.836 71.5883 41.1446 71.8595 41.5252 71.8595C41.9058 71.8595 42.2144 71.5883 42.2144 71.2538C42.2144 70.9193 41.9058 70.6482 41.5252 70.6482C41.1446 70.6482 40.836 70.9193 40.836 71.2538Z" fill="#2C394B"/>
<path d="M38.0792 71.2538C38.0792 71.5883 38.3878 71.8595 38.7684 71.8595C39.149 71.8595 39.4575 71.5883 39.4575 71.2538C39.4575 70.9193 39.149 70.6482 38.7684 70.6482C38.3878 70.6482 38.0792 70.9193 38.0792 71.2538Z" fill="#2C394B"/>
<path d="M35.3229 71.2538C35.3229 71.5883 35.6314 71.8595 36.012 71.8595C36.3926 71.8595 36.7012 71.5883 36.7012 71.2538C36.7012 70.9193 36.3926 70.6482 36.012 70.6482C35.6314 70.6482 35.3229 70.9193 35.3229 71.2538Z" fill="#2C394B"/>
<path d="M32.566 71.2538C32.566 71.5883 32.8746 71.8595 33.2552 71.8595C33.6358 71.8595 33.9443 71.5883 33.9443 71.2538C33.9443 70.9193 33.6358 70.6482 33.2552 70.6482C32.8746 70.6482 32.566 70.9193 32.566 71.2538Z" fill="#2C394B"/>
<path d="M29.8097 71.2538C29.8097 71.5883 30.1182 71.8595 30.4988 71.8595C30.8794 71.8595 31.188 71.5883 31.188 71.2538C31.188 70.9193 30.8794 70.6482 30.4988 70.6482C30.1182 70.6482 29.8097 70.9193 29.8097 71.2538Z" fill="#2C394B"/>
<path d="M27.0528 71.2538C27.0528 71.5883 27.3614 71.8595 27.742 71.8595C28.1226 71.8595 28.4312 71.5883 28.4312 71.2538C28.4312 70.9193 28.1226 70.6482 27.742 70.6482C27.3614 70.6482 27.0528 70.9193 27.0528 71.2538Z" fill="#2C394B"/>
<path d="M24.2965 71.2538C24.2965 71.5883 24.605 71.8595 24.9856 71.8595C25.3663 71.8595 25.6748 71.5883 25.6748 71.2538C25.6748 70.9193 25.3663 70.6482 24.9856 70.6482C24.605 70.6482 24.2965 70.9193 24.2965 71.2538Z" fill="#2C394B"/>
<path d="M21.5397 71.2538C21.5397 71.5883 21.8482 71.8595 22.2288 71.8595C22.6094 71.8595 22.918 71.5883 22.918 71.2538C22.918 70.9193 22.6094 70.6482 22.2288 70.6482C21.8482 70.6482 21.5397 70.9193 21.5397 71.2538Z" fill="#2C394B"/>
<path d="M18.7828 71.2538C18.7828 71.5883 19.0914 71.8595 19.472 71.8595C19.8526 71.8595 20.1611 71.5883 20.1611 71.2538C20.1611 70.9193 19.8526 70.6482 19.472 70.6482C19.0914 70.6482 18.7828 70.9193 18.7828 71.2538Z" fill="#2C394B"/>
<path d="M16.0265 71.2538C16.0265 71.5883 16.335 71.8595 16.7156 71.8595C17.0962 71.8595 17.4048 71.5883 17.4048 71.2538C17.4048 70.9193 17.0962 70.6482 16.7156 70.6482C16.335 70.6482 16.0265 70.9193 16.0265 71.2538Z" fill="#2C394B"/>
<path d="M13.2696 71.2538C13.2696 71.5883 13.5782 71.8595 13.9588 71.8595C14.3394 71.8595 14.6479 71.5883 14.6479 71.2538C14.6479 70.9193 14.3394 70.6482 13.9588 70.6482C13.5782 70.6482 13.2696 70.9193 13.2696 71.2538Z" fill="#2C394B"/>
<path d="M10.5133 71.2538C10.5133 71.5883 10.8218 71.8595 11.2024 71.8595C11.5831 71.8595 11.8916 71.5883 11.8916 71.2538C11.8916 70.9193 11.5831 70.6482 11.2024 70.6482C10.8218 70.6482 10.5133 70.9193 10.5133 71.2538Z" fill="#2C394B"/>
<path d="M7.75645 71.2538C7.75645 71.5883 8.065 71.8595 8.44561 71.8595C8.82622 71.8595 9.13477 71.5883 9.13477 71.2538C9.13477 70.9193 8.82622 70.6482 8.44561 70.6482C8.065 70.6482 7.75645 70.9193 7.75645 71.2538Z" fill="#2C394B"/>
<path d="M5.00011 71.2538C5.00011 71.5883 5.30865 71.8595 5.68926 71.8595C6.06987 71.8595 6.37842 71.5883 6.37842 71.2538C6.37842 70.9193 6.06987 70.6482 5.68926 70.6482C5.30865 70.6482 5.00011 70.9193 5.00011 71.2538Z" fill="#2C394B"/>
<path d="M43.5929 73.6764C43.5929 74.0109 43.9014 74.2821 44.282 74.2821C44.6626 74.2821 44.9712 74.0109 44.9712 73.6764C44.9712 73.342 44.6626 73.0708 44.282 73.0708C43.9014 73.0708 43.5929 73.342 43.5929 73.6764Z" fill="#2C394B"/>
<path d="M40.836 73.6764C40.836 74.0109 41.1446 74.2821 41.5252 74.2821C41.9058 74.2821 42.2144 74.0109 42.2144 73.6764C42.2144 73.342 41.9058 73.0708 41.5252 73.0708C41.1446 73.0708 40.836 73.342 40.836 73.6764Z" fill="#2C394B"/>
<path d="M38.0792 73.6764C38.0792 74.0109 38.3878 74.2821 38.7684 74.2821C39.149 74.2821 39.4575 74.0109 39.4575 73.6764C39.4575 73.342 39.149 73.0708 38.7684 73.0708C38.3878 73.0708 38.0792 73.342 38.0792 73.6764Z" fill="#2C394B"/>
<path d="M35.3229 73.6764C35.3229 74.0109 35.6314 74.2821 36.012 74.2821C36.3926 74.2821 36.7012 74.0109 36.7012 73.6764C36.7012 73.342 36.3926 73.0708 36.012 73.0708C35.6314 73.0708 35.3229 73.342 35.3229 73.6764Z" fill="#2C394B"/>
<path d="M32.566 73.6764C32.566 74.0109 32.8746 74.2821 33.2552 74.2821C33.6358 74.2821 33.9443 74.0109 33.9443 73.6764C33.9443 73.342 33.6358 73.0708 33.2552 73.0708C32.8746 73.0708 32.566 73.342 32.566 73.6764Z" fill="#2C394B"/>
<path d="M29.8097 73.6764C29.8097 74.0109 30.1182 74.2821 30.4988 74.2821C30.8794 74.2821 31.188 74.0109 31.188 73.6764C31.188 73.342 30.8794 73.0708 30.4988 73.0708C30.1182 73.0708 29.8097 73.342 29.8097 73.6764Z" fill="#2C394B"/>
<path d="M27.0528 73.6764C27.0528 74.0109 27.3614 74.2821 27.742 74.2821C28.1226 74.2821 28.4312 74.0109 28.4312 73.6764C28.4312 73.342 28.1226 73.0708 27.742 73.0708C27.3614 73.0708 27.0528 73.342 27.0528 73.6764Z" fill="#2C394B"/>
<path d="M24.2965 73.6764C24.2965 74.0109 24.605 74.2821 24.9856 74.2821C25.3663 74.2821 25.6748 74.0109 25.6748 73.6764C25.6748 73.342 25.3663 73.0708 24.9856 73.0708C24.605 73.0708 24.2965 73.342 24.2965 73.6764Z" fill="#2C394B"/>
<path d="M21.5397 73.6764C21.5397 74.0109 21.8482 74.2821 22.2288 74.2821C22.6094 74.2821 22.918 74.0109 22.918 73.6764C22.918 73.342 22.6094 73.0708 22.2288 73.0708C21.8482 73.0708 21.5397 73.342 21.5397 73.6764Z" fill="#2C394B"/>
<path d="M18.7828 73.6764C18.7828 74.0109 19.0914 74.2821 19.472 74.2821C19.8526 74.2821 20.1611 74.0109 20.1611 73.6764C20.1611 73.342 19.8526 73.0708 19.472 73.0708C19.0914 73.0708 18.7828 73.342 18.7828 73.6764Z" fill="#2C394B"/>
<path d="M16.0265 73.6764C16.0265 74.0109 16.335 74.2821 16.7156 74.2821C17.0962 74.2821 17.4048 74.0109 17.4048 73.6764C17.4048 73.342 17.0962 73.0708 16.7156 73.0708C16.335 73.0708 16.0265 73.342 16.0265 73.6764Z" fill="#2C394B"/>
<path d="M13.2696 73.6764C13.2696 74.0109 13.5782 74.2821 13.9588 74.2821C14.3394 74.2821 14.6479 74.0109 14.6479 73.6764C14.6479 73.342 14.3394 73.0708 13.9588 73.0708C13.5782 73.0708 13.2696 73.342 13.2696 73.6764Z" fill="#2C394B"/>
<path d="M10.5133 73.6764C10.5133 74.0109 10.8218 74.2821 11.2024 74.2821C11.5831 74.2821 11.8916 74.0109 11.8916 73.6764C11.8916 73.342 11.5831 73.0708 11.2024 73.0708C10.8218 73.0708 10.5133 73.342 10.5133 73.6764Z" fill="#2C394B"/>
<path d="M7.75645 73.6764C7.75645 74.0109 8.065 74.2821 8.44561 74.2821C8.82622 74.2821 9.13477 74.0109 9.13477 73.6764C9.13477 73.342 8.82622 73.0708 8.44561 73.0708C8.065 73.0708 7.75645 73.342 7.75645 73.6764Z" fill="#2C394B"/>
<path d="M5.00011 73.6764C5.00011 74.0109 5.30865 74.2821 5.68926 74.2821C6.06987 74.2821 6.37842 74.0109 6.37842 73.6764C6.37842 73.342 6.06987 73.0708 5.68926 73.0708C5.30865 73.0708 5.00011 73.342 5.00011 73.6764Z" fill="#2C394B"/>
<path d="M43.5929 76.099C43.5929 76.4335 43.9014 76.7046 44.282 76.7046C44.6626 76.7046 44.9712 76.4335 44.9712 76.099C44.9712 75.7645 44.6626 75.4933 44.282 75.4933C43.9014 75.4933 43.5929 75.7645 43.5929 76.099Z" fill="#2C394B"/>
<path d="M40.836 76.099C40.836 76.4335 41.1446 76.7046 41.5252 76.7046C41.9058 76.7046 42.2144 76.4335 42.2144 76.099C42.2144 75.7645 41.9058 75.4933 41.5252 75.4933C41.1446 75.4933 40.836 75.7645 40.836 76.099Z" fill="#2C394B"/>
<path d="M38.0792 76.099C38.0792 76.4335 38.3878 76.7046 38.7684 76.7046C39.149 76.7046 39.4575 76.4335 39.4575 76.099C39.4575 75.7645 39.149 75.4933 38.7684 75.4933C38.3878 75.4933 38.0792 75.7645 38.0792 76.099Z" fill="#2C394B"/>
<path d="M35.3229 76.099C35.3229 76.4335 35.6314 76.7046 36.012 76.7046C36.3926 76.7046 36.7012 76.4335 36.7012 76.099C36.7012 75.7645 36.3926 75.4933 36.012 75.4933C35.6314 75.4933 35.3229 75.7645 35.3229 76.099Z" fill="#2C394B"/>
<path d="M32.566 76.099C32.566 76.4335 32.8746 76.7046 33.2552 76.7046C33.6358 76.7046 33.9443 76.4335 33.9443 76.099C33.9443 75.7645 33.6358 75.4933 33.2552 75.4933C32.8746 75.4933 32.566 75.7645 32.566 76.099Z" fill="#2C394B"/>
<path d="M29.8097 76.099C29.8097 76.4335 30.1182 76.7046 30.4988 76.7046C30.8794 76.7046 31.188 76.4335 31.188 76.099C31.188 75.7645 30.8794 75.4933 30.4988 75.4933C30.1182 75.4933 29.8097 75.7645 29.8097 76.099Z" fill="#2C394B"/>
<path d="M27.0528 76.099C27.0528 76.4335 27.3614 76.7046 27.742 76.7046C28.1226 76.7046 28.4312 76.4335 28.4312 76.099C28.4312 75.7645 28.1226 75.4933 27.742 75.4933C27.3614 75.4933 27.0528 75.7645 27.0528 76.099Z" fill="#2C394B"/>
<path d="M24.2965 76.099C24.2965 76.4335 24.605 76.7046 24.9856 76.7046C25.3663 76.7046 25.6748 76.4335 25.6748 76.099C25.6748 75.7645 25.3663 75.4933 24.9856 75.4933C24.605 75.4933 24.2965 75.7645 24.2965 76.099Z" fill="#2C394B"/>
<path d="M21.5397 76.099C21.5397 76.4335 21.8482 76.7046 22.2288 76.7046C22.6094 76.7046 22.918 76.4335 22.918 76.099C22.918 75.7645 22.6094 75.4933 22.2288 75.4933C21.8482 75.4933 21.5397 75.7645 21.5397 76.099Z" fill="#2C394B"/>
<path d="M18.7828 76.099C18.7828 76.4335 19.0914 76.7046 19.472 76.7046C19.8526 76.7046 20.1611 76.4335 20.1611 76.099C20.1611 75.7645 19.8526 75.4933 19.472 75.4933C19.0914 75.4933 18.7828 75.7645 18.7828 76.099Z" fill="#2C394B"/>
<path d="M16.0265 76.099C16.0265 76.4335 16.335 76.7046 16.7156 76.7046C17.0962 76.7046 17.4048 76.4335 17.4048 76.099C17.4048 75.7645 17.0962 75.4933 16.7156 75.4933C16.335 75.4933 16.0265 75.7645 16.0265 76.099Z" fill="#2C394B"/>
<path d="M13.2696 76.099C13.2696 76.4335 13.5782 76.7046 13.9588 76.7046C14.3394 76.7046 14.6479 76.4335 14.6479 76.099C14.6479 75.7645 14.3394 75.4933 13.9588 75.4933C13.5782 75.4933 13.2696 75.7645 13.2696 76.099Z" fill="#2C394B"/>
<path d="M10.5133 76.099C10.5133 76.4335 10.8218 76.7046 11.2024 76.7046C11.5831 76.7046 11.8916 76.4335 11.8916 76.099C11.8916 75.7645 11.5831 75.4933 11.2024 75.4933C10.8218 75.4933 10.5133 75.7645 10.5133 76.099Z" fill="#2C394B"/>
<path d="M7.75645 76.099C7.75645 76.4335 8.065 76.7046 8.44561 76.7046C8.82622 76.7046 9.13477 76.4335 9.13477 76.099C9.13477 75.7645 8.82622 75.4933 8.44561 75.4933C8.065 75.4933 7.75645 75.7645 7.75645 76.099Z" fill="#2C394B"/>
<path d="M5.00011 76.099C5.00011 76.4335 5.30865 76.7046 5.68926 76.7046C6.06987 76.7046 6.37842 76.4335 6.37842 76.099C6.37842 75.7645 6.06987 75.4933 5.68926 75.4933C5.30865 75.4933 5.00011 75.7645 5.00011 76.099Z" fill="#2C394B"/>
<path d="M43.5929 78.5215C43.5929 78.856 43.9014 79.1271 44.282 79.1271C44.6626 79.1271 44.9712 78.856 44.9712 78.5215C44.9712 78.187 44.6626 77.9159 44.282 77.9159C43.9014 77.9159 43.5929 78.187 43.5929 78.5215Z" fill="#2C394B"/>
<path d="M40.836 78.5215C40.836 78.856 41.1446 79.1271 41.5252 79.1271C41.9058 79.1271 42.2144 78.856 42.2144 78.5215C42.2144 78.187 41.9058 77.9159 41.5252 77.9159C41.1446 77.9159 40.836 78.187 40.836 78.5215Z" fill="#2C394B"/>
<path d="M38.0792 78.5215C38.0792 78.856 38.3877 79.1271 38.7684 79.1271C39.149 79.1271 39.4575 78.856 39.4575 78.5215C39.4575 78.187 39.149 77.9159 38.7684 77.9159C38.3877 77.9159 38.0792 78.187 38.0792 78.5215Z" fill="#2C394B"/>
<path d="M35.3229 78.5215C35.3229 78.856 35.6314 79.1271 36.012 79.1271C36.3926 79.1271 36.7012 78.856 36.7012 78.5215C36.7012 78.187 36.3926 77.9159 36.012 77.9159C35.6314 77.9159 35.3229 78.187 35.3229 78.5215Z" fill="#2C394B"/>
<path d="M32.566 78.5215C32.566 78.856 32.8746 79.1271 33.2552 79.1271C33.6358 79.1271 33.9443 78.856 33.9443 78.5215C33.9443 78.187 33.6358 77.9159 33.2552 77.9159C32.8746 77.9159 32.566 78.187 32.566 78.5215Z" fill="#2C394B"/>
<path d="M29.8097 78.5215C29.8097 78.856 30.1182 79.1271 30.4988 79.1271C30.8794 79.1271 31.188 78.856 31.188 78.5215C31.188 78.187 30.8794 77.9159 30.4988 77.9159C30.1182 77.9159 29.8097 78.187 29.8097 78.5215Z" fill="#2C394B"/>
<path d="M27.0528 78.5215C27.0528 78.856 27.3614 79.1271 27.742 79.1271C28.1226 79.1271 28.4312 78.856 28.4312 78.5215C28.4312 78.187 28.1226 77.9159 27.742 77.9159C27.3614 77.9159 27.0528 78.187 27.0528 78.5215Z" fill="#2C394B"/>
<path d="M24.2965 78.5215C24.2965 78.856 24.605 79.1271 24.9856 79.1271C25.3663 79.1271 25.6748 78.856 25.6748 78.5215C25.6748 78.187 25.3663 77.9159 24.9856 77.9159C24.605 77.9159 24.2965 78.187 24.2965 78.5215Z" fill="#2C394B"/>
<path d="M21.5397 78.5215C21.5397 78.856 21.8482 79.1271 22.2288 79.1271C22.6094 79.1271 22.918 78.856 22.918 78.5215C22.918 78.187 22.6094 77.9159 22.2288 77.9159C21.8482 77.9159 21.5397 78.187 21.5397 78.5215Z" fill="#2C394B"/>
<path d="M18.7828 78.5215C18.7828 78.856 19.0914 79.1271 19.472 79.1271C19.8526 79.1271 20.1611 78.856 20.1611 78.5215C20.1611 78.187 19.8526 77.9159 19.472 77.9159C19.0914 77.9159 18.7828 78.187 18.7828 78.5215Z" fill="#2C394B"/>
<path d="M16.0265 78.5215C16.0265 78.856 16.335 79.1271 16.7156 79.1271C17.0962 79.1271 17.4048 78.856 17.4048 78.5215C17.4048 78.187 17.0962 77.9159 16.7156 77.9159C16.335 77.9159 16.0265 78.187 16.0265 78.5215Z" fill="#2C394B"/>
<path d="M13.2696 78.5215C13.2696 78.856 13.5782 79.1271 13.9588 79.1271C14.3394 79.1271 14.6479 78.856 14.6479 78.5215C14.6479 78.187 14.3394 77.9159 13.9588 77.9159C13.5782 77.9159 13.2696 78.187 13.2696 78.5215Z" fill="#2C394B"/>
<path d="M10.5133 78.5215C10.5133 78.856 10.8218 79.1271 11.2024 79.1271C11.5831 79.1271 11.8916 78.856 11.8916 78.5215C11.8916 78.187 11.5831 77.9159 11.2024 77.9159C10.8218 77.9159 10.5133 78.187 10.5133 78.5215Z" fill="#2C394B"/>
<path d="M7.75645 78.5215C7.75645 78.856 8.065 79.1271 8.44561 79.1271C8.82622 79.1271 9.13477 78.856 9.13477 78.5215C9.13477 78.187 8.82622 77.9159 8.44561 77.9159C8.065 77.9159 7.75645 78.187 7.75645 78.5215Z" fill="#2C394B"/>
</g>
<path d="M5.60312 41.1729C5.20589 41.1729 4.88402 40.8792 4.88293 40.516L4.88184 40.1122C4.88075 39.7483 5.20225 39.4527 5.60021 39.452H5.60203C5.99889 39.452 6.32112 39.7457 6.32221 40.1089L6.3233 40.5127C6.3244 40.8766 6.00253 41.1719 5.60457 41.1729C5.60421 41.1729 5.60348 41.1729 5.60312 41.1729Z" fill="#2C394B"/>
<path d="M5.61044 43.8406C5.21357 43.8406 4.89135 43.5466 4.89025 43.1837L4.88916 42.7796C4.88843 42.4157 5.20993 42.1204 5.60789 42.1194H5.60935C6.00658 42.1194 6.32881 42.4134 6.32953 42.7762L6.33063 43.1804C6.33172 43.5443 6.01022 43.8396 5.61226 43.8406C5.6119 43.8406 5.61117 43.8406 5.61044 43.8406Z" fill="#2C394B"/>
<path d="M6.84385 42.3018C6.44698 42.3018 6.12475 42.0082 6.12403 41.645C6.12293 41.2811 6.4448 40.9858 6.84239 40.9848L7.28441 40.9841H7.28587C7.6831 40.9841 8.00533 41.2778 8.00605 41.641C8.00715 42.0049 7.68528 42.3002 7.28769 42.3008L6.84567 42.3018C6.84531 42.3018 6.84458 42.3018 6.84385 42.3018Z" fill="#2C394B"/>
<path d="M3.92673 42.3084C3.52987 42.3084 3.20764 42.0148 3.20655 41.6516C3.20545 41.288 3.52732 40.9924 3.92491 40.9914L4.36693 40.9904H4.36875C4.76562 40.9904 5.08785 41.284 5.08894 41.6473C5.09003 42.0108 4.76817 42.3064 4.37057 42.3074L3.92855 42.3084C3.92819 42.3084 3.92746 42.3084 3.92673 42.3084Z" fill="#2C394B"/>
<path d="M100.946 12.6798C100.549 12.6798 100.227 12.3861 100.226 12.0229L100.225 11.6191C100.224 11.2552 100.545 10.9596 100.943 10.9589H100.945C101.342 10.9589 101.664 11.2526 101.665 11.6158L101.666 12.0196C101.667 12.3835 101.345 12.6788 100.947 12.6798C100.947 12.6798 100.946 12.6798 100.946 12.6798Z" fill="#2C394B"/>
<path d="M100.953 15.3475C100.556 15.3475 100.234 15.0535 100.233 14.6906L100.232 14.2865C100.231 13.9226 100.553 13.6273 100.951 13.6263H100.952C101.349 13.6263 101.672 13.9202 101.672 14.2831L101.673 14.6873C101.674 15.0512 101.353 15.3465 100.955 15.3475C100.955 15.3475 100.954 15.3475 100.953 15.3475Z" fill="#2C394B"/>
<path d="M102.187 13.8087C101.79 13.8087 101.468 13.5151 101.467 13.1519C101.466 12.788 101.788 12.4927 102.185 12.4917L102.627 12.491H102.629C103.026 12.491 103.348 12.7847 103.349 13.1479C103.35 13.5118 103.028 13.8071 102.63 13.8077L102.188 13.8087C102.188 13.8087 102.187 13.8087 102.187 13.8087Z" fill="#2C394B"/>
<path d="M99.2695 13.8153C98.8726 13.8153 98.5504 13.5217 98.5493 13.1585C98.5482 12.7949 98.8701 12.4993 99.2677 12.4983L99.7097 12.4973H99.7115C100.108 12.4973 100.431 12.7909 100.432 13.1542C100.433 13.5177 100.111 13.8133 99.7133 13.8143L99.2713 13.8153C99.271 13.8153 99.2702 13.8153 99.2695 13.8153Z" fill="#2C394B"/>
<path d="M62.8447 64.6787C62.5868 64.6787 62.3779 64.4881 62.3772 64.2523L62.3765 63.9902C62.3758 63.754 62.5845 63.5621 62.8428 63.5616H62.844C63.1016 63.5616 63.3107 63.7522 63.3114 63.988L63.3122 64.2501C63.3129 64.4863 63.1039 64.678 62.8456 64.6787C62.8454 64.6787 62.8449 64.6787 62.8447 64.6787Z" fill="#2C394B"/>
<path d="M62.8495 66.4103C62.5919 66.4103 62.3828 66.2194 62.3821 65.9839L62.3813 65.7216C62.3809 65.4854 62.5896 65.2937 62.8479 65.293H62.8488C63.1067 65.293 63.3158 65.4838 63.3163 65.7194L63.317 65.9817C63.3177 66.2179 63.109 66.4096 62.8507 66.4103C62.8505 66.4103 62.85 66.4103 62.8495 66.4103Z" fill="#2C394B"/>
<path d="M63.6499 65.4115C63.3923 65.4115 63.1831 65.2209 63.1826 64.9851C63.1819 64.7489 63.3908 64.5572 63.6489 64.5566L63.9359 64.5562H63.9368C64.1947 64.5562 64.4038 64.7468 64.4043 64.9825C64.405 65.2187 64.1961 65.4104 63.938 65.4108L63.6511 65.4115C63.6508 65.4115 63.6503 65.4115 63.6499 65.4115Z" fill="#2C394B"/>
<path d="M61.7565 65.4158C61.4989 65.4158 61.2898 65.2252 61.2891 64.9894C61.2884 64.7534 61.4973 64.5615 61.7554 64.5609L62.0423 64.5602H62.0435C62.3011 64.5602 62.5102 64.7508 62.5109 64.9866C62.5116 65.2226 62.3027 65.4145 62.0446 65.4151L61.7577 65.4158C61.7575 65.4158 61.757 65.4158 61.7565 65.4158Z" fill="#2C394B"/>
<path d="M108.96 46.0274L61.2886 16.4384L77.7269 71.7808L85.3982 58.0822L100.193 78.9041L108.96 71.7808L94.7132 52.0548L108.96 46.0274Z" fill="#E2EEFF"/>
<path fill-rule="evenodd" clip-rule="evenodd" d="M60.353 15.2127L110.148 46.1198L95.5602 52.2915L109.707 71.8797L100.085 79.698L85.4532 59.1056L77.5712 73.1806L60.353 15.2127ZM62.2244 17.6641L77.8829 70.3811L85.3433 57.0589L100.301 78.1103L108.213 71.682L93.8665 51.8181L107.772 45.935L62.2244 17.6641Z" fill="#2C394B"/>
<path d="M68.4118 40L70.6035 22.4658L61.8364 16.9863L68.4118 40Z" fill="#2C394B"/>
<path d="M25.6643 13.1881C26.1924 9.397 29.4345 6.57532 33.2622 6.57532H53.5707C58.2282 6.57532 61.8111 10.6919 61.1685 15.305L53.0775 73.3871C52.5494 77.1783 49.3074 80 45.4796 80H25.1711C20.5136 80 16.9307 75.8833 17.5733 71.2703L25.6643 13.1881Z" fill="#2C394B"/>
<path d="M22.3767 13.1881C22.9049 9.397 26.1469 6.57532 29.9746 6.57532H50.2831C54.9406 6.57532 58.5235 10.6919 57.8809 15.305L49.7899 73.3871C49.2618 77.1783 46.0198 80 42.192 80H21.8835C17.226 80 13.6431 75.8833 14.2857 71.2703L22.3767 13.1881Z" fill="#E2EEFF"/>
<line x1="23.4326" y1="75.1164" x2="38.871" y2="75.1164" stroke="#2C394B" stroke-linecap="round"/>
<path fill-rule="evenodd" clip-rule="evenodd" d="M46.2129 59.726H40.5585V58.6301H45.2846L46.1519 53.4259L47.2329 53.606L46.2129 59.726Z" fill="#2C394B"/>
<path fill-rule="evenodd" clip-rule="evenodd" d="M24.9951 24.6575H30.6495V25.7534H25.9235L25.0561 30.9577L23.9751 30.7775L24.9951 24.6575Z" fill="#2C394B"/>
<path fill-rule="evenodd" clip-rule="evenodd" d="M51.1138 24.6575H45.2767V25.7534H49.8201L48.9828 30.7775L50.0637 30.9577L51.1138 24.6575Z" fill="#2C394B"/>
<path fill-rule="evenodd" clip-rule="evenodd" d="M20.0942 59.726H25.9313V58.6301H21.3879L22.2252 53.606L21.1443 53.4259L20.0942 59.726Z" fill="#2C394B"/>
<path d="M35.3042 41.6561C26.3137 41.6561 24.5156 53.0441 24.5156 53.0441H33.5061H42.4966C42.4966 53.0441 44.2947 41.6561 35.3042 41.6561Z" fill="#74B9FF"/>
<path fill-rule="evenodd" clip-rule="evenodd" d="M25.057 53.1299C25.057 53.1297 25.057 53.1296 24.5158 53.0441C23.9745 52.9587 23.9746 52.9584 23.9746 52.9581L23.9747 52.9573L23.9751 52.9549L23.9764 52.9471L23.9811 52.9193C23.9851 52.8954 23.9911 52.8611 23.9993 52.817C24.0155 52.7287 24.0403 52.6012 24.0748 52.44C24.1439 52.1177 24.2523 51.6602 24.4109 51.1124C24.7274 50.0188 25.247 48.5546 26.059 47.0851C27.6809 44.1504 30.527 41.1082 35.3044 41.1082C37.6789 41.1082 39.3945 41.8652 40.6034 43.0431C41.7994 44.2084 42.454 45.7409 42.8052 47.2239C43.157 48.7092 43.2138 50.1838 43.185 51.2792C43.1705 51.8287 43.1344 52.2874 43.1016 52.6101C43.0852 52.7716 43.0697 52.8993 43.058 52.9877C43.0522 53.0319 43.0474 53.0663 43.0439 53.0902L43.0398 53.118L43.0386 53.1259L43.0382 53.1282L43.0381 53.129C43.038 53.1293 43.038 53.1296 42.4968 53.0441C41.9555 52.9587 41.9555 52.9588 41.9555 52.9589L41.9556 52.9582L41.9563 52.9537L41.9594 52.9327C41.9622 52.9135 41.9663 52.884 41.9715 52.8447C41.9818 52.7663 41.9961 52.6494 42.0113 52.4995C42.0418 52.1994 42.0758 51.7684 42.0895 51.2503C42.1168 50.2104 42.0613 48.838 41.7388 47.4764C41.4157 46.1124 40.8341 44.7979 39.8386 43.828C38.8561 42.8706 37.425 42.2041 35.3044 42.2041C31.0912 42.2041 28.5431 44.8559 27.0182 47.6152C26.257 48.9927 25.7651 50.3755 25.4635 51.4171C25.3131 51.9369 25.2108 52.3691 25.1464 52.6696C25.1142 52.8198 25.0915 52.9369 25.077 53.0155C25.0698 53.0548 25.0646 53.0844 25.0613 53.1036L25.0578 53.1246L25.0571 53.1291L25.057 53.1299Z" fill="#2C394B"/>
<path d="M40.32 37.4924C39.8642 40.3224 37.4091 42.2807 34.8363 41.8663C32.2636 41.4519 30.5475 38.8218 31.0033 35.9918C31.4591 33.1617 33.9142 31.2035 36.487 31.6179C39.0597 32.0322 40.7759 34.6624 40.32 37.4924Z" fill="#F6E049"/>
<path fill-rule="evenodd" clip-rule="evenodd" d="M34.9864 40.9346C36.963 41.253 39.0016 39.7433 39.3884 37.3423C39.7751 34.9413 38.3136 32.8679 36.3369 32.5495C34.3603 32.2312 32.3217 33.7408 31.935 36.1418C31.5482 38.5429 33.0098 40.6163 34.9864 40.9346ZM34.8363 41.8663C37.4091 42.2807 39.8642 40.3224 40.32 37.4924C40.7759 34.6624 39.0597 32.0322 36.487 31.6179C33.9142 31.2035 31.4591 33.1617 31.0033 35.9918C30.5475 38.8218 32.2636 41.4519 34.8363 41.8663Z" fill="#2C394B"/>
<path fill-rule="evenodd" clip-rule="evenodd" d="M50.2831 7.67121H29.9746C26.6937 7.67121 23.9148 10.0898 23.4621 13.3393L15.3711 71.4215C14.8203 75.3755 17.8913 78.9041 21.8835 78.9041H42.192C45.4729 78.9041 48.2518 76.4855 48.7045 73.2359L56.7955 15.1538C57.3463 11.1997 54.2753 7.67121 50.2831 7.67121ZM29.9746 6.57532C26.1469 6.57532 22.9049 9.397 22.3767 13.1881L14.2857 71.2703C13.6431 75.8833 17.226 80 21.8835 80H42.192C46.0198 80 49.2618 77.1783 49.7899 73.3871L57.8809 15.305C58.5235 10.6919 54.9406 6.57532 50.2831 6.57532H29.9746Z" fill="#2C394B"/>
<path d="M32.7954 7.6712H49.2338L48.6374 9.4602C48.3391 10.3552 47.5015 10.9589 46.5581 10.9589H35.471C34.5276 10.9589 33.6901 10.3552 33.3917 9.4602L32.7954 7.6712Z" fill="#2C394B"/>
<path d="M10.3227 14.9651H7.06364C7.07273 14.1496 7.14091 13.4507 7.26818 12.8683C7.40455 12.2858 7.62727 11.7617 7.93636 11.2957C8.24545 10.8208 8.66364 10.3369 9.19091 9.84409C9.60909 9.45878 9.98182 9.09588 10.3091 8.75538C10.6455 8.40591 10.9091 8.04301 11.1 7.66667C11.2909 7.28136 11.3864 6.84677 11.3864 6.3629C11.3864 5.81631 11.2955 5.35932 11.1136 4.99194C10.9409 4.62455 10.6818 4.34677 10.3364 4.1586C10 3.96147 9.57727 3.8629 9.06818 3.8629C8.65 3.8629 8.25455 3.94803 7.88182 4.11828C7.50909 4.28853 7.20909 4.55287 6.98182 4.91129C6.75455 5.26075 6.63182 5.71774 6.61364 6.28226H3C3.02727 5.10842 3.30909 4.13172 3.84545 3.35215C4.38182 2.56362 5.10455 1.9767 6.01364 1.5914C6.92273 1.19713 7.94091 1 9.06818 1C10.3136 1 11.3773 1.20609 12.2591 1.61828C13.15 2.02151 13.8273 2.6129 14.2909 3.39247C14.7636 4.17204 15 5.1129 15 6.21505C15 7.00358 14.8455 7.71147 14.5364 8.33871C14.2273 8.95699 13.8182 9.53495 13.3091 10.0726C12.8 10.6102 12.25 11.1523 11.6591 11.6989C11.1409 12.1559 10.7909 12.6443 10.6091 13.164C10.4273 13.6837 10.3318 14.2841 10.3227 14.9651ZM6.72273 19.1452C6.72273 18.6075 6.90455 18.1595 7.26818 17.8011C7.64091 17.4427 8.14091 17.2634 8.76818 17.2634C9.39545 17.2634 9.89091 17.4427 10.2545 17.8011C10.6273 18.1595 10.8136 18.6075 10.8136 19.1452C10.8136 19.6649 10.6273 20.1039 10.2545 20.4624C9.89091 20.8208 9.39545 21 8.76818 21C8.14091 21 7.64091 20.8208 7.26818 20.4624C6.90455 20.1039 6.72273 19.6649 6.72273 19.1452Z" fill="#F6E049"/>
<path fill-rule="evenodd" clip-rule="evenodd" d="M11.3767 16.0254H6.01763L6.02997 14.9129C6.03949 14.0551 6.11088 13.2831 6.25713 12.6106L6.25889 12.6025L6.26077 12.5944C6.42281 11.8991 6.69125 11.2579 7.0714 10.681C7.43498 10.1206 7.90863 9.57628 8.47418 9.04519L8.47983 9.03988C8.87891 8.67044 9.23009 8.3267 9.53466 8.00832C9.80077 7.73054 9.99275 7.45986 10.1246 7.2C10.2269 6.99082 10.2894 6.73494 10.2894 6.40927C10.2894 5.986 10.2185 5.71532 10.1357 5.54714L10.1308 5.53717L10.1261 5.5271C10.0524 5.3698 9.95693 5.27045 9.82273 5.19701L9.80802 5.18896L9.79356 5.18044C9.66839 5.10674 9.45056 5.03427 9.08005 5.03427C8.81591 5.03427 8.57651 5.08726 8.35092 5.19079C8.17826 5.27002 8.0415 5.38788 7.92722 5.56896L7.92045 5.57967C7.8384 5.70643 7.74938 5.94174 7.7358 6.3655L7.70169 7.42944H2L2.02604 6.30341C2.05673 4.97641 2.37697 3.7864 3.05178 2.7998C3.70202 1.84034 4.57915 1.12984 5.65313 0.671651C6.69847 0.216895 7.84643 0 9.08005 0C10.4172 0 11.6246 0.221458 12.6667 0.709582C13.7221 1.1908 14.5637 1.91723 15.1433 2.89455C15.7318 3.87148 16 5.01101 16 6.2629C16 7.19351 15.8174 8.06663 15.4289 8.85876L15.4261 8.86445C15.0698 9.58069 14.6025 10.2408 14.0326 10.8455C13.5132 11.3966 12.954 11.9502 12.3557 12.5062L12.3463 12.515L12.3367 12.5235C11.9298 12.8841 11.7134 13.2173 11.611 13.5116C11.4795 13.8892 11.3988 14.3597 11.3911 14.9404L11.3767 16.0254ZM14.2263 3.46855C13.7695 2.69677 13.1021 2.11129 12.2243 1.7121C11.3553 1.30403 10.3073 1.1 9.08005 1.1C7.96928 1.1 6.966 1.29516 6.07021 1.68548C5.17443 2.06694 4.46228 2.64798 3.93376 3.42863C3.58193 3.94241 3.34124 4.54268 3.21172 5.22944C3.14668 5.57429 3.10967 5.94096 3.10068 6.32944H6.66143C6.67935 5.77056 6.80028 5.31815 7.02422 4.97218C7.24817 4.61734 7.54378 4.35565 7.91105 4.1871C8.27832 4.01855 8.66799 3.93427 9.08005 3.93427C9.58169 3.93427 9.99823 4.03186 10.3297 4.22702C10.6701 4.41331 10.9254 4.68831 11.0956 5.05202C11.2747 5.41573 11.3643 5.86814 11.3643 6.40927C11.3643 6.88831 11.2702 7.31855 11.0821 7.7C10.894 8.07258 10.6342 8.43186 10.3028 8.77782C9.98032 9.11492 9.61305 9.47419 9.20098 9.85564C8.68143 10.3435 8.26937 10.8226 7.9648 11.2927C7.66023 11.754 7.44076 12.273 7.3064 12.8496C7.24222 13.1447 7.19329 13.4699 7.15961 13.8254C7.12747 14.1646 7.10922 14.5312 7.10484 14.9254H10.3162C10.3252 14.2512 10.4193 13.6569 10.5984 13.1423C10.7776 12.6278 11.1224 12.1444 11.633 11.6919C12.2153 11.1508 12.7573 10.6141 13.2589 10.0819C13.7605 9.5496 14.1636 8.97742 14.4682 8.36532C14.7728 7.74436 14.9251 7.04355 14.9251 6.2629C14.9251 5.17177 14.6922 4.24032 14.2263 3.46855ZM6.56844 16.9332C7.1778 16.3445 7.95666 16.1008 8.78444 16.1008C9.60888 16.1008 10.3882 16.3429 10.9918 16.9378C11.5781 17.5067 11.8749 18.2411 11.8749 19.0637C11.8749 19.8803 11.5699 20.6021 10.9918 21.163C10.3881 21.7579 9.60888 22 8.78444 22C7.95666 22 7.1778 21.7563 6.56844 21.1676L6.5588 21.1583C5.98926 20.5942 5.69398 19.8734 5.69398 19.0637C5.69398 18.2479 5.98138 17.5145 6.55886 16.9426L6.56844 16.9332ZM10.2491 20.3677C10.6163 20.0129 10.8 19.5782 10.8 19.0637C10.8 18.5315 10.6163 18.0879 10.2491 17.7331C9.89074 17.3782 9.40254 17.2008 8.78444 17.2008C8.16635 17.2008 7.67367 17.3782 7.3064 17.7331C6.94808 18.0879 6.76893 18.5315 6.76893 19.0637C6.76893 19.5782 6.94808 20.0129 7.3064 20.3677C7.67367 20.7226 8.16635 20.9 8.78444 20.9C9.40254 20.9 9.89074 20.7226 10.2491 20.3677Z" fill="#2C394B"/>
<path fill-rule="evenodd" clip-rule="evenodd" d="M2 79.5C2 79.2239 2.2458 79 2.54902 79H113.451C113.754 79 114 79.2239 114 79.5C114 79.7761 113.754 80 113.451 80H2.54902C2.2458 80 2 79.7761 2 79.5Z" fill="#2C394B"/>
</g>
<defs>
<clipPath id="clip0_250_12536">
<rect width="113" height="83.2632" fill="white"/>
</clipPath>
<clipPath id="clip1_250_12536">
<rect width="39" height="35" fill="white" transform="matrix(-1 0 0 1 44 44)"/>
</clipPath>
</defs>
</svg>
