<svg width="71" height="71" viewBox="0 0 71 71" fill="none" xmlns="http://www.w3.org/2000/svg">
<g filter="url(#filter0_d_816_3965)">
<rect x="20" y="16" width="31" height="31" rx="8" fill="white"/>
</g>
<path d="M25.5187 27.1936C25.5187 24.1363 27.9971 21.6579 31.0544 21.6579H39.9115C42.9688 21.6579 45.4473 24.1363 45.4473 27.1936V36.0507C45.4473 39.108 42.9688 41.5864 39.9115 41.5864H31.0544C27.9971 41.5864 25.5187 39.108 25.5187 36.0507V27.1936ZM31.0544 31.6221C31.0544 34.068 33.0371 36.0507 35.483 36.0507C37.9288 36.0507 39.9115 34.068 39.9115 31.6221C39.9115 29.1763 37.9288 27.1936 35.483 27.1936C33.0371 27.1936 31.0544 29.1763 31.0544 31.6221ZM33.2687 31.6221C33.2687 30.3992 34.26 29.4079 35.483 29.4079C36.7059 29.4079 37.6972 30.3992 37.6972 31.6221C37.6972 32.8451 36.7059 33.8364 35.483 33.8364C34.26 33.8364 33.2687 32.8451 33.2687 31.6221ZM29.3937 26.64C29.3937 27.2515 29.8894 27.7471 30.5008 27.7471C31.1123 27.7471 31.608 27.2515 31.608 26.64C31.608 26.0285 31.1123 25.5329 30.5008 25.5329C29.8894 25.5329 29.3937 26.0285 29.3937 26.64Z" fill="#A9B6C9"/>
<defs>
<filter id="filter0_d_816_3965" x="0" y="0" width="71" height="71" filterUnits="userSpaceOnUse" color-interpolation-filters="sRGB">
<feFlood flood-opacity="0" result="BackgroundImageFix"/>
<feColorMatrix in="SourceAlpha" type="matrix" values="0 0 0 0 0 0 0 0 0 0 0 0 0 0 0 0 0 0 127 0" result="hardAlpha"/>
<feOffset dy="4"/>
<feGaussianBlur stdDeviation="10"/>
<feComposite in2="hardAlpha" operator="out"/>
<feColorMatrix type="matrix" values="0 0 0 0 0.820556 0 0 0 0 0.852133 0 0 0 0 0.933333 0 0 0 1 0"/>
<feBlend mode="normal" in2="BackgroundImageFix" result="effect1_dropShadow_816_3965"/>
<feBlend mode="normal" in="SourceGraphic" in2="effect1_dropShadow_816_3965" result="shape"/>
</filter>
</defs>
</svg>
