<svg width="29" height="29" viewBox="0 0 29 29" fill="none" xmlns="http://www.w3.org/2000/svg">
<g clip-path="url(#clip0_250_11753)">
<path d="M14.2793 9.90722L18.4306 14.0585L18.4504 13.8411C18.4504 11.66 16.6779 9.88745 14.4967 9.88745L14.2793 9.90722Z" fill="white"/>
<path d="M14.4968 7.25172C18.1342 7.25172 21.0862 10.2038 21.0862 13.8411C21.0862 14.6912 20.9149 15.5017 20.6184 16.2463L24.4732 20.1011C26.4632 18.4405 28.0315 16.2924 29.0001 13.8411C26.7136 8.05567 21.0928 3.95703 14.4969 3.95703C12.6518 3.95703 10.8859 4.28648 9.24512 4.87953L12.0917 7.71954C12.8363 7.42963 13.6468 7.25172 14.4968 7.25172Z" fill="white"/>
<path d="M1.31786 3.6604L4.32263 6.66517L4.92229 7.26483C2.74778 8.9649 1.02795 11.2251 0 13.841C2.27996 19.6265 7.90729 23.7252 14.4967 23.7252C16.5395 23.7252 18.4899 23.3298 20.2757 22.6115L20.8358 23.1716L24.6774 27.0198L26.3577 25.3462L2.99816 1.9801L1.31786 3.6604ZM8.60579 10.9417L10.6419 12.9779C10.5826 13.2612 10.5431 13.5445 10.5431 13.841C10.5431 16.0222 12.3156 17.7947 14.4967 17.7947C14.7933 17.7947 15.0766 17.7552 15.3534 17.6958L17.3895 19.732C16.5131 20.1669 15.5379 20.4305 14.4967 20.4305C10.8594 20.4305 7.90729 17.4784 7.90729 13.841C7.90729 12.7999 8.17089 11.8247 8.60579 10.9417Z" fill="white"/>
</g>
<defs>
<clipPath id="clip0_250_11753">
<path d="M0 16C0 7.16344 7.16344 0 16 0H29V29H0V16Z" fill="white"/>
</clipPath>
</defs>
</svg>
