<svg width="45" height="29" viewBox="0 0 45 29" fill="none" xmlns="http://www.w3.org/2000/svg">
<path d="M44.9649 26.7175C44.9649 27.5255 44.2974 28.228 43.4543 28.228H1.51054C0.702576 28.228 0 27.5606 0 26.7175V1.63554C0 0.792447 0.702576 0.125 1.51054 0.125H43.4895C44.2974 0.125 45 0.792447 45 1.63554V26.7351C45 26.7448 44.9921 26.7526 44.9824 26.7526C44.9727 26.7526 44.9649 26.7448 44.9649 26.7351V26.7175Z" fill="#6E85A7"/>
<path d="M39.6206 22.1021C39.6206 25.046 37.2686 27.443 34.3801 27.443H5.86914V6.28916C5.86914 3.3453 8.22114 0.948242 11.1097 0.948242H39.6206V22.1021Z" fill="#E8F0FF"/>
<path d="M30.3375 16.6758H32.5054C32.5678 16.6758 32.7113 16.6567 32.7737 16.6567C33.1854 16.5709 33.5379 16.1926 33.5379 15.668C33.5379 15.1625 33.1854 14.7842 32.7737 14.6793C32.7113 14.6602 32.5865 14.6602 32.5054 14.6602H30.3375V16.6758ZM32.2559 2.73535C30.194 2.73535 28.5002 4.43936 28.5002 6.56301V10.5369H33.8031C33.9247 10.5369 34.0713 10.5369 34.1743 10.556C35.3721 10.6196 36.258 11.249 36.258 12.3427C36.258 13.2042 35.6591 13.9417 34.5455 14.088V14.1293C35.762 14.2152 36.6916 14.9082 36.6916 15.9796C36.6916 17.1368 35.6591 17.8934 34.2991 17.8934H28.4814V25.6727H33.9902C36.0521 25.6727 37.746 23.9687 37.746 21.845V2.73535H32.2559ZM33.2665 12.597C33.2665 12.0915 32.9141 11.7545 32.5023 11.6909C32.4618 11.6909 32.3557 11.6719 32.2964 11.6719H30.3375V13.5221H32.2964C32.3588 13.5221 32.4836 13.5221 32.5023 13.503C32.9172 13.4394 33.2665 13.1025 33.2665 12.597Z" fill="#6E85A7"/>
<path d="M11.499 2.73535C9.43714 2.73535 7.74333 4.43936 7.74333 6.56301V16.005C8.79455 16.5327 9.88945 16.8665 10.9812 16.8665C12.282 16.8665 12.9839 16.0654 12.9839 14.975V10.5147H16.203V14.9495C16.203 16.6726 15.1518 18.0841 11.5833 18.0841C9.4153 18.0841 7.72461 17.6009 7.72461 17.6009V25.6536H13.2334C15.2953 25.6536 16.9891 23.9496 16.9891 21.826V2.73535H11.499Z" fill="#6E85A7"/>
<path d="M21.8807 2.73535C19.8188 2.73535 18.125 4.43936 18.125 6.56301V11.5669C19.0733 10.7467 20.7234 10.2222 23.3842 10.3462C24.8098 10.4097 26.3352 10.8103 26.3352 10.8103V12.4285C25.5709 12.0279 24.6632 11.6719 23.4872 11.586C21.4658 11.4398 20.2493 12.4507 20.2493 14.2183C20.2493 16.005 21.4658 17.016 23.4872 16.8475C24.6632 16.7616 25.5709 16.3833 26.3352 16.005V17.6232C26.3352 17.6232 24.8285 18.0237 23.3842 18.0873C20.7234 18.2113 19.0733 17.6868 18.125 16.8665V25.695H23.6338C25.6957 25.695 27.3895 23.9909 27.3895 21.8673V2.73535H21.8807Z" fill="#6E85A7"/>
</svg>
