<svg width="232" height="43" viewBox="0 0 232 43" fill="none" xmlns="http://www.w3.org/2000/svg">
<g clip-path="url(#clip0_567_1582)">
<path d="M116.956 8.39026H122.786V28.6443H135.417V33.3512H116.956V8.39026Z" fill="#2C394B"/>
<path d="M145.911 33.6365C143.872 33.6365 142.037 33.2205 140.405 32.3885C138.798 31.5326 137.538 30.3559 136.627 28.8583C135.715 27.3606 135.259 25.6609 135.259 23.7591C135.259 21.8573 135.715 20.1576 136.627 18.6599C137.538 17.1623 138.798 15.9974 140.405 15.1654C142.037 14.3096 143.872 13.8817 145.911 13.8817C147.95 13.8817 149.774 14.3096 151.381 15.1654C152.988 15.9974 154.248 17.1623 155.16 18.6599C156.071 20.1576 156.527 21.8573 156.527 23.7591C156.527 25.6609 156.071 27.3606 155.16 28.8583C154.248 30.3559 152.988 31.5326 151.381 32.3885C149.774 33.2205 147.95 33.6365 145.911 33.6365ZM145.911 29.0722C147.351 29.0722 148.526 28.5968 149.438 27.6459C150.373 26.6712 150.841 25.3756 150.841 23.7591C150.841 22.1426 150.373 20.8589 149.438 19.908C148.526 18.9333 147.351 18.446 145.911 18.446C144.472 18.446 143.284 18.9333 142.348 19.908C141.413 20.8589 140.945 22.1426 140.945 23.7591C140.945 25.3756 141.413 26.6712 142.348 27.6459C143.284 28.5968 144.472 29.0722 145.911 29.0722Z" fill="#2C394B"/>
<path d="M168.197 33.6365C166.133 33.6365 164.274 33.2205 162.619 32.3885C160.987 31.5326 159.704 30.3559 158.768 28.8583C157.857 27.3606 157.401 25.6609 157.401 23.7591C157.401 21.8573 157.857 20.1576 158.768 18.6599C159.704 17.1623 160.987 15.9974 162.619 15.1654C164.274 14.3096 166.133 13.8817 168.197 13.8817C170.236 13.8817 172.011 14.3096 173.523 15.1654C175.058 15.9974 176.174 17.1979 176.869 18.7669L172.515 21.0847C171.507 19.3255 170.056 18.446 168.161 18.446C166.697 18.446 165.486 18.9214 164.526 19.8723C163.566 20.8232 163.087 22.1188 163.087 23.7591C163.087 25.3994 163.566 26.695 164.526 27.6459C165.486 28.5968 166.697 29.0722 168.161 29.0722C170.08 29.0722 171.531 28.1926 172.515 26.4335L176.869 28.7869C176.174 30.3084 175.058 31.497 173.523 32.3528C172.011 33.2086 170.236 33.6365 168.197 33.6365Z" fill="#2C394B"/>
<path d="M186.471 13.8817C189.47 13.8817 191.773 14.5948 193.381 16.0212C194.988 17.4238 195.792 19.5514 195.792 22.4041V33.3512H190.538V30.9621C189.482 32.745 187.515 33.6365 184.636 33.6365C183.149 33.6365 181.853 33.3869 180.749 32.8877C179.67 32.3885 178.842 31.6991 178.266 30.8195C177.691 29.9399 177.403 28.9415 177.403 27.8242C177.403 26.0412 178.074 24.6387 179.418 23.6165C180.785 22.5942 182.885 22.0831 185.716 22.0831H190.178C190.178 20.8707 189.806 19.9436 189.062 19.3018C188.319 18.6361 187.203 18.3033 185.716 18.3033C184.684 18.3033 183.664 18.4697 182.657 18.8026C181.673 19.1116 180.833 19.5395 180.138 20.0863L178.122 16.1995C179.178 15.4625 180.438 14.892 181.901 14.4879C183.388 14.0837 184.912 13.8817 186.471 13.8817ZM186.039 29.8924C186.999 29.8924 187.851 29.6784 188.595 29.2505C189.338 28.7988 189.866 28.1451 190.178 27.2893V25.3281H186.327C184.024 25.3281 182.873 26.0769 182.873 27.5746C182.873 28.2877 183.149 28.8583 183.7 29.2862C184.276 29.6903 185.056 29.8924 186.039 29.8924Z" fill="#2C394B"/>
<path d="M211.921 32.4241C211.369 32.8282 210.685 33.1373 209.869 33.3512C209.078 33.5414 208.238 33.6365 207.35 33.6365C205.047 33.6365 203.26 33.0541 201.988 31.8892C200.741 30.7244 200.117 29.0128 200.117 26.7544V18.8739H197.13V14.5948H200.117V9.92358H205.731V14.5948H210.553V18.8739H205.731V26.6831C205.731 27.4913 205.935 28.1213 206.343 28.573C206.774 29.0009 207.374 29.2148 208.142 29.2148C209.03 29.2148 209.785 28.9771 210.409 28.5017L211.921 32.4241Z" fill="#2C394B"/>
<path d="M232 23.8304C232 23.9017 231.964 24.4009 231.892 25.3281H217.245C217.509 26.5167 218.133 27.4557 219.117 28.1451C220.1 28.8345 221.324 29.1792 222.787 29.1792C223.795 29.1792 224.683 29.0366 225.45 28.7513C226.242 28.4422 226.974 27.9668 227.646 27.3249L230.632 30.5342C228.809 32.6024 226.146 33.6365 222.643 33.6365C220.46 33.6365 218.529 33.2205 216.85 32.3885C215.17 31.5326 213.875 30.3559 212.963 28.8583C212.051 27.3606 211.596 25.6609 211.596 23.7591C211.596 21.8811 212.039 20.1932 212.927 18.6956C213.839 17.1741 215.074 15.9974 216.634 15.1654C218.217 14.3096 219.98 13.8817 221.924 13.8817C223.819 13.8817 225.534 14.2858 227.07 15.0941C228.605 15.9023 229.805 17.0672 230.668 18.5886C231.556 20.0863 232 21.8335 232 23.8304ZM221.96 18.0894C220.688 18.0894 219.621 18.446 218.757 19.1591C217.893 19.8723 217.365 20.847 217.173 22.0831H226.71C226.518 20.8707 225.99 19.908 225.126 19.1948C224.263 18.4579 223.207 18.0894 221.96 18.0894Z" fill="#2C394B"/>
<path d="M68.4273 8.39026V33.3512H62.5975V23.1172H51.1538V33.3512H45.324V8.39026H51.1538V18.232H62.5975V8.39026H68.4273Z" fill="#006AD5"/>
<path d="M91.2893 28.7156V33.3512H71.7846V8.39026H90.8215V13.0259H77.5785V18.446H89.2741V22.9389H77.5785V28.7156H91.2893Z" fill="#006AD5"/>
<path d="M107.161 24.5079V33.3512H101.332V24.4366L91.5793 8.39027H97.769L104.498 19.4801L107.161 24.5079Z" fill="#006AD5"/>
<path d="M107.977 23.6961L105.313 18.6683L111.228 8.39026H116.95L107.977 23.6961Z" fill="#2C394B"/>
<path fill-rule="evenodd" clip-rule="evenodd" d="M13.1596 13.4213C15.5366 10.9971 19.3915 10.9971 21.7685 13.4213C24.1455 15.8455 24.1455 19.7771 21.7685 22.2041C19.3915 24.6283 15.5366 24.6283 13.1596 22.2041C10.7827 19.7799 10.7827 15.8484 13.1596 13.4213Z" fill="#006AD5"/>
<path fill-rule="evenodd" clip-rule="evenodd" d="M5.11598 5.2172C11.9352 -1.73752 22.9934 -1.73752 29.8153 5.2172C36.6345 12.1719 36.6345 23.4499 29.8153 30.4075L25.5095 34.7989L19.8203 28.9966C21.8633 28.551 23.8089 27.5205 25.3954 25.8997C29.7763 21.4316 29.7763 14.1902 25.3954 9.72215C21.0144 5.2541 13.9141 5.2541 9.53314 9.72215C5.15216 14.1902 5.15216 21.4316 9.53314 25.8997L21.8828 38.4948L17.4629 42.9997L5.11598 30.4046C-1.70598 23.4499 -1.70598 12.1719 5.11598 5.2172Z" fill="#1681EE"/>
<path fill-rule="evenodd" clip-rule="evenodd" d="M25.3954 9.72215C29.7763 14.1902 29.7763 21.4316 25.3954 25.8997C23.8089 27.5177 21.8633 28.551 19.8203 28.9966L25.5095 34.7989L29.8153 30.4075C32.8352 27.3275 34.5162 23.402 34.8641 19.3797L25.398 9.72539L25.3954 9.72215Z" fill="#006AD5"/>
</g>
<defs>
<clipPath id="clip0_567_1582">
<rect width="232" height="43" fill="white"/>
</clipPath>
</defs>
</svg>
