<svg width="45" height="29" viewBox="0 0 45 29" fill="none" xmlns="http://www.w3.org/2000/svg">
<path d="M44.9666 26.6149C44.9685 26.611 44.9744 26.6124 44.9743 26.6168C44.9669 27.0099 44.8075 27.3852 44.5291 27.6636C44.2465 27.9462 43.8641 28.1062 43.4645 28.1091H1.51371C1.11346 28.1072 0.7301 27.9476 0.446742 27.6649C0.163383 27.3822 0.00286806 26.9993 0 26.599V1.51371C0.00285797 1.11313 0.163255 0.72977 0.446513 0.446513C0.72977 0.163255 1.11313 0.00285797 1.51371 0H43.4899C43.8899 0.00380813 44.2723 0.164624 44.5548 0.44778C44.8373 0.730937 44.9972 1.11375 45 1.51371V26.6069C45 26.6146 44.9938 26.6208 44.9861 26.6208H44.9703C44.9672 26.6208 44.9652 26.6176 44.9666 26.6149Z" fill="#6E85A7"/>
<path d="M13.762 24.7473V23.3318C13.7699 23.2132 13.7525 23.0942 13.711 22.9827C13.6695 22.8713 13.6048 22.7699 13.5213 22.6853C13.4377 22.6007 13.3371 22.5348 13.2262 22.4919C13.1153 22.4491 12.9965 22.4302 12.8778 22.4367C12.722 22.4275 12.5665 22.4596 12.4272 22.5299C12.2879 22.6002 12.1697 22.7062 12.0845 22.8369C12.0094 22.7119 11.9024 22.609 11.7746 22.5387C11.6468 22.4684 11.5026 22.4332 11.3568 22.4367C11.2269 22.4309 11.0978 22.4587 10.9818 22.5173C10.8658 22.576 10.7669 22.6635 10.6945 22.7714V22.4949H10.1924V24.7473H10.6872V23.4992C10.6764 23.4222 10.6827 23.3437 10.7058 23.2694C10.7288 23.1952 10.768 23.1269 10.8205 23.0695C10.873 23.0122 10.9375 22.9671 11.0095 22.9376C11.0814 22.9081 11.159 22.8948 11.2367 22.8988C11.5642 22.8988 11.7279 23.1135 11.7279 23.4919V24.7473H12.2228V23.4992C12.2126 23.4223 12.2194 23.3441 12.2427 23.2701C12.266 23.1961 12.3052 23.1281 12.3575 23.0709C12.4099 23.0137 12.4742 22.9686 12.5458 22.9389C12.6175 22.9092 12.6947 22.8955 12.7722 22.8988C13.107 22.8988 13.2671 23.1135 13.2671 23.4919V24.7473H13.762ZM21.0831 22.4949H20.2825V21.8108H19.7877V22.4949H19.3328V22.9425H19.7877V23.9686C19.7877 24.4926 19.9914 24.8019 20.57 24.8019C20.7862 24.803 20.9983 24.7424 21.1813 24.6272L21.043 24.2051C20.9113 24.2823 20.7626 24.326 20.61 24.3325C20.3626 24.3325 20.2825 24.1833 20.2825 23.9686V22.9497H21.0831V22.4949ZM25.2639 22.4367C25.1445 22.4336 25.0264 22.4627 24.922 22.5209C24.8176 22.5792 24.7309 22.6645 24.6708 22.7678V22.4949H24.1832V24.7473H24.6745V23.4774C24.6745 23.1135 24.8346 22.8988 25.1548 22.8988C25.2593 22.896 25.3633 22.9146 25.4604 22.9534L25.6133 22.4913C25.4962 22.4507 25.3733 22.4298 25.2494 22.4294L25.2639 22.4367ZM18.9289 22.6659C18.6539 22.504 18.3382 22.4244 18.0193 22.4367C17.448 22.4367 17.0805 22.7132 17.0805 23.1644C17.0805 23.5283 17.3534 23.7612 17.8592 23.8303L18.0884 23.8631C18.3577 23.8995 18.485 23.9722 18.485 24.0996C18.485 24.2269 18.3067 24.3725 17.972 24.3725C17.7026 24.38 17.4386 24.2967 17.2224 24.136L16.9931 24.4998C17.2789 24.6982 17.6206 24.8002 17.9683 24.7909C18.616 24.7909 18.9944 24.4853 18.9944 24.0632C18.9944 23.6411 18.6961 23.4628 18.2085 23.39L17.9756 23.3573C17.7646 23.3282 17.6117 23.2881 17.6117 23.1353C17.6117 22.9825 17.7718 22.8733 18.0411 22.8733C18.2877 22.8771 18.5294 22.9434 18.7434 23.0662L18.9289 22.6659ZM32.0574 22.4294C31.9379 22.4259 31.8196 22.4548 31.7152 22.5131C31.6108 22.5714 31.5241 22.6569 31.4643 22.7605V22.4949H30.9913V24.7473H31.4825V23.4774C31.4825 23.1135 31.6426 22.8988 31.9628 22.8988C32.0673 22.8963 32.1713 22.9149 32.2685 22.9534L32.4177 22.4913C32.3065 22.4521 32.1898 22.4312 32.072 22.4294H32.0574ZM25.7588 23.6193C25.7519 23.778 25.7784 23.9363 25.8366 24.0842C25.8947 24.232 25.9832 24.3659 26.0964 24.4774C26.2096 24.5889 26.3449 24.6753 26.4936 24.7312C26.6423 24.7871 26.801 24.8112 26.9596 24.8019C27.2533 24.818 27.5421 24.7218 27.7674 24.5326L27.5345 24.1396C27.3643 24.2673 27.1578 24.3374 26.945 24.3397C26.752 24.3397 26.5669 24.2631 26.4304 24.1266C26.294 23.9901 26.2173 23.805 26.2173 23.612C26.2173 23.419 26.294 23.2339 26.4304 23.0974C26.5669 22.9609 26.752 22.8842 26.945 22.8842C27.1582 22.8879 27.3646 22.9593 27.5345 23.088L27.7674 22.6914C27.5412 22.5038 27.253 22.4078 26.9596 22.4221C26.8012 22.4134 26.6426 22.4378 26.4942 22.4939C26.3458 22.55 26.2107 22.6365 26.0977 22.7479C25.9846 22.8592 25.8961 22.9929 25.8377 23.1405C25.7794 23.288 25.7525 23.4462 25.7588 23.6047V23.6193ZM30.3472 23.6047V22.4949H29.856V22.7678C29.7711 22.6573 29.6603 22.5693 29.5334 22.5115C29.4065 22.4538 29.2674 22.4281 29.1283 22.4367C28.8146 22.4367 28.5138 22.5613 28.292 22.7831C28.0703 23.0048 27.9457 23.3056 27.9457 23.6193C27.9457 23.9329 28.0703 24.2337 28.292 24.4555C28.5138 24.6773 28.8146 24.8019 29.1283 24.8019C29.267 24.8102 29.4057 24.7848 29.5325 24.7278C29.6592 24.6707 29.7703 24.5838 29.856 24.4744V24.7473H30.3472V23.6047ZM28.5279 23.6047C28.5371 23.4725 28.5847 23.3459 28.6648 23.2404C28.745 23.1349 28.8542 23.0551 28.979 23.0108C29.1039 22.9665 29.239 22.9596 29.3677 22.9909C29.4964 23.0223 29.6132 23.0905 29.7037 23.1873C29.7942 23.2841 29.8545 23.4052 29.8771 23.5357C29.8997 23.6663 29.8838 23.8006 29.8312 23.9222C29.7786 24.0438 29.6916 24.1474 29.581 24.2203C29.4703 24.2931 29.3408 24.3321 29.2083 24.3325C29.1147 24.3332 29.0219 24.3146 28.9358 24.2776C28.8498 24.2407 28.7723 24.1863 28.7084 24.1179C28.6444 24.0495 28.5954 23.9686 28.5643 23.8803C28.5332 23.7919 28.5208 23.6981 28.5279 23.6047ZM22.6113 22.4367C22.4576 22.432 22.3045 22.46 22.1623 22.5186C22.0201 22.5772 21.8919 22.6653 21.786 22.7769C21.6802 22.8886 21.5992 23.0213 21.5483 23.1665C21.4974 23.3117 21.4777 23.466 21.4906 23.6193C21.4802 23.7748 21.5028 23.9307 21.5567 24.0769C21.6106 24.2231 21.6947 24.3564 21.8035 24.4679C21.9123 24.5795 22.0434 24.6669 22.1882 24.7244C22.333 24.7819 22.4884 24.8083 22.6441 24.8019C22.9799 24.8133 23.3085 24.7021 23.5683 24.4889L23.3281 24.1251C23.1415 24.2733 22.9115 24.3563 22.6732 24.3616C22.5109 24.374 22.3501 24.3235 22.224 24.2205C22.098 24.1176 22.0165 23.97 21.9964 23.8085H23.6702C23.6702 23.7466 23.6702 23.6848 23.6702 23.6193C23.6827 23.4703 23.6644 23.3203 23.6165 23.1787C23.5687 23.037 23.4922 22.9067 23.3919 22.7958C23.2916 22.685 23.1696 22.5959 23.0334 22.5341C22.8973 22.4723 22.7499 22.4392 22.6004 22.4367H22.6113ZM22.6004 22.877C22.6738 22.875 22.7469 22.8877 22.8154 22.9141C22.8839 22.9405 22.9465 22.9802 22.9997 23.031C23.0528 23.0817 23.0953 23.1424 23.1248 23.2097C23.1543 23.2769 23.1703 23.3494 23.1717 23.4228H22.0218C22.0303 23.2719 22.0975 23.1303 22.209 23.0283C22.3205 22.9263 22.4675 22.872 22.6186 22.877H22.6004ZM34.9102 23.6047V21.5889H34.3935V22.7678C34.309 22.6568 34.1983 22.5684 34.0713 22.5106C33.9443 22.4528 33.805 22.4274 33.6657 22.4367C33.3521 22.4367 33.0513 22.5613 32.8295 22.7831C32.6078 23.0048 32.4832 23.3056 32.4832 23.6193C32.4832 23.9329 32.6078 24.2337 32.8295 24.4555C33.0513 24.6773 33.3521 24.8019 33.6657 24.8019C33.8046 24.8109 33.9435 24.7857 34.0704 24.7286C34.1972 24.6716 34.3082 24.5843 34.3935 24.4744V24.7473H34.8847L34.9102 23.6047ZM33.0908 23.6047C33.1 23.4727 33.1475 23.3462 33.2275 23.2408C33.3075 23.1354 33.4165 23.0555 33.5411 23.0111C33.6658 22.9667 33.8007 22.9595 33.9293 22.9906C34.058 23.0217 34.1748 23.0896 34.2654 23.186C34.356 23.2824 34.4166 23.4032 34.4397 23.5335C34.4627 23.6638 34.4473 23.798 34.3952 23.9197C34.3432 24.0414 34.2567 24.1452 34.1466 24.2185C34.0364 24.2918 33.9072 24.3314 33.7749 24.3325C33.681 24.3337 33.5878 24.3154 33.5013 24.2787C33.4148 24.242 33.3369 24.1877 33.2726 24.1193C33.2082 24.0508 33.1588 23.9697 33.1275 23.8811C33.0962 23.7925 33.0837 23.6984 33.0908 23.6047ZM16.5456 23.6047V22.4949H16.0325V22.7678C15.9498 22.6594 15.842 22.5727 15.7185 22.515C15.5949 22.4573 15.4592 22.4305 15.323 22.4367C15.0093 22.4367 14.7085 22.5613 14.4868 22.7831C14.265 23.0048 14.1404 23.3056 14.1404 23.6193C14.1404 23.9329 14.265 24.2337 14.4868 24.4555C14.7085 24.6773 15.0093 24.8019 15.323 24.8019C15.4588 24.8079 15.5941 24.7813 15.7175 24.7243C15.841 24.6673 15.949 24.5816 16.0325 24.4744V24.7473H16.5237L16.5456 23.6047ZM14.7262 23.6047C14.7354 23.4727 14.7829 23.3462 14.8629 23.2408C14.9429 23.1354 15.0519 23.0555 15.1765 23.0111C15.3012 22.9667 15.4361 22.9595 15.5647 22.9906C15.6934 23.0217 15.8102 23.0896 15.9008 23.186C15.9914 23.2824 16.052 23.4032 16.075 23.5335C16.0981 23.6638 16.0827 23.798 16.0306 23.9197C15.9785 24.0414 15.8921 24.1452 15.782 24.2185C15.6718 24.2918 15.5426 24.3314 15.4103 24.3325C15.3164 24.3337 15.2232 24.3154 15.1367 24.2787C15.0502 24.242 14.9723 24.1877 14.908 24.1193C14.8436 24.0508 14.7942 23.9697 14.7629 23.8811C14.7316 23.7925 14.7191 23.6984 14.7262 23.6047ZM35.7362 24.4052C35.7651 24.4001 35.7946 24.4001 35.8235 24.4052C35.851 24.4153 35.8759 24.4314 35.8963 24.4525C35.9161 24.4739 35.9322 24.4985 35.9436 24.5253C35.9495 24.5541 35.9495 24.5838 35.9436 24.6126C35.9491 24.6403 35.9491 24.6687 35.9436 24.6963C35.9322 24.7232 35.9161 24.7478 35.8963 24.7691C35.8759 24.7902 35.851 24.8064 35.8235 24.8164C35.7948 24.8232 35.7649 24.8232 35.7362 24.8164C35.7063 24.824 35.6751 24.824 35.6452 24.8164C35.6172 24.8073 35.5921 24.791 35.5724 24.7691C35.5514 24.7479 35.5342 24.7233 35.5215 24.6963C35.516 24.6687 35.516 24.6403 35.5215 24.6126C35.5075 24.5997 35.4953 24.585 35.4851 24.569C35.4978 24.542 35.515 24.5174 35.536 24.4962C35.5557 24.4743 35.5808 24.458 35.6088 24.4489C35.6389 24.4431 35.6697 24.4431 35.6998 24.4489L35.7362 24.4052ZM35.6998 24.8492C35.7215 24.8526 35.7436 24.8526 35.7653 24.8492C35.7853 24.8401 35.8038 24.8278 35.8199 24.8128C35.8505 24.7786 35.8685 24.7349 35.8708 24.6891C35.8762 24.6663 35.8762 24.6426 35.8708 24.6199C35.8643 24.5985 35.8517 24.5795 35.8344 24.5653C35.8194 24.5481 35.8008 24.5344 35.7798 24.5253C35.7581 24.5218 35.736 24.5218 35.7143 24.5253C35.6915 24.5215 35.6681 24.5215 35.6452 24.5253C35.6237 24.5352 35.604 24.5488 35.587 24.5653C35.572 24.5814 35.5597 24.5999 35.5506 24.6199C35.5468 24.6428 35.5468 24.6662 35.5506 24.6891C35.5471 24.7107 35.5471 24.7329 35.5506 24.7546C35.5606 24.7752 35.5728 24.7948 35.587 24.8128L35.6452 24.8492C35.6681 24.853 35.6915 24.853 35.7143 24.8492H35.6998ZM35.7143 24.569C35.7241 24.5649 35.7346 24.5628 35.7453 24.5628C35.7559 24.5628 35.7664 24.5649 35.7762 24.569C35.7835 24.5744 35.7893 24.5816 35.7931 24.5899C35.7969 24.5981 35.7986 24.6072 35.798 24.6163C35.8015 24.623 35.8034 24.6305 35.8034 24.6381C35.8034 24.6457 35.8015 24.6532 35.798 24.6599C35.7829 24.6662 35.7659 24.6662 35.7507 24.6599L35.8199 24.74H35.7653L35.7034 24.6636H35.6816V24.74H35.6379V24.5326L35.7143 24.569ZM35.6634 24.609V24.6636H35.7143H35.7434C35.7454 24.6603 35.7464 24.6565 35.7464 24.6527C35.7464 24.6488 35.7454 24.6451 35.7434 24.6417C35.7451 24.6383 35.7459 24.6346 35.7459 24.6308C35.7459 24.6271 35.7451 24.6233 35.7434 24.6199H35.6634V24.609Z" fill="#EFF3FF"/>
<path d="M26.2025 5.33105H18.7832V18.6669H26.2025V5.33105Z" fill="#EFF3FF"/>
<path d="M19.2529 12.001C19.2517 10.7165 19.5426 9.44848 20.1036 8.29296C20.6647 7.13745 21.4812 6.12466 22.4913 5.33122C21.2398 4.3462 19.7364 3.73329 18.1529 3.56257C16.5694 3.39185 14.9698 3.67021 13.5371 4.36583C12.1044 5.06144 10.8964 6.14622 10.0512 7.49611C9.20603 8.84601 8.75781 10.4065 8.75781 11.9992C8.75781 13.5918 9.20603 15.1523 10.0512 16.5022C10.8964 17.8521 12.1044 18.9369 13.5371 19.6325C14.9698 20.3281 16.5694 20.6065 18.1529 20.4358C19.7364 20.265 21.2398 19.6521 22.4913 18.6671C21.4813 17.8744 20.6648 16.8623 20.1037 15.7074C19.5426 14.5524 19.2517 13.285 19.2529 12.001Z" fill="#EFF3FF"/>
<path fill-rule="evenodd" clip-rule="evenodd" d="M19.2529 12.001C19.2517 10.7165 19.5426 9.44848 20.1036 8.29296C20.5485 7.37675 21.1539 6.55026 21.8892 5.85171C22.0813 5.66926 22.2821 5.49553 22.4913 5.33122C22.2785 5.16366 22.0583 5.00688 21.8317 4.86121C20.726 4.15048 19.467 3.70425 18.1529 3.56257C16.5694 3.39185 14.9698 3.67021 13.5371 4.36583C12.1044 5.06144 10.8964 6.14622 10.0512 7.49611C9.20603 8.84601 8.75781 10.4065 8.75781 11.9992C8.75781 13.5918 9.20603 15.1523 10.0512 16.5022C10.8964 17.8521 12.1044 18.9369 13.5371 19.6325C14.9698 20.3281 16.5694 20.6065 18.1529 20.4358C19.467 20.2941 20.726 19.8479 21.8316 19.1372C22.0582 18.9915 22.2784 18.8347 22.4913 18.6671C22.2821 18.5029 22.0811 18.3292 21.889 18.1468C21.1539 17.4489 20.5485 16.623 20.1037 15.7074C19.5426 14.5524 19.2517 13.285 19.2529 12.001ZM21.2292 18.5937C20.4816 17.8571 19.863 16.9967 19.4022 16.0482C18.7895 14.787 18.4718 13.4031 18.473 12.001C18.4717 10.5985 18.7894 9.21399 19.402 7.95231C19.8629 7.00307 20.4817 6.14203 21.2296 5.4048C20.2699 4.82471 19.1917 4.45901 18.0693 4.338C16.6313 4.18297 15.1788 4.43574 13.8778 5.06742C12.5768 5.6991 11.4798 6.68418 10.7123 7.91C9.94476 9.13582 9.53773 10.5529 9.53773 11.9992C9.53773 13.4454 9.94476 14.8625 10.7123 16.0883C11.4798 17.3141 12.5768 18.2992 13.8778 18.9309C15.1788 19.5626 16.6313 19.8154 18.0693 19.6603C19.1916 19.5393 20.2697 19.1737 21.2292 18.5937ZM18.473 12.001C18.473 12.0007 18.473 12.0005 18.473 12.0002L19.2527 12.001L18.473 12.0017C18.473 12.0015 18.473 12.0012 18.473 12.001Z" fill="#6E85A7"/>
<path d="M36.2131 12.0004C36.2132 13.5914 35.7658 15.1503 34.9218 16.4989C34.0778 17.8475 32.8714 18.9315 31.4404 19.6269C30.0095 20.3222 28.4118 20.6009 26.8299 20.4311C25.248 20.2613 23.7459 19.6498 22.4951 18.6665C23.5041 17.8724 24.3196 16.8598 24.8804 15.7047C25.4412 14.5497 25.7326 13.2825 25.7326 11.9986C25.7326 10.7146 25.4412 9.44743 24.8804 8.29243C24.3196 7.13742 23.5041 6.12473 22.4951 5.33064C23.7465 4.34867 25.2488 3.73838 26.8305 3.56945C28.4122 3.40053 30.0095 3.67978 31.44 4.37532C32.8706 5.07086 34.0767 6.15466 34.9207 7.50297C35.7647 8.85127 36.2125 10.4097 36.2131 12.0004ZM35.4053 17.2547V16.9818H35.5181V16.9272H35.2343V16.9818H35.3471V17.2547H35.4053ZM35.9511 17.2547V16.9272H35.8492L35.751 17.1528L35.6673 16.9272H35.5799V17.2547H35.6418V17.0073L35.7328 17.222H35.7983L35.8892 17.0073V17.2547H35.9511Z" fill="#EFF3FF"/>
</svg>
