<svg width="31" height="33" viewBox="0 0 31 33" fill="none" xmlns="http://www.w3.org/2000/svg">
<path d="M11.8672 21.875C11.7 21.875 11.5645 21.7351 11.5645 21.5625V11.5625C11.5645 11.3899 11.7 11.25 11.8672 11.25H23.6738V6.25H7.32617V27.5H23.6738V22.1875C23.6738 22.1818 23.6752 22.1766 23.6755 22.1709L23.274 21.875H11.8672Z" fill="white"/>
<path d="M7.32617 29.2536C7.32617 30.3544 8.19381 31.25 9.26028 31.25H21.7397C22.8062 31.25 23.6738 30.3544 23.6738 29.2536V28.125H7.32617V29.2536Z" fill="white"/>
<path d="M23.6738 4.49644C23.6738 3.39562 22.8062 2.5 21.7397 2.5H9.26028C8.19381 2.5 7.32617 3.39562 7.32617 4.49644V5.625H23.6738V4.49644Z" fill="white"/>
<path d="M12.1699 21.25H23.3711C23.4342 21.25 23.4957 21.2703 23.547 21.3083L27.3066 24.0802V11.875H12.1699V21.25ZM14.8945 13.75H20.3438C20.5109 13.75 20.6465 13.8899 20.6465 14.0625C20.6465 14.2351 20.5109 14.375 20.3438 14.375H14.8945C14.7274 14.375 14.5918 14.2351 14.5918 14.0625C14.5918 13.8899 14.7274 13.75 14.8945 13.75ZM14.8945 16.25H24.582C24.7492 16.25 24.8848 16.3899 24.8848 16.5625C24.8848 16.7351 24.7492 16.875 24.582 16.875H14.8945C14.7274 16.875 14.5918 16.7351 14.5918 16.5625C14.5918 16.3899 14.7274 16.25 14.8945 16.25ZM14.8945 18.75H24.582C24.7492 18.75 24.8848 18.8899 24.8848 19.0625C24.8848 19.2351 24.7492 19.375 24.582 19.375H14.8945C14.7274 19.375 14.5918 19.2351 14.5918 19.0625C14.5918 18.8899 14.7274 18.75 14.8945 18.75Z" fill="white"/>
</svg>
