<svg width="31" height="31" viewBox="0 0 31 31" fill="none" xmlns="http://www.w3.org/2000/svg">
<path d="M6.00146 6.2533H24.9987V24.7467H6.00146V6.2533Z" fill="white"/>
<path d="M25.0224 26H6.02616C6.01162 26 6 26.0116 6 26.0262V28.0039C6 29.4255 7.15233 30.5778 8.57397 30.5778H22.4736C23.8952 30.5778 25.0476 29.4255 25.0476 28.0039V26.0262C25.048 26.0116 25.0364 26 25.0224 26ZM16.5463 29.0806H14.5022C14.0663 29.0806 13.7079 28.727 13.7079 28.2863C13.7079 27.9036 13.984 27.5887 14.3424 27.5112C14.3957 27.5016 14.449 27.4967 14.5022 27.4967H16.5463C16.5996 27.4967 16.6529 27.5016 16.7061 27.5112C17.0646 27.5887 17.3407 27.9036 17.3407 28.2863C17.3407 28.727 16.9822 29.0806 16.5463 29.0806Z" fill="white"/>
<path d="M22.4502 0.155029H8.55053C7.12889 0.155029 5.97656 1.30736 5.97656 2.729V4.70622C5.97656 4.72075 5.98819 4.73237 6.00272 4.73237H24.9985C25.013 4.73237 25.0246 4.72075 25.0246 4.70622V2.729C25.0241 1.30736 23.8718 0.155029 22.4502 0.155029ZM15.6844 2.94261C15.5439 3.12183 15.3211 3.23808 15.0741 3.23808H13.03C12.783 3.23808 12.5602 3.12183 12.4197 2.94261C12.3035 2.80698 12.2357 2.63261 12.2357 2.4437C12.2357 2.00292 12.5941 1.64933 13.03 1.64933H15.0741C15.51 1.64933 15.8685 2.00292 15.8685 2.4437C15.8685 2.63261 15.8007 2.80698 15.6844 2.94261ZM18.581 2.94261C18.4405 3.12183 18.2177 3.23808 17.9707 3.23808H17.8835C17.6364 3.23808 17.4136 3.12183 17.2732 2.94261C17.1569 2.80698 17.0891 2.63261 17.0891 2.4437C17.0891 2.00292 17.4475 1.64933 17.8835 1.64933H17.9707C18.4066 1.64933 18.765 2.00292 18.765 2.4437C18.765 2.63261 18.6972 2.80698 18.581 2.94261Z" fill="white"/>
</svg>
