<svg width="62" height="61" viewBox="0 0 62 61" fill="none" xmlns="http://www.w3.org/2000/svg">
<g clip-path="url(#clip0_295_3283)">
<path d="M30.9975 4.77531C30.0308 2.37122 27.6761 -0.22518 23.2663 0.131454C17.6487 0.739854 15.8981 6.10297 16.7469 9.30255C14.5096 7.79325 10.705 7.12953 7.38424 9.96322C3.09673 14.2449 5.39008 20.0352 7.74705 21.4242C5.14938 21.1845 1.04398 22.9331 0.135712 27.5072C-0.830489 33.1863 3.51539 36.4971 7.74705 36.4971H54.6723C59.5657 36.4971 62.2809 32.2799 61.9762 28.3027C61.496 23.1119 56.728 21.1203 54.1271 21.547C56.3001 20.3393 59.2024 14.666 54.7894 10.2059C51.2866 6.8868 46.8209 8.09435 45.2507 9.54212C46.0972 6.7693 44.7093 1.03758 39.0276 0.130909C38.6352 0.0871333 38.2571 0.0637207 37.8967 0.0637207C33.5595 0.0641563 31.6095 3.22246 30.9975 4.77531Z" fill="#A9B6C9"/>
<path d="M8.16637 10.8669C5.68883 13.1011 4.78712 18.1634 9.25325 21.1228L27.0702 33.3001L18.4312 13.5835C16.621 8.93082 11.6688 7.91623 8.16637 10.8669Z" fill="#A9B6C9"/>
<path d="M23.5031 1.28066C20.607 1.33936 16.2583 4.77513 18.1937 10.0215L27.1283 31.0135L30.2681 8.93397C30.9947 3.44769 26.827 0.9151 23.5031 1.28066Z" fill="#A9B6C9"/>
<path d="M31.6627 8.09208H33.3522C33.3522 8.09208 34.2544 8.09208 34.3772 8.51601C33.7123 9.05689 31.9025 9.12463 32.1427 12.0138L34.9831 31.0107L43.857 9.96356C45.6721 5.26416 41.862 1.33945 38.4823 1.21945C38.3246 1.20812 38.1661 1.19897 38.0024 1.19897C34.9688 1.19887 31.4926 3.39508 31.6627 8.09208Z" fill="#A9B6C9"/>
<path d="M43.4994 13.7622L35.106 33.2421L52.9179 21.0006C57.0237 18.0994 56.3614 13.4611 54.0631 11.1685C53.0997 10.0895 51.3306 9.25586 49.4564 9.25586C47.2425 9.25553 44.8729 10.4254 43.4994 13.7622Z" fill="#A9B6C9"/>
<path d="M50.9239 23.7725L34.1963 35.412H54.7925C59.018 35.412 61.7335 31.0715 60.5264 27.0887C59.7179 24.5853 57.3259 22.62 54.5495 22.6172C53.3808 22.6177 52.1415 22.9684 50.9239 23.7725Z" fill="#A9B6C9"/>
<path d="M7.68635 35.412H27.9787L11.247 23.7725C7.3818 21.2984 3.03526 22.746 1.46621 26.8516C0.136221 31.5516 3.45699 35.412 7.68635 35.412Z" fill="#A9B6C9"/>
<path d="M30.1589 51.3372H33.9233C34.7886 51.3914 36.3226 52.1441 36.3226 53.9266C36.3226 55.7911 34.7306 56.5433 33.868 56.6282H30.1589V51.3372ZM30.1015 43.0371H33.2C34.2591 43.094 35.5115 43.8737 35.5115 45.3213C35.5115 46.7412 34.5647 47.6875 33.3396 47.8561H30.1015V43.0371ZM25.8652 39.583V60.0788H35.848C38.2174 60.0788 41.034 57.7131 41.034 54.6217C41.034 51.3919 38.9159 49.8056 37.5757 49.1646C37.5757 49.1646 40.0297 47.7446 39.9206 44.6805C39.809 40.5588 35.9869 39.583 34.6766 39.583H25.8652Z" fill="#A9B6C9"/>
<path d="M10.5537 60.0788V48.2739L23.4928 60.8585V39.583H19.1449V51.086L6.20264 38.7495V60.0788H10.5537Z" fill="#A9B6C9"/>
<path d="M41.7329 49.6089C41.842 56.0905 46.5168 60.9364 52.5265 60.9364C53.9514 60.9364 55.4526 60.6677 56.9867 60.0788V55.9027C55.7709 56.6428 54.4179 56.9997 53.0923 56.9997C49.4555 56.9997 46.024 54.3188 46.166 49.4425C46.4111 45.487 49.6617 42.7557 53.1649 42.7557C54.4478 42.7557 55.7673 43.1238 56.9867 43.9282V39.8639C55.5648 39.2897 54.1514 39.033 52.79 39.033C46.7953 39.0329 41.848 44.0703 41.7329 49.6089Z" fill="#A9B6C9"/>
</g>
<defs>
<clipPath id="clip0_295_3283">
<rect width="62" height="60.8727" fill="white" transform="translate(0 0.0637207)"/>
</clipPath>
</defs>
</svg>
