<svg width="52" height="52" viewBox="0 0 52 52" fill="none" xmlns="http://www.w3.org/2000/svg">
<path d="M18.2002 17.3334V29.4667C18.2002 30.3861 18.5654 31.2679 19.2156 31.918C19.8657 32.5681 20.7474 32.9334 21.6669 32.9334H22.5335C22.7634 32.9334 22.9838 33.0247 23.1464 33.1872C23.3089 33.3497 23.4002 33.5702 23.4002 33.8V38.2816C23.4001 38.4193 23.4398 38.5542 23.5146 38.6699C23.5895 38.7856 23.6961 38.8772 23.8218 38.9336C23.9475 38.99 24.0868 39.0089 24.223 38.9879C24.3592 38.967 24.4864 38.9071 24.5893 38.8154L30.8804 33.1561C31.0395 33.0128 31.246 32.9334 31.4602 32.9334H39.0002C39.9196 32.9334 40.8014 32.5681 41.4515 31.918C42.1016 31.2679 42.4669 30.3861 42.4669 29.4667V17.3334C42.4669 16.4139 42.1016 15.5322 41.4515 14.8821C40.8014 14.2319 39.9196 13.8667 39.0002 13.8667H21.6669C20.7474 13.8667 19.8657 14.2319 19.2156 14.8821C18.5654 15.5322 18.2002 16.4139 18.2002 17.3334ZM33.8002 26.8667H22.5335C22.3037 26.8667 22.0832 26.7754 21.9207 26.6129C21.7582 26.4503 21.6669 26.2299 21.6669 26C21.6669 25.7702 21.7582 25.5497 21.9207 25.3872C22.0832 25.2247 22.3037 25.1334 22.5335 25.1334H33.8002C34.03 25.1334 34.2505 25.2247 34.413 25.3872C34.5756 25.5497 34.6669 25.7702 34.6669 26C34.6669 26.2299 34.5756 26.4503 34.413 26.6129C34.2505 26.7754 34.03 26.8667 33.8002 26.8667ZM22.5335 19.9334H38.1335C38.3634 19.9334 38.5838 20.0247 38.7464 20.1872C38.9089 20.3497 39.0002 20.5702 39.0002 20.8C39.0002 21.0299 38.9089 21.2503 38.7464 21.4129C38.5838 21.5754 38.3634 21.6667 38.1335 21.6667H22.5335C22.3037 21.6667 22.0832 21.5754 21.9207 21.4129C21.7582 21.2503 21.6669 21.0299 21.6669 20.8C21.6669 20.5702 21.7582 20.3497 21.9207 20.1872C22.0832 20.0247 22.3037 19.9334 22.5335 19.9334Z" fill="white"/>
<path d="M23.3998 50.2667C24.3571 50.2667 25.1332 49.4907 25.1332 48.5334C25.1332 47.5761 24.3571 46.8 23.3998 46.8C22.4425 46.8 21.6665 47.5761 21.6665 48.5334C21.6665 49.4907 22.4425 50.2667 23.3998 50.2667Z" fill="white"/>
<path d="M21.6665 12.1333H37.2665V6.93335H9.5332V45.0667H37.2665V34.6667H31.7927L25.7477 40.1041C25.3034 40.5081 24.7248 40.7324 24.1244 40.7334C23.7771 40.7328 23.4339 40.6587 23.1173 40.5158C22.6835 40.3264 22.3148 40.0138 22.0569 39.6168C21.799 39.2198 21.6633 38.7558 21.6665 38.2824V34.6667C20.2878 34.6653 18.966 34.117 17.9911 33.1421C17.0162 32.1672 16.4679 30.8454 16.4665 29.4667V17.3334C16.4681 15.9547 17.0165 14.633 17.9914 13.6582C18.9662 12.6833 20.2879 12.135 21.6665 12.1333Z" fill="white"/>
<path d="M35.5333 50.2667C35.993 50.2667 36.4339 50.0841 36.759 49.759C37.084 49.434 37.2666 48.9931 37.2666 48.5334V46.8H26.3848C26.7 47.3232 26.8667 47.9225 26.8667 48.5334C26.8667 49.1442 26.7 49.7435 26.3848 50.2667H35.5333Z" fill="white"/>
<path d="M11.2665 50.2667H20.4151C20.0998 49.7435 19.9332 49.1442 19.9332 48.5334C19.9332 47.9225 20.0998 47.3232 20.4151 46.8H9.5332V48.5334C9.5332 48.9931 9.71582 49.434 10.0409 49.759C10.3659 50.0841 10.8068 50.2667 11.2665 50.2667Z" fill="white"/>
<path d="M35.5332 1.7334H11.2665C10.8068 1.7334 10.3659 1.91602 10.0409 2.24108C9.71582 2.56614 9.5332 3.00702 9.5332 3.46673V5.20007H37.2665V3.46673C37.2665 3.00702 37.0839 2.56614 36.7589 2.24108C36.4338 1.91602 35.9929 1.7334 35.5332 1.7334Z" fill="white"/>
</svg>
