<svg width="30" height="33" viewBox="0 0 30 33" fill="none" xmlns="http://www.w3.org/2000/svg">
<path d="M13.6065 12.6433C13.1712 12.6433 12.8204 12.7486 12.5539 12.9592C12.2963 13.161 12.1675 13.4418 12.1675 13.8016C12.1675 14.1526 12.2963 14.429 12.5539 14.6308C12.8115 14.8326 13.1623 14.9335 13.6065 14.9335C14.0506 14.9335 14.4059 14.8326 14.6723 14.6308C14.9388 14.429 15.072 14.1526 15.072 13.8016C15.072 13.4418 14.9388 13.161 14.6723 12.9592C14.4059 12.7486 14.0506 12.6433 13.6065 12.6433Z" fill="#6E85A7"/>
<path d="M13.6065 19.0402C14.1483 19.0402 14.5746 18.9217 14.8855 18.6848C15.2053 18.4391 15.3652 18.1144 15.3652 17.7108C15.3652 17.3071 15.2053 16.9868 14.8855 16.7499C14.5746 16.513 14.1483 16.3945 13.6065 16.3945C13.0735 16.3945 12.6516 16.513 12.3407 16.7499C12.0298 16.9868 11.8744 17.3071 11.8744 17.7108C11.8744 18.1232 12.0298 18.4479 12.3407 18.6848C12.6516 18.9217 13.0735 19.0402 13.6065 19.0402Z" fill="#6E85A7"/>
<path fill-rule="evenodd" clip-rule="evenodd" d="M16.9985 0.52902C15.7618 -0.17634 14.2382 -0.17634 13.0015 0.52902L1.99852 6.80469C0.761833 7.51005 0 8.81361 0 10.2243V22.7757C0 24.1864 0.761833 25.49 1.99852 26.1953L13.0015 32.471C14.2382 33.1763 15.7618 33.1763 16.9985 32.471L28.0015 26.1953C29.2382 25.49 30 24.1864 30 22.7757V10.2243C30 8.81361 29.2382 7.51005 28.0015 6.80469L16.9985 0.52902ZM16.1246 15.6048C16.5865 15.833 16.9373 16.1313 17.1771 16.4998C17.4259 16.8684 17.5502 17.294 17.5502 17.7766C17.5502 18.3469 17.3859 18.8471 17.0572 19.2771C16.7286 19.6983 16.2667 20.0273 15.6716 20.2642C15.0765 20.4924 14.3881 20.6065 13.6065 20.6065C12.8248 20.6065 12.1364 20.4924 11.5413 20.2642C10.9551 20.0273 10.4976 19.6983 10.169 19.2771C9.84924 18.8471 9.68936 18.3469 9.68936 17.7766C9.68936 17.294 9.80927 16.8684 10.0491 16.4998C10.2978 16.1313 10.6486 15.833 11.1016 15.6048C10.7552 15.3942 10.4888 15.131 10.3022 14.8151C10.1157 14.4904 10.0224 14.1219 10.0224 13.7095C10.0224 13.1742 10.1734 12.7091 10.4754 12.3143C10.7774 11.9194 11.1994 11.6167 11.7412 11.4061C12.283 11.1867 12.9048 11.077 13.6065 11.077C14.317 11.077 14.9432 11.1867 15.4851 11.4061C16.0358 11.6167 16.4621 11.9194 16.7641 12.3143C17.0661 12.7091 17.2171 13.1742 17.2171 13.7095C17.2171 14.1219 17.1239 14.4904 16.9373 14.8151C16.7508 15.131 16.4799 15.3942 16.1246 15.6048ZM8.1225 11.235V20.4485H5.9641V12.9461H4.09881V11.235H8.1225ZM22.8683 16.6446H25.1866V15.0388H22.8683V12.8013H21.1496V15.0388H18.8447V16.6446H21.1496V18.8822H22.8683V16.6446Z" fill="#6E85A7"/>
</svg>
