<svg width="24" height="24" viewBox="0 0 24 24" fill="none" xmlns="http://www.w3.org/2000/svg">
<path fill-rule="evenodd" clip-rule="evenodd" d="M3 0C1.34315 0 0 1.34315 0 3V21C0 22.6569 1.34315 24 3 24H21C22.6569 24 24 22.6569 24 21V3C24 1.34315 22.6569 0 21 0H3ZM12.5761 19.7534L17.7614 14.3942C18.0795 14.0654 18.0795 13.5322 17.7614 13.2033C17.4432 12.8744 16.9273 12.8744 16.6091 13.2033L12.8148 17.1249V4.8421C12.8148 4.37702 12.45 4 12 4C11.55 4 11.1852 4.37702 11.1852 4.84211L11.1852 17.1249L7.39091 13.2033C7.07272 12.8744 6.55683 12.8744 6.23864 13.2033C5.92045 13.5322 5.92045 14.0654 6.23864 14.3942L11.4239 19.7534C11.7421 20.0822 12.2579 20.0822 12.5761 19.7534Z" fill="#2C394B"/>
</svg>
