<svg width="136" height="21" viewBox="0 0 136 21" fill="none" xmlns="http://www.w3.org/2000/svg">
<g clip-path="url(#clip0_295_3304)">
<path d="M20.3618 10.5C20.3618 16.1334 15.8039 20.7 10.1803 20.7C4.55788 20.7 0 16.1334 0 10.5C0 4.86674 4.55788 0.300049 10.1803 0.300049C15.8039 0.300049 20.3618 4.86674 20.3618 10.5Z" fill="#A9B6C9"/>
<path d="M29.8763 14.8777C28.2738 14.8777 27.3795 13.8952 27.3795 12.1623V3.36548H23.4072V12.1395C23.4072 15.9921 25.7543 18.1936 29.8763 18.1936C33.9984 18.1936 36.3454 15.9921 36.3454 12.1395V3.36548H32.3732V12.1623C32.3732 13.8952 31.4789 14.8777 29.8763 14.8777Z" fill="#A9B6C9"/>
<path d="M43.3565 18.1937C46.8385 18.1937 49.1219 16.3334 49.1219 13.5724C49.1219 11.6029 47.9462 10.0837 44.8274 9.22861L43.7378 8.9284C42.1807 8.50084 41.6042 8.03235 41.6042 7.34552C41.6042 6.61776 42.2443 6.21295 43.3747 6.21295C44.7457 6.21295 46.2165 6.98164 47.2425 7.85951L49.2264 5.35783C47.6692 3.94325 45.5764 3.08813 43.3565 3.08813C40.0016 3.08813 37.6546 4.90753 37.6546 7.70941C37.6546 9.86994 39.0619 11.2845 41.6677 11.9668L42.5666 12.2033C44.5096 12.7173 45.1724 13.1039 45.1724 13.8726C45.1724 14.6641 44.4869 15.0689 43.3338 15.0689C41.6269 15.0689 40.215 14.4503 39.0619 13.4223L37.1416 15.8421C38.7441 17.3386 40.9868 18.1937 43.3565 18.1937Z" fill="#A9B6C9"/>
<path d="M60.4586 17.9161H64.4989L59.1784 3.36548H54.566L49.25 17.9161H53.1769L54.0984 15.2007H59.5416L60.4586 17.9161ZM55.1017 12.2441L56.8313 7.15437L58.5383 12.2441H55.1017Z" fill="#A9B6C9"/>
<path d="M72.1614 17.9161H76.1336V6.57671H80.4509V3.36548H67.8486V6.57671H72.1614V17.9161Z" fill="#A9B6C9"/>
<path d="M87.8921 18.1937C92.2456 18.1937 95.428 15.0916 95.428 10.6614C95.428 6.2357 92.2456 3.08813 87.8921 3.08813C83.5339 3.08813 80.3516 6.2357 80.3516 10.6614C80.3516 15.0916 83.5339 18.1937 87.8921 18.1937ZM87.8921 14.9006C85.8219 14.9006 84.3874 13.1858 84.3874 10.6614C84.3874 8.13696 85.8219 6.3858 87.8921 6.3858C89.9622 6.3858 91.3922 8.13696 91.3922 10.6614C91.3922 13.1858 89.9622 14.9006 87.8921 14.9006Z" fill="#A9B6C9"/>
<path d="M96.8013 17.9161H102.521C106.816 17.9161 109.871 14.9187 109.871 10.6431C109.871 6.36293 106.816 3.36548 102.521 3.36548H96.8013V17.9161ZM100.71 14.7731V6.51303H102.521C104.614 6.51303 105.899 8.15959 105.899 10.6431C105.899 13.122 104.614 14.7731 102.521 14.7731H100.71Z" fill="#A9B6C9"/>
<path d="M120.347 17.9161H124.387L119.067 3.36548H114.454L109.138 17.9161H113.065L113.987 15.2007H119.43L120.347 17.9161ZM114.99 12.2441L116.72 7.15437L118.426 12.2441H114.99Z" fill="#A9B6C9"/>
<path d="M130.857 12.6762L136 3.36548H131.52L128.85 9.14206L126.158 3.36548H121.673L126.821 12.6762V17.9161H130.857V12.6762Z" fill="#A9B6C9"/>
</g>
<defs>
<clipPath id="clip0_295_3304">
<rect width="136" height="20.4" fill="white" transform="translate(0 0.300049)"/>
</clipPath>
</defs>
</svg>
