<svg width="45" height="29" viewBox="0 0 45 29" fill="none" xmlns="http://www.w3.org/2000/svg">
<path d="M44.9649 26.5925C44.9649 27.4005 44.2974 28.103 43.4543 28.103H1.51054C0.702576 28.103 0 27.4356 0 26.5925V1.51054C0 0.667447 0.702576 0 1.51054 0H43.4895C44.2974 0 45 0.667447 45 1.51054V26.6101C45 26.6198 44.9921 26.6276 44.9824 26.6276C44.9727 26.6276 44.9649 26.6198 44.9649 26.6101V26.5925Z" fill="#6E85A7"/>
<path d="M20.6914 18.2317H18.5134L19.8835 9.83594H22.0614L20.6914 18.2317Z" fill="#EFF3FF"/>
<path d="M16.6511 9.83594L14.5785 15.6322L14.3326 14.3676L13.5948 10.5736C13.5948 10.5736 13.5246 9.83594 12.541 9.83594H9.06323V9.97645C9.06323 9.97645 10.1522 10.1872 11.3466 10.9601L13.2436 18.2668H15.5269L19.0047 9.83594H16.6511Z" fill="#EFF3FF"/>
<path d="M33.9347 18.2307H35.937L34.1806 9.7998H32.4242C31.6162 9.7998 31.4054 10.4321 31.4054 10.4321L28.1736 18.2658H30.457L30.9136 17.0012H33.7239L33.9347 18.2307ZM31.5459 15.2799L32.7052 12.1183L33.3375 15.2799H31.5459Z" fill="#EFF3FF"/>
<path d="M28.3142 11.8733L28.6304 10.0466C28.6304 10.0466 27.6468 9.69531 26.6632 9.69531C25.5742 9.69531 22.9746 10.152 22.9746 12.5056C22.9746 14.6836 26.0308 14.7187 26.0308 15.8429C26.0308 17.0021 23.2908 16.7913 22.4126 16.0536L22.0613 17.9155C22.0613 17.9155 23.0449 18.3721 24.5203 18.3721C26.0308 18.3721 28.2791 17.5993 28.2791 15.4564C28.2791 13.2785 25.1877 13.0677 25.1877 12.1192C25.2229 11.2059 27.3657 11.3112 28.3142 11.8733Z" fill="#EFF3FF"/>
<path d="M14.3326 14.3676L13.5948 10.5736C13.5948 10.5736 13.5246 9.83594 12.541 9.83594H9.06323V9.97645C9.06323 9.97645 10.7143 10.3277 12.3302 11.6275C13.8056 12.8219 14.3326 14.3676 14.3326 14.3676Z" fill="#EFF3FF"/>
</svg>
