<svg width="45" height="29" viewBox="0 0 45 29" fill="none" xmlns="http://www.w3.org/2000/svg">
<path d="M44.9649 26.7175C44.9649 27.5255 44.2974 28.228 43.4543 28.228H1.51054C0.702576 28.228 0 27.5606 0 26.7175V1.63554C0 0.792447 0.702576 0.125 1.51054 0.125H43.4895C44.2974 0.125 45 0.792447 45 1.63554V26.7351C45 26.7448 44.9921 26.7526 44.9824 26.7526C44.9727 26.7526 44.9649 26.7448 44.9649 26.7351V26.7175Z" fill="#6E85A7"/>
<path d="M14.8069 5.40039C13.4564 11.2364 13.2846 12.1556 13.1081 13.1623H13.0794C12.8504 11.7908 12.7454 11.2267 11.5286 5.40039H9.22373C8.11665 10.9738 7.9544 12.0534 7.7683 13.1623H7.73966C7.55356 11.9513 7.41994 11.2121 6.0838 5.40039H3.76465L6.70893 16.0171H8.737C9.85363 10.5458 10.0254 9.7774 10.3499 7.73479H10.3785C10.7269 9.77253 10.9178 10.8084 11.9914 16.0171H14.0816L17.0163 5.40039H14.8069Z" fill="#E8F0FF"/>
<path d="M12.8123 21.3281C12.8123 20.3846 12.5928 20.229 12.1824 20.049C12.6739 19.8788 12.9507 19.4022 12.9507 18.8429C12.9507 18.4101 12.7121 17.4131 11.3903 17.4131H8.88501V22.4661H9.90143V20.4916H10.9703C11.7386 20.4916 11.7816 20.7591 11.7816 21.4497C11.7816 21.97 11.8197 22.2327 11.8913 22.471H13.0366V22.3397C12.8123 22.2521 12.8123 22.0722 12.8123 21.3281ZM11.1135 19.6454H9.90143V18.2933H11.1898C11.7959 18.2933 11.9152 18.6873 11.9152 18.9548C11.9152 19.4508 11.6527 19.6454 11.1135 19.6454Z" fill="#E8F0FF"/>
<path d="M4.23218 17.418L4.23695 18.3128H5.73056V22.471H6.76607V18.3128H8.26445V17.418H4.23218Z" fill="#E8F0FF"/>
<path d="M34.9827 14.135V11.3823H40.06V9.50991H34.9827V7.27764H40.5085V5.40039H32.8496V16.0171H40.7567V14.135H34.9827Z" fill="#E8F0FF"/>
<path d="M31.8525 18.3128V17.418H28.3213L28.3261 22.471H29.3616V20.3457H31.5423V19.4508H29.3616V18.3128H31.8525Z" fill="#E8F0FF"/>
<path d="M30.6255 13.6194C30.6255 11.6352 30.1627 11.3093 29.3085 10.9251C30.3392 10.5701 30.9214 9.56339 30.9214 8.39619C30.9214 7.47702 30.4108 5.39551 27.6383 5.39551H22.3701V16.0122H24.5079V11.854H26.7555C28.3637 11.854 28.4496 12.4182 28.4496 13.8674C28.4496 14.9617 28.5354 15.5064 28.6834 16.0122H31.0884V15.7301C30.6255 15.5599 30.6255 15.1708 30.6255 13.6194ZM27.0561 10.0692H24.5079V7.22899H27.2184C28.4973 7.22899 28.7406 8.05576 28.7406 8.6199C28.7406 9.67039 28.1871 10.0692 27.0561 10.0692Z" fill="#E8F0FF"/>
<path d="M33.5605 21.5713V20.2679H35.9751V19.373H33.5605V18.3128H36.1946V17.418H32.5488V22.471H36.3091V21.5713H33.5605Z" fill="#E8F0FF"/>
<path d="M41.0806 21.3281C41.0806 20.3846 40.8563 20.229 40.4507 20.049C40.9422 19.8788 41.219 19.4022 41.219 18.8429C41.219 18.4101 40.9756 17.4131 39.6586 17.4131H37.1533V22.4661H38.1697V20.4916H39.2387C40.0022 20.4916 40.0499 20.7591 40.0499 21.4497C40.0499 21.97 40.0881 22.2327 40.1596 22.471H41.3049V22.3397C41.0806 22.2521 41.0806 22.0722 41.0806 21.3281ZM39.3866 19.6454H38.1697V18.2933H39.4582C40.069 18.2933 40.1835 18.6873 40.1835 18.9548C40.1883 19.4508 39.9258 19.6454 39.3866 19.6454Z" fill="#E8F0FF"/>
<path d="M26.2304 19.5923L25.0231 19.2908C24.8131 19.2422 24.4934 19.1595 24.4934 18.7655C24.4934 18.3084 24.9658 18.1576 25.3571 18.1576C26.2638 18.1576 26.3449 18.6975 26.3735 18.9163H27.3613C27.3518 18.2987 26.9462 17.2822 25.4287 17.2822C23.8206 17.2822 23.5247 18.2792 23.5247 18.8385C23.5247 19.9522 24.2978 20.1321 25.0994 20.3218L25.6291 20.4483C26.1588 20.5747 26.5262 20.6817 26.5262 21.0756C26.5262 21.6106 25.9775 21.7273 25.4907 21.7273C24.5841 21.7273 24.4457 21.1924 24.4409 20.9103H23.4531C23.4531 21.5376 23.7633 22.5979 25.5719 22.5979C26.0061 22.5979 27.5236 22.4617 27.5236 20.9443C27.5331 20.0446 26.9128 19.7625 26.2304 19.5923Z" fill="#E8F0FF"/>
<path d="M20.3371 5.39551H18.1611V16.0122H20.3371V5.39551Z" fill="#E8F0FF"/>
<path d="M16.31 17.418H15.1123L13.3467 22.471H14.4395L14.783 21.4302H16.6107L16.9304 22.471H18.0566L16.31 17.418ZM15.0646 20.5597L15.6992 18.5609H15.7088L16.3291 20.5597H15.0646Z" fill="#E8F0FF"/>
<path d="M21.7501 17.418V20.939H21.7358L19.765 17.418H18.677V22.471H19.6409V18.8672H19.6552L21.6785 22.471H22.7188V17.418H21.7501Z" fill="#E8F0FF"/>
</svg>
