<svg width="45" height="29" viewBox="0 0 45 29" fill="none" xmlns="http://www.w3.org/2000/svg">
<path d="M44.9649 26.7175C44.9649 27.5255 44.2974 28.228 43.4543 28.228H1.51054C0.702576 28.228 0 27.5606 0 26.7175V1.63554C0 0.792447 0.702576 0.125 1.51054 0.125H43.4895C44.2974 0.125 45 0.792447 45 1.63554V26.7351C45 26.7448 44.9921 26.7526 44.9824 26.7526C44.9727 26.7526 44.9649 26.7448 44.9649 26.7351V26.7175Z" fill="#6E85A7"/>
<path fill-rule="evenodd" clip-rule="evenodd" d="M20.9774 9.71384H23.1241C23.1241 9.71384 25.2496 9.67098 25.2282 11.6029C25.207 13.0414 23.1675 13.2559 23.1675 13.2559H20.9777V9.71384H20.9774ZM27.3996 16.6485C27.4599 16.9294 27.6631 17.2391 28.3412 17.2709C29.2427 17.2921 29.758 16.9485 29.758 16.9485V17.6141C29.758 17.6141 28.7705 17.8505 28.2981 17.8505C27.8044 17.8505 26.3445 17.7429 26.3445 16.3906C26.3445 15.2959 27.5468 14.9523 28.2335 14.9523C29.4358 14.9952 30.0154 15.4247 29.994 16.6482C29.994 16.6659 28.0159 16.6527 27.3996 16.6485ZM27.4024 16.1113H29.0496C29.0496 16.1113 29.0496 15.4888 28.2552 15.4888C27.6577 15.4888 27.4622 15.811 27.4024 16.1113ZM32.6131 15.4391C32.8514 15.1805 33.2516 14.9735 33.9228 14.9735C35.2539 14.9735 35.4687 16.0898 35.4472 16.3903C35.4258 16.6909 35.3184 17.8286 33.773 17.8286C33.1891 17.8286 32.8319 17.6294 32.6133 17.3821V17.7426H31.5613V13.8784H32.6133V15.4391H32.6131ZM33.5151 17.2276C34.1376 17.2059 34.4166 16.6697 34.4166 16.412C34.4166 16.1544 34.2661 15.6176 33.4718 15.6176C32.8554 15.6176 32.6677 16.0832 32.6131 16.3107V16.5908C32.6673 16.8227 32.8559 17.2276 33.5151 17.2276ZM42.5962 17.1204L42.6174 17.7217C42.6174 17.7217 42.1237 17.8288 41.8018 17.8288C41.4798 17.8288 40.6421 17.6357 40.6421 16.8197V15.5745H39.7623V15.0166H40.6421V14.3511H41.7158V15.0166H42.5962V15.5745H41.7158V16.6482C41.7158 16.6482 41.7158 17.185 42.1454 17.185C42.5745 17.185 42.5962 17.1204 42.5962 17.1204ZM39.3329 10.2934H40.5781V13.2774H41.6296V10.2934H42.8964V9.67074H39.3329V10.2934ZM38.9034 10.4437L39.0322 9.821C39.0322 9.821 38.4954 9.58502 37.551 9.58502C36.6278 9.58502 35.1467 10.1003 35.1467 11.4957C35.1467 12.8697 36.7138 13.3419 37.6799 13.3419C38.6459 13.3419 38.9679 13.1916 38.9679 13.1916L38.8607 12.5046C38.8607 12.5046 38.4312 12.6335 37.7011 12.6335C36.9927 12.612 36.2633 12.0539 36.2633 11.4314C36.2845 10.8733 36.9284 10.2506 37.7661 10.2506C38.4097 10.2506 38.9034 10.4437 38.9034 10.4437ZM29.4144 9.69241C29.4144 9.69241 31.1748 9.60668 31.1748 10.637C31.1748 11.5174 30.1661 11.5817 30.1661 11.5817C30.1661 11.5817 30.445 11.6245 30.574 11.8177C30.6812 11.9893 31.3896 13.2776 31.3896 13.2776H30.3159C30.3159 13.2776 30.1442 13.0628 30.0583 12.9128C29.994 12.7625 29.8006 12.4404 29.8006 12.4404C29.8006 12.4404 29.6506 11.9036 29.1351 11.9036C29.1221 11.9036 28.9125 11.8956 28.7486 11.8895V13.2776H27.7182V9.69241H29.4144ZM28.7488 11.3026H29.3072C29.3072 11.3026 30.0799 11.2595 30.1228 10.7873C30.1445 10.3365 29.3718 10.272 29.3718 10.272H28.7488V11.3026ZM33.0639 11.8608H34.7814V11.1952H33.0639V10.3794H34.9319V9.69241H32.0125V13.2776H34.9536V12.6335H33.0641V11.8608H33.0639ZM37.2501 14.6085H38.3021V13.8784H37.2501V14.6085ZM37.2501 17.7429H38.3021V15.0166H37.2501V17.7429ZM25.7866 13.2776H26.8169V9.69241H25.7866V13.2776ZM20.9774 14.1794H23.1241C23.1241 14.1794 25.2496 14.136 25.2282 16.0684C25.207 17.5067 23.1675 17.7217 23.1675 17.7217H20.9777V14.1794H20.9774ZM22.0295 17.0561H22.7164C22.7164 17.0561 24.1333 16.9702 24.1333 15.8753C24.1333 14.7804 22.6305 14.673 22.6305 14.673H22.0295V17.0561ZM22.0295 12.5906H22.7164C22.7164 12.5906 24.1333 12.4832 24.1333 11.4098C24.1333 10.2934 22.6305 10.2077 22.6305 10.2077H22.0295V12.5906ZM11.3382 11.848V19.0311C11.3382 19.0311 7.1732 18.2796 7.1732 15.4245C7.17343 13.1474 10.2565 12.1436 11.3382 11.848ZM11.3382 11.714C8.83496 11.5329 3.15891 12.7062 3.15891 15.274C3.15891 16.9483 6.1645 19.3959 11.0591 19.4602C11.2522 19.4602 16.8124 19.2454 16.7267 13.2774C16.6546 8.26474 12.9029 7.38676 11.7032 7.23391V6.92845C16.486 7.23203 20.2476 10.1083 20.2476 13.5993C20.2476 17.2919 16.0397 20.2972 10.866 20.2972C5.6923 20.2972 1.50586 17.2916 1.50586 13.5993C1.50586 9.90696 5.69207 6.90137 10.866 6.90137C11.0245 6.90137 11.1821 6.90419 11.3384 6.90985V11.714H11.3382Z" fill="#E8F0FF"/>
</svg>
