<svg width="202" height="17" viewBox="0 0 202 17" fill="none" xmlns="http://www.w3.org/2000/svg">
<path d="M200.923 14.6651C200.335 14.6651 199.845 15.1517 199.845 15.8085C199.845 16.4649 200.335 16.9515 200.923 16.9515C201.51 16.9515 202 16.4649 202 15.8085C202 15.1517 201.51 14.6651 200.923 14.6651ZM161.938 16.8783H166.884V16.4407L166.346 16.319C165.856 16.1973 165.635 15.9299 165.635 15.2486V8.63384H166.787C167.497 8.63384 167.864 8.80402 167.913 10.2878L168.035 13.4006C168.133 16.1973 168.941 16.9758 170.313 16.9758C171.709 16.9758 172.076 16.0271 172.076 14.6896V14.13H171.561V14.5433C171.561 15.4436 171.439 16.0758 171.096 16.0758C170.778 16.0758 170.753 15.8327 170.68 14.7138L170.533 12.5739C170.337 9.70394 169.97 8.70682 167.839 8.3174C169.872 7.78266 171.121 6.29892 171.121 4.18292C171.121 1.43467 168.941 0.121413 166.86 0.121413H158.51V0.559268L158.975 0.65646C159.856 0.851168 159.881 1.31325 159.881 3.2833V12.9627C159.881 15.1275 159.269 16.173 157.873 16.173C156.624 16.173 155.938 15.565 155.938 13.2059V1.70235C155.938 1.02134 156.158 0.826957 156.697 0.705225L157.359 0.559268V0.121413H152.241V0.559268L152.779 0.705225C153.269 0.851177 153.44 1.04588 153.44 1.72657V13.0357C153.44 15.5892 154.934 17 157.212 17C159.489 17 160.615 15.5892 160.615 12.9627V2.40759C160.615 1.09433 160.885 0.632239 161.962 0.632239C162.819 0.632239 163.187 0.924145 163.187 1.72657V15.2486C163.187 15.9299 162.967 16.173 162.477 16.2948L161.938 16.4407V16.8783ZM194.8 1.72657C194.8 1.04588 195.021 0.826957 195.51 0.729446L196.172 0.583489V0.121413H191.078V0.559268L191.617 0.705225C192.107 0.851177 192.327 1.04588 192.327 1.72657V15.3464C192.327 16.0029 192.058 16.3677 191.298 16.3677C190.417 16.3677 190.294 16.0758 189.976 14.6412L186.842 0.0729707H185.862L182.875 14.1788C182.532 15.7594 182.361 16.1246 181.699 16.319L181.283 16.4407V16.8783H184.785V16.4407L184.271 16.3432C183.536 16.1973 183.34 15.8085 183.708 13.9598L185.471 4.93689L187.405 14.4949C187.699 15.8811 187.675 16.1488 186.622 16.3432L186.107 16.4407V16.8783H199.086V11.3333H198.621C198.376 13.8869 197.862 16.2948 195.78 16.2948H194.8V1.72657ZM187.16 12.3547V11.6982H183.854L183.757 12.3547H187.16ZM173.496 2.01848V13.6437C173.496 15.3948 173.496 16.2218 172.615 16.3677L172.174 16.4407V16.8783H175.773V16.4407C174.206 16.2218 174.206 15.6867 174.206 13.7897V2.74823L173.619 2.21319L179.618 16.8783H180.646V3.35627C180.646 1.362 180.646 0.924144 181.626 0.65646L181.969 0.559268V0.121413H178.271V0.559268L178.687 0.65646C179.936 0.875388 179.936 1.36202 179.936 3.21033V11.6737L180.181 11.6007L175.627 0.121413H172.125V0.559268L172.467 0.65646C172.86 0.778192 173.08 1.21606 173.496 2.01848ZM165.635 0.705225H166.615C167.594 0.705225 168.501 1.33748 168.501 4.49936C168.501 7.73391 167.815 8.05003 166.444 8.05003H165.635V0.705225ZM149.327 8.34193C149.327 15.3703 148.739 16.3677 147.466 16.3677C146.192 16.3677 145.629 15.3703 145.629 8.39037C145.629 1.62937 146.241 0.65646 147.466 0.65646C148.739 0.65646 149.327 1.62937 149.327 8.34193ZM151.996 8.48788C151.996 3.84257 150.502 0 147.466 0C144.405 0 142.96 3.84257 142.96 8.48788C142.96 13.1574 144.454 17 147.466 17C150.576 17 151.996 13.1574 151.996 8.48788ZM141.515 1.72657C141.515 1.04588 141.687 0.826957 142.176 0.705225L142.715 0.559268V0.121413H137.646V0.559268L138.258 0.705225C138.748 0.826957 139.017 0.99712 139.017 1.70235V13.4006C139.017 15.03 138.87 16.3432 137.646 16.3432C136.862 16.3432 136.275 15.7352 136.299 15.2976C136.372 14.5433 137.646 14.5924 137.744 13.376C137.817 12.5006 137.254 12.1358 136.74 12.0631C135.981 11.9656 135.051 12.5978 135.026 13.8626C135.001 15.492 136.079 16.9758 137.915 16.9758C139.948 16.9758 141.515 15.6138 141.515 13.0111V1.72657ZM59.7257 1.72657C59.7257 1.04588 59.9461 0.826957 60.4358 0.729446L61.0971 0.583489V0.121413H56.0037V0.559268L56.5424 0.705225C57.032 0.851177 57.2525 1.04588 57.2525 1.72657V15.3464C57.2525 16.0029 56.9829 16.3677 56.2238 16.3677C55.3424 16.3677 55.1954 16.0758 54.8771 14.6412L51.7426 0.0729707H50.7633L47.7757 14.1788C47.433 15.7594 47.2613 16.1246 46.6003 16.319L46.1839 16.4407V16.8783H49.6858V16.4407L49.1715 16.3432C48.437 16.1973 48.2409 15.8085 48.6083 13.9598L50.3715 4.88815L52.306 14.4949C52.5752 15.8811 52.5752 16.1488 51.5224 16.3432L51.0081 16.4407V16.8783H64.0112V11.3333H63.5459C63.3011 13.8869 62.7868 16.2948 60.7053 16.2948H59.7257V1.72657ZM127.899 0.705225H128.439C129.957 0.705225 130.471 3.11281 130.643 5.66666H131.107V0.121413H122.219V5.66666H122.684C122.855 3.11281 123.37 0.705225 124.888 0.705225H125.427V15.2486C125.427 15.9299 125.206 16.173 124.716 16.2948L124.08 16.4407V16.8783H129.369V16.4407L128.61 16.2705C128.145 16.1488 127.899 16.0029 127.899 15.2486V0.705225ZM116.709 8.46336L117.468 8.48788C118.57 8.51212 118.888 8.92575 119.109 11.5768H119.574V4.81548H119.109C118.839 6.93148 118.545 7.8311 117.493 7.85563L116.709 7.87987V0.70524H118.399C120.284 0.70524 120.701 3.06438 120.97 5.66668H121.435V0.121428H112.987V0.559283L113.526 0.70524C114.088 0.851192 114.236 1.19185 114.236 1.75113V15.2486C114.236 15.9299 114.016 16.173 113.526 16.2948L112.987 16.4407V16.8783H121.68V11.3333H121.215C120.921 13.8627 120.602 16.2948 118.399 16.2948H116.709V8.46336ZM107.477 8.46336L108.236 8.48788C109.338 8.51212 109.656 8.92575 109.877 11.5768H110.342V4.81548H109.877C109.608 6.93148 109.314 7.8311 108.261 7.85563L107.477 7.87987V0.70524H109.167C111.052 0.70524 111.469 3.11283 111.738 5.66668H112.203V0.121428H103.51V0.559283L104.294 0.70524C104.857 0.851192 105.004 1.19185 105.004 1.75113V15.2486C105.004 15.9299 104.783 16.173 104.294 16.2948L103.755 16.4407V16.8783H112.448V11.3333H111.983C111.689 13.8627 111.37 16.2948 109.167 16.2948H107.477V8.46336ZM97.4124 0.705225H98.1472C99.1265 0.705225 100.033 1.33748 100.033 4.49936C100.033 7.68515 99.3472 8.05003 97.9758 8.05003H97.4124V0.705225ZM93.7147 16.8783H98.6615V16.4407L98.1225 16.319C97.6328 16.1973 97.4124 15.9299 97.4124 15.2486V8.63384H98.3185C99.0286 8.63384 99.396 8.92575 99.4451 10.2878L99.5673 13.4006C99.6655 16.1973 100.473 16.9758 101.845 16.9758C103.241 16.9758 103.608 16.0271 103.608 14.6896V14.13H103.094V14.5433C103.094 15.4436 102.971 16.0758 102.628 16.0758C102.31 16.0758 102.285 15.8327 102.212 14.7138L102.065 12.5739C101.869 9.63097 101.477 8.70682 99.3716 8.3174C101.404 7.78266 102.653 6.29892 102.653 4.18292C102.653 1.43467 100.473 0.121413 98.392 0.121413H93.7147V0.559268L94.2535 0.705225C94.7434 0.851177 94.9635 1.04588 94.9635 1.72657V15.2486C94.9635 15.9299 94.7434 16.173 94.2535 16.2948L93.7147 16.4407V16.8783ZM89.9683 0.705225H90.507C92.025 0.705225 92.5394 3.11281 92.7111 5.66666H93.176V0.121413H84.287V5.66666H84.7523C84.9236 3.11281 85.438 0.705225 86.9563 0.705225H87.4951V15.2486C87.4951 15.9299 87.2743 16.173 86.785 16.2948L86.1481 16.4407V16.8783H91.315V16.4407L90.6784 16.2948C90.0418 16.1488 89.9683 15.6625 89.9683 15.2486V0.705225ZM84.3114 12.5248C84.3114 7.53919 78.8018 6.22594 78.8018 2.60229C78.8018 1.82409 79.0957 0.65646 80.3199 0.65646C82.083 0.65646 82.7443 2.91842 83.0382 5.66666H83.5035V0.121413H83.2096C83.087 0.656467 82.8666 0.899931 82.5486 0.899931C81.9852 0.899931 81.6912 0.0242212 80.3446 0.0242212C78.2631 0.0242212 76.8426 1.75111 76.8426 4.01274C76.8426 8.123 82.3525 9.84959 82.3525 13.6437C82.3525 15.3703 81.5443 16.3432 80.4424 16.3432C78.8018 16.3432 77.7244 14.4222 77.4305 11.3333H76.9652V16.8783H77.2591C77.5039 16.0758 77.8222 16.0029 78.0914 16.0029C78.557 16.0029 79.0467 16.9758 80.4668 16.9758C82.6464 16.9758 84.3114 15.1032 84.3114 12.5248ZM68.272 1.72657C68.272 1.04588 68.4924 0.826957 68.982 0.729446L69.6433 0.583489V0.121413H64.5499V0.559268L65.0887 0.705225C65.5783 0.851177 65.7987 1.04588 65.7987 1.72657V15.2486C65.7987 15.9299 65.5783 16.173 65.0887 16.2948L64.5499 16.4407V16.8783H72.5575V11.3333H72.0919C71.8474 13.8869 71.333 16.2948 69.2516 16.2948H68.272V1.72657ZM52.0609 12.3547V11.6982H48.7553L48.6571 12.3547H52.0609ZM37.9071 16.927H38.9111L41.1883 4.96144H40.8456L43.3432 16.927H44.225L47.2126 2.82122C47.5309 1.33748 47.7022 0.826948 48.29 0.680681L48.7553 0.559268V0.121413H45.3024V0.559268L45.8168 0.65646C46.5513 0.802412 46.7226 1.24027 46.3799 3.03983L44.4454 12.5006H44.7393L42.7801 2.52931C42.5841 1.58062 42.4618 0.802412 43.2701 0.65646L43.8085 0.559268V0.121413H39.0825V0.559268L39.4008 0.632239C39.8907 0.753656 39.9642 1.04588 40.1599 1.97004L40.9191 5.59368L40.7721 3.40471L39.0825 12.2575H39.3029L37.3193 2.52931C37.0989 1.53218 37.0254 0.778191 37.8089 0.632239L38.1767 0.559268V0.121413H33.3524V0.559268L33.8177 0.680681C34.2582 0.802413 34.5034 1.02134 34.7973 2.35882L37.9071 16.927ZM24.8305 8.46336L25.5897 8.48788C26.6916 8.51212 27.0099 8.92575 27.2303 11.5768H27.6956V4.81548H27.2303C26.9611 6.93148 26.6672 7.8311 25.6141 7.85563L24.8305 7.87987V0.70524H26.5202C28.4056 0.70524 28.8221 3.11283 29.0913 5.66668H29.5566V0.121428H21.1085V0.559283L21.6472 0.70524C22.2104 0.851192 22.3573 1.19185 22.3573 1.75113V15.2486C22.3573 15.9299 22.1369 16.173 21.6472 16.2948L21.1085 16.4407V16.8783H29.8017V11.3333H29.3362C29.0426 13.8627 28.7243 16.2948 26.5202 16.2948H24.8305V8.46336ZM9.42769 16.8783H14.4476V16.4407L13.8845 16.319C13.4437 16.2218 13.1497 15.9299 13.1497 15.2486V8.60962H16.8474V15.2486C16.8474 15.9299 16.5538 16.2218 16.1129 16.319L15.5498 16.4407V16.8783H20.5698V16.4407L20.031 16.2948C19.5414 16.173 19.3206 15.9053 19.3206 15.2247V1.72657C19.3206 1.04588 19.5414 0.826957 20.031 0.705225L20.5698 0.559268V0.121413H15.5498V0.559268L16.1129 0.705225C16.5291 0.826957 16.8474 0.99712 16.8474 1.70235V7.95282H13.1497V1.70235C13.1497 1.02134 13.4193 0.826957 13.8845 0.705225L14.4476 0.559268V0.121413H9.42769V0.559268L9.96642 0.705225C10.4564 0.851177 10.6765 1.04588 10.6765 1.72657V15.2486C10.6765 15.9299 10.4564 16.173 9.96642 16.2948L9.42769 16.4407V16.8783ZM5.68094 0.705225H6.21999C7.73801 0.705225 8.25236 3.11281 8.4237 5.66666H8.88896V0.121413H0V5.66666H0.465256C0.6366 3.11281 1.15095 0.705225 2.66897 0.705225H3.2077V15.2486C3.2077 15.9299 2.98759 16.173 2.49763 16.2948L1.86102 16.4407V16.8783H7.1505V16.4407L6.39133 16.2705C5.92608 16.1488 5.68094 16.0029 5.68094 15.2486V0.705225Z" fill="#A9B6C9"/>
</svg>
